<?xml version="1.0" encoding="utf-8"?>
<!-- Generator: Adobe Adobe Illustrator 24.2.0, SVG Export Plug-In . SVG Version: 6.00 Build 0)  -->
<svg version="1.1" xmlns="http://www.w3.org/2000/svg" xmlns:xlink="http://www.w3.org/1999/xlink" x="0px" y="0px"
	 viewBox="0 0 170.08 170.08" style="enable-background:new 0 0 170.08 170.08;" xml:space="preserve">
<style type="text/css">
	.st0{fill:#FFFFFF;}
	.st1{fill:#FABD3D;}
	.st2{fill:none;stroke:#000000;stroke-miterlimit:10;}
	.st3{fill:#D91B4A;}
	.st4{fill:#7B8D9D;}
	.st5{fill:#F4F5E5;}
	.st6{fill:#FDD983;}
	.st7{fill:#F7BE9B;}
	.st8{fill:#1E76B9;}
	.st9{fill:#E97322;}
	.st10{opacity:0.502;fill:#DB517A;stroke:#D94F7A;stroke-width:1.1327;stroke-miterlimit:10;}
	.st11{fill:none;stroke:#000000;stroke-width:2.026;stroke-miterlimit:10;}
	.st12{fill:#2AB3CA;stroke:#000000;stroke-width:1.0884;stroke-miterlimit:10;}
	.st13{fill:#4FB669;stroke:#000000;stroke-width:1.0082;stroke-miterlimit:10;}
	.st14{fill:#5F2C80;stroke:#000000;stroke-width:1.0082;stroke-miterlimit:10;}
	.st15{fill:#D81B49;stroke:#000000;stroke-width:0.9604;stroke-miterlimit:10;}
	.st16{stroke:#000000;stroke-miterlimit:10;}
	.st17{fill:#FFFFFF;stroke:#FFFFFF;stroke-width:0.3748;stroke-miterlimit:10;}
</style>
<g id="Ebene_18">
	<path class="st0" d="M57.21,143.32c-1.28,3.67-2.56,7.33-3.84,11c-0.18,0.51-0.34,1.09-0.06,1.55c0.32,0.51,1.04,0.56,1.65,0.56
		c19.84-0.24,39.68-0.49,59.52-0.73c-2.44-7.96-4.88-15.91-7.33-23.87c-14.84,1.57-29.82,1.84-44.71,0.79
		c-0.84-0.06-1.79-0.08-2.4,0.5c-0.37,0.36-0.53,0.88-0.68,1.37c-1.51,5.09-3.02,10.18-4.53,15.27"/>
</g>
<g id="Ebene_5">
	<path class="st1" d="M44.8,109.39c5.75,9.86,11.5,19.71,17.25,29.57c0.19,0.33,0.43,0.7,0.81,0.76c0.38,0.07,0.73-0.2,1.03-0.44
		c1.22-1.01,2.43-2.03,3.65-3.04c0.38-0.31,0.77-0.66,0.89-1.13c0.16-0.63-0.22-1.25-0.58-1.79c-6.15-9.29-11.72-18.97-16.32-29.12
		C49.47,105.65,47.4,107.11,44.8,109.39z"/>
</g>
<g id="Ebene_16">
	<path class="st2" d="M42.22,104.8c2.04-1.16,4.08-2.31,6.11-3.47c0.12-0.07,0.25-0.14,0.31-0.27c0.08-0.17,0-0.37-0.08-0.54
		c-0.4-0.86-0.8-1.71-1.21-2.57c-0.41-0.87-0.87-1.8-1.73-2.23c-0.76-0.39-1.67-0.3-2.48-0.05c-1.57,0.49-3.02,1.69-3.3,3.31
		C39.51,100.87,40.81,102.62,42.22,104.8z"/>
	<g>
		<g>
			<path d="M62.93,134.26c0.58,1.25,1.33,2.41,2.2,3.49c0.15,0.19,0.48,0.29,0.71,0.29c0.25,0,0.54-0.11,0.71-0.29
				c0.17-0.19,0.3-0.44,0.29-0.71c-0.01-0.28-0.12-0.49-0.29-0.71c-0.05-0.06-0.1-0.12-0.15-0.18c-0.08-0.1,0.02,0.03,0.05,0.06
				c-0.03-0.03-0.05-0.06-0.07-0.09c-0.09-0.13-0.19-0.25-0.28-0.38c-0.19-0.26-0.37-0.53-0.54-0.81c-0.34-0.54-0.64-1.1-0.91-1.68
				c-0.1-0.21-0.38-0.4-0.6-0.46c-0.24-0.07-0.56-0.04-0.77,0.1c-0.21,0.14-0.4,0.34-0.46,0.6
				C62.76,133.77,62.81,134.01,62.93,134.26L62.93,134.26z"/>
		</g>
	</g>
</g>
<g id="Ebene_20">
	<path class="st3" d="M42.06,105.02c2.24-1.33,4.49-2.66,6.73-4c-0.49-1.93-1.17-4.07-2.94-4.96c-1.49-0.75-3.41-0.31-4.61,0.84
		c-1.03,0.98-1.59,2.43-1.49,3.85C39.85,102.17,40.61,103.53,42.06,105.02z"/>
</g>
<g id="Ebene_21">
	<path class="st4" d="M42.45,104.96c0.54,1.39,1.08,2.78,1.62,4.18c2.31-1.64,4.63-3.28,6.94-4.92c-1.13-0.3-0.92-2.42-2.07-2.64
		c-0.46-0.09-0.9,0.22-1.28,0.5C46.05,103.32,44.43,104.55,42.45,104.96z"/>
</g>
<g id="Ebene_22">
	<path class="st5" d="M69.06,135.95c-0.18,1.68-0.16,3.39,0.13,5.06c0.1,0.59,0.24,1.2,0.1,1.78s-0.65,1.13-1.25,1.07
		c-1.46-1.05-2.92-2.11-4.38-3.16C65.05,139.01,66.68,137.53,69.06,135.95z"/>
</g>
<g id="Ebene_24">
	<path class="st6" d="M75.16,37.43c0.03,5.27,0.06,10.54,0.09,15.81c0.01,1.54,0.09,3.26,1.19,4.33c1.11,1.09,2.85,1.11,4.41,1.07
		c9.97-0.28,19.93-0.56,29.9-0.85c1.55-0.04,3.3-0.18,4.3-1.36c0.84-0.99,0.88-2.41,0.88-3.71c-0.01-9.36-0.01-18.72-0.02-28.08
		c0-1.18-0.02-2.42-0.63-3.43c-1.18-1.97-3.92-2.14-6.22-2.08c-9.37,0.24-18.75,0.48-28.12,0.72c-1.97,0.05-4.23,0.25-5.39,1.84
		c-0.82,1.13-0.83,2.63-0.79,4.03C74.9,30.06,75.14,34.39,75.16,37.43z"/>
</g>
<g id="Ebene_23">
	<path class="st7" d="M55.57,82.17c-0.47-1.72-2.46-2.77-4.21-2.44c-1.75,0.33-3.15,1.82-3.66,3.53c-0.51,1.71-0.21,3.58,0.5,5.21
		c0.74,1.67,1.96,3.19,3.6,3.98c1.65,0.8,3.74,0.77,5.21-0.3c4.27,7.6,11.04,13.77,19.01,17.31c0.59,2.92,2.75,5.48,5.53,6.55
		c2.78,1.07,6.1,0.62,8.5-1.15c1.86-1.37,3.13-3.42,5.01-4.76c1.46-1.03,3.19-1.57,4.83-2.29c6.38-2.81,11.33-8.69,13-15.46
		c2.55,1.18,5.81,0.77,7.87-1.14c2.06-1.91,2.71-5.24,1.37-7.71c-1.34-2.47-4.61-3.75-7.22-2.7c-6.15-4.88-12.31-9.75-18.46-14.63
		c-6.56,3.52-13.48,6.36-20.62,8.46c0.46-2.04,0.93-4.07,1.39-6.11c-3.47,4.28-8.39,7.36-13.76,8.6c0.41-1.83,0.82-3.65,1.23-5.48
		c-2.27,3.71-5.7,6.7-9.68,8.45C55.65,80.66,55.94,81.58,55.57,82.17z"/>
	<path class="st7" d="M119.38,122.34c-3.42,0.07-6.76,1.91-8.66,4.75c-0.72,1.08-1.25,2.3-2.19,3.19c-1.58,1.5-3.92,1.75-6.06,2.17
		c-4.11,0.82-8.03,2.6-11.35,5.15c-0.84,0.65-1.67,1.38-2.12,2.34c-0.45,0.96-0.42,2.22,0.33,2.98c0.75,0.76,2.26,0.66,2.69-0.31
		c-0.25,0.89,0.17,1.93,0.98,2.4s1.92,0.3,2.56-0.37c0.17,1.66,2.2,2.61,3.82,2.21s2.83-1.73,3.79-3.09
		c2.9,0.54,6.05-0.52,8.04-2.69c2.58-0.4,5.21-0.81,7.55-1.98c2.34-1.16,4.39-3.21,4.88-5.78c0.39-2.01-0.23-4.12-1.27-5.88
		C121.33,125.67,119.89,124.18,119.38,122.34z"/>
	<path class="st7" d="M62.72,132.68c1.37-0.09,2.39-1.56,2.28-2.93c-0.11-1.37-1.12-2.55-2.33-3.2s-2.61-0.87-3.98-1
		c-2.29-0.22-4.67-0.23-6.78,0.66c-3.62,1.51-5.86,5.75-5.07,9.58c0.79,3.84,4.53,6.84,8.44,6.79c1.49-0.02,3.02-0.46,4.14-1.45
		c1.12-0.99,1.77-2.57,1.43-4.03c0.95,0.12,1.95-0.37,2.44-1.2C63.78,135.08,63.73,133.96,62.72,132.68z"/>
	<path class="st7" d="M65.05,127.13c0.99,1.62,1.99,3.23,2.98,4.85c1.11-0.64,1.61-2.15,1.11-3.33
		C68.65,127.47,67.21,126.78,65.05,127.13z"/>
	<path class="st7" d="M50.48,120.98c-2.2,1.53-4.36,3.32-5.45,5.77c-1.09,2.45-0.8,5.69,1.31,7.35c0.63-3.9,3.44-7.38,7.12-8.81
		C52.14,124.28,51.03,123.01,50.48,120.98z"/>
</g>
<g id="Ebene_19">
	<path class="st8" d="M67.33,105.52c-3.72,2.49-7.24,5.27-10.53,8.31c2.64,4.51,5.29,9.01,8.28,13.53c0.44-0.99,1.86-1.26,2.78-0.7
		c0.92,0.56,1.36,1.71,1.35,2.79c-0.01,1.08-0.4,2.12-0.81,3.12c12.68,0.63,25.41,0.39,38.06-0.72c0.04-1.47,0.09-2.94,0.13-4.41
		c0.56,0.48,1.12,0.96,1.69,1.44c2.52-4.14,6.84-7.13,11.61-8.03c-2.05-4.06-4.92-7.7-8.38-10.64c-2.59-2.2-5.84-4.1-9.21-3.63
		c-5.35,0.73-8.2,6.73-12.89,9.39c-2.09,1.18-4.59,1.68-6.94,1.19s-4.5-2-5.61-4.13c-0.78-1.51-1.11-3.36-2.46-4.39
		C72.49,107.21,69.21,107.94,67.33,105.52z"/>
</g>
<g id="Ebene_13">
	<path class="st9" d="M108.5,102.26c3.35-0.04,6.7-0.07,10.05-0.11c0.31-2.92,0.63-5.84,0.94-8.76c-2.01-0.22-4.02-0.43-6.03-0.65
		C112.83,95.5,111.8,98.17,108.5,102.26z"/>
	<path class="st9" d="M53.46,93.94c0.31,2.74,0.14,5.54-0.51,8.22c3.56,0.58,7.21,0.58,10.77-0.01c-2.7-2.95-4.97-6.29-6.69-9.9
		C56.63,93.22,55.59,93.89,53.46,93.94z"/>
	<path class="st9" d="M74.25,44.01c-7.05,1.81-13.43,6.11-17.75,11.96s-6.58,13.21-6.25,20.47c0.04,0.88,0.14,1.81,0.68,2.49
		c1.09,1.37,3.26,1.02,4.88,0.33c3.99-1.72,7.39-4.77,9.53-8.56c-0.43,1.94-0.86,3.88-1.29,5.83c5.26-1.4,10.03-4.59,13.32-8.94
		c-0.63,2.32-1.25,4.64-1.88,6.97c7.44-1.64,14.57-4.71,20.88-8.99c5.49,6.1,12.16,11.13,19.53,14.75c1.47-0.2,2.93-0.41,4.4-0.61
		c2.04-3.67,1.46-8.26,0.03-12.2s-3.66-7.58-4.89-11.59c-1.08,2.04-3.86,2.28-6.17,2.27c-9.94-0.08-19.89-0.16-29.83-0.24
		c-1.2-0.01-2.55-0.08-3.36-0.97c-0.62-0.68-0.75-1.66-0.84-2.58C74.89,51.33,74.56,48.25,74.25,44.01z"/>
</g>
<g id="Ebene_25">
	<ellipse class="st10" cx="70.99" cy="96.57" rx="4.31" ry="3.83"/>
	<ellipse class="st10" cx="99.58" cy="96.57" rx="4.31" ry="3.83"/>
</g>
<g id="Ebene_10">
</g>
<g id="Ebene_17">
</g>
<g id="Ebene_11">
</g>
<g id="Ebene_12">
</g>
<g id="Ebene_14">
</g>
<g id="Ebene_15">
	<g>
		<g>
			<path d="M57.14,81.45c-0.8-1.8-2.94-2.7-4.83-2.61c-1.5,0.07-2.95,0.61-4.11,1.56c-3.41,2.81-1.8,7.83,0.48,10.82
				c1.8,2.35,4.66,3.87,7.53,2.47c1.16-0.56,0.14-2.29-1.01-1.73c-1.85,0.9-3.71-0.4-4.85-1.83c-1.08-1.36-2.03-3.25-2.14-5.02
				c-0.07-1.22,0.28-2.25,1.09-3.03c0.34-0.32,0.71-0.57,1.23-0.82c0.1-0.05,0.06-0.03,0.23-0.09c0.13-0.04,0.25-0.09,0.38-0.13
				c0.28-0.08,0.57-0.15,0.86-0.19c-0.18,0.02,0.14-0.01,0.21-0.01c0.15-0.01,0.31-0.01,0.46-0.01c0.13,0,0.27,0.01,0.4,0.02
				c0.16,0.01-0.16-0.03-0.01,0c0.07,0.01,0.14,0.02,0.21,0.04c0.92,0.21,1.74,0.68,2.14,1.57c0.22,0.49,0.94,0.61,1.37,0.36
				C57.28,82.52,57.36,81.95,57.14,81.45L57.14,81.45z"/>
		</g>
	</g>
	<g>
		<g>
			<path d="M114.5,82.51c0.96-1.28,2.73-1.82,4.21-1.44c0.84,0.21,1.55,0.65,2.12,1.38c0.59,0.75,0.92,1.8,1.12,2.76
				c0.35,1.7,0.1,3.32-0.86,4.71c-0.05,0.08-0.11,0.16-0.17,0.24c0.12-0.15-0.08,0.09-0.08,0.1c-0.13,0.14-0.25,0.28-0.39,0.42
				c-0.13,0.13-0.28,0.26-0.42,0.38c-0.05,0.04-0.1,0.08-0.15,0.12c0.15-0.12-0.14,0.1-0.17,0.12c-0.71,0.49-1.12,0.68-1.89,0.88
				c-0.2,0.05-0.4,0.09-0.6,0.13c-0.28,0.05,0.21-0.02-0.07,0.01c-0.08,0.01-0.17,0.02-0.25,0.02c-0.19,0.01-0.39,0.02-0.58,0.01
				c-0.08,0-0.16-0.01-0.24-0.02c-0.29-0.02,0.03,0.02-0.13-0.02c-0.18-0.03-0.36-0.07-0.54-0.13c-0.07-0.02-0.15-0.05-0.22-0.07
				c-0.26-0.09,0.03,0.03-0.12-0.05c-0.16-0.08-0.31-0.17-0.47-0.27c-0.04-0.02-0.24-0.18-0.04-0.03c-0.08-0.06-0.16-0.13-0.23-0.2
				c-0.93-0.88-2.35,0.53-1.41,1.41c2.76,2.61,7.39,1.16,9.53-1.53c1.42-1.8,1.88-4.01,1.54-6.26c-0.39-2.57-1.72-4.97-4.25-5.89
				c-2.54-0.93-5.36,0.09-6.94,2.21c-0.32,0.43-0.07,1.12,0.36,1.37C113.64,83.16,114.17,82.94,114.5,82.51L114.5,82.51z"/>
		</g>
	</g>
	<g>
		<g>
			<path d="M55.56,91.51c4.62,10.43,13.78,18.22,25.18,20c9.53,1.49,20.03-1.02,27.07-7.85c3.82-3.7,6.21-8.52,6.83-13.8
				c0.15-1.28-1.85-1.27-2,0c-1.05,8.92-8.02,15.57-16.24,18.38c-9.07,3.09-19.38,1.93-27.4-3.37c-5.28-3.49-9.17-8.62-11.71-14.37
				C56.76,89.33,55.04,90.34,55.56,91.51L55.56,91.51z"/>
		</g>
	</g>
	<g>
		<g>
			<path d="M74.72,109.48c0.59,4.29,3.55,7.51,7.87,8.13c3.62,0.52,7.77-0.51,10.48-3.03c1.26-1.17,2.18-2.84,1.98-4.6
				c-0.14-1.26-2.14-1.28-2,0c0.13,1.14-0.29,2.06-1.12,2.92c-1,1.03-2.31,1.74-3.66,2.19c-2.86,0.97-6.44,1.05-8.94-0.88
				c-1.65-1.28-2.4-3.24-2.67-5.26C76.48,107.68,74.55,108.22,74.72,109.48L74.72,109.48z"/>
		</g>
	</g>
	<path class="st11" d="M74.66,53.13V23.8c0-2.81,2.28-5.08,5.08-5.08h31.08c2.81,0,5.08,2.28,5.08,5.08v29.33
		c0,2.81-2.28,5.08-5.08,5.08H79.74C76.94,58.21,74.66,55.94,74.66,53.13z"/>
	<g>
		<g>
			<path d="M94.7,19.72c0,12.37,0.29,24.74,0.29,37.1c0,1.29,2,1.29,2,0c0-12.37-0.29-24.74-0.29-37.1
				C96.7,18.44,94.7,18.43,94.7,19.72L94.7,19.72z"/>
		</g>
	</g>
	<path class="st12" d="M98.98,31.01v-2.24c0-0.69,0.56-1.25,1.25-1.25h10.74c0.69,0,1.25,0.56,1.25,1.25v2.24
		c0,0.69-0.56,1.25-1.25,1.25h-10.74C99.54,32.27,98.98,31.71,98.98,31.01z"/>
	<g>
		<g>
			<path class="st13" d="M90.73,27.52h-2.5v-2.5c0-0.69-0.56-1.25-1.25-1.25h-1.99c-0.69,0-1.25,0.56-1.25,1.25v2.5h-2.5
				c-0.69,0-1.25,0.56-1.25,1.25v1.99c0,0.69,0.56,1.25,1.25,1.25h2.5v2.5c0,0.69,0.56,1.25,1.25,1.25h1.99
				c0.69,0,1.25-0.56,1.25-1.25v-2.5h2.5c0.69,0,1.25-0.56,1.25-1.25v-1.99C91.98,28.08,91.42,27.52,90.73,27.52z"/>
		</g>
	</g>
	<g>
		<g>
			<path class="st14" d="M88.66,48.27l1.77-1.77c0.49-0.49,0.49-1.28,0-1.77l-1.41-1.41c-0.49-0.49-1.28-0.49-1.77,0l-1.77,1.77
				l-1.77-1.77c-0.49-0.49-1.28-0.49-1.77,0l-1.41,1.41c-0.49,0.49-0.49,1.28,0,1.77l1.77,1.77l-1.77,1.77
				c-0.49,0.49-0.49,1.28,0,1.77l1.41,1.41c0.49,0.49,1.28,0.49,1.77,0l1.77-1.77l1.77,1.77c0.49,0.49,1.28,0.49,1.77,0l1.41-1.41
				c0.49-0.49,0.49-1.28,0-1.77L88.66,48.27z"/>
		</g>
	</g>
	<path class="st15" d="M98.98,49.28v-1.52c0-0.68,0.55-1.24,1.24-1.24h9.77c0.68,0,1.24,0.55,1.24,1.24v1.52
		c0,0.68-0.55,1.24-1.24,1.24h-9.77C99.53,50.52,98.98,49.96,98.98,49.28z"/>
	<ellipse class="st15" cx="105.07" cy="43.67" rx="2.12" ry="1.75"/>
	<ellipse class="st15" cx="105.07" cy="53.17" rx="2.12" ry="1.75"/>
	<g>
		<g>
			<path d="M75.3,40.2c11.6,0,23.2-0.15,34.8,0.1c1.94,0.04,3.88,0.1,5.81,0.17c1.29,0.04,1.29-1.96,0-2
				c-8.52-0.29-17.04-0.27-25.56-0.27c-5.02,0-10.03,0-15.05,0C74.01,38.2,74.01,40.2,75.3,40.2L75.3,40.2z"/>
		</g>
	</g>
	<g>
		<g>
			<path d="M73.86,43.43c-3.92,0.48-7.42,2.3-10.64,4.5c-3.17,2.17-6.07,4.76-8.48,7.76c-2.55,3.17-4.56,6.6-5.26,10.65
				c-0.71,4.16-1.26,8.58,0.05,12.67c0.39,1.22,2.32,0.7,1.93-0.53c-1.22-3.8-0.7-7.98-0.01-11.84c0.67-3.74,2.57-6.94,4.96-9.85
				c2.16-2.62,4.69-4.94,7.48-6.89c2.98-2.08,6.3-4.01,9.97-4.46C75.12,45.27,75.14,43.27,73.86,43.43L73.86,43.43z"/>
		</g>
	</g>
	<g>
		<g>
			<path d="M115,57.1c4.32,6.52,5.96,14.58,4.42,22.26c-0.25,1.26,1.68,1.79,1.93,0.53c1.64-8.19,0-16.83-4.62-23.8
				C116.02,55.03,114.28,56.03,115,57.1L115,57.1z"/>
		</g>
	</g>
	<g>
		<g>
			<path d="M52.01,93.96c0.24,2.58,0.1,5.16-0.46,7.68c-0.14,0.61,0.29,1.29,0.96,1.27c3.64-0.1,7.28,0.08,10.89,0.56
				c0.54,0.07,1-0.51,1-1c0-0.6-0.46-0.93-1-1c-3.61-0.48-7.25-0.66-10.89-0.56c0.32,0.42,0.64,0.84,0.96,1.27
				c0.6-2.7,0.79-5.46,0.54-8.21c-0.05-0.54-0.42-1-1-1C52.51,92.96,51.96,93.42,52.01,93.96L52.01,93.96z"/>
		</g>
	</g>
	<g>
		<g>
			<path d="M118.19,92.47c-0.62,3.4-0.61,7.05,0.09,10.44c0.32-0.42,0.64-0.84,0.96-1.27c-3.89-0.09-7.77-0.08-11.66-0.17
				c-1.29-0.03-1.29,1.97,0,2c3.89,0.09,7.77,0.08,11.66,0.17c0.69,0.02,1.09-0.65,0.96-1.27c-0.62-3.01-0.64-6.35-0.09-9.37
				c0.1-0.53-0.15-1.08-0.7-1.23C118.94,91.64,118.29,91.94,118.19,92.47L118.19,92.47z"/>
		</g>
	</g>
	<g>
		<g>
			<path d="M86.23,91.49c-0.77-0.37-1.64-0.45-2.45-0.15c-0.79,0.3-1.5,0.86-1.85,1.64c-0.76,1.73-0.07,3.78,1.58,4.71
				c0.92,0.52,1.95,0.64,2.97,0.48c0.52-0.08,0.85-0.76,0.7-1.23c-0.18-0.56-0.67-0.78-1.23-0.7c0.29-0.04-0.04,0-0.1,0
				c-0.1,0.01-0.2,0.01-0.29,0c-0.09,0-0.21,0.01-0.29-0.02c0.14,0.02,0.16,0.02,0.05,0c-0.05-0.01-0.1-0.02-0.14-0.03
				c-0.1-0.02-0.19-0.05-0.28-0.08c-0.05-0.01-0.09-0.03-0.14-0.05c-0.1-0.04-0.09-0.03,0.04,0.02c-0.15-0.02-0.33-0.17-0.45-0.25
				c-0.04-0.03-0.08-0.05-0.12-0.08c0.11,0.08,0.12,0.09,0.03,0.02c-0.07-0.07-0.14-0.13-0.21-0.2c-0.03-0.04-0.07-0.07-0.1-0.11
				c0.08,0.11,0.09,0.12,0.03,0.03c-0.05-0.08-0.11-0.16-0.15-0.24c-0.03-0.05-0.09-0.13-0.1-0.19c0.05,0.13,0.06,0.14,0.02,0.04
				c-0.02-0.05-0.03-0.09-0.05-0.14c-0.03-0.09-0.05-0.19-0.07-0.28c-0.02-0.11-0.02-0.09,0,0.05c-0.01-0.05-0.01-0.1-0.01-0.14
				c-0.01-0.1-0.01-0.19,0-0.29c0-0.05,0.01-0.09,0.01-0.14c-0.02,0.15-0.02,0.17,0,0.06c0.02-0.08,0.04-0.16,0.06-0.24
				c0.01-0.03,0.02-0.07,0.03-0.1c0.04-0.1,0.03-0.09-0.02,0.04c0-0.06,0.1-0.19,0.13-0.24c0.02-0.04,0.05-0.07,0.07-0.11
				c-0.09,0.12-0.1,0.13-0.04,0.05c0.06-0.06,0.12-0.12,0.18-0.18c0.08-0.07,0.06-0.06-0.05,0.03c0.03-0.03,0.07-0.05,0.11-0.07
				c0.07-0.05,0.15-0.09,0.22-0.13c0.03-0.01,0.06-0.03,0.09-0.04c0.07-0.03,0.04-0.02-0.09,0.04c0,0,0.23-0.07,0.25-0.08
				c0.04-0.01,0.08-0.02,0.13-0.03c0.11-0.02,0.08-0.02-0.08,0c0.06,0.02,0.19-0.02,0.25-0.02c0.04,0,0.08,0,0.13,0
				c0.11,0.01,0.08,0-0.08-0.01c0.04,0.03,0.19,0.04,0.25,0.06c0.04,0.01,0.08,0.03,0.12,0.04c-0.14-0.06-0.16-0.07-0.06-0.02
				c0.47,0.23,1.1,0.14,1.37-0.36C86.83,92.41,86.73,91.73,86.23,91.49L86.23,91.49z"/>
		</g>
	</g>
	<g>
		<g>
			<path d="M78.17,100.37c1.85,1.88,4.3,3.16,6.92,3.55c2.4,0.36,5.28,0.13,6.95-1.86c0.82-0.98-0.59-2.4-1.41-1.41
				c-1.28,1.53-3.57,1.61-5.4,1.28c-2.15-0.39-4.11-1.41-5.64-2.97C78.68,98.04,77.27,99.45,78.17,100.37L78.17,100.37z"/>
		</g>
	</g>
	<g>
		<g>
			<path d="M55.32,80.54c4.15-2.49,8.54-5.22,10.75-9.71c-0.62-0.17-1.24-0.34-1.86-0.5c-0.12,2.11-0.54,4.16-1.24,6.15
				c-0.18,0.51,0.2,1.09,0.7,1.23c0.55,0.15,1.05-0.19,1.23-0.7c0.76-2.15,1.19-4.4,1.32-6.68c0.05-0.97-1.43-1.39-1.86-0.5
				c-2.07,4.2-6.16,6.67-10.03,8.99C53.21,79.47,54.21,81.2,55.32,80.54L55.32,80.54z"/>
		</g>
	</g>
	<g>
		<g>
			<path d="M65.16,77.59c5.15-1.98,9.67-5.22,13.13-9.52c-0.57-0.24-1.14-0.47-1.71-0.71c-0.24,2.41-0.92,4.71-2,6.88
				c-0.39,0.79,0.25,1.66,1.13,1.47c7.87-1.76,15.34-5.04,21.96-9.66c1.05-0.73,0.05-2.47-1.01-1.73
				c-6.49,4.53-13.76,7.73-21.48,9.46c0.38,0.49,0.75,0.98,1.13,1.47c1.24-2.5,1.99-5.11,2.27-7.89c0.08-0.83-1.18-1.37-1.71-0.71
				c-3.23,4.03-7.42,7.15-12.25,9.01C63.44,76.11,63.96,78.05,65.16,77.59L65.16,77.59z"/>
		</g>
	</g>
	<g>
		<g>
			<path d="M96.41,66.49c0.8,1.65,2.23,2.85,3.59,4.03c1.51,1.3,3.06,2.55,4.64,3.76c3.21,2.44,6.57,4.66,10.06,6.67
				c1.12,0.64,2.13-1.09,1.01-1.73c-3.3-1.9-6.49-3.99-9.54-6.27c-1.5-1.12-2.96-2.3-4.38-3.52c-1.35-1.16-2.86-2.31-3.65-3.94
				C97.58,64.32,95.85,65.34,96.41,66.49L96.41,66.49z"/>
		</g>
	</g>
	<g>
		<g>
			<path d="M53.49,136.65c1.51,0.67,3.07,1.16,4.71,1.42c1.52,0.24,3.43,0.55,4.86-0.14c1.35-0.65,1.81-2.32,1.36-3.69
				c-0.47-1.45-1.76-2.36-3.08-3c-1.72-0.84-3.53-1.49-5.38-1.97c-1.25-0.32-1.78,1.61-0.53,1.93c1.68,0.43,3.34,1,4.9,1.76
				c1.03,0.5,2.39,1.29,2.25,2.5c-0.05,0.46-0.33,0.72-0.89,0.81c-0.77,0.12-1.64,0.01-2.41-0.07c-1.64-0.18-3.28-0.62-4.79-1.29
				c-0.49-0.22-1.07-0.14-1.37,0.36C52.88,135.71,53,136.43,53.49,136.65L53.49,136.65z"/>
		</g>
	</g>
	<g>
		<g>
			<path d="M63.06,133.93c1.66,0.18,3.41-0.21,3.78-2.04c0.35-1.76-0.35-3.52-1.6-4.77c-3.15-3.14-8.35-3.57-12.48-2.62
				c-1.48,0.34-2.69,0.9-3.75,2.02c-1.44,1.51-2.48,3.48-3.05,5.48c-1.15,4.02,1.13,8.53,4.78,10.45c1.94,1.02,4.38,1.75,6.55,1.14
				c2.31-0.64,4.95-3.33,4.07-5.89c-0.41-1.21-2.35-0.69-1.93,0.53c0.6,1.77-1.93,3.46-3.44,3.56c-1.46,0.1-2.98-0.4-4.25-1.07
				c-2.54-1.33-4.65-4.57-4.04-7.5c0.51-2.46,2.13-5.74,4.59-6.53c2.79-0.89,6.03-0.92,8.77,0.14c1.61,0.62,3.56,1.8,3.84,3.67
				c0.05,0.35,0.1,0.97-0.11,1.29c0.08-0.12-0.12,0.09-0.25,0.12c-0.48,0.13-1,0.07-1.48,0.01
				C61.79,131.79,61.8,133.79,63.06,133.93L63.06,133.93z"/>
		</g>
	</g>
	<g>
		<g>
			<path d="M54.16,124.46c-2.84-4.89-5.69-9.78-8.53-14.68c-1.38-2.37-2.77-4.74-4.14-7.12c-0.6-1.03-1.45-2.31-0.81-3.51
				c0.4-0.74,1.2-1.33,1.87-1.78c0.52-0.35,1.19-0.86,1.81-1.01c0.81-0.2,1.22,0.83,1.61,1.5c1.42,2.42,2.83,4.85,4.24,7.28
				c2.83,4.85,5.65,9.7,8.48,14.55c3.11,5.34,6.25,10.67,9.18,16.11c0.05-0.4,0.1-0.81,0.16-1.21c-1.77,1.78-3.65,3.44-5.66,4.95
				c0.4,0.05,0.81,0.1,1.21,0.16c-0.5-0.58-1-1.16-1.5-1.74c-0.84-0.98-2.25,0.44-1.41,1.41c0.5,0.58,1,1.16,1.5,1.74
				c0.26,0.3,0.88,0.41,1.21,0.16c2.14-1.62,4.17-3.36,6.06-5.27c0.32-0.32,0.37-0.82,0.16-1.21c-5.99-11.1-12.56-21.9-18.91-32.8
				c-0.75-1.28-1.5-2.57-2.24-3.85c-0.64-1.1-1.21-2.43-2.22-3.26c-1.36-1.11-2.75-0.4-4.06,0.37c-1.53,0.91-3.33,2.25-3.67,4.12
				c-0.47,2.56,1.82,5.27,3.02,7.33c3.64,6.26,7.28,12.52,10.92,18.78C53.08,126.58,54.81,125.57,54.16,124.46L54.16,124.46z"/>
		</g>
	</g>
	<g>
		<g>
			<path d="M62.69,141.35c2.15,1.72,4.41,3.29,6.56,5.01c0.32,0.26,0.69,0.38,1.09,0.21c0.34-0.15,0.64-0.52,0.61-0.91
				c-0.24-3.48-0.67-6.89-1.26-10.33c-0.09-0.53-0.75-0.83-1.23-0.7c-0.56,0.15-0.79,0.7-0.7,1.23c0.57,3.31,0.96,6.43,1.19,9.8
				c0.57-0.24,1.14-0.47,1.71-0.71c-1.3-1.04-2.61-2.07-3.96-3.05c-0.95-0.7-1.77-1.29-2.6-1.96c-0.42-0.34-1-0.41-1.41,0
				C62.34,140.29,62.27,141.01,62.69,141.35L62.69,141.35z"/>
		</g>
	</g>
	<g>
		<g>
			<path d="M69.06,144.61c0.04-0.04,0.09-0.08,0.14-0.11c-0.07,0.05-0.13,0.1-0.2,0.16c0.15-0.12,0.32-0.22,0.5-0.29
				c-0.08,0.03-0.16,0.07-0.24,0.1c0.04-0.01,0.07-0.03,0.11-0.04c0.13-0.03,0.24-0.09,0.34-0.18c0.11-0.07,0.19-0.16,0.26-0.28
				c0.07-0.11,0.11-0.24,0.12-0.37c0.03-0.13,0.02-0.27-0.02-0.4c-0.03-0.08-0.07-0.16-0.1-0.24c-0.09-0.15-0.21-0.27-0.36-0.36
				c-0.08-0.03-0.16-0.07-0.24-0.1c-0.18-0.05-0.35-0.05-0.53,0c-0.15,0.05-0.29,0.11-0.43,0.18c-0.07,0.03-0.14,0.07-0.2,0.11
				c-0.06,0.04-0.12,0.08-0.18,0.12c-0.13,0.09-0.25,0.19-0.37,0.29c-0.1,0.09-0.17,0.2-0.21,0.32c-0.06,0.12-0.09,0.25-0.09,0.39
				c-0.01,0.14,0.02,0.27,0.09,0.39c0.04,0.12,0.11,0.23,0.21,0.32c0.07,0.05,0.13,0.1,0.2,0.16c0.16,0.09,0.32,0.14,0.5,0.14
				c0.09-0.01,0.18-0.02,0.27-0.04C68.79,144.82,68.94,144.73,69.06,144.61L69.06,144.61z"/>
		</g>
	</g>
	<g>
		<g>
			<path d="M43.24,105.57c-0.08,0.07-0.02,0.02,0.03-0.02c0.07-0.05,0.13-0.1,0.2-0.15c0.12-0.09,0.24-0.18,0.37-0.26
				c0.24-0.17,0.48-0.34,0.73-0.5c0.54-0.36,1.08-0.71,1.62-1.06c1.04-0.67,2.09-1.32,3.09-2.04c0.42-0.3,0.67-0.88,0.36-1.37
				c-0.27-0.42-0.91-0.69-1.37-0.36c-2.1,1.51-4.38,2.76-6.43,4.35c-0.42,0.32-0.36,1.08,0,1.41
				C42.27,105.97,42.8,105.91,43.24,105.57L43.24,105.57z"/>
		</g>
	</g>
	<g>
		<g>
			<path d="M45.44,109.41c1.78-1.33,3.63-2.57,5.54-3.69c0.45-0.26,0.65-0.91,0.36-1.37c-0.29-0.45-0.89-0.64-1.37-0.36
				c-1.92,1.12-3.77,2.35-5.54,3.69c-0.42,0.31-0.67,0.88-0.36,1.37C44.34,109.46,44.99,109.75,45.44,109.41L45.44,109.41z"/>
		</g>
	</g>
	<g>
		<g>
			<path d="M47.11,107.87c3.53,5.75,7.29,11.35,10.82,17.1c0.67,1.1,2.4,0.09,1.73-1.01c-3.53-5.75-7.29-11.35-10.82-17.1
				C48.17,105.77,46.44,106.77,47.11,107.87L47.11,107.87z"/>
		</g>
	</g>
	<g>
		<g>
			<path d="M49.26,119.92c-2.48,2-4.9,4.25-5.92,7.36c-0.91,2.74-0.37,6.07,1.98,7.94c0.43,0.34,1,0.41,1.41,0
				c0.35-0.35,0.42-1.08,0-1.41c-1.97-1.57-2.2-4.2-1.31-6.43c1.01-2.53,3.19-4.37,5.25-6.04c0.42-0.34,0.35-1.06,0-1.41
				C50.26,119.5,49.68,119.59,49.26,119.92L49.26,119.92z"/>
		</g>
	</g>
	<g>
		<g>
			<path d="M65,127.45c0.18,0.01,0.37,0.02,0.55,0.04c-0.01,0,0.32,0.04,0.17,0.02c0.07,0.01,0.14,0.02,0.22,0.04
				c0.2,0.04,0.39,0.08,0.58,0.14c0.09,0.03,0.17,0.06,0.26,0.08c0.03,0.01,0.07,0.03,0.1,0.04c-0.08-0.04-0.09-0.04-0.03-0.01
				c0.14,0.07,0.27,0.14,0.4,0.22c0.06,0.04,0.13,0.08,0.19,0.13c-0.14-0.1,0.02,0.02,0.05,0.04c0.06,0.05,0.11,0.1,0.16,0.16
				c0.02,0.02,0.19,0.24,0.08,0.08c0.09,0.13,0.17,0.26,0.24,0.4c-0.05-0.12,0.02,0.06,0.03,0.1c0.03,0.08,0.05,0.17,0.07,0.25
				c0.02,0.09,0.04,0.17,0.05,0.26c0.01,0.07,0.01,0.07,0,0c0,0.03,0.01,0.07,0.01,0.1c0.01,0.17,0.03,0.35,0.02,0.52
				c0,0.09-0.01,0.17-0.01,0.26c-0.01,0.07-0.01,0.07,0.01-0.01c-0.01,0.03-0.01,0.07-0.02,0.1c-0.03,0.17-0.08,0.34-0.14,0.5
				c0.07-0.19-0.04,0.06-0.05,0.08c-0.04,0.06-0.08,0.13-0.12,0.19c-0.07,0.12,0.14-0.14-0.04,0.04c-0.05,0.05-0.11,0.1-0.16,0.15
				c-0.07,0.07,0.11-0.05-0.05,0.02c-0.04,0.02-0.28,0.12-0.08,0.05c-0.49,0.18-0.87,0.69-0.7,1.23c0.16,0.48,0.7,0.89,1.23,0.7
				c0.98-0.36,1.66-1.13,1.96-2.13c0.28-0.93,0.22-2.1-0.11-3c-0.34-0.92-1.01-1.67-1.89-2.12c-0.93-0.47-1.95-0.62-2.99-0.67
				c-0.52-0.03-1.02,0.48-1,1C64.03,127.02,64.44,127.42,65,127.45L65,127.45z"/>
		</g>
	</g>
	<g>
		<g>
			<path d="M58.13,113.57c2.41-3.13,5.52-5.68,9.01-7.51c1.14-0.6,0.13-2.32-1.01-1.73c-3.81,1.99-7.11,4.82-9.73,8.23
				c-0.33,0.43-0.07,1.12,0.36,1.37C57.27,114.23,57.8,113.99,58.13,113.57L58.13,113.57z"/>
		</g>
	</g>
	<g>
		<g>
			<path d="M108.16,129.98c-0.5-3.3-1.17-6.57-1.84-9.84c-0.11-0.53-0.73-0.83-1.23-0.7c-0.55,0.15-0.81,0.7-0.7,1.23
				c0.67,3.27,1.34,6.54,1.84,9.84c0.08,0.53,0.75,0.83,1.23,0.7C108.03,131.05,108.24,130.51,108.16,129.98L108.16,129.98z"/>
		</g>
	</g>
	<g>
		<g>
			<path d="M107,128.23c0.37,0.45,0.74,0.89,1.12,1.34c0.44,0.53,1.24,0.28,1.57-0.2c2.43-3.5,6.15-5.96,10.28-6.93
				c1.25-0.29,0.72-2.22-0.53-1.93c-4.66,1.08-8.76,3.93-11.48,7.85c0.52-0.07,1.05-0.13,1.57-0.2c-0.37-0.45-0.74-0.89-1.12-1.34
				c-0.35-0.41-1.06-0.36-1.41,0C106.59,127.23,106.65,127.81,107,128.23L107,128.23z"/>
		</g>
	</g>
	<g>
		<g>
			<path d="M104.59,107.35c6.68,2.17,12.26,7.43,14.79,13.99c0.46,1.19,2.39,0.67,1.93-0.53c-2.79-7.25-8.79-12.99-16.18-15.39
				C103.89,105.02,103.37,106.95,104.59,107.35L104.59,107.35z"/>
		</g>
	</g>
	<g>
		<g>
			<path d="M118.67,123.28c2.34,3,5.26,7.57,3.45,11.52c-1.22,2.65-4.12,4.08-6.82,4.75c-1.41,0.35-2.86,0.52-4.31,0.41
				c-1.28-0.1-1.28,1.9,0,2c3.14,0.24,6.59-0.64,9.25-2.31c3.24-2.04,4.9-5.4,4.24-9.21c-0.55-3.2-2.44-6.05-4.4-8.57
				C119.29,120.85,117.89,122.27,118.67,123.28L118.67,123.28z"/>
		</g>
	</g>
	<g>
		<g>
			<path d="M110.13,140.45c-0.11,0.21-0.02-0.04,0.04-0.03c-0.02,0-0.17,0.17-0.19,0.19c-0.07,0.07-0.15,0.13-0.23,0.2
				c-0.09,0.08,0.16-0.11,0.01-0.01c-0.06,0.04-0.12,0.09-0.19,0.13c-0.54,0.37-1.12,0.69-1.71,0.96c-0.23,0.11-0.6,0.25-0.93,0.36
				c-0.41,0.13-0.82,0.25-1.24,0.33c-0.81,0.17-1.68,0.2-2.54,0.1c-0.54-0.06-1,0.5-1,1c0,0.59,0.46,0.94,1,1
				c1.97,0.23,3.94-0.26,5.72-1.06c0.64-0.29,1.27-0.63,1.84-1.05c0.41-0.3,0.91-0.65,1.14-1.11c0.24-0.48,0.13-1.08-0.36-1.37
				C111.05,139.83,110.38,139.97,110.13,140.45L110.13,140.45z"/>
		</g>
	</g>
	<g>
		<g>
			<path d="M102.19,143.42c-0.02,0.06-0.04,0.12-0.07,0.18c0.02-0.05,0.07-0.14-0.02,0.02c-0.05,0.1-0.1,0.2-0.16,0.29
				c-0.06,0.11-0.13,0.21-0.21,0.31c-0.07,0.09,0,0,0.01-0.02c-0.06,0.07-0.12,0.14-0.18,0.21c-0.15,0.16-0.31,0.3-0.47,0.44
				c-0.14,0.13-0.05,0.04-0.01,0.01c-0.05,0.04-0.1,0.07-0.15,0.11c-0.11,0.08-0.22,0.15-0.34,0.22c-0.19,0.12-0.38,0.22-0.58,0.32
				c-0.1,0.05-0.21,0.1-0.31,0.15c0.18-0.08-0.08,0.03-0.15,0.06c-0.37,0.14-0.75,0.25-1.13,0.33c-0.07,0.01-0.14,0.03-0.21,0.04
				c-0.24,0.04,0.18-0.01,0.02,0c-0.12,0-0.25,0.02-0.37,0.01c-0.1-0.01-0.34-0.08-0.47-0.16c-0.07-0.04-0.15-0.1-0.17-0.12
				c-0.05-0.05-0.19-0.33-0.16-0.26c-0.02-0.06-0.04-0.13-0.06-0.2c0.01,0.05,0,0.16,0-0.03c0-0.07,0-0.13,0-0.2
				c0,0.02-0.02,0.14,0,0.02c0.07-0.32,0.09-0.35,0.27-0.65c0.06-0.1,0.13-0.21,0.2-0.3c0.1-0.14-0.07,0.09,0.04-0.05
				c0.03-0.04,0.07-0.08,0.1-0.12c0.18-0.21,0.38-0.41,0.57-0.61c1.11-1.09,2.19-2.2,3.17-3.41c0.34-0.42,0.41-1,0-1.41
				c-0.35-0.35-1.07-0.42-1.41,0c-1.01,1.25-2.13,2.37-3.27,3.51c-1.01,1.01-2,2.38-1.58,3.88c0.38,1.39,1.8,2.24,3.21,2.09
				c1.03-0.12,2.04-0.46,2.95-0.95c1.3-0.7,2.35-1.78,2.86-3.18c0.18-0.51-0.21-1.1-0.7-1.23
				C102.86,142.57,102.38,142.91,102.19,143.42L102.19,143.42z"/>
		</g>
	</g>
	<g>
		<g>
			<path d="M95.59,143.68c-0.57,0.39-1.19,0.68-1.88,0.78c-0.19,0.03-0.55,0.09-0.71,0.02c-0.1-0.04-0.14-0.16-0.18-0.31
				c-0.02-0.07-0.03-0.14-0.05-0.22c-0.04-0.17,0.01,0.16,0.02,0.13c0-0.04-0.01-0.09-0.01-0.14c0-0.07,0-0.15,0-0.22
				c0-0.24-0.07,0.26,0.01-0.02c0.02-0.09,0.05-0.18,0.08-0.27c0.01-0.04,0.04-0.09,0.05-0.13c0,0.02-0.11,0.22-0.01,0.04
				c0.12-0.23,0.25-0.46,0.39-0.67c0.08-0.12,0.17-0.24,0.26-0.36c0.05-0.07,0.1-0.13,0.15-0.2c-0.15,0.2,0.04-0.05,0.08-0.1
				c0.28-0.35,0.58-0.69,0.88-1.03c1.01-1.13,2.08-2.21,3.15-3.28c0.91-0.91-0.5-2.33-1.41-1.41c-1.07,1.07-2.14,2.15-3.15,3.28
				c-0.62,0.7-1.25,1.42-1.75,2.21c-0.69,1.09-0.98,2.4-0.32,3.58c1.09,1.94,4,1.03,5.44,0.04c0.44-0.31,0.65-0.88,0.36-1.37
				C96.7,143.6,96.04,143.37,95.59,143.68L95.59,143.68z"/>
		</g>
	</g>
	<g>
		<g>
			<path d="M91.6,141.64c-0.32,0.33-0.99,0.34-1.42,0.3c-0.76-0.07-0.89-0.42-0.73-1.23c0.23-1.16,1.29-2.2,2.25-2.81
				c1.96-1.25,4.14-2.26,6.26-3.19c5.65-2.48,11.99-2.82,17.84-4.75c1.22-0.4,0.7-2.33-0.53-1.93c-4.09,1.35-8.31,2.08-12.51,3.01
				c-3.34,0.73-6.43,2.13-9.46,3.69c-2.43,1.26-5.33,2.77-5.85,5.76c-0.25,1.44,0.31,2.93,1.82,3.32c1.2,0.31,2.83,0.17,3.74-0.76
				C93.91,142.13,92.5,140.72,91.6,141.64L91.6,141.64z"/>
		</g>
	</g>
	<g>
		<g>
			<path d="M63.76,121.09c-0.06,1.66-0.16,3.32-0.31,4.97c-0.05,0.52,0.49,1.02,1,1c0.58-0.03,0.95-0.44,1-1
				c0.15-1.66,0.25-3.31,0.31-4.97c0.02-0.52-0.47-1.02-1-1C64.21,120.11,63.78,120.53,63.76,121.09L63.76,121.09z"/>
		</g>
	</g>
	<g>
		<g>
			<path d="M69.13,134.03c10.15,0.15,20.3-0.04,30.45-0.04c1.29,0,1.29-2,0-2c-10.15,0-20.3,0.19-30.45,0.04
				C67.84,132.01,67.84,134.01,69.13,134.03L69.13,134.03z"/>
		</g>
	</g>
	<g>
		<g>
			<path d="M55.86,143.22c-1.39,4.21-2.78,8.42-4.17,12.64c-0.22,0.65,0.35,1.23,0.96,1.27c20.99,1.32,42.03,0.43,63.02-0.32
				c0.82-0.03,1.16-0.81,0.86-1.5c-1.88-4.42-3.42-8.97-4.65-13.62c-0.33-1.24-2.26-0.72-1.93,0.53c1.27,4.82,2.9,9.52,4.85,14.1
				c0.29-0.5,0.58-1,0.86-1.5c-20.99,0.75-42.03,1.64-63.02,0.32c0.32,0.42,0.64,0.84,0.96,1.27c1.39-4.21,2.78-8.42,4.17-12.64
				C58.19,142.53,56.26,142,55.86,143.22L55.86,143.22z"/>
		</g>
	</g>
	<g>
		<g>
			<path d="M94.46,149.84c-0.03,0.11-0.06,0.22-0.09,0.33c-0.02,0.05-0.03,0.09-0.05,0.14c0.01-0.02,0.05-0.11,0-0.01
				c-0.05,0.1-0.11,0.2-0.17,0.3c-0.03,0.04-0.05,0.08-0.08,0.12c-0.1,0.14,0.15-0.15-0.06,0.07c-0.12,0.13-0.33,0.35-0.4,0.4
				c-0.07,0.06-0.36,0.23-0.53,0.32c-0.1,0.05-0.01,0.01,0.01,0c-0.06,0.03-0.12,0.05-0.19,0.07c-0.09,0.03-0.19,0.06-0.28,0.08
				c-0.05,0.01-0.1,0.02-0.14,0.03c-0.16,0.03,0.14-0.01-0.03,0c-0.12,0.01-0.25,0.02-0.37,0.01c-0.02,0-0.18-0.03-0.25-0.06
				c-0.05-0.02-0.33-0.12-0.14-0.04c-0.07-0.03-0.15-0.07-0.21-0.11c-0.09-0.05-0.25-0.2-0.09-0.05c-0.05-0.04-0.09-0.09-0.14-0.14
				c-0.13-0.1,0.11,0.16-0.01-0.02c-0.11-0.18,0.02,0.14-0.01,0c-0.01-0.04-0.08-0.26-0.04-0.1c0.05,0.16,0-0.06,0-0.11
				c0-0.06,0.01-0.13,0.01-0.19c0,0.27,0,0.05,0.02-0.04c0.02-0.09,0.05-0.19,0.08-0.28c0.01-0.03,0.1-0.25,0.05-0.13
				c-0.05,0.12,0.07-0.14,0.09-0.18c0.09-0.18,0.19-0.36,0.3-0.53c0.11-0.17,0.22-0.34,0.34-0.51c0.02-0.03,0.2-0.26,0.11-0.15
				c0.08-0.11,0.17-0.21,0.26-0.32c0.71-0.86,1.51-1.64,2.34-2.38c0.4-0.36,0.37-1.05,0-1.41c-0.4-0.4-1.01-0.36-1.41,0
				c-0.88,0.79-1.72,1.62-2.47,2.54c-0.67,0.82-1.34,1.74-1.61,2.79c-0.24,0.95-0.05,1.97,0.73,2.62c0.99,0.83,2.41,0.99,3.6,0.53
				c1.34-0.53,2.42-1.64,2.76-3.06c0.12-0.53-0.16-1.08-0.7-1.23C95.19,149,94.59,149.31,94.46,149.84L94.46,149.84z"/>
		</g>
	</g>
	<g>
		<g>
			<path d="M91.31,143.42c-0.59,0.02-1.17,0.05-1.76,0.11c-0.39,0.04-0.77,0.08-1.16,0.12c-0.27,0.02-0.51,0.1-0.71,0.29
				c-0.17,0.17-0.3,0.46-0.29,0.71c0.02,0.5,0.44,1.05,1,1c0.39-0.03,0.77-0.08,1.16-0.12c0.59-0.06,1.17-0.08,1.76-0.11
				c0.52-0.02,1.02-0.45,1-1C92.29,143.89,91.87,143.4,91.31,143.42L91.31,143.42z"/>
		</g>
	</g>
	<g>
		<g>
			<path d="M86.3,149.59c0-1.24,0-2.49,0-3.73c0-0.52-0.46-1.02-1-1c-0.54,0.02-1,0.44-1,1c0,1.24,0,2.49,0,3.73
				c0,0.52,0.46,1.02,1,1C85.84,150.57,86.3,150.15,86.3,149.59L86.3,149.59z"/>
		</g>
	</g>
	<g>
		<g>
			<path d="M86.96,146.68c-1.14-0.01-2.28-0.01-3.42-0.02c-0.52,0-1.02,0.46-1,1c0.02,0.54,0.44,1,1,1
				c1.14,0.01,2.28,0.01,3.42,0.02c0.52,0,1.02-0.46,1-1C87.94,147.13,87.52,146.68,86.96,146.68L86.96,146.68z"/>
		</g>
	</g>
	<g>
		<g>
			<path d="M81.23,148.73c-1.23,1.22-2.47,2.43-3.7,3.65c0.57,0.24,1.14,0.47,1.71,0.71c0.14-2.47,0.16-4.95,0.3-7.42
				c0.03-0.54-0.48-1-1-1c-0.57,0-0.97,0.46-1,1c-0.14,2.47-0.16,4.95-0.3,7.42c-0.05,0.89,1.12,1.29,1.71,0.71
				c1.23-1.22,2.47-2.43,3.7-3.65C83.56,149.24,82.14,147.82,81.23,148.73L81.23,148.73z"/>
		</g>
	</g>
	<g>
		<g>
			<path d="M74.94,147.51c-1.52-0.05-3.04-0.03-4.56,0.08c-0.52,0.04-1.03,0.43-1,1c0.02,0.51,0.44,1.04,1,1
				c1.52-0.1,3.04-0.13,4.56-0.08c0.52,0.02,1.02-0.47,1-1C75.91,147.96,75.5,147.53,74.94,147.51L74.94,147.51z"/>
		</g>
	</g>
	<g>
		<g>
			<path d="M75.45,145.04c-1.55-0.01-3.11-0.01-4.66-0.02c-0.52,0-1.02,0.46-1,1c0.02,0.54,0.44,1,1,1
				c1.55,0.01,3.11,0.01,4.66,0.02c0.52,0,1.02-0.46,1-1C76.43,145.5,76.02,145.05,75.45,145.04L75.45,145.04z"/>
		</g>
	</g>
	<ellipse class="st16" cx="76.31" cy="87.91" rx="1.38" ry="2.88"/>
	<ellipse class="st16" cx="76.31" cy="87.91" rx="1.38" ry="2.88"/>
	<ellipse class="st16" cx="96.05" cy="87.91" rx="1.38" ry="2.88"/>
	<ellipse class="st17" cx="96.53" cy="87" rx="0.47" ry="1.17"/>
	<ellipse class="st17" cx="76.79" cy="87" rx="0.47" ry="1.17"/>
</g>
<g id="Ebene_7">
</g>
</svg>
