<?xml version="1.0" encoding="utf-8"?>
<!-- Generator: Adobe Adobe Illustrator 24.2.0, SVG Export Plug-In . SVG Version: 6.00 Build 0)  -->
<svg version="1.1" xmlns="http://www.w3.org/2000/svg" xmlns:xlink="http://www.w3.org/1999/xlink" x="0px" y="0px"
	 viewBox="0 0 170.08 170.08" style="enable-background:new 0 0 170.08 170.08;" xml:space="preserve">
<style type="text/css">
	.st0{fill:#CCAB98;}
	.st1{fill:#C79677;}
	.st2{fill:#D9166A;}
	.st3{fill:#5F2C81;}
	.st4{fill:#EA7321;}
	.st5{fill:#F6BE9B;}
	.st6{fill:#586470;}
	.st7{fill:#FFFFFF;}
	.st8{fill:none;stroke:#000000;stroke-miterlimit:10;}
	.st9{stroke:#000000;stroke-miterlimit:10;}
	.st10{fill:#FFFFFF;stroke:#FFFFFF;stroke-width:0.3532;stroke-miterlimit:10;}
</style>
<g id="Ebene_23">
</g>
<g id="Ebene_27">
	<path class="st0" d="M11.8,125.47c-2.39,8.3-4.79,16.6-7.18,24.9c-0.55,1.92-0.97,4.33,0.57,5.61c0.91,0.76,2.2,0.8,3.39,0.8
		c49.12,0.17,98.25,0.35,147.37,0.52c0.94,0,1.94-0.02,2.7-0.57c1.09-0.81,1.2-2.37,1.2-3.72c0.06-9.41,0.12-18.82,0.17-28.22
		C111.05,125.94,62.07,126.4,11.8,125.47z"/>
</g>
<g id="Ebene_19">
	<path d="M30.7,64.31c4.74-0.52,8.9-4.47,9.66-9.18c2.48,1.55,5.78,1.67,8.37,0.31s4.35-4.16,4.47-7.08
		c1.04,2.65,3.95,4.42,6.78,4.13s5.31-2.64,5.78-5.44c-0.01,2.88,2.34,5.35,5.05,6.34c2.7,0.99,5.69,0.79,8.54,0.43
		c0.36,3.14,0.72,6.28,1.08,9.42c2.41-1.48,4.13-4.03,4.59-6.82c0.46-2.79-0.35-5.76-2.16-7.93c2.86-2.05,4.09-6.1,2.87-9.39
		c-1.23-3.3-4.8-5.55-8.31-5.24c0.58-3.25-1.26-6.77-4.26-8.15c-3-1.38-6.87-0.48-8.95,2.07c-2.77-3.1-7.13-4.69-11.25-4.1
		s-7.86,3.33-9.66,7.08c-1.64-2.93-5.42-4.46-8.64-3.49c-3.21,0.97-5.52,4.34-5.27,7.68c-4.29-2.34-10.17-1.22-13.29,2.55
		c-3.12,3.76-3.14,9.75-0.04,13.53c-2.28-0.27-4.07,2.07-4.49,4.32c-0.88,4.75,2.64,9.88,7.39,10.76c0.9-2.19,3.05-3.82,5.4-4.09
		S29.18,62.83,30.7,64.31z"/>
	<path d="M21.88,77.2c-1.24,1.96-1.4,4.55-0.4,6.64c0.99,2.09,3.11,3.61,5.41,3.88c2.3,0.27,4.71-0.71,6.17-2.51
		c0.18-0.23,0.36-0.48,0.4-0.77c0.08-0.5-0.23-0.97-0.51-1.39c-1.38-2.11-2.23-4.57-2.46-7.09C28.35,77.24,25.67,77.55,21.88,77.2z"
		/>
</g>
<g id="Ebene_20">
	<path class="st1" d="M79.58,54.63c-5.31,1.14-11.22-1.57-13.82-6.34c-3.31,3.36-9.1,3.87-12.94,1.13
		c-2.11,4.32-7.42,6.78-12.08,5.6c-1.68,2.98-3.99,5.61-6.73,7.67c-1.05,0.79-2.28,1.52-3.58,1.39c-1.51-0.15-2.66-1.4-4.06-1.98
		c-2.53-1.04-5.64,0.42-6.95,2.83c-1.31,2.41-1.05,5.44,0.11,7.92c1.01,2.16,2.79,4.08,5.11,4.66c2.31,0.58,5.1-0.56,5.86-2.82
		c1.43,3.69,3.23,7.23,5.36,10.57c0.84,1.31,1.74,2.6,2.96,3.57c1.22,0.96,2.8,1.56,4.33,1.29c0.06,4.93,4.47,9.41,9.4,9.55
		s9.58-4.08,9.92-9.01c7.41-1.55,13.95-6.81,17.06-13.71S82.21,61.66,79.58,54.63z"/>
	<path class="st1" d="M69.65,114.04c0.11,2.07,0.22,4.14,0.33,6.21c3.36,0.35,6.72,0.7,10.08,1.05c-0.54-3.06-1.09-6.13-1.63-9.19
		c-0.07-0.39-0.18-0.84-0.53-1.02c-0.3-0.16-0.66-0.07-0.98,0.02C75.13,111.61,73.35,112.11,69.65,114.04z"/>
	<path class="st1" d="M20.26,110.83c-0.52,2.14-1.05,4.3-1.09,6.5c-0.04,2.2,0.43,4.48,1.75,6.24c1.1,1.48,2.7,2.5,4.25,3.48
		c4.61,2.91,9.22,5.82,13.83,8.73c0.93,0.59,1.96,1.2,3.05,1.03s1.97-1.56,1.26-2.39c0.98,0.9,2.66,0.89,3.62-0.02
		c0.97-0.91,1.08-2.58,0.24-3.62c1.55-0.71,2.3-2.67,1.87-4.32s-1.84-2.93-3.46-3.48c-1.61-0.55-3.39-0.43-5.04,0.02
		c-1.09,0.3-2.26,0.74-3.32,0.32c-0.65-0.25-1.13-0.8-1.59-1.32c-1.59-1.81-3.19-3.62-4.78-5.44c0.27-1.23,0.54-2.45,0.81-3.68
		C28.55,111.6,25.12,111.03,20.26,110.83z"/>
	<g>
		<g>
			<path d="M113.58,71.76c-2.17,0.18-4.3,1.75-4.65,4c-0.17,1.13,0.02,2.28,0.64,3.25c0.61,0.95,1.53,1.71,2.63,2.01
				c1.53,0.41,3.03-0.11,4.42-0.74c0.72-0.32,0.94-1.42,0.54-2.05c-0.48-0.74-1.28-0.88-2.05-0.54c-0.07,0.03-0.14,0.06-0.21,0.1
				c0.18-0.07,0.19-0.08,0.03-0.01c-0.15,0.06-0.29,0.12-0.44,0.17c-0.26,0.09-0.53,0.15-0.79,0.21c-0.17,0.03-0.15,0.03,0.05,0
				c-0.08,0.01-0.15,0.01-0.23,0.02c-0.12,0-0.23,0-0.35,0c-0.17-0.02-0.15-0.01,0.05,0.01c-0.06-0.01-0.11-0.02-0.17-0.04
				c-0.11-0.03-0.23-0.1-0.33-0.11c0.21,0.09,0.26,0.11,0.16,0.06c-0.04-0.02-0.08-0.04-0.12-0.06c-0.08-0.04-0.21-0.17-0.29-0.19
				c0.19,0.15,0.22,0.17,0.1,0.07c-0.04-0.04-0.09-0.08-0.13-0.12c-0.06-0.06-0.12-0.12-0.18-0.19c-0.04-0.04-0.08-0.09-0.11-0.13
				c0.14,0.19,0.17,0.22,0.08,0.09c-0.06-0.1-0.13-0.2-0.18-0.3c-0.09-0.16-0.05-0.26,0,0.04c-0.02-0.11-0.08-0.23-0.11-0.33
				c-0.03-0.09-0.03-0.26-0.08-0.34c0.01,0.08,0.02,0.15,0.03,0.23c-0.01-0.06-0.01-0.12-0.01-0.17c-0.01-0.12,0-0.23,0-0.35
				c0.02-0.16,0.01-0.12-0.02,0.13c0.01-0.06,0.02-0.12,0.04-0.18c0.02-0.09,0.04-0.17,0.07-0.26c0.02-0.06,0.04-0.11,0.06-0.17
				c-0.1,0.22-0.11,0.26-0.04,0.11c0.09-0.16,0.27-0.36,0.33-0.53c-0.14,0.18-0.17,0.22-0.07,0.1c0.04-0.04,0.08-0.09,0.12-0.13
				c0.08-0.09,0.17-0.16,0.26-0.25c0.2-0.19-0.27,0.18-0.02,0.01c0.1-0.06,0.2-0.13,0.3-0.19c0.09-0.05,0.19-0.1,0.28-0.14
				c0.1-0.05,0.05-0.03-0.15,0.06c0.06-0.02,0.11-0.04,0.17-0.06c0.11-0.04,0.23-0.07,0.35-0.09c0.42-0.09-0.23,0.01,0.05-0.01
				c0.78-0.06,1.54-0.64,1.5-1.5C115.05,72.5,114.42,71.69,113.58,71.76L113.58,71.76z"/>
		</g>
	</g>
</g>
<g id="Ebene_21">
	<path class="st2" d="M35.18,86.75c-8.1,2.58-14.81,9.16-17.55,17.21c-0.45,1.33-0.77,2.9,0.02,4.06c0.58,0.86,1.62,1.26,2.61,1.57
		c3.79,1.2,7.78,1.78,11.76,1.71c-0.75,2.69-0.15,5.71,1.56,7.91s4.5,3.52,7.29,3.45c1.44-0.04,2.91-0.42,4.31-0.04
		c1.68,0.45,2.86,1.89,4.27,2.91c1.4,1.02,3.57,1.55,4.74,0.26c0.02-2.4,2.47-4.13,4.83-4.54c2.37-0.41,4.81,0.04,7.2-0.23
		c0.79-0.09,1.65-0.31,2.11-0.96c0.96-1.37-0.56-3.13-0.6-4.8c-0.05-1.64,1.41-2.99,2.97-3.5s3.24-0.43,4.87-0.6
		c1.63-0.17,3.37-0.68,4.33-2.01c-3.34-6.62-6.67-13.24-10.01-19.85c-2.42,0.5-4.85,1-7.27,1.51c-0.91,3.09-3.01,5.86-5.87,7.36
		c-2.85,1.5-6.44,1.63-9.29,0.12s-4.8-4.68-4.62-7.9C40.78,89.44,38.73,88.5,35.18,86.75z"/>
</g>
<g id="Ebene_22">
	<path class="st3" d="M103.21,87.75c-4.27,4.62-9.11,13.19-11.02,19.18c-0.28,0.89-0.49,1.97,0.15,2.64
		c0.44,0.45,1.12,0.54,1.74,0.6c2.71,0.27,5.42,0.54,8.13,0.81c-0.12,2.9-0.25,5.81-0.37,8.71c3.36-0.18,6.72-0.35,10.09-0.53
		c0.75-0.04,1.56-0.06,2.16,0.38c1.54,1.12,0.49,4.19,2.19,5.06c0.37,0.19,0.8,0.22,1.21,0.24c5.48,0.25,11.01-0.46,16.25-2.1
		c1.98-0.62,4.01-1.44,5.34-3.03s1.67-4.18,0.24-5.68c4.2-1.39,8.4-2.78,12.61-4.18c0.25-4.6-1.89-9.07-4.91-12.54
		s-6.87-6.1-10.7-8.66c-1.98-1.32-4.43-2.69-6.62-1.75c-1.73,0.75-2.6,2.69-3.04,4.52c-0.44,1.83-0.64,3.79-1.69,5.36
		c-1.01,1.51-2.71,2.46-4.48,2.83c-1.77,0.38-3.62,0.23-5.4-0.12c-1.93-0.37-4.05-1.17-4.79-2.98c-0.48-1.18-0.29-2.62-1.07-3.63
		C107.72,90.89,105.83,89.4,103.21,87.75z"/>
</g>
<g id="Ebene_13">
	<path class="st4" d="M90.32,58c11.76,0.58,23.65-4.9,30.84-14.22c-0.18,4.31,1.52,8.59,4.26,11.92c2.75,3.33,6.48,5.75,10.49,7.37
		c0.92,0.37,1.88,0.71,2.87,0.69c1.32-0.02,2.54-0.64,3.8-1.05c1.26-0.4,2.76-0.55,3.79,0.27c1.61-4.04,1.18-8.66-0.28-12.76
		s-3.86-7.78-6.25-11.41c3.43-1,7.29-2.38,8.64-5.69c0.68-1.66,0.57-3.55,0.13-5.29c-0.95-3.77-3.54-7.16-7.08-8.76
		c-3.54-1.59-7.99-1.2-10.99,1.27c-3,2.47-4.23,6.99-2.76,10.6c0.03,0.02,0.05,0.04,0.15-0.17c-6.35-1.59-13.13-1.4-19.38,0.54
		c-5.43,1.69-10.54,4.78-13.97,9.31S89.56,51.23,90.32,58z"/>
</g>
<g id="Ebene_5">
	<path class="st5" d="M120.47,46.5c-3.13,3.88-7.74,6.32-12.5,7.84s-9.72,2.21-14.61,3.23c-1.03,0.22-2.22,0.58-2.59,1.57
		c-0.16,0.44-0.13,0.92-0.09,1.39c0.57,6.49-0.02,14,4.15,19.01c3.94,4.74,6.93,8.17,13.11,10.24c0.84,4.63,6.37,11.08,10.96,10.07
		c4.59-1,7.8-6.2,6.63-10.76c6.44-2.9,12.94-7.12,15.36-13.76c2.33-0.39,4.5-1.64,5.99-3.46c1.27-1.55,2.07-3.59,1.74-5.58
		c-0.32-1.98-1.94-3.79-3.94-3.96c-2.5-0.22-4.6,1.96-7.09,2.32c-2.83,0.41-5.41-1.57-7.44-3.58
		C126.23,57.17,122.87,52.69,120.47,46.5z"/>
	<path class="st5" d="M94.16,110.47c-0.07,3.77-0.6,7.54-1.57,11.19c3.03-1.01,6.21-1.53,9.4-1.54c0.01-2.99,0.01-5.97,0.02-8.96
		C99.47,111.27,96.94,111.38,94.16,110.47z"/>
	<path class="st5" d="M139.98,115.09c0.26,2.39-1.11,4.72-2.97,6.25s-4.14,2.41-6.37,3.31c-2.23,0.9-4.5,1.86-6.24,3.52
		c-0.84,0.79-1.55,1.76-1.84,2.87c-0.29,1.11-0.11,2.39,0.65,3.25c-0.52,1.29,0.2,2.95,1.51,3.44s2.94-0.27,3.4-1.59
		c-0.67,1.05-1.17,2.43-0.54,3.5c0.58,1,1.96,1.3,3.07,1s2.04-1.08,2.92-1.83c4.06-3.46,8.13-6.91,12.19-10.37
		c1.7-1.44,3.44-2.95,4.39-4.96c1.45-3.09,0.75-6.72,0.02-10.06c-0.14-0.64-0.34-1.36-0.92-1.65c-0.49-0.24-1.07-0.1-1.59,0.04
		C145.29,112.47,142.93,113.12,139.98,115.09z"/>
</g>
<g id="Ebene_24">
	<path class="st6" d="M50.17,143.34c-1.05,1.08-1.6,2.63-1.47,4.14c24.63-0.97,49.27-1.82,73.91-2.56
		c-0.58-1.16-1.16-2.31-1.73-3.47c-9.89-0.3-20.11-0.56-29.3,3.1c-1.72,0.68-3.42,1.51-5.25,1.78c-2.37,0.35-4.77-0.27-7.09-0.89
		c-4.77-1.28-9.55-2.61-14.46-3.13C59.86,141.78,54.77,142.1,50.17,143.34z"/>
</g>
<g id="Ebene_25">
	<path class="st7" d="M85.77,125.84c-7.99-4.39-17.49-5.97-26.48-4.41c-0.95,0.16-1.93,0.38-2.68,0.99
		c-0.95,0.78-1.33,2.03-1.67,3.21c-1.63,5.72-3.25,11.45-4.88,17.17c6.12-1.14,12.39-1.72,18.58-1.02c6.19,0.7,12.3,2.72,17.31,6.43
		c1.71-3.27,5.8-4.34,9.42-5.07c8.55-1.72,17.32-3.45,25.94-2.16c-2.87-6.68-5.02-13.67-6.41-20.8
		C104.79,118.64,94.15,120.8,85.77,125.84z"/>
</g>
<g id="Ebene_10">
</g>
<g id="Ebene_17">
</g>
<g id="Ebene_11">
	<path class="st8" d="M92.14,138.07c-0.25-1.76,1.63-3.46,3.36-3.04c1.19,0.29,2.14,1.36,3.36,1.42c1.89,0.1,3.09-2.18,4.94-2.6
		c1.31-0.3,2.61,0.4,3.9,0.75c1.29,0.35,3.03,0.14,3.46-1.13"/>
	<path class="st8" d="M92.9,131.01c-0.12-0.96,0.3-1.98,1.06-2.58c0.76-0.6,1.84-0.78,2.76-0.44c0.75,0.28,1.34,0.85,2,1.31
		c0.65,0.46,1.46,0.83,2.23,0.62c0.77-0.22,1.26-0.94,1.83-1.51c1.44-1.43,3.73-1.94,5.64-1.24"/>
	<path class="st8" d="M56.23,137.5c0.77-1.72,1.89-3.69,3.77-3.82c1.45-0.1,2.69,0.97,3.78,1.95s2.41,1.99,3.85,1.72
		c1.56-0.29,2.61-2.02,4.19-2.17c0.8-0.08,1.57,0.28,2.29,0.64s1.46,0.75,2.26,0.77s1.68-0.49,1.78-1.29"/>
	<path class="st8" d="M60.86,128.97c0.29-0.69,0.58-1.39,1.06-1.96c0.48-0.57,1.19-1,1.94-0.95c1.09,0.07,1.85,1.04,2.58,1.85
		c1.44,1.61,3.7,2.92,5.69,2.07c0.91-0.39,1.58-1.16,2.33-1.8c0.75-0.64,1.71-1.2,2.67-1.01c0.52,0.1,0.97,0.41,1.49,0.53
		c0.51,0.12,1.17-0.03,1.33-0.53"/>
</g>
<g id="Ebene_12">
</g>
<g id="Ebene_14">
</g>
<g id="Ebene_15">
</g>
<g id="Ebene_16">
	<g>
		<g>
			<path d="M112.86,71.24c-0.58-0.1-1.15-0.12-1.71,0.06c-0.55,0.18-1,0.45-1.44,0.83c-0.79,0.67-1.24,1.72-1.26,2.75
				c-0.04,2.09,1.69,4,3.73,4.31c1.31,0.2,2.55-0.02,3.73-0.63c0.7-0.36,0.96-1.39,0.54-2.05c-0.46-0.71-1.31-0.93-2.05-0.54
				c-0.1,0.05-0.21,0.12-0.31,0.15c0.05-0.01,0.31-0.12,0.11-0.05c-0.07,0.02-0.14,0.05-0.21,0.07c-0.24,0.07-0.48,0.13-0.72,0.16
				c0.13-0.02,0.27-0.04,0.4-0.05c-0.35,0.04-0.69,0.05-1.04,0c0.13,0.02,0.27,0.04,0.4,0.05c-0.17-0.02-0.34-0.06-0.51-0.11
				c-0.08-0.02-0.18-0.04-0.25-0.08c0.07,0.05,0.31,0.14,0.09,0.04c-0.13-0.06-0.24-0.14-0.36-0.21c-0.24-0.14,0.27,0.24,0.06,0.05
				c-0.06-0.05-0.11-0.1-0.17-0.15c-0.05-0.05-0.11-0.11-0.16-0.17c-0.04-0.05-0.19-0.23-0.03-0.03c0.16,0.21,0.02,0.02-0.01-0.03
				c-0.04-0.06-0.08-0.13-0.12-0.2c-0.04-0.07-0.07-0.14-0.1-0.2c0.2,0.38,0.08,0.2,0.04,0.08c-0.05-0.14-0.08-0.29-0.1-0.44
				c0.02,0.13,0.04,0.27,0.05,0.4c-0.02-0.2-0.03-0.4-0.01-0.6c-0.02,0.13-0.04,0.27-0.05,0.4c0.01-0.11,0.03-0.21,0.06-0.32
				c0.01-0.03,0.02-0.15,0.06-0.17c-0.01,0.01-0.16,0.35-0.06,0.16c0.06-0.11,0.12-0.21,0.19-0.31c0.11-0.17-0.1,0.12-0.1,0.13
				c0.01-0.04,0.1-0.11,0.12-0.13c0.11-0.11,0.38-0.26,0-0.03c0.09-0.06,0.18-0.12,0.27-0.17c0.05-0.03,0.22-0.1-0.02,0
				c-0.25,0.1-0.04,0.02,0.02,0c0.11-0.04,0.23-0.06,0.35-0.08c-0.13,0.02-0.27,0.04-0.4,0.05c0.17-0.02,0.33-0.02,0.5,0
				c-0.13-0.02-0.27-0.04-0.4-0.05c0.02,0,0.05,0.01,0.07,0.01c0.41,0.07,0.79,0.07,1.16-0.15c0.31-0.18,0.61-0.54,0.69-0.9
				C114.07,72.36,113.69,71.38,112.86,71.24L112.86,71.24z"/>
		</g>
	</g>
</g>
<g id="Ebene_18">
	<g>
		<g>
			<path d="M32.18,63.69c-1.53-2.25-4.11-3.56-6.83-3.54c-2.84,0.03-5.37,1.58-6.86,3.96c-1.46,2.32-1.8,5.32-0.8,7.89
				c1.03,2.64,3.1,4.7,5.73,5.76c2.9,1.16,6.41,0.63,8.34-1.95c0.48-0.65,0.11-1.68-0.54-2.05c-0.76-0.45-1.57-0.11-2.05,0.54
				c-0.94,1.26-2.99,1.22-4.38,0.78c-1.77-0.56-3.23-1.94-4.06-3.58c-1.63-3.24,0.29-7.89,4.08-8.32c1.71-0.2,3.75,0.49,4.79,2.03
				c0.46,0.67,1.32,0.97,2.05,0.54C32.31,65.35,32.64,64.36,32.18,63.69L32.18,63.69z"/>
		</g>
	</g>
	<g>
		<g>
			<path d="M77.91,55.32c-0.03,5.5,0.79,11.05,0.13,16.54c-0.59,4.94-2.78,9.44-6.56,12.71c-4.02,3.47-9.42,4.69-14.55,5.38
				c-5.39,0.73-10.99,0.37-15.88-2.19c-4.75-2.49-8.31-6.87-9.26-12.2c-0.34-1.9-3.23-1.09-2.89,0.8c0.93,5.19,4.16,9.71,8.45,12.68
				c4.88,3.38,11.02,4.59,16.87,4.19c5.74-0.39,12.06-1.5,16.95-4.7c4.44-2.91,7.73-7.41,9.11-12.54
				c1.81-6.75,0.58-13.79,0.62-20.66C80.92,53.38,77.92,53.38,77.91,55.32L77.91,55.32z"/>
		</g>
	</g>
	<g>
		<g>
			<path d="M60.48,73.54c0.14-0.05,0.29-0.1,0.43-0.13c0.07-0.02,0.14-0.03,0.21-0.05c0.16-0.03,0.23,0.04-0.11,0.01
				c0.11,0.01,0.24-0.02,0.35-0.02c0.06,0,0.13,0,0.19,0.01c0.16,0.01,0.28,0.09-0.11-0.02c0.11,0.03,0.23,0.05,0.35,0.08
				c0.04,0.01,0.09,0.03,0.13,0.04c0.25,0.08-0.3-0.15-0.14-0.06c0.09,0.05,0.18,0.09,0.27,0.14c0.06,0.03,0.11,0.07,0.17,0.11
				c0.21,0.13-0.29-0.25-0.09-0.07c0.15,0.13,0.28,0.27,0.41,0.42c-0.34-0.37-0.09-0.11-0.01,0.02c0.06,0.1,0.11,0.21,0.17,0.31
				c0.09,0.16-0.15-0.39-0.06-0.15c0.01,0.04,0.03,0.08,0.04,0.12c0.03,0.1,0.06,0.2,0.08,0.31c0.01,0.04,0.02,0.08,0.02,0.13
				c0.05,0.26-0.03-0.41-0.02-0.15c0,0.11,0.01,0.21,0.01,0.32c0,0.12-0.02,0.23-0.03,0.35c0.05-0.53,0.01-0.11-0.02,0.02
				c-0.02,0.1-0.05,0.19-0.08,0.29c-0.02,0.05-0.04,0.1-0.05,0.15c-0.08,0.24,0.17-0.35,0.05-0.13c-0.05,0.09-0.09,0.18-0.14,0.26
				c-0.04,0.07-0.23,0.33-0.05,0.09c0.19-0.24-0.01,0.01-0.06,0.06c-0.08,0.08-0.16,0.15-0.24,0.23c-0.15,0.14,0.36-0.26,0.06-0.06
				c-0.07,0.04-0.14,0.09-0.21,0.13c-0.08,0.04-0.17,0.07-0.24,0.12c0.44-0.25,0.2-0.08,0.03-0.03c-0.17,0.05-0.34,0.09-0.51,0.12
				c-0.33,0.07,0.42-0.03,0.07-0.01c-0.09,0.01-0.19,0.01-0.28,0.02c-0.2,0.01-0.41,0-0.61-0.02c-0.05,0-0.12,0-0.17-0.02
				c0.05,0.02,0.45,0.07,0.18,0.02c-0.09-0.02-0.18-0.03-0.27-0.05c-0.2-0.05-0.4-0.1-0.59-0.17c-0.04-0.01-0.08-0.03-0.12-0.05
				c-0.21-0.08,0.38,0.17,0.17,0.07c-0.09-0.04-0.18-0.08-0.27-0.13c-0.69-0.36-1.66-0.2-2.05,0.54c-0.37,0.69-0.2,1.66,0.54,2.05
				c1.79,0.94,4.3,1.13,6.01-0.11c0.53-0.39,0.99-0.85,1.3-1.44c0.34-0.65,0.5-1.31,0.58-2.03c0.14-1.3-0.41-2.69-1.35-3.59
				c-1.26-1.21-3.09-1.51-4.72-0.94c-0.74,0.26-1.31,1.04-1.05,1.85C58.87,73.22,59.69,73.81,60.48,73.54L60.48,73.54z"/>
		</g>
	</g>
	<g>
		<g>
			<path d="M50.19,80.92c1.5,2.89,4.25,4.84,7.48,5.27c3.62,0.48,7.04-0.94,9.86-3.13c0.64-0.5,0.52-1.6,0-2.12
				c-0.63-0.63-1.48-0.5-2.12,0c-2.05,1.59-4.75,2.63-7.34,2.3c-2.32-0.3-4.19-1.72-5.29-3.84C51.89,77.69,49.3,79.21,50.19,80.92
				L50.19,80.92z"/>
		</g>
	</g>
	<g>
		<g>
			<path d="M29.15,64.82c3.24,0.88,6.63-0.54,9.16-2.54c2.25-1.77,3.9-4.26,4.71-7c0.55-1.85-2.34-2.65-2.89-0.8
				c-0.63,2.14-1.9,4-3.66,5.45c-1.67,1.38-4.22,2.61-6.52,1.99C28.08,61.42,27.29,64.31,29.15,64.82L29.15,64.82z"/>
		</g>
	</g>
	<g>
		<g>
			<path d="M41.4,56.91c2.94,1.3,6.4,1.04,9.08-0.77c2.53-1.71,4.22-4.48,4.78-7.47c0.15-0.8-0.22-1.62-1.05-1.85
				c-0.73-0.2-1.7,0.25-1.85,1.05c-0.4,2.18-1.46,4.3-3.25,5.57c-1.8,1.29-4.23,1.74-6.2,0.87c-0.74-0.33-1.61-0.22-2.05,0.54
				C40.49,55.49,40.65,56.58,41.4,56.91L41.4,56.91z"/>
		</g>
	</g>
	<g>
		<g>
			<path d="M53.22,50.07c1.25,2.58,4.35,3.93,7.12,3.6c3.19-0.38,5.71-2.48,7.52-5.03c0.47-0.66,0.12-1.67-0.54-2.05
				c-0.75-0.44-1.58-0.12-2.05,0.54c-1.21,1.71-3.06,3.26-5.04,3.56c-1.74,0.26-3.62-0.5-4.41-2.13c-0.35-0.73-1.39-0.92-2.05-0.54
				C53.02,48.45,52.87,49.33,53.22,50.07L53.22,50.07z"/>
		</g>
	</g>
	<g>
		<g>
			<path d="M64.76,49.35c0.9,2.54,2.95,4.27,5.42,5.23c2.78,1.08,5.88,0.87,8.78,0.65c0.81-0.06,1.5-0.65,1.5-1.5
				c0-0.76-0.69-1.56-1.5-1.5c-2.47,0.19-5.06,0.42-7.46-0.36c-1.64-0.53-3.28-1.7-3.85-3.32c-0.27-0.76-1.02-1.27-1.85-1.05
				C65.07,47.7,64.49,48.58,64.76,49.35L64.76,49.35z"/>
		</g>
	</g>
	<g>
		<g>
			<path d="M81.35,64.85c2.83-2.03,4.92-5.03,5.62-8.47c0.75-3.68-0.1-7.99-4-9.42c-0.76-0.28-1.64,0.31-1.85,1.05
				c-0.23,0.84,0.28,1.56,1.05,1.85c2.45,0.9,2.28,4.38,1.75,6.41c-0.63,2.38-2.07,4.56-4.08,6.01c-0.66,0.47-0.97,1.31-0.54,2.05
				C79.68,64.96,80.69,65.32,81.35,64.85L81.35,64.85z"/>
		</g>
	</g>
	<g>
		<g>
			<path d="M85.09,49.36c2.54-3.89,3.8-9.08,1.18-13.27c-1.2-1.92-3.12-3.4-5.39-3.74c-2.48-0.36-4.83,0.84-5.71,3.22
				c-0.28,0.76,0.31,1.64,1.05,1.85c0.84,0.23,1.56-0.28,1.85-1.05c0.48-1.31,2.26-1.25,3.31-0.81c1.3,0.54,2.27,1.71,2.82,2.99
				c1.35,3.14,0.07,6.6-1.69,9.29C81.44,49.47,84.03,50.98,85.09,49.36L85.09,49.36z"/>
		</g>
	</g>
	<g>
		<g>
			<path d="M78.2,35.22c1.19-4.23-0.8-8.99-4.83-10.88c-1.96-0.92-4.32-1.3-6.43-0.63c-2.33,0.74-3.78,2.8-3.9,5.2
				c-0.04,0.81,0.72,1.5,1.5,1.5c0.85,0,1.46-0.69,1.5-1.5c0.06-1.26,0.91-2.21,2.3-2.46c1.38-0.25,2.81,0.06,4.02,0.74
				c2.59,1.45,3.72,4.49,2.95,7.23C74.78,36.29,77.68,37.08,78.2,35.22L78.2,35.22z"/>
		</g>
	</g>
	<g>
		<g>
			<path d="M64.86,26.38c-2.98-4.4-8.49-4.94-13.35-4.28c-2.38,0.32-4.78,1.03-6.57,2.71c-1.76,1.64-2.61,4-2.14,6.37
				c0.38,1.89,3.27,1.09,2.89-0.8c-0.29-1.45,0.61-2.91,1.74-3.76c1.43-1.08,3.33-1.45,5.07-1.63c3.38-0.35,7.65-0.22,9.77,2.92
				C63.35,29.49,65.95,27.99,64.86,26.38L64.86,26.38z"/>
		</g>
	</g>
	<g>
		<g>
			<path d="M44.16,29.29c-0.61-2.49-3-3.71-5.37-3.96c-2.33-0.24-5,0.07-7.03,1.31c-3.54,2.14-4.68,6.76-3.61,10.58
				c0.52,1.86,3.41,1.07,2.89-0.8c-0.67-2.39-0.18-5.49,1.92-6.99c1.38-0.98,3.12-1.18,4.77-1.16c1.35,0.01,3.17,0.28,3.55,1.81
				C41.72,31.97,44.62,31.17,44.16,29.29L44.16,29.29z"/>
		</g>
	</g>
	<g>
		<g>
			<path d="M28.02,32.97c-5.53-1.82-11.75,0.55-14.59,5.63c-1.4,2.5-1.95,5.5-1.31,8.31c0.64,2.79,2.7,5.22,5.53,5.92
				c1.87,0.46,2.67-2.43,0.8-2.89c-4.53-1.12-4.12-7.12-2.17-10.26c2.3-3.7,6.86-5.16,10.94-3.81
				C29.06,36.46,29.85,33.57,28.02,32.97L28.02,32.97z"/>
		</g>
	</g>
	<g>
		<g>
			<path d="M15.16,49.62c-2.01,0.59-3.28,2.22-3.98,4.13c-0.7,1.92-1.02,4.17-0.88,6.2c0.24,3.69,2.41,7.52,6.29,8.3
				c0.79,0.16,1.62-0.23,1.85-1.05c0.2-0.74-0.25-1.69-1.05-1.85c-2.54-0.51-3.92-2.97-4.09-5.4c-0.1-1.51,0.1-3.02,0.49-4.48
				c0.32-1.2,0.86-2.58,2.17-2.96C17.81,51.96,17.02,49.07,15.16,49.62L15.16,49.62z"/>
		</g>
	</g>
	<g>
		<g>
			<path d="M19.85,76.99c-2.51,3.68-0.47,8.86,3.34,10.68c3.91,1.87,9.79,1.22,12.24-2.71c1.02-1.64-1.57-3.15-2.59-1.51
				c-0.79,1.28-2.32,1.84-3.74,2.11c-1.44,0.27-3.06,0.14-4.4-0.48c-1.29-0.6-2.27-1.62-2.68-2.86c-0.45-1.35-0.38-2.56,0.42-3.72
				c0.46-0.67,0.13-1.66-0.54-2.05C21.16,76.02,20.31,76.32,19.85,76.99L19.85,76.99z"/>
		</g>
	</g>
	<g>
		<g>
			<path d="M41.24,90.98c0.15,2.57,1.23,5.01,3.1,6.8c2.07,1.99,4.79,2.81,7.62,2.79c5.6-0.02,11.81-2.88,12.29-9.12
				c0.15-1.93-2.85-1.92-3,0c-0.35,4.49-5.51,6.11-9.29,6.12c-1.98,0.01-3.91-0.44-5.4-1.82c-1.34-1.24-2.22-2.94-2.32-4.78
				C44.13,89.06,41.13,89.04,41.24,90.98L41.24,90.98z"/>
		</g>
	</g>
	<g>
		<g>
			<path d="M33.58,84.89c-6.63,3.72-12.53,9.21-15.82,16.15c-0.81,1.7-1.54,3.51-1.96,5.35c-0.48,2.12,0.53,3.54,2.47,4.43
				c1.89,0.87,4,0.91,6.02,1.31c2.3,0.45,4.54,1.16,6.68,2.12c1.75,0.79,3.27-1.8,1.51-2.59c-1.81-0.82-3.66-1.51-5.59-2.01
				c-1.84-0.48-3.71-0.65-5.57-1.01c-0.74-0.14-1.83-0.32-2.39-0.85c-0.37-0.35-0.28-0.41-0.14-0.96c0.09-0.37,0.21-0.73,0.32-1.1
				c0.49-1.57,1.14-3.07,1.92-4.52c3.18-5.88,8.27-10.47,14.06-13.72C36.78,86.53,35.27,83.94,33.58,84.89L33.58,84.89z"/>
		</g>
	</g>
	<g>
		<g>
			<path d="M33.67,113.16c1.04-3.25,2.03-6.5,2.99-9.77c0.22-0.75-0.27-1.67-1.05-1.85c-0.8-0.18-1.61,0.24-1.85,1.05
				c-0.96,3.27-1.96,6.53-2.99,9.77c-0.24,0.75,0.28,1.67,1.05,1.85C32.64,114.39,33.41,113.96,33.67,113.16L33.67,113.16z"/>
		</g>
	</g>
	<g>
		<g>
			<path d="M68.02,90.2c4.58,6.04,8.2,12.74,10.66,19.92c0.35-0.62,0.7-1.23,1.05-1.85c-3.53,1.08-7.04,2.25-10.51,3.51
				c-1.8,0.65-1.02,3.55,0.8,2.89c3.47-1.26,6.98-2.43,10.51-3.51c0.74-0.23,1.32-1.06,1.05-1.85c-2.54-7.42-6.22-14.39-10.96-20.63
				C69.46,87.17,66.86,88.66,68.02,90.2L68.02,90.2z"/>
		</g>
	</g>
	<g>
		<g>
			<path d="M66.54,103.83c0.43,4.81,0.86,9.63,1.29,14.44c0.07,0.81,0.64,1.5,1.5,1.5c0.76,0,1.57-0.69,1.5-1.5
				c-0.43-4.81-0.86-9.63-1.29-14.44c-0.07-0.81-0.64-1.5-1.5-1.5C67.28,102.33,66.47,103.02,66.54,103.83L66.54,103.83z"/>
		</g>
	</g>
	<g>
		<g>
			<path d="M30.61,113.41c-0.97,0.88-1.28,2.24-1,3.5c0.3,1.31,1.24,2.31,2.24,3.16c1.13,0.96,2.29,1.9,3.44,2.85
				c1.1,0.91,2.17,2.05,3.71,1.94c1.36-0.09,2.65-0.52,4.03-0.52c1.15,0.01,2.34,0.25,3.28,0.96c0.83,0.63,1.49,1.62,1.68,2.66
				c0.11,0.62,0.09,1.59-0.65,1.71c-0.8,0.13-1.25,1.12-1.05,1.85c0.23,0.85,1.04,1.18,1.85,1.05c2.66-0.44,3.3-3.74,2.6-5.91
				c-0.81-2.52-2.91-4.48-5.51-5.06c-1.4-0.31-2.83-0.28-4.24-0.08c-0.61,0.08-1.45,0.43-2.05,0.36c-0.57-0.06-1.08-0.7-1.53-1.07
				c-1.22-1.01-2.46-2-3.66-3.04c-0.51-0.44-1.8-1.52-1.02-2.23C34.17,114.24,32.04,112.12,30.61,113.41L30.61,113.41z"/>
		</g>
	</g>
	<g>
		<g>
			<path d="M42.83,128.63c0.77,0.74,1.52,1.5,2.23,2.29c0.19,0.2,0.37,0.41,0.55,0.62c0.08,0.09,0.16,0.19,0.24,0.28
				c0.07,0.09,0.05,0.05-0.07-0.09c0.04,0.06,0.09,0.11,0.13,0.17c0.06,0.09,0.12,0.18,0.17,0.27c0.04,0.06,0.07,0.12,0.1,0.18
				c0.07,0.15,0.06,0.12-0.02-0.08c0.05,0.02,0.08,0.25,0.09,0.29c0.1,0.29-0.06-0.34-0.01,0.05c0,0.12,0.01,0.07,0.03-0.15
				c-0.01,0.06-0.03,0.13-0.04,0.19c-0.04,0.12-0.04,0.12,0.01,0c0.05-0.12,0.05-0.12-0.01,0c-0.03,0.06-0.06,0.11-0.1,0.17
				c-0.07,0.11-0.08,0.11,0,0.01c0.07-0.09,0.07-0.1,0-0.02c-0.04,0.04-0.08,0.08-0.12,0.11c-0.19,0.2,0.28-0.17,0.05-0.04
				c-0.07,0.04-0.22,0.1-0.28,0.16c0.08-0.09,0.33-0.12,0.06-0.03c-0.09,0.03-0.18,0.05-0.27,0.07c-0.34,0.09,0.32-0.01,0.04,0
				c-0.08,0-0.16,0.01-0.24,0c-0.05,0-0.11,0-0.16-0.01c-0.16-0.02-0.11-0.01,0.16,0.02c-0.07-0.03-0.16-0.03-0.24-0.05
				c-0.07-0.02-0.15-0.07-0.23-0.08c0.23,0.1,0.28,0.12,0.14,0.05c-0.05-0.02-0.09-0.05-0.14-0.08c-0.17-0.1-0.13-0.18,0.04,0.05
				c-0.06-0.08-0.16-0.15-0.23-0.22c-0.54-0.58-1.59-0.58-2.12,0c-0.57,0.62-0.57,1.51,0,2.12c1.43,1.54,3.93,1.53,5.48,0.21
				c0.95-0.81,1.32-2.09,1.08-3.29c-0.23-1.1-1.05-1.99-1.77-2.79c-0.78-0.87-1.59-1.7-2.43-2.51c-0.57-0.54-1.57-0.61-2.12,0
				C42.29,127.1,42.22,128.05,42.83,128.63L42.83,128.63z"/>
		</g>
	</g>
	<g>
		<g>
			<path d="M39.52,131.65c0.6,0.57,1.18,1.17,1.69,1.82c0.29,0.36,1.41,1.59,1.36,2.05c0.04-0.38-0.26-0.02-0.57,0.03
				c-0.38,0.06-0.78-0.04-1.14-0.13c-0.82-0.2-1.56-0.61-2.3-1.01c-3.28-1.76-6.46-3.74-9.51-5.88c-1.51-1.06-3-2.17-4.44-3.33
				c-1.32-1.05-2.98-2.14-3.88-3.6c-0.92-1.49-0.83-3.53-0.77-5.22c0.07-1.95,0.4-3.86,0.92-5.74c0.52-1.86-2.38-2.66-2.89-0.8
				c-0.65,2.35-1.03,4.79-1.05,7.23c-0.02,2.27,0.16,4.67,1.55,6.56c1.36,1.86,3.44,3.27,5.25,4.67c1.91,1.48,3.86,2.89,5.87,4.22
				c2.03,1.35,4.11,2.62,6.23,3.8c1.87,1.04,3.93,2.31,6.16,2.21c2-0.09,4.09-1.63,3.46-3.83c-0.56-1.95-2.4-3.83-3.83-5.19
				C40.24,128.2,38.11,130.32,39.52,131.65L39.52,131.65z"/>
		</g>
	</g>
	<g>
		<g>
			<path d="M76.48,112.66c0.78,3,1.56,6,2.34,9c0.2,0.76,1.08,1.29,1.85,1.05c0.78-0.25,1.26-1.03,1.05-1.85c-0.78-3-1.56-6-2.34-9
				c-0.2-0.76-1.08-1.29-1.85-1.05C76.75,111.07,76.27,111.85,76.48,112.66L76.48,112.66z"/>
		</g>
	</g>
	<g>
		<g>
			<path d="M86.21,124.87c-6.77-6.52-16.56-6.44-25.28-5.31c-2.04,0.26-4.67,0.18-6.11,1.89c-1.34,1.58-1.75,4.14-2.39,6.05
				c-1.62,4.85-3.25,9.7-4.87,14.55c-0.61,1.83,2.28,2.62,2.89,0.8c1.41-4.22,2.83-8.45,4.24-12.67c0.66-1.98,1.24-4.02,2-5.97
				c0.41-1.05,0.9-1.17,1.97-1.33c1.08-0.16,2.16-0.3,3.24-0.43c7.56-0.92,16.3-1.11,22.19,4.56
				C85.48,128.33,87.6,126.22,86.21,124.87L86.21,124.87z"/>
		</g>
	</g>
	<g>
		<g>
			<path d="M86.55,126.91c8.42-4.89,18.53-6.46,28.04-4.3c-0.35-0.35-0.7-0.7-1.05-1.05c1.89,6.86,4.17,13.59,6.84,20.18
				c0.72,1.77,3.62,0.99,2.89-0.8c-2.67-6.59-4.96-13.33-6.84-20.18c-0.13-0.49-0.54-0.93-1.05-1.05
				c-10.29-2.34-21.22-0.7-30.35,4.6C83.37,125.29,84.87,127.89,86.55,126.91L86.55,126.91z"/>
		</g>
	</g>
	<g>
		<g>
			<path d="M86.36,148.82c10.15-6.14,22.53-8.05,34.05-5.2c1.87,0.46,2.67-2.43,0.8-2.89c-12.28-3.03-25.53-1.04-36.36,5.51
				C83.2,147.23,84.71,149.83,86.36,148.82L86.36,148.82z"/>
		</g>
	</g>
	<g>
		<g>
			<path d="M83.44,126.13c0.41,6.93,0.64,13.87,0.68,20.81c0.01,1.93,3.01,1.93,3,0c-0.04-6.94-0.27-13.88-0.68-20.81
				C86.32,124.21,83.32,124.2,83.44,126.13L83.44,126.13z"/>
		</g>
	</g>
	<g>
		<g>
			<path d="M51.09,144.98c11.22-3.61,23.35-0.96,33.47,4.59c1.69,0.93,3.21-1.66,1.51-2.59c-10.79-5.91-23.81-8.74-35.78-4.89
				C48.46,142.68,49.24,145.58,51.09,144.98L51.09,144.98z"/>
		</g>
	</g>
	<g>
		<g>
			<path d="M47.5,143.07c-0.38,1.14-0.76,2.29-1.14,3.43c-0.34,1.01,0.54,1.81,1.45,1.9c4.74,0.49,9.48-0.02,14.21-0.45
				c2.45-0.22,4.9-0.41,7.36-0.41c2.37,0,4.72,0.25,7.08,0.45c4.8,0.41,9.52-0.04,14.3-0.43c5.01-0.41,10.03-0.7,15.05-0.87
				c5.6-0.18,11.2-0.21,16.8-0.09c1.2,0.03,1.79-1.28,1.3-2.26c-0.33-0.65-0.66-1.31-0.99-1.96c-0.87-1.72-3.46-0.21-2.59,1.51
				c0.33,0.65,0.66,1.31,0.99,1.96c0.43-0.75,0.86-1.5,1.3-2.26c-9.97-0.22-19.94,0.04-29.88,0.8c-4.78,0.36-9.58,1.01-14.39,0.73
				c-2.36-0.14-4.71-0.45-7.07-0.55c-2.45-0.11-4.91,0.01-7.36,0.2c-5.36,0.42-10.72,1.16-16.1,0.61c0.48,0.63,0.96,1.27,1.45,1.9
				c0.38-1.14,0.76-2.29,1.14-3.43C51.01,142.03,48.11,141.25,47.5,143.07L47.5,143.07z"/>
		</g>
	</g>
	<g>
		<g>
			<path d="M138.07,115.7c1.17,2.28-1.07,4.7-2.91,5.73c-2.73,1.53-5.89,2.11-8.64,3.63c-2.48,1.37-5.11,3.29-5.93,6.15
				c-0.41,1.43-0.31,3.13,0.81,4.22c1.1,1.07,2.78,1.03,3.89,0.03c1.43-1.3-0.69-3.42-2.12-2.12c0.03-0.02,0.36-0.18,0.32-0.03
				c0.04-0.13-0.13-0.59-0.12-0.77c0.05-0.53,0.27-1.02,0.54-1.48c0.61-1.01,1.57-1.79,2.54-2.44c2.29-1.53,4.79-2.34,7.34-3.3
				c2.44-0.92,4.73-2.11,6.24-4.31c1.39-2.03,1.77-4.59,0.63-6.81C139.78,112.46,137.19,113.98,138.07,115.7L138.07,115.7z"/>
		</g>
	</g>
	<g>
		<g>
			<path d="M126.97,130.02c-1.13,0.66-2.05,1.54-2.82,2.59c-0.69,0.94-1.23,2.09-1.38,3.26c-0.19,1.4,0.34,2.98,1.83,3.42
				c1.49,0.44,2.99-0.68,4.15-1.49c1.23-0.86,2.38-1.82,3.41-2.9c0.54-0.57,0.61-1.57,0-2.12c-0.59-0.54-1.54-0.6-2.12,0
				c-0.37,0.38-0.74,0.75-1.14,1.1c-0.19,0.17-0.38,0.34-0.58,0.5c-0.09,0.08-0.18,0.15-0.27,0.22c-0.05,0.04-0.09,0.07-0.14,0.11
				c-0.03,0.02-0.23,0.18-0.08,0.06c0.15-0.11-0.17,0.13-0.22,0.16c-0.09,0.07-0.19,0.14-0.29,0.21c-0.22,0.16-0.45,0.31-0.68,0.46
				c-0.21,0.14-0.43,0.27-0.65,0.4c-0.1,0.06-0.2,0.12-0.3,0.18c-0.05,0.03-0.1,0.06-0.15,0.09c-0.02,0.01-0.33,0.14-0.14,0.08
				c0.18-0.05-0.15,0.04-0.2,0.06c-0.16,0.06,0.11-0.01,0.12-0.02c-0.1,0.02-0.25-0.06,0.07,0.01c-0.01,0,0.3,0.15,0.18,0.07
				c-0.13-0.08,0.15,0.14,0.15,0.13c-0.01-0.03-0.06-0.05-0.08-0.08c-0.11-0.14,0.22,0.26,0.1,0.12c-0.04-0.05-0.11-0.22-0.01,0.01
				c0.09,0.23,0.03,0.08,0.02,0.03c-0.01-0.07-0.02-0.18-0.06-0.24c0.01,0.02,0.01,0.32,0.03,0.19c0.01-0.04-0.01-0.09-0.01-0.13
				c0-0.09,0.04-0.26,0.01-0.35c0,0-0.06,0.33-0.02,0.18c0.01-0.04,0.02-0.09,0.02-0.13c0.02-0.1,0.05-0.2,0.08-0.29
				c0.03-0.1,0.06-0.2,0.1-0.29c0.02-0.05,0.04-0.1,0.05-0.14c0.09-0.26-0.09,0.19-0.01,0.03c0.19-0.41,0.4-0.8,0.65-1.17
				c0.03-0.04,0.06-0.08,0.09-0.13c0.01-0.02,0.21-0.29,0.07-0.1c-0.12,0.16-0.01,0.02,0.01-0.01c0.04-0.05,0.09-0.11,0.13-0.16
				c0.17-0.19,0.35-0.38,0.53-0.56c0.1-0.09,0.2-0.19,0.31-0.27c0.03-0.02,0.1-0.06,0.12-0.1c-0.03,0.06-0.23,0.17-0.06,0.05
				c0.22-0.16,0.45-0.31,0.69-0.45c0.68-0.39,0.98-1.37,0.54-2.05C128.58,129.87,127.7,129.6,126.97,130.02L126.97,130.02z"/>
		</g>
	</g>
	<g>
		<g>
			<path d="M128.28,134.67c-1.07,1.09-2.14,2.46-2.23,4.05c-0.1,1.61,0.91,2.98,2.45,3.46c3.12,0.96,6.17-1.25,8.3-3.28
				c2.72-2.58,5.37-5.05,8.42-7.25c2.68-1.93,5.28-4,6.45-7.21c1.41-3.89,0.37-8.22-0.66-12.07c-0.5-1.86-3.39-1.07-2.89,0.8
				c0.87,3.27,1.89,6.95,0.73,10.28c-1.1,3.16-4.25,4.92-6.79,6.8c-2.82,2.1-5.21,4.57-7.8,6.92c-1.07,0.97-2.35,1.99-3.84,2.18
				c-0.61,0.08-1.36,0.11-1.35-0.61c0.01-0.68,0.91-1.52,1.34-1.96C131.76,135.41,129.64,133.29,128.28,134.67L128.28,134.67z"/>
		</g>
	</g>
	<g>
		<g>
			<path d="M132.91,105.5c0.34,2.55,0.69,5.09,1.03,7.64c0.13,0.93,0.1,2.04,0.87,2.71c0.9,0.79,2,0.41,3.02,0.12
				c5.02-1.4,10.03-2.79,15.05-4.19c0.85-0.24,1.17-1.04,1.05-1.85c-1.63-10.96-10.27-21.12-20.44-25.21
				c-1.79-0.72-2.57,2.18-0.8,2.89c9.24,3.72,16.88,13.25,18.35,23.12c0.35-0.62,0.7-1.23,1.05-1.85c-4.31,1.2-8.62,2.4-12.94,3.6
				c-0.55,0.15-1.1,0.31-1.65,0.46c-0.16,0.04-1.32,0.26-1.41,0.39c0.79,0.88,1.11,1.02,0.94,0.43c-0.04-0.32-0.09-0.64-0.13-0.95
				c-0.06-0.48-0.13-0.95-0.19-1.43c-0.3-2.23-0.6-4.45-0.91-6.68c-0.11-0.81-1.14-1.23-1.85-1.05
				C133.09,103.89,132.8,104.71,132.91,105.5L132.91,105.5z"/>
		</g>
	</g>
	<g>
		<g>
			<path d="M101.47,87.58c-4.32,4.22-7.59,9.67-9.86,15.23c-0.54,1.32-1.01,2.67-1.37,4.05c-0.38,1.44-0.58,3.1,0.85,4.04
				c1.33,0.88,3.39,1.08,4.93,1.34c1.83,0.3,3.67,0.47,5.52,0.5c1.93,0.04,1.93-2.96,0-3c-1.58-0.03-3.16-0.14-4.72-0.4
				c-0.71-0.12-1.41-0.25-2.1-0.41c-0.42-0.1-0.83-0.2-1.25-0.31c-0.14-0.04-0.28-0.08-0.41-0.11c-0.3-0.11-0.37-0.13-0.2-0.05
				c-0.02-0.06,0.37-1.13,0.45-1.4c0.15-0.52,0.31-1.03,0.49-1.54c0.41-1.19,0.89-2.35,1.42-3.48c2.09-4.49,4.83-8.85,8.39-12.33
				C104.97,88.35,102.85,86.23,101.47,87.58L101.47,87.58z"/>
		</g>
	</g>
	<g>
		<g>
			<path d="M101.03,104.09c-0.35,4.91-0.44,9.83-0.28,14.75c0.06,1.93,3.06,1.93,3,0c-0.16-4.92-0.07-9.84,0.28-14.75
				c0.06-0.81-0.73-1.5-1.5-1.5C101.67,102.59,101.09,103.28,101.03,104.09L101.03,104.09z"/>
		</g>
	</g>
	<g>
		<g>
			<path d="M91.84,111.89c-0.37,3.18-0.74,6.37-1.11,9.55c-0.09,0.78,0.76,1.53,1.5,1.5c0.89-0.04,1.4-0.66,1.5-1.5
				c0.37-3.18,0.74-6.37,1.11-9.55c0.09-0.78-0.76-1.53-1.5-1.5C92.45,110.43,91.94,111.06,91.84,111.89L91.84,111.89z"/>
		</g>
	</g>
	<g>
		<g>
			<path d="M89.03,58.66c1.3,13.18,6.03,29.41,20.54,33.21c9.31,2.43,19.79-0.93,27.09-6.89c2.6-2.12,5.91-5.51,5.6-9.18
				c-0.16-1.91-3.17-1.93-3,0c0.02,0.27,0.01,0.52,0,0.79c-0.01,0.1,0.08-0.32-0.02,0.09c-0.04,0.14-0.06,0.28-0.1,0.42
				c-0.04,0.15-0.09,0.29-0.14,0.43c-0.14,0.41-0.01,0.05-0.06,0.17c-0.14,0.3-0.3,0.6-0.47,0.89c-0.77,1.3-1.64,2.26-2.97,3.45
				c-2.81,2.54-6.66,4.67-10.34,5.95c-4.2,1.45-8.74,2.11-12.99,1.37c-4.83-0.84-8.97-3.34-12.12-7.15c-5.34-6.47-7.2-15.42-8-23.55
				C91.84,56.76,88.84,56.74,89.03,58.66L89.03,58.66z"/>
		</g>
	</g>
	<g>
		<g>
			<path d="M139.75,66.14c1.04-1.18,2.33-2.32,3.96-2.53c1.43-0.19,2.54,0.47,3.16,1.52c0.67,1.13,0.77,2.37,0.36,3.71
				c-0.46,1.5-1.51,2.77-2.69,3.79c-0.33,0.28-0.71,0.55-1.11,0.71c-0.21,0.08-0.62,0.16-0.83,0.17c-0.8,0.03-1.45-0.18-2.14-0.7
				c-0.65-0.49-1.68-0.11-2.05,0.54c-0.45,0.77-0.11,1.57,0.54,2.05c1.84,1.38,4.48,1.46,6.44,0.29c1.96-1.16,3.57-3.16,4.43-5.24
				c0.86-2.06,0.85-4.28-0.08-6.31c-0.94-2.06-2.93-3.4-5.19-3.54c-2.73-0.17-5.18,1.46-6.92,3.43c-0.54,0.61-0.6,1.52,0,2.12
				C138.18,66.68,139.21,66.75,139.75,66.14L139.75,66.14z"/>
		</g>
	</g>
	<g>
		<g>
			<path d="M90.96,59.13c6.56-0.37,13.04-1.71,19.15-4.12c4.91-1.93,9.96-4.55,11.93-9.77c-0.96,0-1.93,0-2.89,0
				c2.15,9.15,8.86,16.73,17.56,20.18c1.79,0.71,2.57-2.19,0.8-2.89c-7.73-3.07-13.57-10.03-15.47-18.09
				c-0.37-1.56-2.41-1.28-2.89,0c-1.7,4.5-6.97,6.64-11.14,8.17c-5.48,2.01-11.23,3.19-17.05,3.52
				C89.04,56.24,89.03,59.24,90.96,59.13L90.96,59.13z"/>
		</g>
	</g>
	<g>
		<g>
			<path d="M91.54,56.91c-0.93-12.05,8.79-21.23,19.61-24.45c5.85-1.74,12.13-1.92,17.93,0.12c5.15,1.82,9.74,5.34,12.76,9.89
				c1.77,2.66,3.04,5.61,3.75,8.73c0.69,2.99,1.27,6.87-0.16,9.72c-0.86,1.72,1.72,3.24,2.59,1.51c1.52-3.03,1.37-6.52,0.88-9.79
				c-0.46-3.14-1.46-6.18-2.91-9c-2.81-5.49-7.46-9.99-13.02-12.66c-11.84-5.68-27.08-2.56-36.5,6.4c-5.26,5.01-8.5,12.2-7.94,19.52
				C88.69,58.82,91.69,58.84,91.54,56.91L91.54,56.91z"/>
		</g>
	</g>
	<g>
		<g>
			<path d="M128.87,28.54c-1.44-2.4,0.55-5.28,2.44-6.76c2.07-1.63,4.74-2.39,7.35-2.21c5.19,0.35,9.52,5.29,9.26,10.46
				c-0.07,1.45-0.58,2.93-1.67,3.92c-1.27,1.15-3.07,1.54-4.7,1.86c-1.89,0.37-1.09,3.26,0.8,2.89c3.82-0.75,7.33-2.57,8.3-6.65
				c0.82-3.48-0.17-7.23-2.28-10.07c-2.09-2.82-5.17-4.82-8.68-5.31c-3.53-0.49-7.21,0.46-10.05,2.62
				c-3.16,2.41-5.65,6.93-3.36,10.75C127.27,31.71,129.87,30.2,128.87,28.54L128.87,28.54z"/>
		</g>
	</g>
	<g>
		<g>
			<path d="M106.51,91.23c0.66,2.39,1.96,4.67,3.46,6.62c0.76,1,1.59,1.9,2.6,2.65c1.09,0.8,2.37,1.13,3.69,1.28
				c6.31,0.73,11.84-4.75,11.33-11.05c-0.16-1.91-3.16-1.93-3,0c0.39,4.73-3.65,8.87-8.48,8.01c-1.83-0.32-3.05-1.66-4.14-3.21
				c-1.08-1.55-2.06-3.27-2.57-5.1C108.89,88.58,105.99,89.37,106.51,91.23L106.51,91.23z"/>
		</g>
	</g>
	<g>
		<g>
			<path d="M106.51,82.01c1.31,3.19,4.42,5.03,7.85,4.92c4.39-0.14,7.96-3.07,10.3-6.59c1.07-1.61-1.53-3.12-2.59-1.51
				c-1,1.51-2.24,2.88-3.79,3.83c-1.17,0.72-2.56,1.2-3.76,1.27c-1.22,0.06-2.26-0.15-3.19-0.66c-0.64-0.36-0.74-0.43-1.22-0.96
				c-0.09-0.1-0.18-0.2-0.27-0.31c0.18,0.23-0.08-0.13-0.09-0.14c-0.07-0.12-0.15-0.24-0.21-0.36c-0.03-0.05-0.26-0.55-0.15-0.28
				c-0.31-0.75-1-1.28-1.85-1.05C106.85,80.36,106.2,81.26,106.51,82.01L106.51,82.01z"/>
		</g>
	</g>
	<g>
		<g>
			<path d="M12.24,127c2.83,0.02,5.66,0.04,8.49,0.06c0.78,0.01,1.54-0.69,1.5-1.5c-0.04-0.82-0.66-1.49-1.5-1.5
				c-2.83-0.02-5.66-0.04-8.49-0.06c-0.78-0.01-1.54,0.69-1.5,1.5C10.77,126.32,11.4,126.99,12.24,127L12.24,127z"/>
		</g>
	</g>
	<g>
		<g>
			<path d="M50.76,128.69c1.02-0.07,2.03-0.15,3.05-0.22c0.4-0.03,0.77-0.15,1.06-0.44c0.26-0.26,0.46-0.69,0.44-1.06
				c-0.02-0.39-0.14-0.79-0.44-1.06c-0.28-0.26-0.67-0.47-1.06-0.44c-1.02,0.07-2.03,0.15-3.05,0.22c-0.4,0.03-0.77,0.15-1.06,0.44
				c-0.26,0.26-0.46,0.69-0.44,1.06c0.02,0.39,0.14,0.79,0.44,1.06C49.99,128.51,50.37,128.72,50.76,128.69L50.76,128.69z"/>
		</g>
	</g>
	<g>
		<g>
			<path d="M117.37,126.88c3.85-0.19,7.69-0.38,11.54-0.58c0.81-0.04,1.5-0.66,1.5-1.5c0-0.78-0.69-1.54-1.5-1.5
				c-3.85,0.19-7.69,0.38-11.54,0.58c-0.81,0.04-1.5,0.66-1.5,1.5C115.87,126.16,116.56,126.92,117.37,126.88L117.37,126.88z"/>
		</g>
	</g>
	<g>
		<g>
			<path d="M150.46,126.3c2.97,0.15,5.95,0.3,8.92,0.46c0.78,0.04,1.54-0.72,1.5-1.5c-0.04-0.85-0.66-1.46-1.5-1.5
				c-2.97-0.15-5.95-0.3-8.92-0.46c-0.78-0.04-1.54,0.72-1.5,1.5C149,125.65,149.62,126.26,150.46,126.3L150.46,126.3z"/>
		</g>
	</g>
	<ellipse class="st9" cx="50.91" cy="69.98" rx="1.37" ry="2.52"/>
	<ellipse class="st9" cx="69.32" cy="69.25" rx="1.37" ry="2.52"/>
	<ellipse class="st9" cx="102.17" cy="69.25" rx="1.37" ry="2.52"/>
	<ellipse class="st9" cx="120.82" cy="69.25" rx="1.37" ry="2.52"/>
	<ellipse class="st10" cx="121.3" cy="68.35" rx="0.48" ry="0.9"/>
	<ellipse class="st10" cx="102.53" cy="68.1" rx="0.48" ry="0.9"/>
	<ellipse class="st10" cx="69.33" cy="68.1" rx="0.48" ry="0.9"/>
	<ellipse class="st10" cx="51.48" cy="68.55" rx="0.48" ry="0.9"/>
</g>
<g id="Ebene_7">
</g>
</svg>
