<?xml version="1.0" encoding="utf-8"?>
<!-- Generator: Adobe Adobe Illustrator 24.2.0, SVG Export Plug-In . SVG Version: 6.00 Build 0)  -->
<svg version="1.1" xmlns="http://www.w3.org/2000/svg" xmlns:xlink="http://www.w3.org/1999/xlink" x="0px" y="0px"
	 viewBox="0 0 170.08 170.08" style="enable-background:new 0 0 170.08 170.08;" xml:space="preserve">
<style type="text/css">
	.st0{fill:#D3E4EB;}
	.st1{fill:#7B8D9D;}
	.st2{fill:#FBBE3E;}
	.st3{fill:#394D5A;}
	.st4{fill:#DEA46A;}
	.st5{fill:#CCAC99;}
	.st6{fill:#8FC23E;}
	.st7{fill:#D91668;}
	.st8{fill:#FFFFFF;}
	.st9{opacity:0.502;fill:#DB517A;}
	.st10{fill:none;stroke:#000000;stroke-width:2.1077;stroke-miterlimit:10;}
	.st11{fill:none;stroke:#000000;stroke-width:2;stroke-miterlimit:10;}
	.st12{stroke:#000000;stroke-miterlimit:10;}
</style>
<g id="Ebene_6">
</g>
<g id="Ebene_22">
	<path d="M47.73,66.68c2.93-0.59,5.55-2.53,6.98-5.15c1.43-2.62,1.65-5.87,0.57-8.66c0.78,1.73,2.87,2.45,4.76,2.58
		c6.11,0.42,12.23-3.85,13.93-9.74c0.44,2.48,2.48,4.53,4.9,5.26c2.41,0.73,5.1,0.25,7.28-1.02c2.18-1.27,3.87-3.26,5.08-5.48
		c0.29,1.42,1.53,2.6,2.96,2.83s2.97-0.51,3.69-1.77c2.16,2.83,3.63,6.17,4.58,10.24c2.61-1.92,5.09-4.13,6.71-6.94
		c1.62-2.81,2.29-6.3,1.17-9.34c-1.12-3.04-4.27-5.39-7.49-5.01c0.89-4.37-0.99-9.19-4.6-11.81c-3.61-2.62-8.77-2.91-12.65-0.71
		c-3.69-4.59-8.84-8.41-14.72-8.83s-12.23,3.51-13.04,9.34c-3.47-2.77-8.36-3.26-12.67-2.18c-4.31,1.08-8.14,3.53-11.71,6.17
		c-2.19,1.62-4.43,3.47-5.33,6.04c-0.9,2.57,0.13,6.02,2.76,6.76c-3.76,1.02-7.37,2.87-9.96,5.77s-4.07,6.92-3.4,10.76
		s3.71,7.29,7.55,7.93c-3.12,1.7-6,4.11-7.45,7.35c-1.44,3.25-1.15,7.41,1.35,9.93c2.5,2.52,7.3,2.56,9.34-0.34
		c-1.19,2.46-1.78,5.34-0.99,7.96s3.19,4.84,5.93,4.86c2.59,0.01,4.88-1.89,6.09-4.18s1.55-4.92,1.86-7.49
		c-3.9,1.01-6.08-3.44-8.67-6.54c-3.01-3.6-1.6-10.59,1.3-13.39c1.84-1.77,7.44-0.57,9.99-0.48C46.4,61.5,46.24,63.27,47.73,66.68z"
		/>
</g>
<g id="Ebene_17">
	<path class="st0" d="M114.6,71.81c-7.33,7.85-10.98,19-9.7,29.66c0.24,2.01,0.7,4.11,2.06,5.61c1.4,1.55,3.56,2.22,5.65,2.25
		c5.22,0.07,9.83-3.42,13.24-7.37c5.04-5.86,8.43-13.13,9.68-20.76c0.53-3.24,0.67-6.63-0.38-9.74s-3.45-5.91-6.63-6.74
		c-2.92-0.76-6.08,0.22-8.56,1.93C117.47,68.37,115.57,70.77,114.6,71.81z"/>
</g>
<g id="Ebene_12">
	<path class="st1" d="M126.98,63.35c-6.87,1.11-12.69,6.02-16.29,11.97s-5.26,12.87-6.39,19.73c-0.34,2.08-0.64,4.2-0.4,6.3
		c0.24,2.1,1.07,4.2,2.67,5.58c-3.74,0.06-7.29-2.22-9.29-5.38c-2-3.16-2.57-7.08-2.16-10.8c0.41-3.72,1.74-7.28,3.31-10.67
		c2.59-5.62,5.97-11.02,10.76-14.94c2.66-2.18,5.79-3.88,9.19-4.38S125.45,61.11,126.98,63.35z"/>
</g>
<g id="Ebene_19">
	<path class="st2" d="M35.46,97.24c-7.6,6.19-12.76,15.03-15.68,24.39s-3.73,19.26-3.73,29.07c0,0.37,0.01,0.77,0.24,1.05
		c0.26,0.32,0.72,0.4,1.13,0.45c17.25,2.06,34.65,2.83,52.01,2.3c1.84-15.69-2.24-32.01-11.24-45
		C49.67,108.66,41.57,104.13,35.46,97.24z"/>
</g>
<g id="Ebene_10">
	<path class="st3" d="M100.2,105.59c-7.4,12.41-13.56,25.55-18.37,39.17c1.47,0.8,3.03,1.44,4.64,1.92
		c0.46,0.14,0.98,0.25,1.41,0.04c0.45-0.23,0.66-0.75,0.83-1.22c2.9-8.11,6.27-16.09,10.66-23.5c2.82-4.76,6.1-9.35,7.79-14.62
		C105.28,106.62,103.4,105.86,100.2,105.59z"/>
</g>
<g id="Ebene_21">
	<path class="st4" d="M47.02,67.25c0.03-3.21-2.57-6.17-5.72-6.82s-6.56,0.87-8.42,3.49c-1.86,2.62-2.23,6.16-1.22,9.21
		c1,3.05,3.27,5.61,6.03,7.26c1.2,0.72,2.61,1.41,3.03,2.75c0.32,1.03-0.06,2.13-0.43,3.13c-1.34,3.59-2.68,7.19-4.01,10.78
		c4.57,3.89,9.45,7.41,14.58,10.51c1.72,1.04,3.73,2.07,5.65,1.49c2.52-0.76,3.46-3.77,4.02-6.34c6.19,3.08,13.8,3.13,20.04,0.14
		S91.53,93.91,93,87.16c2.07,0.19,4.19-1.16,4.88-3.12s-0.1-4.34-1.83-5.5c2.29-5.24,4.52-10.6,5.27-16.27
		c0.75-5.67-0.12-11.77-3.54-16.35c-1.98,1.62-5.08,1.67-7.12,0.12c-2.88,3.6-7.5,5.72-12.11,5.56c-1.27-0.04-1.84-0.78-2.83-1.58
		c-0.99-0.8-2.25-1.79-1.6-2.89c-2.05,3.05-4.59,5.93-7.91,7.49c-3.33,1.57-7.58,1.57-10.44-0.73c1.1,2.73,0.84,5.97-0.69,8.49
		C53.56,64.91,50.82,66.65,47.02,67.25z"/>
	<path class="st4" d="M55.56,132.49c-5.79,2.23-10.94,6.1-14.68,11.05c2.47,2.26,4.97,4.53,7.82,6.28c2.86,1.75,6.13,2.96,9.48,2.88
		c4.14-0.1,8-2.13,11.38-4.54c3.38-2.4,6.47-5.23,10.07-7.28c3.13,0.69,6.54-0.05,9.11-1.98c0.78-0.59,1.55-1.31,2.52-1.44
		c1.21-0.16,2.34,0.64,3.55,0.81c1.29,0.18,2.66-0.44,3.37-1.53s0.74-2.59,0.06-3.7c1.85-0.45,3.42-1.89,4.04-3.69
		c0.61-1.8,0.25-3.9-1.09-5.67c1.66,0.15,3.23-1.2,3.61-2.82c0.39-1.62-0.25-3.37-1.37-4.6c-1.12-1.23-2.66-2.01-4.24-2.53
		c-3.84-1.26-8.13-1.11-11.87,0.42c-3.74,1.53-6.92,4.42-8.78,8c-0.63,1.21-1.15,2.54-2.16,3.46c-0.9,0.82-2.1,1.22-3.25,1.63
		c-5.54,1.98-10.79,4.74-15.57,8.17C56.98,134.49,56.42,133.58,55.56,132.49z"/>
</g>
<g id="Ebene_20">
	<path class="st5" d="M134.3,123.72c0.93-0.91,1.84-1.87,2.47-3c0.64-1.14,1-2.47,0.77-3.75c-0.44-2.57-3.28-4.3-5.87-3.97
		c-2.59,0.33-4.75,2.37-5.73,4.79c-0.55,1.35-0.78,2.91-0.21,4.26c0.73,1.75,2.72,2.76,4.61,2.71
		C132.24,124.69,134.02,123.74,134.3,123.72z"/>
</g>
<g id="Ebene_9">
	<path class="st6" d="M135.38,126.72c-2.97-0.92-6.26,0.03-8.82,1.79c-2.56,1.76-4.5,4.26-6.36,6.75c-1.86,2.49-3.7,5.04-6.11,7
		c3.74,0.46,7.48,0.92,11.21,1.38c5.68,0.7,11.56,1.39,17.05-0.25c5.49-1.64,10.52-6.24,10.77-11.96
		C146.83,132.63,141.4,128.58,135.38,126.72z"/>
</g>
<g id="Ebene_18">
	<path class="st7" d="M138.03,116.58c2.26-2.21,5.79-2.85,8.84-2.02c3.05,0.83,5.64,2.97,7.46,5.56c1.64,2.32,2.72,5.4,1.54,7.99
		c-0.84,1.85-2.73,3.07-4.71,3.5c-1.98,0.43-4.06,0.14-6.02-0.39c-3.36-0.91-6.52-2.57-9.19-4.8c-0.27-0.23-0.55-0.48-0.63-0.82
		c-0.09-0.37,0.06-0.76,0.22-1.11C136.65,121.96,137.75,119.44,138.03,116.58z"/>
</g>
<g id="Ebene_14">
	<g>
		<g>
			<path d="M127.62,119.49c-0.18,0.15-0.32,0.41-0.38,0.64c-0.07,0.26-0.06,0.51,0,0.77c0.06,0.25,0.2,0.46,0.36,0.65
				c0.08,0.09,0.19,0.17,0.29,0.23c0.11,0.07,0.23,0.12,0.36,0.15c0.26,0.08,0.53,0.06,0.79,0.01c0.13-0.03,0.25-0.09,0.37-0.14
				c0.05-0.02,0.09-0.05,0.13-0.08c0.1-0.07,0.22-0.15,0.3-0.25c0.08-0.09,0.18-0.21,0.23-0.33c0.1-0.22,0.17-0.39,0.17-0.63
				c0-0.24-0.06-0.41-0.16-0.62c-0.11-0.22-0.34-0.43-0.56-0.55c-0.17-0.09-0.35-0.16-0.53-0.21c-0.13-0.04-0.27-0.05-0.4-0.02
				c-0.13,0.01-0.26,0.05-0.37,0.12c-0.12,0.06-0.21,0.15-0.28,0.26c-0.09,0.1-0.15,0.21-0.18,0.34c-0.01,0.09-0.02,0.18-0.04,0.27
				c0,0.18,0.05,0.35,0.14,0.5c0.05,0.07,0.1,0.13,0.16,0.2c0.12,0.12,0.27,0.21,0.44,0.26c0.07,0.02,0.15,0.04,0.22,0.07
				c-0.08-0.03-0.16-0.07-0.24-0.1c0.06,0.03,0.11,0.05,0.16,0.09c-0.07-0.05-0.13-0.1-0.2-0.16c0.03,0.02,0.05,0.04,0.07,0.07
				c-0.05-0.07-0.1-0.13-0.16-0.2c0.02,0.02,0.03,0.05,0.04,0.07c-0.03-0.08-0.07-0.16-0.1-0.24c0.01,0.02,0.01,0.04,0.02,0.06
				c-0.01-0.09-0.02-0.18-0.04-0.27c0,0.03,0,0.06,0,0.09c0.01-0.09,0.02-0.18,0.04-0.27c0,0.03-0.01,0.05-0.02,0.07
				c0.03-0.08,0.07-0.16,0.1-0.24c-0.02,0.05-0.05,0.09-0.08,0.13c0.05-0.07,0.1-0.13,0.16-0.2c-0.03,0.04-0.07,0.07-0.1,0.1
				c0.07-0.05,0.13-0.1,0.2-0.16c-0.05,0.04-0.1,0.06-0.15,0.09c0.08-0.03,0.16-0.07,0.24-0.1c-0.05,0.02-0.1,0.03-0.15,0.04
				c0.09-0.01,0.18-0.02,0.27-0.04c-0.05,0.01-0.1,0.01-0.14,0c0.09,0.01,0.18,0.02,0.27,0.04c-0.04-0.01-0.09-0.02-0.13-0.04
				c0.08,0.03,0.16,0.07,0.24,0.1c-0.03-0.01-0.06-0.03-0.09-0.05c0.07,0.05,0.13,0.1,0.2,0.16c-0.03-0.02-0.05-0.05-0.08-0.08
				c0.05,0.07,0.1,0.13,0.16,0.2c-0.03-0.03-0.05-0.07-0.07-0.11c0.03,0.08,0.07,0.16,0.1,0.24c-0.02-0.04-0.03-0.09-0.04-0.14
				c0.01,0.09,0.02,0.18,0.04,0.27c-0.01-0.04-0.01-0.09,0-0.13c-0.01,0.09-0.02,0.18-0.04,0.27c0.01-0.04,0.02-0.08,0.03-0.11
				c-0.03,0.08-0.07,0.16-0.1,0.24c0.01-0.03,0.03-0.06,0.05-0.08c-0.05,0.07-0.1,0.13-0.16,0.2c0.02-0.02,0.03-0.04,0.05-0.05
				c0.1-0.09,0.17-0.2,0.21-0.32c0.06-0.12,0.09-0.25,0.09-0.39c0.01-0.14-0.02-0.27-0.09-0.39c-0.04-0.12-0.11-0.23-0.21-0.32
				c-0.07-0.05-0.13-0.1-0.2-0.16c-0.16-0.09-0.32-0.14-0.5-0.14c-0.09,0.01-0.18,0.02-0.27,0.04
				C127.9,119.28,127.75,119.37,127.62,119.49L127.62,119.49z"/>
		</g>
	</g>
</g>
<g id="Ebene_15">
	<g>
		<g>
			<path class="st8" d="M126.24,72.11c3.8,7.23,2.64,16.11-2.91,22.11c-0.87,0.94,0.54,2.36,1.41,1.41
				c6.17-6.68,7.45-16.48,3.22-24.53C127.36,69.96,125.64,70.97,126.24,72.11L126.24,72.11z"/>
		</g>
	</g>
</g>
<g id="Ebene_24">
	<g>
		<g>
			<path class="st4" d="M94.34,80.28c0.13,0.04,0.25,0.07,0.38,0.12c-0.16-0.07,0.12,0.06,0.12,0.06c0.12,0.06,0.23,0.13,0.34,0.2
				c0.03,0.02,0.25,0.18,0.12,0.08c0.41,0.33,0.57,0.54,0.79,0.95c0.1,0.2,0.13,0.27,0.2,0.53c0.03,0.12,0.06,0.25,0.08,0.38
				c-0.02-0.15,0.01,0.14,0.01,0.17c0.01,0.15,0,0.29-0.01,0.44c-0.01,0.19,0.02-0.03-0.02,0.17c-0.03,0.13-0.05,0.25-0.09,0.37
				c-0.01,0.04-0.12,0.33-0.07,0.2c-0.04,0.1-0.1,0.18-0.15,0.27c-0.07,0.1-0.08,0.12-0.02,0.04c-0.04,0.05-0.08,0.1-0.13,0.14
				c-0.01,0.01-0.23,0.2-0.09,0.09c-0.09,0.07-0.19,0.13-0.28,0.18c-0.04,0.02-0.08,0.05-0.13,0.07c0.09-0.04,0.08-0.03-0.03,0.01
				c-0.09,0.03-0.18,0.06-0.28,0.08c-0.06,0.02-0.13,0.03-0.19,0.04c0.11-0.01,0.1-0.01-0.02,0c-0.1,0.01-0.19,0.01-0.29,0.01
				c-0.06,0-0.13,0-0.19-0.01c0.1,0.02,0.09,0.02-0.03-0.01c-0.1-0.02-0.2-0.04-0.3-0.07c-0.28-0.08-0.26-0.07-0.52-0.21
				c-0.45-0.24-0.65-0.41-1.01-0.81c-0.37-0.4-1.04-0.37-1.41,0c-0.39,0.39-0.37,1.02,0,1.41c1.4,1.51,3.79,2.33,5.64,1.09
				c1.89-1.27,2.09-4.09,0.9-5.91c-0.65-0.99-1.62-1.7-2.76-2.03c-0.5-0.14-1.11,0.18-1.23,0.7C93.52,79.58,93.81,80.12,94.34,80.28
				L94.34,80.28z"/>
		</g>
	</g>
</g>
<g id="Ebene_16">
	<circle class="st9" cx="68.14" cy="80.03" r="4.75"/>
</g>
<g id="Ebene_13">
</g>
<g id="Ebene_5">
	<path class="st10" d="M107,108.14c-16.58-8.05-12.7-18.52-6.9-30.72c5.81-12.2,15.02-22.13,29.73-12.91"/>
	<path class="st11" d="M107.81,81.09c5.81-12.2,16.58-19.46,22.59-16.34c6.56,3.4,7.37,15.64,1.56,27.84
		c-5.81,12.2-15.92,19.52-22.59,16.34C102.7,105.75,102,93.29,107.81,81.09z"/>
</g>
<g id="Ebene_23">
	<g>
		<g>
			<path d="M48.75,66.06c-1.85-5.74-8.44-8.78-13.82-5.71c-6.01,3.43-5.75,12.21-2.13,17.29c2.1,2.96,5.28,5.01,8.83,5.74
				c1.26,0.26,1.79-1.67,0.53-1.93c-6.92-1.43-11.91-8.87-9.3-15.79c1.12-2.97,4.24-4.84,7.39-4.56c3.06,0.28,5.64,2.61,6.57,5.48
				C47.21,67.81,49.15,67.29,48.75,66.06L48.75,66.06z"/>
		</g>
	</g>
	<g>
		<g>
			<path d="M49.05,67.61c6.18-1.82,9.62-8.42,7.45-14.53c-0.56,0.32-1.11,0.65-1.67,0.97c3.04,3.23,8.01,2.8,11.79,1.27
				c3.89-1.57,7.74-4.56,8.38-8.96c-0.65-0.09-1.31-0.18-1.96-0.27c0.18,4.68,5.49,6.73,9.52,6.21c4.21-0.55,7.9-3.39,9.34-7.41
				c-0.64,0-1.29,0-1.93,0c0.4,1.55,1.7,2.59,3.25,2.88c1.93,0.36,3.76-0.58,5.36-1.56c1.09-0.67,0.09-2.4-1.01-1.73
				c-1.47,0.9-4.96,2.6-5.67-0.13c-0.26-1.01-1.61-0.89-1.93,0c-1.09,3.05-3.89,5.21-7.02,5.86c-2.89,0.6-7.76-0.45-7.91-4.13
				c-0.04-1.06-1.8-1.43-1.96-0.27c-0.54,3.72-3.69,6.2-6.98,7.56c-3.08,1.28-7.32,1.94-9.85-0.75c-0.66-0.7-2.01,0.02-1.67,0.97
				c1.8,5.07-0.86,10.54-6.05,12.07C47.29,66.04,47.81,67.97,49.05,67.61L49.05,67.61z"/>
		</g>
	</g>
	<g>
		<g>
			<path d="M103.13,56.45c5.07-2.13,8.35-7.24,8.53-12.71c0.09-2.7-0.63-5.54-2.34-7.67c-1.85-2.31-4.72-3.72-7.59-2.48
				c0.4,0.52,0.81,1.05,1.21,1.57c4.09-4.97-2.03-10.78-5.73-13.76c-2.01-1.62-4.43-2.9-7.08-2.75c-2.29,0.12-4.47,1.17-5.6,3.23
				c0.58,0,1.15,0,1.73,0c-3.07-5.98-9.35-9.93-16.1-9.88c-3.43,0.02-7.07,0.98-9.88,3c-2.56,1.84-4.63,4.86-3.68,8.11
				c0.56-0.32,1.11-0.65,1.67-0.97c-5.67-6.8-15.3-3.02-21.55,0.65c-3.25,1.91-6.49,4.38-7.98,7.97c-1.35,3.26-1.16,7.06,1.2,9.8
				c0.24-0.57,0.47-1.14,0.71-1.71c-7.05-0.59-11.36,6.03-13.08,11.98c-0.91,3.15-1.3,6.87,0.5,9.79c1.51,2.45,4.17,3.95,7.05,3.47
				c-0.26-0.61-0.51-1.22-0.77-1.83c-2.81,1.69-5.21,3.99-6.96,6.77c-1.67,2.65-2.93,6.11-1.93,9.24c1.77,5.59,8.69,5.99,13.36,4.25
				c-0.26-0.61-0.51-1.22-0.77-1.83c-3.24,2.23-3.71,6.97-1.42,10.06c2.71,3.66,8.06,3.82,11.8,1.79c1.13-0.62,0.12-2.34-1.01-1.73
				c-2.77,1.51-6.83,1.59-9.01-1.02c-1.73-2.08-1.7-5.76,0.65-7.38c0.87-0.6,0.36-2.25-0.77-1.83c-3.66,1.37-9.84,1.59-11.01-3.23
				c-0.65-2.66,0.62-5.48,2.06-7.66c1.54-2.34,3.62-4.27,6.02-5.71c1.02-0.61,0.31-2.01-0.77-1.83c-2.36,0.39-4.53-1.5-5.31-3.6
				c-1.01-2.72-0.29-5.79,0.61-8.44c1.6-4.74,5.15-9.75,10.76-9.28c0.94,0.08,1.22-1.11,0.71-1.71c-2.05-2.38-1.77-5.98-0.3-8.59
				c1.64-2.9,4.54-4.83,7.38-6.43c5.38-3.05,13.58-6.37,18.43-0.56c0.66,0.79,1.94-0.06,1.67-0.97c-0.86-2.92,1.75-5.41,4.09-6.68
				c2.68-1.45,5.77-2.06,8.79-1.86c5.62,0.37,10.58,3.9,13.12,8.85c0.34,0.67,1.38,0.64,1.73,0c2.15-3.91,7.24-1.99,9.85,0.18
				c2.52,2.09,8.41,7.03,5.41,10.68c-0.74,0.9,0.16,2.02,1.21,1.57c2.36-1.02,4.78,1.27,5.8,3.19c1,1.87,1.28,4.1,1.05,6.19
				c-0.46,4.15-3.08,8.18-6.99,9.83C101.43,55.02,101.94,56.95,103.13,56.45L103.13,56.45z"/>
		</g>
	</g>
	<g>
		<g>
			<path d="M39.31,83.37c-0.65,4.4-2,8.62-4.05,12.56c-0.22,0.42-0.15,0.87,0.16,1.21c2.93,3.29,6.28,6.19,9.96,8.6
				c3.64,2.38,7.7,4.47,12.15,4.37c0.44-0.01,0.85-0.3,0.96-0.73c0.52-1.98,1.4-3.75,2.63-5.38c0.77-1.03-0.96-2.03-1.73-1.01
				c-1.32,1.76-2.26,3.73-2.83,5.86c0.32-0.24,0.64-0.49,0.96-0.73c-4.25,0.09-8.08-2.05-11.51-4.34c-3.4-2.27-6.47-4.99-9.19-8.05
				c0.05,0.4,0.1,0.81,0.16,1.21c2.13-4.1,3.57-8.47,4.25-13.04C41.43,82.65,39.5,82.1,39.31,83.37L39.31,83.37z"/>
		</g>
	</g>
	<g>
		<g>
			<path d="M94.79,78.99c2.31,0.48,3.15,3.36,2.28,5.36c-0.44,1.02-1.27,1.76-2.32,1.99c-0.96,0.21-2.02-0.04-2.73-0.8
				c-0.88-0.94-2.29,0.47-1.41,1.41c1.82,1.95,5.03,1.85,6.95,0.1c2-1.82,2.36-4.98,1.14-7.32c-0.68-1.31-1.92-2.38-3.38-2.68
				c-0.53-0.11-1.08,0.15-1.23,0.7C93.96,78.25,94.26,78.88,94.79,78.99L94.79,78.99z"/>
		</g>
	</g>
	<g>
		<g>
			<path d="M97.64,46.7c6.46,9.41,2.76,21.15-2.03,30.38c-0.59,1.14,1.13,2.15,1.73,1.01c5.11-9.84,8.9-22.38,2.03-32.4
				C98.65,44.64,96.91,45.64,97.64,46.7L97.64,46.7z"/>
		</g>
	</g>
	<g>
		<g>
			<path d="M91.34,88.21c-2.48,7.08-7.33,13.31-14.76,15.46c-5.46,1.58-11.64,0.9-16.66-1.75c-2.22-1.17-4.35-2.76-5.62-4.97
				c-0.64-1.11-2.37-0.11-1.73,1.01c2.74,4.75,8.63,7.34,13.83,8.18c6.79,1.11,13.79-0.54,19.03-5.09
				c3.75-3.26,6.22-7.67,7.84-12.31C93.69,87.53,91.76,87.01,91.34,88.21L91.34,88.21z"/>
		</g>
	</g>
	<g>
		<g>
			<path d="M74.68,90.87c1.08,1.28,2.3,2.53,3.82,3.28c1.58,0.79,3.49,1.09,5.17,0.41c0.5-0.2,0.85-0.67,0.7-1.23
				c-0.13-0.47-0.73-0.9-1.23-0.7c-2.83,1.15-5.34-1.16-7.04-3.18c-0.35-0.41-1.06-0.36-1.41,0C74.27,89.87,74.33,90.46,74.68,90.87
				L74.68,90.87z"/>
		</g>
	</g>
	<g>
		<g>
			<path d="M79.18,62.11c0.09-0.09,0.19-0.18,0.29-0.27c0.14-0.12-0.09,0.04,0.01-0.01c0.06-0.03,0.11-0.08,0.16-0.11
				c0.11-0.07,0.22-0.13,0.34-0.19c0.05-0.02,0.09-0.05,0.14-0.07c0.23-0.11-0.19,0.06,0.05-0.02c0.24-0.08,0.47-0.15,0.72-0.2
				c0.12-0.02,0.14-0.02,0.01-0.01c0.07-0.01,0.13-0.01,0.2-0.02c0.13-0.01,0.26-0.01,0.39-0.01c0.12,0,0.24,0.01,0.35,0.02
				c0.01,0,0.25,0.03,0.1,0.01c-0.15-0.02,0.07,0.01,0.1,0.02c0.26,0.05,0.5,0.13,0.75,0.22c-0.12-0.04-0.09-0.04,0.01,0.01
				c0.06,0.03,0.12,0.06,0.17,0.09c0.11,0.06,0.23,0.13,0.33,0.2c0.04,0.03,0.08,0.06,0.13,0.09c-0.18-0.11-0.03-0.02,0.01,0.01
				c0.11,0.1,0.21,0.19,0.31,0.3c0.36,0.38,1.06,0.39,1.41,0c0.37-0.41,0.38-1.01,0-1.41c-1.92-2.03-5.45-2.04-7.4-0.05
				c-0.37,0.37-0.4,1.05,0,1.41C78.16,62.48,78.79,62.51,79.18,62.11L79.18,62.11z"/>
		</g>
	</g>
	<ellipse transform="matrix(0.2622 -0.965 0.965 0.2622 -11.038 133.6717)" class="st12" cx="81.9" cy="74.05" rx="3.97" ry="1.5"/>
	<ellipse transform="matrix(0.2622 -0.965 0.965 0.2622 -9.0656 133.4124)" class="st8" cx="82.71" cy="72.63" rx="1.7" ry="0.83"/>
	<g>
		<g>
			<path d="M39.32,69.99c0.22,0.03,0.43,0.08,0.64,0.15c0.1,0.03,0.2,0.07,0.3,0.11c0.1,0.04-0.24-0.11-0.05-0.02
				c0.05,0.02,0.1,0.04,0.14,0.07c0.2,0.1,0.39,0.21,0.57,0.34c0.04,0.03,0.09,0.06,0.13,0.09c-0.04-0.03-0.08-0.06-0.12-0.09
				c0.03,0.02,0.06,0.04,0.08,0.07c0.08,0.07,0.16,0.14,0.24,0.21c0.15,0.15,0.3,0.3,0.43,0.46c0.13,0.15-0.14-0.2-0.03-0.04
				c0.03,0.04,0.06,0.09,0.09,0.13c0.06,0.09,0.12,0.18,0.17,0.27c0.05,0.09,0.1,0.18,0.15,0.28c0.02,0.05,0.04,0.1,0.07,0.14
				c0.08,0.17-0.08-0.21-0.02-0.04c0.08,0.22,0.15,0.43,0.2,0.66c0.11,0.51,0.74,0.86,1.23,0.7c0.54-0.17,0.82-0.68,0.7-1.23
				c-0.45-2.07-2.28-3.85-4.39-4.17c-0.28-0.04-0.52-0.05-0.77,0.1c-0.21,0.12-0.41,0.36-0.46,0.6
				C38.51,69.23,38.76,69.9,39.32,69.99L39.32,69.99z"/>
		</g>
	</g>
	<g>
		<g>
			<path d="M34.22,96.55c-12.38,9.73-16.93,25.64-18.64,40.65c-0.56,4.89-0.86,9.81-1.16,14.72c-0.08,1.29,1.92,1.28,2,0
				c0.96-15.49,2.07-31.9,11.04-45.15c2.26-3.34,5-6.32,8.18-8.81C36.64,97.17,35.22,95.77,34.22,96.55L34.22,96.55z"/>
		</g>
	</g>
	<g>
		<g>
			<path d="M46.05,117.06c3.37,4.66,6.6,9.43,9.75,14.25c0.12-0.46,0.24-0.91,0.36-1.37c-7.08,3.65-13.3,8.81-18.2,15.09
				c0.52,0.07,1.05,0.13,1.57,0.2c-3.98-5.91-7.95-11.82-11.93-17.73c-0.71-1.06-2.45-0.06-1.73,1.01
				c3.98,5.91,7.95,11.82,11.93,17.73c0.32,0.47,1.15,0.75,1.57,0.2c4.8-6.16,10.85-11.2,17.79-14.78c0.46-0.24,0.64-0.93,0.36-1.37
				c-3.15-4.82-6.38-9.58-9.75-14.25C47.03,115.02,45.3,116.02,46.05,117.06L46.05,117.06z"/>
		</g>
	</g>
	<g>
		<g>
			<path d="M77.88,126.35c2.11-6.44,7.83-11.28,14.6-12.05c3.28-0.37,7.15,0.01,9.95,1.9c1.11,0.74,2.54,2.2,2.06,3.67
				c-0.45,1.38-2.1,2.4-3.07,3.41c-0.89,0.93,0.52,2.34,1.41,1.41c1.21-1.25,2.81-2.33,3.47-4c0.65-1.62,0.01-3.38-1.07-4.66
				c-2.56-3.05-7.32-3.93-11.09-3.84c-8.35,0.19-15.61,5.74-18.2,13.63C75.55,127.05,77.48,127.57,77.88,126.35L77.88,126.35z"/>
		</g>
	</g>
	<g>
		<g>
			<path d="M95.92,122.3c1.1,0.42,2.1,0.82,3.15,1.39c0.94,0.51,1.95,1.16,2.51,1.93c0.58,0.81,0.69,1.57,0.3,2.54
				c-0.56,1.41-2.01,2.17-3.25,2.9c-1.11,0.65-0.1,2.38,1.01,1.73c1.23-0.72,2.51-1.49,3.39-2.64c0.76-1,1.2-2.33,1.03-3.58
				c-0.29-2.25-2.27-3.72-4.14-4.7c-1.11-0.58-2.29-1.05-3.46-1.5c-0.5-0.19-1.1,0.21-1.23,0.7
				C95.07,121.64,95.42,122.11,95.92,122.3L95.92,122.3z"/>
		</g>
	</g>
	<g>
		<g>
			<path d="M93.78,129.8c1.25,0.76,2.46,1.64,3.37,2.79c0.06,0.08,0.26,0.36,0.37,0.54c0.12,0.2,0.31,0.56,0.35,0.66
				c-0.02-0.05,0.07,0.21,0.09,0.27c0.04,0.11,0.07,0.23,0.09,0.34c0.02,0.1,0.04,0.2,0.06,0.3c-0.04-0.23,0.01,0.16,0.01,0.23
				c0,0.1,0,0.19,0,0.29c0,0.04-0.03,0.36-0.01,0.23c0.02-0.12-0.04,0.19-0.05,0.23c-0.03,0.12-0.06,0.24-0.1,0.36
				c-0.02,0.06-0.13,0.35-0.05,0.15c-0.04,0.09-0.08,0.18-0.13,0.27c-0.11,0.22-0.24,0.44-0.39,0.63c0.11-0.14-0.11,0.1-0.15,0.13
				c0.15-0.13-0.11,0.06-0.16,0.08c-0.04,0.02-0.17,0.06,0,0c-0.04,0.01-0.08,0.03-0.13,0.04c-0.05,0.01-0.43,0.09-0.23,0.06
				c-0.62,0.07-0.99,0-1.53-0.12c-0.65-0.15-1.28-0.37-1.9-0.61c-0.35-0.14-0.39-0.16-0.7-0.29c-0.25-0.11-0.49-0.22-0.74-0.33
				c-0.49-0.22-1.07-0.14-1.37,0.36c-0.25,0.43-0.14,1.15,0.36,1.37c1.19,0.53,2.39,1.08,3.66,1.39c1.36,0.34,2.94,0.46,4.09-0.49
				c0.92-0.75,1.41-2.11,1.51-3.26c0.1-1.22-0.31-2.46-0.98-3.47c-1.08-1.64-2.69-2.86-4.35-3.87
				C93.68,127.4,92.68,129.13,93.78,129.8L93.78,129.8z"/>
		</g>
	</g>
	<g>
		<g>
			<path d="M90.65,137.36c-0.8,2.43-1.64,4.86-2.61,7.23c-0.08,0.18,0.04-0.1-0.03,0.08c-0.03,0.07-0.06,0.15-0.1,0.22
				c-0.07,0.15-0.13,0.3-0.2,0.44c-0.11,0.22-0.21,0.45-0.34,0.66c-0.03,0.04-0.06,0.09-0.08,0.13c-0.07,0.14,0.09-0.11,0.07-0.08
				c-0.16,0.16,0.2-0.11,0.29-0.13c0.04-0.01,0.35-0.04,0.16-0.04c-0.15,0,0.24,0.05,0.07,0.01c-0.14-0.03-0.29-0.05-0.43-0.08
				c-1.67-0.35-3.35-0.81-4.95-1.41c-0.08-0.03-0.16-0.06-0.24-0.09c-0.03-0.01,0.16,0.09-0.01-0.01c-0.04-0.02-0.1-0.06-0.14-0.07
				c-0.14-0.04,0.12,0.11,0.09,0.08c0.08,0.09,0.15,0.31,0.14,0.3c-0.02-0.09-0.01,0.04-0.02,0.07c0.02-0.05,0.02-0.11,0.04-0.17
				c0.01-0.04,0.03-0.09,0.04-0.13c0.05-0.15-0.06,0.12,0.01-0.03c0.05-0.11,0.11-0.22,0.17-0.33c0.49-0.91,1.34-1.92,1.28-3.02
				c-0.07-1.28-2.07-1.29-2,0c0,0.04,0.01,0.07,0,0.11c-0.02,0.14,0.04-0.18,0-0.03c-0.02,0.09-0.05,0.17-0.08,0.26
				c0,0.01-0.02,0.05-0.09,0.18c-0.07,0.13-0.14,0.26-0.21,0.39c-0.25,0.45-0.54,0.88-0.76,1.34c-0.44,0.92-0.65,2.11,0.38,2.72
				c0.66,0.39,1.49,0.6,2.21,0.82c0.96,0.3,1.93,0.57,2.91,0.8c0.65,0.16,1.6,0.52,2.23,0.16c0.47-0.27,0.74-0.85,0.97-1.32
				c0.75-1.57,1.34-3.23,1.92-4.87c0.43-1.21,0.85-2.42,1.25-3.64C92.98,136.67,91.05,136.14,90.65,137.36L90.65,137.36z"/>
		</g>
	</g>
	<g>
		<g>
			<path d="M79.02,141.07c2.12,1.63,4.95,0.7,7.23-0.02c2.16-0.69,4.38-1.61,5.83-3.43c0.34-0.42,0.41-1,0-1.41
				c-0.35-0.35-1.08-0.42-1.41,0c-1.21,1.52-2.97,2.28-4.77,2.86c-1.8,0.58-4.16,1.59-5.86,0.28c-0.43-0.33-1.12-0.07-1.37,0.36
				C78.36,140.21,78.59,140.74,79.02,141.07L79.02,141.07z"/>
		</g>
	</g>
	<g>
		<g>
			<path d="M41,144.8c1.89,2.33,4.46,4.23,6.97,5.84c1.57,1.01,3.22,1.91,4.95,2.62c1.3,0.54,2.81,1.19,4.24,1.18
				c2.14-0.01,4.33-1.33,6.12-2.34c2.78-1.57,5.42-3.39,8.04-5.2c2.75-1.91,5.46-3.89,8.28-5.7c1.08-0.69,0.08-2.43-1.01-1.73
				c-4.84,3.11-9.38,6.65-14.27,9.69c-1.96,1.21-4.06,2.58-6.32,3.15c-1.01,0.26-1.81,0-2.81-0.32c-1.72-0.55-3.35-1.36-4.91-2.27
				c-2.86-1.67-5.77-3.74-7.87-6.32C41.6,142.39,40.19,143.81,41,144.8L41,144.8z"/>
		</g>
	</g>
	<g>
		<g>
			<path d="M54.95,133.36c0.96,1.17,1.35,3.52,3.4,2.63c1.3-0.57,2.52-1.37,3.75-2.06c4.76-2.69,9.61-5.32,14.77-7.16
				c1.2-0.43,0.68-2.36-0.53-1.93c-4.83,1.73-9.4,4.09-13.87,6.59c-1.44,0.8-2.86,1.65-4.31,2.43c-0.2,0.11-0.43,0.2-0.62,0.32
				c-0.23,0.14-0.06-0.02-0.04,0.02c-0.02,0.01-0.05,0.02-0.07,0.02c-0.13,0.04-0.02,0.04,0.32,0.02c0.02-0.15-0.58-1.01-0.67-1.18
				c-0.2-0.4-0.42-0.76-0.7-1.11C55.55,130.95,54.14,132.37,54.95,133.36L54.95,133.36z"/>
		</g>
	</g>
	<g>
		<g>
			<path d="M97.77,112.31c1.15-2.13,2.31-4.27,3.46-6.4c0.25-0.46,0.13-1.11-0.36-1.37c-0.47-0.25-1.1-0.13-1.37,0.36
				c-1.15,2.13-2.31,4.27-3.46,6.4c-0.25,0.46-0.13,1.11,0.36,1.37C96.86,112.92,97.5,112.8,97.77,112.31L97.77,112.31z"/>
		</g>
	</g>
	<g>
		<g>
			<path d="M103.98,115.3c0.66-1.2,1.24-2.44,1.79-3.69c0.39-0.89,0.78-1.79,1.3-2.62c0.27-0.45,0.11-1.12-0.36-1.37
				c-0.49-0.26-1.07-0.12-1.37,0.36c-0.51,0.83-0.9,1.73-1.3,2.62c-0.55,1.25-1.14,2.49-1.79,3.69c-0.25,0.46-0.13,1.11,0.36,1.37
				C103.08,115.9,103.71,115.79,103.98,115.3L103.98,115.3z"/>
		</g>
	</g>
	<g>
		<g>
			<path d="M138.73,117.5c-0.07-1.54-0.29-3.09-1.55-4.13c-1.14-0.94-2.76-1.4-4.19-1.68c-3.21-0.63-6.06,1.11-7.64,3.87
				c-1.56,2.73-1.63,6.24,0.5,8.69c1.94,2.23,5.19,2.46,7.79,1.39c3.07-1.26,5.72-4.35,5.43-7.83c-0.1-1.27-2.11-1.28-2,0
				c0.19,2.28-1.28,4.35-3.18,5.48c-1.72,1.03-4.08,1.46-5.84,0.27c-1.93-1.31-2.22-3.91-1.48-5.95c0.7-1.95,2.54-4.02,4.75-4.09
				c1.24-0.04,2.73,0.39,3.85,0.93c1.3,0.63,1.48,1.7,1.55,3.05C136.79,118.78,138.79,118.79,138.73,117.5L138.73,117.5z"/>
		</g>
	</g>
	<g>
		<g>
			<path d="M123.17,110.6c0.51,0.09,1.02,0.19,1.52,0.34c0.13,0.04,0.25,0.08,0.38,0.12c0.06,0.02,0.11,0.04,0.17,0.06
				c0,0,0.24,0.09,0.13,0.05c-0.1-0.04,0.07,0.03,0.08,0.04c0.07,0.03,0.13,0.06,0.2,0.1c0.11,0.06,0.23,0.12,0.34,0.18
				c0.09,0.05,0.18,0.11,0.27,0.16c0.05,0.04,0.11,0.07,0.16,0.11c0.09,0.06,0.05,0.03-0.01-0.02c0.18,0.15,0.36,0.3,0.52,0.47
				c0.08,0.08,0.15,0.17,0.23,0.26c0.09,0.11-0.09-0.14-0.02-0.02c0.03,0.04,0.06,0.08,0.09,0.13c0.06,0.1,0.12,0.2,0.18,0.3
				c0.03,0.06,0.06,0.12,0.09,0.17c0.07,0.13-0.09-0.22,0,0.01c0.19,0.49,0.68,0.88,1.23,0.7c0.47-0.15,0.9-0.71,0.7-1.23
				c-0.44-1.15-1.24-2.06-2.28-2.7c-1.03-0.64-2.24-0.97-3.43-1.17c-0.51-0.09-1.1,0.14-1.23,0.7
				C122.37,109.85,122.62,110.5,123.17,110.6L123.17,110.6z"/>
		</g>
	</g>
	<g>
		<g>
			<path d="M129.44,106.7c0.19,0.16,0.37,0.32,0.54,0.5c0.07,0.08,0.14,0.16,0.21,0.25c0.17,0.2-0.07-0.1,0.02,0.02
				c0.03,0.04,0.06,0.09,0.1,0.13c0.14,0.2,0.27,0.41,0.38,0.63c0.06,0.11,0.11,0.22,0.16,0.33c-0.04-0.08-0.04-0.11-0.01-0.01
				c0.02,0.06,0.05,0.13,0.07,0.19c0.08,0.22,0.14,0.44,0.19,0.67c0.03,0.12,0.05,0.24,0.07,0.36c0,0.02,0.02,0.2,0.01,0.07
				c-0.01-0.15,0.01,0.08,0.01,0.11c0.02,0.23,0.02,0.46,0.02,0.69c0,0.12-0.02,0.24-0.03,0.37c-0.02,0.2,0.02-0.11,0,0.02
				c-0.01,0.07-0.02,0.13-0.04,0.2c-0.1,0.51,0.14,1.1,0.7,1.23c0.5,0.11,1.12-0.15,1.23-0.7c0.46-2.35-0.35-4.92-2.22-6.46
				c-0.4-0.33-1.03-0.42-1.41,0C129.1,105.66,129.01,106.35,129.44,106.7L129.44,106.7z"/>
		</g>
	</g>
	<g>
		<g>
			<path d="M133.54,125.37c4.78,6.68,13.55,9.36,21.2,6.21c1.17-0.48,0.66-2.42-0.53-1.93c-6.77,2.79-14.65,0.71-18.94-5.29
				C134.53,123.33,132.79,124.33,133.54,125.37L133.54,125.37z"/>
		</g>
	</g>
	<g>
		<g>
			<path d="M138.67,117c3.8-2.18,8.76-2.34,12.3,0.46c1.51,1.19,2.68,2.84,3.22,4.69c0.72,2.5,0.16,5.11-0.36,7.59
				c-0.26,1.26,1.66,1.79,1.93,0.53c0.59-2.83,1.18-5.8,0.36-8.65c-0.65-2.27-2.08-4.28-3.93-5.73c-4.19-3.29-10.01-3.2-14.52-0.62
				C136.55,115.91,137.55,117.64,138.67,117L138.67,117z"/>
		</g>
	</g>
	<g>
		<g>
			<path d="M144,116.76c-0.68,0.01-1.4,0.25-1.87,0.76c-0.24,0.27-0.45,0.59-0.52,0.95c-0.07,0.35-0.09,0.74,0.03,1.09
				c0.15,0.43,0.4,0.77,0.78,1.02c0.32,0.21,0.74,0.3,1.12,0.31c0.31,0.01,0.64-0.04,0.94-0.14c0.36-0.12,0.71-0.3,0.98-0.57
				c0.34-0.34,0.52-0.79,0.55-1.26c0.02-0.45-0.17-0.95-0.51-1.25c-0.2-0.18-0.43-0.29-0.71-0.29c-0.25,0-0.54,0.11-0.71,0.29
				c-0.17,0.19-0.3,0.44-0.29,0.71c0.01,0.25,0.09,0.53,0.29,0.71c0.03,0.02,0.05,0.05,0.08,0.08c-0.05-0.07-0.1-0.13-0.16-0.2
				c0.03,0.04,0.06,0.09,0.08,0.14c-0.03-0.08-0.07-0.16-0.1-0.24c0.02,0.06,0.04,0.12,0.05,0.19c-0.01-0.09-0.02-0.18-0.04-0.27
				c0.01,0.07,0.01,0.13,0,0.2c0.01-0.09,0.02-0.18,0.04-0.27c-0.01,0.08-0.03,0.15-0.06,0.22c0.03-0.08,0.07-0.16,0.1-0.24
				c-0.03,0.07-0.07,0.14-0.12,0.2c0.05-0.07,0.1-0.13,0.16-0.2c-0.05,0.07-0.11,0.12-0.18,0.18c0.07-0.05,0.13-0.1,0.2-0.16
				c-0.1,0.07-0.2,0.13-0.31,0.17c0.08-0.03,0.16-0.07,0.24-0.1c-0.16,0.06-0.33,0.11-0.5,0.13c0.09-0.01,0.18-0.02,0.27-0.04
				c-0.15,0.02-0.31,0.02-0.46,0c0.09,0.01,0.18,0.02,0.27,0.04c-0.11-0.02-0.21-0.04-0.31-0.08c0.08,0.03,0.16,0.07,0.24,0.1
				c-0.07-0.03-0.13-0.07-0.19-0.11c0.07,0.05,0.13,0.1,0.2,0.16c-0.05-0.04-0.1-0.09-0.14-0.14c0.05,0.07,0.1,0.13,0.16,0.2
				c-0.04-0.06-0.08-0.12-0.11-0.19c0.03,0.08,0.07,0.16,0.1,0.24c-0.03-0.08-0.05-0.16-0.06-0.24c0.01,0.09,0.02,0.18,0.04,0.27
				c-0.01-0.09-0.01-0.19,0-0.28c-0.01,0.09-0.02,0.18-0.04,0.27c0.01-0.09,0.04-0.19,0.07-0.27c-0.03,0.08-0.07,0.16-0.1,0.24
				c0.04-0.09,0.09-0.17,0.15-0.25c-0.05,0.07-0.1,0.13-0.16,0.2c0.07-0.08,0.14-0.15,0.22-0.22c-0.07,0.05-0.13,0.1-0.2,0.16
				c0.1-0.08,0.21-0.14,0.32-0.19c-0.08,0.03-0.16,0.07-0.24,0.1c0.14-0.06,0.28-0.09,0.43-0.12c-0.09,0.01-0.18,0.02-0.27,0.04
				c0.08-0.01,0.17-0.02,0.25-0.02c0.26,0,0.52-0.11,0.71-0.29c0.17-0.17,0.3-0.46,0.29-0.71
				C144.98,117.22,144.56,116.75,144,116.76L144,116.76z"/>
		</g>
	</g>
	<g>
		<g>
			<path d="M150.63,121.48c-0.3-0.06-0.62-0.08-0.92,0.03c-0.29,0.1-0.55,0.25-0.77,0.47c-0.43,0.44-0.64,1.1-0.45,1.7
				c0.19,0.6,0.66,1.07,1.26,1.25c0.6,0.18,1.25-0.01,1.69-0.45c0.45-0.45,0.66-1.15,0.48-1.77c-0.07-0.24-0.24-0.47-0.46-0.6
				c-0.21-0.13-0.53-0.18-0.77-0.1c-0.24,0.08-0.48,0.23-0.6,0.46c-0.12,0.24-0.18,0.51-0.1,0.77c0.01,0.04,0.02,0.08,0.03,0.12
				c-0.01-0.09-0.02-0.18-0.04-0.27c0.01,0.06,0.01,0.12,0,0.18c0.01-0.09,0.02-0.18,0.04-0.27c-0.01,0.07-0.03,0.14-0.06,0.21
				c0.03-0.08,0.07-0.16,0.1-0.24c-0.03,0.07-0.07,0.13-0.11,0.19c0.05-0.07,0.1-0.13,0.16-0.2c-0.05,0.06-0.1,0.11-0.16,0.16
				c0.07-0.05,0.13-0.1,0.2-0.16c-0.05,0.04-0.11,0.07-0.17,0.1c0.08-0.03,0.16-0.07,0.24-0.1c-0.06,0.02-0.11,0.04-0.17,0.05
				c0.09-0.01,0.18-0.02,0.27-0.04c-0.06,0.01-0.13,0.01-0.19,0c0.09,0.01,0.18,0.02,0.27,0.04c-0.06-0.01-0.12-0.03-0.18-0.05
				c0.08,0.03,0.16,0.07,0.24,0.1c-0.07-0.03-0.13-0.06-0.18-0.11c0.07,0.05,0.13,0.1,0.2,0.16c-0.06-0.05-0.12-0.1-0.17-0.17
				c0.05,0.07,0.1,0.13,0.16,0.2c-0.04-0.06-0.08-0.12-0.11-0.18c0.03,0.08,0.07,0.16,0.1,0.24c-0.02-0.06-0.04-0.12-0.05-0.18
				c0.01,0.09,0.02,0.18,0.04,0.27c-0.01-0.06-0.01-0.11,0-0.17c-0.01,0.09-0.02,0.18-0.04,0.27c0.01-0.06,0.03-0.12,0.05-0.18
				c-0.03,0.08-0.07,0.16-0.1,0.24c0.03-0.06,0.06-0.12,0.1-0.18c-0.05,0.07-0.1,0.13-0.16,0.2c0.05-0.06,0.1-0.11,0.16-0.16
				c-0.07,0.05-0.13,0.1-0.2,0.16c0.06-0.04,0.12-0.08,0.18-0.11c-0.08,0.03-0.16,0.07-0.24,0.1c0.07-0.03,0.14-0.05,0.22-0.06
				c-0.09,0.01-0.18,0.02-0.27,0.04c0.06-0.01,0.12-0.01,0.19,0c-0.09-0.01-0.18-0.02-0.27-0.04c0.01,0,0.03,0,0.04,0.01
				c0.27,0.05,0.53,0.04,0.77-0.1c0.21-0.12,0.41-0.36,0.46-0.6c0.06-0.26,0.05-0.54-0.1-0.77
				C151.09,121.73,150.88,121.52,150.63,121.48L150.63,121.48z"/>
		</g>
	</g>
	<g>
		<g>
			<path d="M144.35,124.2c-0.25-0.12-0.41-0.17-0.68-0.19c-0.16-0.01-0.32,0.01-0.47,0.05c-0.14,0.03-0.28,0.1-0.41,0.17
				c-0.14,0.08-0.27,0.18-0.38,0.29c-0.21,0.21-0.39,0.5-0.46,0.8c-0.04,0.15-0.06,0.32-0.05,0.48c0.02,0.27,0.07,0.44,0.19,0.69
				c0.13,0.28,0.36,0.49,0.61,0.67c0.06,0.04,0.12,0.08,0.19,0.11c0.14,0.06,0.29,0.13,0.44,0.17c0.32,0.06,0.64,0.08,0.95-0.02
				c0.31-0.09,0.59-0.26,0.82-0.48c0.26-0.25,0.42-0.55,0.55-0.87c0.04-0.09,0.06-0.18,0.08-0.28c0.03-0.18,0.06-0.36,0.05-0.54
				c-0.02-0.27-0.1-0.52-0.29-0.71c-0.17-0.17-0.46-0.3-0.71-0.29c-0.26,0.01-0.53,0.1-0.71,0.29c-0.17,0.19-0.31,0.44-0.29,0.71
				c0,0.08,0,0.16-0.01,0.24c0.01-0.09,0.02-0.18,0.04-0.27c-0.02,0.12-0.05,0.24-0.1,0.36c0.03-0.08,0.07-0.16,0.1-0.24
				c-0.04,0.1-0.1,0.19-0.16,0.27c0.05-0.07,0.1-0.13,0.16-0.2c-0.05,0.07-0.11,0.13-0.18,0.18c0.07-0.05,0.13-0.1,0.2-0.16
				c-0.07,0.05-0.14,0.1-0.22,0.13c0.08-0.03,0.16-0.07,0.24-0.1c-0.07,0.03-0.14,0.05-0.21,0.06c0.09-0.01,0.18-0.02,0.27-0.04
				c-0.08,0.01-0.16,0.01-0.24,0c0.09,0.01,0.18,0.02,0.27,0.04c-0.09-0.01-0.17-0.03-0.25-0.07c0.08,0.03,0.16,0.07,0.24,0.1
				c-0.08-0.03-0.15-0.08-0.22-0.13c0.07,0.05,0.13,0.1,0.2,0.16c-0.05-0.04-0.1-0.09-0.15-0.15c0.05,0.07,0.1,0.13,0.16,0.2
				c-0.04-0.05-0.07-0.1-0.09-0.16c0.03,0.08,0.07,0.16,0.1,0.24c-0.02-0.06-0.04-0.12-0.05-0.18c0.01,0.09,0.02,0.18,0.04,0.27
				c0-0.05,0-0.09,0-0.14c-0.01,0.09-0.02,0.18-0.04,0.27c0.01-0.06,0.03-0.12,0.05-0.18c-0.03,0.08-0.07,0.16-0.1,0.24
				c0.03-0.06,0.06-0.11,0.1-0.16c-0.05,0.07-0.1,0.13-0.16,0.2c0.05-0.06,0.1-0.11,0.15-0.15c-0.07,0.05-0.13,0.1-0.2,0.16
				c0.05-0.04,0.1-0.07,0.16-0.1c-0.08,0.03-0.16,0.07-0.24,0.1c0.06-0.02,0.12-0.04,0.18-0.05c-0.09,0.01-0.18,0.02-0.27,0.04
				c0.05,0,0.09-0.01,0.14,0c-0.09-0.01-0.18-0.02-0.27-0.04c0.05,0.01,0.09,0.02,0.13,0.03c-0.08-0.03-0.16-0.07-0.24-0.1
				c0.01,0.01,0.03,0.01,0.04,0.02c0.24,0.12,0.5,0.17,0.77,0.1c0.23-0.06,0.48-0.24,0.6-0.46c0.12-0.23,0.18-0.51,0.1-0.77
				C144.73,124.56,144.58,124.31,144.35,124.2L144.35,124.2z"/>
		</g>
	</g>
	<g>
		<g>
			<path d="M136.21,128.29c-0.21,0.35-0.45,0.69-0.7,1.02c0.05-0.07,0.1-0.13,0.16-0.2c-0.24,0.31-0.49,0.6-0.76,0.88
				c-0.18,0.19-0.29,0.44-0.29,0.71c0,0.25,0.11,0.54,0.29,0.71c0.19,0.17,0.44,0.3,0.71,0.29c0.26-0.01,0.52-0.1,0.71-0.29
				c0.61-0.64,1.15-1.35,1.61-2.1c0.13-0.22,0.17-0.52,0.1-0.77c-0.06-0.23-0.24-0.48-0.46-0.6c-0.23-0.12-0.51-0.18-0.77-0.1
				C136.56,127.91,136.35,128.06,136.21,128.29L136.21,128.29z"/>
		</g>
	</g>
	<g>
		<g>
			<path d="M145.01,132.92c0,0.22,0,0.45,0,0.67c-0.01,0.14,0.02,0.27,0.09,0.39c0.04,0.12,0.11,0.23,0.21,0.32
				c0.09,0.1,0.2,0.17,0.32,0.21c0.12,0.06,0.25,0.09,0.39,0.09c0.09-0.01,0.18-0.02,0.27-0.04c0.17-0.05,0.32-0.13,0.44-0.26
				c0.05-0.07,0.1-0.13,0.16-0.2c0.09-0.16,0.14-0.32,0.14-0.5c0-0.22,0-0.45,0-0.67c0.01-0.14-0.02-0.27-0.09-0.39
				c-0.04-0.12-0.11-0.23-0.21-0.32c-0.09-0.1-0.2-0.17-0.32-0.21c-0.12-0.06-0.25-0.09-0.39-0.09c-0.09,0.01-0.18,0.02-0.27,0.04
				c-0.17,0.05-0.32,0.13-0.44,0.26c-0.05,0.07-0.1,0.13-0.16,0.2C145.06,132.58,145.01,132.74,145.01,132.92L145.01,132.92z"/>
		</g>
	</g>
	<g>
		<g>
			<path d="M134.89,125.42c-11.09-1.64-15.74,10.62-22.5,16.76c-0.72,0.66,0.03,2,0.97,1.67c2.09-0.73,4.2-0.07,6.28,0.35
				c2.16,0.44,4.33,0.79,6.51,1.07c4.44,0.58,9.12,1.08,13.59,0.48c6.97-0.94,12.81-6.04,14.6-12.86c0.33-1.25-1.6-1.78-1.93-0.53
				c-0.83,3.15-2.61,5.94-5.12,8.03c-2.93,2.45-6.52,3.47-10.29,3.58c-4.24,0.13-8.57-0.33-12.76-0.98
				c-2.04-0.32-4.06-0.75-6.08-1.15c-1.79-0.35-3.59-0.54-5.34,0.07c0.32,0.56,0.65,1.11,0.97,1.67c3.37-3.06,5.72-6.99,8.7-10.4
				c2.96-3.38,7.08-6.55,11.85-5.84C135.62,127.54,136.16,125.61,134.89,125.42L134.89,125.42z"/>
		</g>
	</g>
	<g>
		<g>
			<path d="M124.99,139.58c5.35-2.57,10.72-5.12,16.38-6.94c1.22-0.39,0.7-2.32-0.53-1.93c-5.83,1.87-11.36,4.5-16.86,7.14
				C122.82,138.41,123.83,140.13,124.99,139.58L124.99,139.58z"/>
		</g>
	</g>
	<g>
		<g>
			<path d="M155.1,131.87c0.77-0.27,1.57-0.48,2.38-0.61c0.09-0.01,0.18-0.03,0.27-0.04c-0.22,0.03,0.1-0.01,0.14-0.02
				c0.2-0.02,0.39-0.04,0.59-0.05c0.42-0.03,0.85-0.03,1.27-0.02c0.52,0.01,1.02-0.47,1-1c-0.02-0.55-0.44-0.98-1-1
				c-1.75-0.05-3.53,0.23-5.18,0.82c-0.49,0.17-0.87,0.69-0.7,1.23C154.03,131.66,154.58,132.06,155.1,131.87L155.1,131.87z"/>
		</g>
	</g>
	<g>
		<g>
			<path d="M56.83,109.83c5.52,5.13,7.55,12.43,9.2,19.52c0.29,1.25,2.22,0.72,1.93-0.53c-1.73-7.43-3.95-15.04-9.72-20.41
				C57.3,107.54,55.88,108.95,56.83,109.83L56.83,109.83z"/>
		</g>
	</g>
	<g>
		<g>
			<path d="M68.57,147.74c0.22,1.9,0.29,3.82,0.21,5.74c-0.02,0.52,0.48,1.02,1,1c0.56-0.03,0.98-0.44,1-1
				c0.08-1.91,0.01-3.83-0.21-5.74c-0.06-0.52-0.42-1.03-1-1C69.08,146.76,68.5,147.18,68.57,147.74L68.57,147.74z"/>
		</g>
	</g>
	<g>
		<g>
			<path d="M131.14,115.73c-0.18-0.13-0.36-0.25-0.54-0.38c-0.16-0.09-0.32-0.14-0.5-0.14c-0.18,0-0.35,0.05-0.5,0.14
				c-0.09,0.06-0.18,0.13-0.26,0.2c-0.02,0.02-0.04,0.04-0.06,0.06c-0.07,0.08-0.13,0.16-0.19,0.25c-0.02,0.02-0.03,0.05-0.04,0.07
				c-0.06,0.12-0.12,0.25-0.15,0.38c-0.01,0.02-0.01,0.05-0.01,0.07c-0.02,0.11-0.04,0.23-0.04,0.34c0,0.03,0,0.05,0,0.08
				c0.01,0.11,0.02,0.23,0.05,0.34c0.01,0.02,0.01,0.05,0.02,0.07c0.04,0.1,0.08,0.21,0.13,0.31c0.01,0.02,0.03,0.05,0.04,0.07
				c0.06,0.09,0.13,0.18,0.2,0.26c0.09,0.1,0.2,0.18,0.32,0.25c0.02,0.01,0.05,0.03,0.07,0.04c0.1,0.05,0.2,0.09,0.31,0.13
				c0.02,0.01,0.05,0.01,0.07,0.02c0.11,0.02,0.23,0.04,0.34,0.05c0.14,0.01,0.29-0.02,0.42-0.04c0.05-0.01,0.1-0.02,0.15-0.04
				c0.1-0.04,0.2-0.08,0.3-0.13c0.06-0.03,0.11-0.08,0.17-0.12c0.05-0.04,0.11-0.08,0.15-0.12c0.01-0.01,0.02-0.02,0.02-0.03
				c0.06-0.07,0.12-0.15,0.17-0.22c0.01-0.02,0.03-0.04,0.04-0.06c0.05-0.09,0.09-0.2,0.13-0.3c0.01-0.02,0.01-0.04,0.02-0.06
				c0.02-0.11,0.04-0.22,0.05-0.33c0-0.03,0-0.05,0-0.08c0-0.11-0.02-0.22-0.04-0.33c0-0.02-0.01-0.05-0.02-0.07
				c-0.03-0.09-0.07-0.18-0.11-0.26c-0.01-0.01-0.01-0.02-0.02-0.04c-0.01-0.01-0.01-0.02-0.02-0.03c-0.05-0.08-0.11-0.15-0.17-0.22
				c-0.02-0.02-0.03-0.04-0.05-0.05c-0.07-0.06-0.15-0.12-0.23-0.17c-0.01-0.01-0.02-0.01-0.03-0.02c-0.08-0.04-0.18-0.08-0.27-0.11
				c-0.01,0-0.03-0.01-0.04-0.01c-0.13-0.04-0.27-0.05-0.4-0.02c-0.13,0.01-0.26,0.05-0.37,0.12c-0.12,0.06-0.21,0.15-0.28,0.26
				c-0.09,0.1-0.15,0.21-0.18,0.34c-0.01,0.09-0.02,0.18-0.04,0.27c0,0.18,0.05,0.35,0.14,0.5c0.05,0.07,0.1,0.13,0.16,0.2
				c0.12,0.12,0.27,0.21,0.44,0.26c0.02,0,0.03,0.01,0.05,0.02c-0.08-0.03-0.16-0.07-0.24-0.1c0.02,0.01,0.05,0.02,0.07,0.04
				c-0.07-0.05-0.13-0.1-0.2-0.16c0.02,0.02,0.04,0.03,0.05,0.05c-0.05-0.07-0.1-0.13-0.16-0.2c0.02,0.03,0.04,0.05,0.05,0.08
				c-0.03-0.08-0.07-0.16-0.1-0.24c0.02,0.04,0.02,0.08,0.03,0.12c-0.01-0.09-0.02-0.18-0.04-0.27c0.01,0.05,0.01,0.09,0,0.14
				c0.01-0.09,0.02-0.18,0.04-0.27c-0.01,0.05-0.02,0.1-0.04,0.14c0.03-0.08,0.07-0.16,0.1-0.24c-0.02,0.04-0.03,0.07-0.06,0.1
				c0.05-0.07,0.1-0.13,0.16-0.2c-0.02,0.03-0.05,0.05-0.08,0.08c0.07-0.05,0.13-0.1,0.2-0.16c-0.04,0.03-0.08,0.05-0.13,0.07
				c0.08-0.03,0.16-0.07,0.24-0.1c-0.05,0.02-0.11,0.04-0.16,0.04c0.09-0.01,0.18-0.02,0.27-0.04c-0.06,0.01-0.11,0.01-0.17,0
				c0.09,0.01,0.18,0.02,0.27,0.04c-0.06-0.01-0.11-0.02-0.16-0.04c0.08,0.03,0.16,0.07,0.24,0.1c-0.05-0.02-0.09-0.05-0.14-0.08
				c0.07,0.05,0.13,0.1,0.2,0.16c-0.04-0.03-0.07-0.06-0.09-0.09c0.05,0.07,0.1,0.13,0.16,0.2c-0.03-0.04-0.05-0.08-0.07-0.13
				c0.03,0.08,0.07,0.16,0.1,0.24c-0.02-0.05-0.03-0.1-0.04-0.15c0.01,0.09,0.02,0.18,0.04,0.27c-0.01-0.06-0.01-0.11,0-0.17
				c-0.01,0.09-0.02,0.18-0.04,0.27c0.01-0.06,0.02-0.12,0.05-0.18c-0.03,0.08-0.07,0.16-0.1,0.24c0.02-0.05,0.05-0.09,0.08-0.14
				c-0.05,0.07-0.1,0.13-0.16,0.2c0.03-0.03,0.06-0.07,0.09-0.09c-0.07,0.05-0.13,0.1-0.2,0.16c0.01-0.01,0.03-0.02,0.04-0.03
				c-0.34,0-0.67,0-1.01,0c0.18,0.13,0.36,0.25,0.54,0.38c0.11,0.07,0.24,0.11,0.37,0.12c0.13,0.03,0.27,0.02,0.4-0.02
				c0.13-0.03,0.24-0.09,0.34-0.18c0.11-0.07,0.19-0.16,0.26-0.28c0.03-0.08,0.07-0.16,0.1-0.24c0.05-0.18,0.05-0.35,0-0.53
				c-0.03-0.08-0.07-0.16-0.1-0.24C131.41,115.94,131.29,115.82,131.14,115.73L131.14,115.73z"/>
		</g>
	</g>
</g>
<g id="Ebene_25">
</g>
<g id="Ebene_26">
	<g>
		<g>
			<path class="st4" d="M94.03,80.32c0.2,0.04,0.41,0.1,0.6,0.18c-0.19-0.08,0.05,0.03,0.09,0.05c0.11,0.06,0.21,0.12,0.31,0.18
				c0.04,0.02,0.24,0.18,0.09,0.06c0.07,0.06,0.14,0.12,0.2,0.18c0.08,0.07,0.15,0.15,0.22,0.23c0.03,0.03,0.06,0.07,0.09,0.1
				c-0.06-0.08-0.06-0.08,0,0.01c0.05,0.08,0.1,0.15,0.14,0.23c0.03,0.05,0.06,0.1,0.09,0.16c0.04,0.09,0.05,0.11,0.03,0.05
				c-0.02-0.06-0.02-0.04,0.02,0.06c0.02,0.06,0.04,0.12,0.06,0.19c0.03,0.09,0.05,0.19,0.07,0.28c0.01,0.06,0.02,0.13,0.03,0.19
				c-0.01-0.09-0.02-0.1-0.01-0.02c0,0.11,0.01,0.23,0.01,0.34c0,0.1-0.01,0.2-0.02,0.29c0.02-0.19-0.03,0.13-0.03,0.17
				c-0.03,0.11-0.06,0.22-0.09,0.33c-0.01,0.04-0.12,0.28-0.04,0.12c-0.04,0.09-0.09,0.17-0.14,0.26c-0.03,0.06-0.07,0.11-0.1,0.16
				c0.06-0.07,0.05-0.07-0.03,0.02c-0.03,0.03-0.24,0.18-0.08,0.08c-0.04,0.02-0.25,0.14-0.09,0.07c-0.11,0.05-0.24,0.07-0.36,0.1
				c-0.2,0.05,0.11,0.02-0.11,0.01c-0.46-0.02-0.78-0.07-1.29-0.23c-0.09-0.03-0.18-0.06-0.27-0.09c-0.07-0.03-0.05-0.02,0.05,0.02
				c-0.05-0.02-0.1-0.05-0.15-0.08c-0.07-0.04-0.19-0.17-0.06-0.03c-0.08-0.08-0.07-0.07,0.01,0.03c-0.05-0.1-0.05-0.09,0,0.03
				c-0.18-0.49-0.69-0.87-1.23-0.7c-0.48,0.16-0.89,0.7-0.7,1.23c0.38,1.04,1.36,1.44,2.37,1.67c1.1,0.26,2.28,0.2,3.18-0.57
				c0.78-0.67,1.13-1.81,1.17-2.81c0.04-0.96-0.25-1.96-0.83-2.73c-0.66-0.88-1.6-1.53-2.68-1.76c-0.51-0.11-1.1,0.15-1.23,0.7
				C93.22,79.59,93.48,80.21,94.03,80.32L94.03,80.32z"/>
		</g>
	</g>
</g>
<g id="Ebene_7">
</g>
</svg>
