<?xml version="1.0" encoding="utf-8"?>
<!-- Generator: Adobe Adobe Illustrator 24.2.0, SVG Export Plug-In . SVG Version: 6.00 Build 0)  -->
<svg version="1.1" xmlns="http://www.w3.org/2000/svg" xmlns:xlink="http://www.w3.org/1999/xlink" x="0px" y="0px"
	 viewBox="0 0 170.08 170.08" style="enable-background:new 0 0 170.08 170.08;" xml:space="preserve">
<style type="text/css">
	.st0{fill:#E2472B;}
	.st1{fill:#7C8D9D;}
	.st2{fill:#F7BF9B;}
	.st3{fill:#975F5A;}
	.st4{stroke:#000000;stroke-miterlimit:10;}
	.st5{fill:#FFFFFF;stroke:#FFFFFF;stroke-width:0.3295;stroke-miterlimit:10;}
</style>
<g id="Ebene_23">
	<path class="st0" d="M72.09,96.47c-6.32-0.16-11.07,2.97-15.95,6.99s-8.25,9.84-9.3,16.08c4.36,1.99,8.73,3.98,13.09,5.98
		c-0.97,8.24-1.93,16.48-2.9,24.72c8.98,2.12,18.02,4.25,27.23,4.84s18.7-0.41,27.06-4.32c-1.7-8.05-2.57-16.28-2.58-24.5
		c4.86-3.17,9.73-6.33,14.59-9.5c-3.19-4.63-6.52-9.23-10.68-13.01c-4.17-3.78-9.27-6.72-14.85-7.45
		C89.61,95.22,79.95,96.66,72.09,96.47z"/>
</g>
<g id="Ebene_19">
	<path class="st0" d="M123.08,58.06c-1.83,3.26-2.56,7.04-2.66,10.78c-0.1,3.74,0.41,7.46,0.92,11.16c0.09,0.64,0.25,1.37,0.83,1.65
		c0.52,0.25,1.14-0.02,1.64-0.3c3.25-1.86,5.7-5.05,6.67-8.66c0.97-3.61,0.44-7.6-1.44-10.84
		C127.94,59.93,126.05,58.15,123.08,58.06z"/>
	<path class="st0" d="M43.85,56.92c4.25,7.59,5.15,16.99,2.42,25.25c-2.85-0.04-5.34-2.16-6.61-4.71c-1.27-2.55-1.53-5.47-1.65-8.31
		c-0.11-2.45-0.12-4.97,0.71-7.28S41.35,57.46,43.85,56.92z"/>
	<path class="st0" d="M49.21,55.13c-1-8.39,2.92-16.91,9.11-22.66s14.4-8.97,22.73-10.4c5.72-0.98,11.69-1.16,17.26,0.48
		c6.53,1.92,12.29,6.39,15.77,12.24s4.67,13.04,3.24,19.7c1.54,0.62,3.26,0.76,4.88,0.38c1.31-7.29-0.08-14.9-3.15-21.64
		c-1.6-3.5-3.67-6.84-6.49-9.46c-3.6-3.33-8.24-5.32-12.94-6.73c-8.46-2.54-17.55-3.37-26.17-1.47c-8.63,1.9-16.75,6.69-21.88,13.88
		c-4.38,6.13-6.4,13.66-7.3,21.14c-0.16,1.31-0.25,2.74,0.47,3.84C45.46,55.53,47.35,55.88,49.21,55.13z"/>
</g>
<g id="Ebene_13">
	<path class="st1" d="M115.99,56.51c-2.37,7.2-3.2,14.91-2.41,22.45c0.15,1.42,0.45,3,1.63,3.82c1.63,1.13,3.83,0.13,5.54-0.87
		c-1.76-8.49-0.88-17.5,2.47-25.49C121.26,55.68,119.02,55.66,115.99,56.51z"/>
	<path class="st1" d="M44.54,55.83c2.39,8.85,3.43,18.07,3.09,27.23c1.29,0.09,2.61,0.18,3.87-0.1c1.27-0.28,2.5-0.99,3.1-2.14
		c0.6-1.13,0.5-2.48,0.4-3.76c-0.35-4.21-0.71-8.42-1.06-12.62c-0.14-1.68-0.29-3.38-0.86-4.96c-0.57-1.58-1.63-3.07-3.15-3.78
		C48.41,54.98,46.39,55.21,44.54,55.83z"/>
</g>
<g id="Ebene_5">
	<path class="st2" d="M53.7,61.84c2.1,6.72-0.43,14.37,2.26,20.88c1.44,3.48,4.25,6.25,7.43,8.27s6.72,3.38,10.24,4.72
		c-0.22,4.01,1.9,8.06,5.32,10.17c3.42,2.11,7.99,2.18,11.48,0.19s5.74-5.98,5.65-9.99c4.72-3.14,8.95-7.02,12.38-11.53
		c1.34-1.77,2.57-3.65,3.35-5.73c2.42-6.46,0.26-14.02,2.99-20.36c-7.4-3.08-13.44-9.28-16.32-16.76c-4.29,3.94-9.56,6.81-15.2,8.25
		c0.23-3.18,0.46-6.36,0.69-9.54c-4.75,5.77-11.24,10.09-18.4,12.22c0.21-2.16,0.41-4.32,0.62-6.48
		C61.8,51.63,57.4,57.11,53.7,61.84z"/>
	<path class="st2" d="M46.78,119.94c-2.02-2.41-4.04-4.83-6.06-7.24c1.28-3.88,1.46-8.12,0.5-12.09c-0.32-1.31-1.33-2.91-2.6-2.45
		c-0.68,0.24-1.02,0.99-1.26,1.66c-0.69,1.97-1.13,4.02-1.31,6.1c-1.81-2.38-3.84-4.59-6.07-6.58c-1.13-1.02-2.47-2.03-3.99-1.97
		s-2.95,1.83-2.12,3.11c-0.5-0.9-1.89-1-2.69-0.36c-0.8,0.64-1.07,1.78-0.91,2.8c0.15,1.02,0.66,1.94,1.17,2.84
		c-1.05-1.04-3.02,0.14-3.19,1.61s0.78,2.82,1.75,3.94c2.13,2.47,4.6,4.66,7.3,6.49c1.02,0.69,2.09,1.34,2.9,2.26
		c1.36,1.55,1.83,3.66,2.63,5.56c2.16,5.16,6.77,8.82,11.19,12.25c1.74,1.35,3.7,2.77,5.89,2.61c1.68-0.12,3.15-1.16,4.36-2.33
		c3.27-3.15,5.31-7.54,5.61-12.07C55.32,124.37,49.82,123.56,46.78,119.94z"/>
	<path class="st2" d="M109.38,126.87c-1.04,2.1-0.69,4.7,0.5,6.71c1.19,2.01,3.13,3.49,5.22,4.56c1.83,0.93,3.84,1.6,5.89,1.55
		c4.28-0.1,7.92-3.25,10.38-6.76s4.17-7.53,6.92-10.82c2-2.4,4.48-4.33,6.72-6.5c2.24-2.17,4.31-4.68,5.12-7.7
		c0.29-1.09,0.38-2.36-0.31-3.25c-0.69-0.9-2.39-0.94-2.78,0.12c1.34-0.95,1.49-3.17,0.29-4.29c-1.19-1.12-3.4-0.84-4.27,0.55
		c0.97-0.73,0.74-2.4-0.25-3.11s-2.38-0.56-3.44,0.02s-1.85,1.54-2.62,2.47c-1.96,2.38-3.92,4.75-5.89,7.13
		c-0.55-0.96-0.57-2.12-0.57-3.22c0.01-1.1,0.02-2.26-0.47-3.25c-0.49-0.99-1.65-1.75-2.7-1.38c-0.76,0.27-1.24,1.05-1.37,1.84
		c-0.14,0.79,0.01,1.6,0.16,2.39c0.4,2.14,0.8,4.28,1.2,6.42c0.23,1.23,0.46,2.5,0.22,3.73c-0.68,3.42-4.54,5.09-6.58,7.92
		c-0.66-0.99-1.32-1.97-1.98-2.96C115.17,120.88,111.29,123.01,109.38,126.87z"/>
</g>
<g id="Ebene_25">
</g>
<g id="Ebene_10">
	<path class="st3" d="M53.36,61.89c4.95-5.26,9.41-10.98,13.31-17.07c-0.23,2.71-0.47,5.42-0.7,8.13
		c7.25-1.82,13.81-6.29,18.15-12.38c-0.19,3.2-0.39,6.41-0.58,9.61c5.9-1.19,11.32-4.61,14.92-9.43c3.21,7.45,9.03,13.75,16.2,17.56
		c-0.26-1.71,1.58-3.37,3.25-2.95c2.23-10.36-2.75-21.58-11.27-27.87s-20-7.89-30.3-5.4C69.9,23.65,63.8,26.74,59,31.29
		s-8.24,10.6-9.35,17.12c-0.41,2.43-0.46,5.07,0.8,7.18c0.6,1.01,1.47,1.84,2.13,2.82S53.67,60.65,53.36,61.89z"/>
</g>
<g id="Ebene_17">
</g>
<g id="Ebene_11">
</g>
<g id="Ebene_12">
</g>
<g id="Ebene_14">
</g>
<g id="Ebene_15">
</g>
<g id="Ebene_16">
</g>
<g id="Ebene_18">
</g>
<g id="Ebene_26">
	<g>
		<g>
			<path d="M42.76,56.35c4.19,8.12,3.83,17.55,3.17,26.41c-0.1,1.28,1.91,1.28,2,0c0.69-9.25,0.92-18.96-3.44-27.42
				C43.89,54.2,42.17,55.21,42.76,56.35L42.76,56.35z"/>
		</g>
	</g>
	<g>
		<g>
			<path d="M44.05,56.49c2.7-0.81,6.08-1.52,7.34,1.75c0.54,1.4,0.77,2.96,1.06,4.42c0.33,1.73,0.61,3.47,0.83,5.22
				c0.4,3.27,0.61,6.58,0.6,9.88c0,1.38,0.01,3.11-1.58,3.59c-1.55,0.47-3.33,0.53-4.93,0.76c-1.27,0.18-0.73,2.11,0.53,1.93
				c1.85-0.27,4.25-0.22,5.92-1.16c1.28-0.72,1.82-2.08,1.98-3.47c0.23-1.97,0.07-4.03-0.03-6c-0.11-2.17-0.32-4.33-0.61-6.49
				c-0.27-2-0.6-4-1.02-5.98c-0.36-1.75-0.69-3.64-1.79-5.1c-2.13-2.83-5.89-2.15-8.83-1.27C42.29,54.93,42.82,56.86,44.05,56.49
				L44.05,56.49z"/>
		</g>
	</g>
	<g>
		<g>
			<path d="M122.53,55.68c-3.78,8.31-3.72,17.37-2.35,26.23c0.2,1.27,2.12,0.73,1.93-0.53c-1.28-8.27-1.39-16.93,2.14-24.69
				C124.78,55.53,123.06,54.51,122.53,55.68L122.53,55.68z"/>
		</g>
	</g>
	<g>
		<g>
			<path d="M123.03,54.84c-2.99-0.98-7.19-1.65-8.78,1.9c-0.8,1.8-0.86,4.06-1.13,5.99c-0.3,2.09-0.56,4.18-0.73,6.28
				c-0.17,2.16-0.24,4.32-0.14,6.49c0.09,1.95,0.21,4.11,0.8,5.98c0.49,1.52,1.59,2.51,3.19,2.72c1.87,0.25,3.58-0.66,5.38-0.99
				c1.26-0.23,0.73-2.16-0.53-1.93c-1.39,0.25-2.79,1.02-4.22,0.97c-1.85-0.06-2.04-1.71-2.27-3.21c-0.52-3.31-0.47-6.7-0.21-10.04
				c0.26-3.27,0.73-6.53,1.27-9.77c0.25-1.49,0.69-2.75,2.29-3.15c1.53-0.38,3.12,0.19,4.56,0.67
				C123.72,57.17,124.25,55.24,123.03,54.84L123.03,54.84z"/>
		</g>
	</g>
	<g>
		<g>
			<path d="M123.62,58.36c5.78,0.3,6.49,7.64,6.33,12c-0.18,4.85-3.17,8.97-8.07,9.94c-1.26,0.25-0.73,2.18,0.53,1.93
				c2.66-0.52,5.09-1.99,6.81-4.09c1.95-2.38,2.67-5.18,2.73-8.21c0.06-3.09-0.14-6.41-1.68-9.17c-1.37-2.47-3.81-4.25-6.66-4.4
				C122.34,56.29,122.34,58.29,123.62,58.36L123.62,58.36z"/>
		</g>
	</g>
	<g>
		<g>
			<path d="M43.59,55.76c-5.77,1.44-7.58,9.29-7.29,14.39c0.33,5.83,3.27,12.79,10.02,12.8c1.29,0,1.29-2,0-2
				c-5.7-0.01-7.87-6.43-8.04-11.21c-0.14-4.07,1.15-10.88,5.84-12.05C45.37,57.38,44.85,55.45,43.59,55.76L43.59,55.76z"/>
		</g>
	</g>
	<g>
		<g>
			<path d="M50.15,54.29c-0.2-6.73,1.75-13.31,5.88-18.67c3.9-5.05,9.4-8.77,15.32-11.04c11.56-4.42,26.26-4.1,36.13,4.1
				c7.67,6.37,10.22,16.05,9.77,25.75c-0.06,1.29,1.94,1.28,2,0c0.43-9.31-1.8-18.8-8.56-25.53c-4.65-4.63-10.86-7.45-17.29-8.54
				c-13.25-2.25-28.23,2.01-37.35,12.14c-5.4,5.99-8.14,13.74-7.9,21.79C48.19,55.57,50.19,55.57,50.15,54.29L50.15,54.29z"/>
		</g>
	</g>
	<g>
		<g>
			<path d="M45.46,53.95c0.14-10.34,3.13-20.7,10.92-27.8c5.19-4.73,11.75-7.88,18.53-9.59c6.93-1.74,14.32-2.01,21.29-0.36
				c6.95,1.65,13.32,5.29,17.85,10.86c5.48,6.74,7.58,15.54,7.74,24.07c0.03,1.36,0,2.72-0.05,4.08c-0.05,1.29,1.95,1.28,2,0
				c0.4-9.37-1.11-19.18-6.44-27.09c-4.27-6.33-10.64-10.82-17.88-13.1c-7.23-2.28-15.06-2.41-22.47-0.95
				c-7.27,1.43-14.3,4.46-20.11,9.08c-2.75,2.19-5.18,4.76-7.13,7.69c-3.37,5.05-5.1,11.13-5.85,17.1c-0.25,2-0.37,4.01-0.4,6.03
				C43.44,55.24,45.44,55.24,45.46,53.95L45.46,53.95z"/>
		</g>
	</g>
	<g>
		<g>
			<path d="M54.79,61.9c3.38-6.36,9.37-10.85,12.68-17.26c-0.61-0.08-1.22-0.16-1.83-0.24c0.35,2.37,0,4.82-0.99,7
				c-0.53,1.16,1.19,2.18,1.73,1.01c1.24-2.72,1.63-5.59,1.19-8.54c-0.13-0.86-1.46-0.96-1.83-0.24c-3.31,6.41-9.3,10.9-12.68,17.26
				C52.46,62.02,54.19,63.03,54.79,61.9L54.79,61.9z"/>
		</g>
	</g>
	<g>
		<g>
			<path d="M66.18,53.6c8.2-2.6,16.89-7.15,19.41-16.06c0.35-1.24-1.58-1.77-1.93-0.53c-2.32,8.19-10.5,12.28-18.01,14.66
				C64.43,52.06,64.95,53.99,66.18,53.6L66.18,53.6z"/>
		</g>
	</g>
	<g>
		<g>
			<path d="M83.11,39.88c0.15,2.56-0.07,5.1-0.71,7.58c-0.24,0.92-0.92,2.16-0.08,2.97c0.74,0.71,1.84,0.43,2.71,0.2
				c4.27-1.13,8.23-3.41,11.37-6.51c1.72-1.7,3.61-3.91,3.29-6.51c-0.07-0.54-0.41-0.99-1-1c-0.49-0.01-1.07,0.46-1,1
				c0.29,2.42-1.91,4.42-3.55,5.89c-1.72,1.55-3.69,2.82-5.78,3.81c-1.05,0.49-2.14,0.89-3.25,1.22c-0.39,0.11-1.13,0.15-1.46,0.37
				c-0.28-0.02-0.19,0.15,0.26,0.5c0.06-0.19,0.12-0.37,0.17-0.56c0.08-0.28,0.16-0.56,0.23-0.85c0.68-2.64,0.94-5.39,0.78-8.12
				C85.03,38.61,83.03,38.6,83.11,39.88L83.11,39.88z"/>
		</g>
	</g>
	<g>
		<g>
			<path d="M97.55,40.84c1.77,3.97,4.05,7.68,6.96,10.92c2.66,2.97,5.77,5.47,8.89,7.94c1,0.79,2.42-0.62,1.41-1.41
				c-3.05-2.41-6.1-4.87-8.72-7.75c-2.88-3.16-5.08-6.81-6.82-10.7C98.75,38.66,97.03,39.67,97.55,40.84L97.55,40.84z"/>
		</g>
	</g>
	<g>
		<g>
			<path d="M85.58,71.01c-2.12-0.46-4.28,0.67-5.06,2.7c-0.75,1.95,0.13,4.33,1.99,5.28c1.05,0.54,2.29,0.69,3.42,0.31
				c0.49-0.17,0.87-0.7,0.7-1.23c-0.16-0.49-0.7-0.88-1.23-0.7c-0.12,0.04-0.23,0.07-0.35,0.1c-0.06,0.01-0.12,0.02-0.18,0.03
				c0.12-0.01,0.11-0.02,0,0c-0.21,0.01-0.42,0.01-0.63-0.01c0.23,0.03-0.14-0.03-0.18-0.04c-0.12-0.03-0.23-0.07-0.35-0.1
				c-0.11-0.04-0.11-0.04-0.01,0c-0.04-0.02-0.08-0.04-0.12-0.06c-0.09-0.05-0.19-0.1-0.28-0.15c-0.03-0.02-0.32-0.24-0.17-0.11
				c-0.09-0.08-0.18-0.16-0.27-0.25c-0.01-0.01-0.2-0.23-0.08-0.08c-0.08-0.1-0.14-0.2-0.2-0.31c-0.02-0.03-0.18-0.36-0.1-0.18
				c-0.04-0.1-0.07-0.2-0.1-0.31c-0.03-0.1-0.05-0.21-0.08-0.32c-0.02-0.12-0.02-0.12-0.01-0.01c-0.01-0.06-0.01-0.12-0.02-0.19
				c-0.01-0.12-0.01-0.25,0-0.37c0-0.06,0.03-0.28,0-0.1c0.04-0.24,0.1-0.49,0.2-0.71c-0.08,0.19,0.09-0.15,0.1-0.18
				c0.05-0.08,0.1-0.16,0.15-0.23c-0.12,0.16,0.11-0.12,0.13-0.15c0.08-0.09,0.17-0.17,0.27-0.25c-0.15,0.13,0.05-0.04,0.09-0.06
				c0.1-0.07,0.21-0.13,0.31-0.18c0.05-0.03,0.11-0.05,0.16-0.08c-0.1,0.04-0.1,0.04,0.01,0c0.12-0.04,0.23-0.08,0.35-0.11
				c0.09-0.02,0.18-0.04,0.27-0.06c-0.22,0.04,0.14-0.01,0.19-0.01c0.12,0,0.24,0,0.36,0.01c0.12,0.01,0.12,0.01,0,0
				c0.06,0.01,0.12,0.02,0.18,0.04c0.51,0.11,1.11-0.15,1.23-0.7C86.39,71.73,86.13,71.12,85.58,71.01L85.58,71.01z"/>
		</g>
	</g>
	<g>
		<g>
			<path d="M76.04,82.6c2.34,1.91,4.97,3.83,8.13,3.82c2.92-0.01,5.64-1.61,7.53-3.76c0.85-0.96-0.56-2.38-1.41-1.41
				c-1.55,1.76-3.7,3.16-6.12,3.17c-2.59,0.01-4.8-1.67-6.71-3.23C76.46,80.38,75.04,81.79,76.04,82.6L76.04,82.6z"/>
		</g>
	</g>
	<g>
		<g>
			<path d="M54.18,80.49c3.66,8.52,11.53,14.88,20.62,16.7c5.32,1.07,11.08,1.48,16.44,0.59c4.88-0.81,9.2-3.11,12.84-6.4
				c4.02-3.63,7.13-8.16,10.1-12.64c0.71-1.08-1.02-2.08-1.73-1.01c-4.89,7.36-10.53,15.34-19.58,17.67
				c-5.06,1.3-10.56,0.95-15.67,0.19c-4.48-0.67-8.66-2.22-12.34-4.87c-3.95-2.85-7.04-6.77-8.96-11.23
				C55.4,78.3,53.68,79.32,54.18,80.49L54.18,80.49z"/>
		</g>
	</g>
	<g>
		<g>
			<path d="M72.54,96.47c-0.13,3.25,0.74,6.72,3.36,8.84c2.58,2.09,6.45,2.78,9.7,2.65c6.13-0.25,11.25-5.43,11.67-11.49
				c0.09-1.28-1.91-1.28-2,0c-0.35,4.95-4.68,9.29-9.67,9.49c-2.68,0.11-5.98-0.37-8.2-2c-2.34-1.72-2.97-4.74-2.86-7.49
				C74.59,95.19,72.59,95.19,72.54,96.47L72.54,96.47z"/>
		</g>
	</g>
	<g>
		<g>
			<path d="M34.9,111.99c0.03-1.08,0.28-2.1,0.84-3.04c0.4-0.68,1-1.18,1.44-1.83c0.92-1.33,0.54-2.91,0.6-4.43
				c0.04-0.92,0.16-1.88,0.57-2.72c0.36-0.74,0.96-1.44,1.41-0.37c0.72,1.68,0.62,4.03,0.63,5.83c0.01,2.05-0.15,4.09-0.51,6.1
				c-0.15,0.81-0.45,1.43,0.03,2.14c0.55,0.83,1.26,1.59,1.87,2.38c2.47,3.23,4.8,6.56,7,9.98c0.69,1.08,2.43,0.08,1.73-1.01
				c-2.84-4.41-5.9-8.67-9.18-12.77c0.09,0.32,0.17,0.65,0.26,0.97c0.74-3.5,1-7.08,0.68-10.64c-0.17-1.89-0.45-6.13-3.37-5.63
				c-2.76,0.47-3.15,4.56-3.11,6.73c0.01,0.79,0.19,1.61-0.26,2.31c-0.36,0.57-0.91,1.02-1.29,1.59c-0.88,1.31-1.29,2.83-1.34,4.4
				C32.86,113.28,34.86,113.28,34.9,111.99L34.9,111.99z"/>
		</g>
	</g>
	<g>
		<g>
			<path d="M36.54,105.12c-1.42-1.58-2.84-3.16-4.26-4.75c-1.24-1.38-2.48-2.98-4.19-3.82c-1.39-0.68-3.31-0.84-4.5,0.34
				c-1.4,1.39-0.9,3.5,0.19,4.89c1.36,1.74,3.22,3.18,5.01,4.44c0.44,0.31,1.11,0.08,1.37-0.36c0.29-0.5,0.08-1.06-0.36-1.37
				c-0.86-0.61-1.68-1.26-2.47-1.96c-0.7-0.63-1.45-1.27-2.02-2.03c-0.4-0.53-0.87-1.45-0.4-2.09c0.35-0.48,1.08-0.45,1.59-0.33
				c1.74,0.4,3.01,2.19,4.14,3.45c1.5,1.67,2.99,3.34,4.49,5C35.99,107.5,37.4,106.08,36.54,105.12L36.54,105.12z"/>
		</g>
	</g>
	<g>
		<g>
			<path d="M24.97,99.86c-1.39-0.67-2.95-1.27-4.44-0.5c-1.55,0.81-1.73,2.68-1.06,4.14c0.32,0.71,0.83,1.32,1.31,1.92
				c0.49,0.62,1,1.21,1.53,1.79c1.09,1.18,2.27,2.27,3.52,3.26c0.42,0.34,1,0.41,1.41,0c0.35-0.35,0.42-1.08,0-1.41
				c-1.95-1.56-3.75-3.34-5.27-5.33c-0.41-0.54-1.42-1.82-0.68-2.49c0.72-0.65,1.95,0.01,2.66,0.34c0.49,0.23,1.08,0.13,1.37-0.36
				C25.58,100.79,25.46,100.1,24.97,99.86L24.97,99.86z"/>
		</g>
	</g>
	<g>
		<g>
			<path d="M22.42,105.27c-1.06-1.65-3.4-1.62-4.52-0.04c-1.5,2.12-0.06,4.58,1.27,6.35c3.09,4.12,7.13,7.43,11.78,9.65
				c-0.17-0.29-0.33-0.58-0.5-0.86c0.54,7.32,6.34,14.06,12.08,18.15c2.86,2.04,6.34,3.75,9.84,2.33c3.08-1.25,5.09-4.21,6.69-6.98
				c0.64-1.12-1.08-2.13-1.73-1.01c-1.38,2.39-3.1,5.16-5.81,6.19c-3.14,1.19-6.3-0.96-8.7-2.79c-2.5-1.91-4.73-4.22-6.54-6.8
				c-1.89-2.69-3.58-5.76-3.83-9.1c-0.02-0.33-0.17-0.71-0.5-0.86c-3.08-1.47-5.89-3.4-8.32-5.81c-1.17-1.17-2.27-2.42-3.22-3.78
				c-0.48-0.69-1.08-1.49-1.15-2.36c-0.05-0.56,0.71-2.39,1.42-1.29C21.39,107.36,23.12,106.36,22.42,105.27L22.42,105.27z"/>
		</g>
	</g>
	<g>
		<g>
			<path d="M117.87,127.46c3.26-4.11,6.7-8.07,10.3-11.89c0.88-0.94-0.53-2.35-1.41-1.41c-3.6,3.82-7.04,7.78-10.3,11.89
				c-0.34,0.42-0.41,1,0,1.41C116.81,127.81,117.54,127.89,117.87,127.46L117.87,127.46z"/>
		</g>
	</g>
	<g>
		<g>
			<path d="M128.41,113.4c-0.45-2.76-1.05-5.54-1.29-8.33c-0.11-1.33-0.1-2.69,0.32-3.97c0.12-0.37,0.27-1.06,0.79-0.84
				c0.44,0.19,0.61,0.78,0.72,1.2c0.37,1.33,0.44,2.7,0.38,4.08c-0.06,1.21,0.25,2.22,1.4,2.8c0.9,0.45,1.68,0.73,2.2,1.67
				c0.48,0.85,0.54,1.8,0.21,2.71c-0.44,1.21,1.5,1.74,1.93,0.53c0.68-1.88,0.09-4.15-1.39-5.5c-0.34-0.31-0.73-0.59-1.14-0.79
				c-0.3-0.15-1.01-0.29-1.19-0.61c-0.21-0.35,0.01-1.22,0.01-1.62c0-0.68-0.05-1.35-0.14-2.02c-0.16-1.18-0.36-2.47-1.12-3.43
				c-0.69-0.87-1.89-1.35-2.96-0.91c-1.06,0.43-1.51,1.64-1.77,2.67c-0.31,1.23-0.36,2.51-0.27,3.77c0.22,3.05,0.89,6.1,1.38,9.11
				C126.69,115.19,128.62,114.66,128.41,113.4L128.41,113.4z"/>
		</g>
	</g>
	<g>
		<g>
			<path d="M133.1,106.79c1.15-1.72,2.41-3.35,3.8-4.87c0.7-0.77,1.43-1.52,2.18-2.23c0.63-0.6,1.32-1.37,2.18-1.61
				c0.5-0.14,1.13-0.04,1.21,0.56c0.1,0.79-0.45,1.67-0.81,2.34c-0.94,1.73-2.12,3.3-3.5,4.7c-0.91,0.91,0.5,2.33,1.41,1.41
				c1.33-1.33,2.5-2.83,3.45-4.45c0.83-1.41,1.93-3.29,1.24-4.97c-0.76-1.86-3.06-1.97-4.59-1.05c-0.8,0.48-1.48,1.15-2.15,1.79
				c-0.7,0.68-1.39,1.38-2.04,2.1c-1.5,1.65-2.87,3.42-4.11,5.28C130.66,106.86,132.39,107.86,133.1,106.79L133.1,106.79z"/>
		</g>
	</g>
	<g>
		<g>
			<path d="M143.62,102.48c0.68-0.8,1.62-2.06,2.83-1.89c1.02,0.15,0.94,1.44,0.61,2.14c-0.59,1.26-1.75,2.31-2.66,3.35
				c-1.06,1.22-2.12,2.44-3.18,3.65c-0.84,0.97,0.57,2.39,1.41,1.41c1.31-1.5,2.62-3.01,3.92-4.51c1.17-1.35,2.56-2.72,2.71-4.6
				c0.14-1.73-0.99-3.27-2.75-3.44c-1.85-0.17-3.23,1.16-4.32,2.46c-0.35,0.41-0.4,1.01,0,1.41
				C142.56,102.84,143.27,102.89,143.62,102.48L143.62,102.48z"/>
		</g>
	</g>
	<g>
		<g>
			<path d="M147.79,105.65c0.06-0.59,0.85-0.37,1.12-0.13c0.34,0.31,0.46,0.81,0.45,1.26c-0.01,1.13-0.75,2.24-1.32,3.18
				c-1,1.67-2.17,3.23-3.5,4.65c-1.38,1.47-2.91,2.78-4.57,3.92c-1.48,1.02-2.99,2-4,3.53c-1.09,1.66-1.58,3.68-2.44,5.46
				c-0.93,1.91-2.05,3.73-3.36,5.4c-2.28,2.9-5.18,5.62-9.04,5.87c-3.74,0.25-7.54-1.46-9.59-4.64c-0.7-1.08-2.43-0.08-1.73,1.01
				c2.25,3.48,6.19,5.56,10.32,5.65c4.76,0.1,8.47-2.75,11.32-6.31c1.61-2.02,3-4.21,4.08-6.55c1.16-2.53,1.74-5.05,4.1-6.77
				c1.95-1.42,3.89-2.73,5.61-4.43c1.78-1.77,3.35-3.79,4.62-5.95c1.19-2.02,2.42-4.9,0.35-6.82c-1.64-1.51-4.2-0.47-4.43,1.67
				C145.66,106.92,147.66,106.92,147.79,105.65L147.79,105.65z"/>
		</g>
	</g>
	<g>
		<g>
			<path d="M97.52,96.87c11.32,1.48,18.54,11.54,24.58,20.2c0.12-0.46,0.24-0.91,0.36-1.37c-4.79,2.86-9.45,5.91-13.98,9.16
				c-1.04,0.74-0.04,2.48,1.01,1.73c4.53-3.25,9.2-6.3,13.98-9.16c0.44-0.26,0.67-0.92,0.36-1.37c-6.53-9.36-14.14-19.6-26.3-21.19
				C96.24,94.71,96.26,96.71,97.52,96.87L97.52,96.87z"/>
		</g>
	</g>
	<g>
		<g>
			<path d="M118.61,121.35c0.14,0.27,0.27,0.55,0.41,0.82c0.06,0.12,0.15,0.21,0.26,0.28c0.1,0.09,0.21,0.15,0.34,0.18
				c0.13,0.04,0.27,0.05,0.4,0.02c0.13-0.01,0.26-0.05,0.37-0.12c0.07-0.05,0.13-0.1,0.2-0.16c0.12-0.12,0.21-0.27,0.26-0.44
				c0.01-0.09,0.02-0.18,0.04-0.27c0-0.18-0.05-0.35-0.14-0.5c-0.14-0.27-0.27-0.55-0.41-0.82c-0.06-0.12-0.15-0.21-0.26-0.28
				c-0.1-0.09-0.21-0.15-0.34-0.18c-0.13-0.04-0.27-0.05-0.4-0.02c-0.13,0.01-0.26,0.05-0.37,0.12c-0.07,0.05-0.13,0.1-0.2,0.16
				c-0.12,0.12-0.21,0.27-0.26,0.44c-0.01,0.09-0.02,0.18-0.04,0.27C118.48,121.02,118.52,121.19,118.61,121.35L118.61,121.35z"/>
		</g>
	</g>
	<g>
		<g>
			<path d="M105.79,115.77c1.88,11.4,3.06,22.9,3.55,34.44c0.05,1.28,2.05,1.29,2,0c-0.49-11.72-1.71-23.4-3.62-34.97
				C107.51,113.97,105.58,114.51,105.79,115.77L105.79,115.77z"/>
		</g>
	</g>
	<g>
		<g>
			<path d="M60.55,116.32c-1.46,11.15-2.93,22.31-4.39,33.46c-0.17,1.27,1.83,1.26,2,0c1.46-11.15,2.93-22.31,4.39-33.46
				C62.72,115.05,60.72,115.06,60.55,116.32L60.55,116.32z"/>
		</g>
	</g>
	<g>
		<g>
			<path d="M46.3,120.24c2.3,1.15,4.59,2.29,6.89,3.44c1.07,0.54,2.16,1.06,3.22,1.61c0.91,0.47,1.75,0.99,2.39,1.81
				c0.33,0.42,1.06,0.35,1.41,0c0.42-0.42,0.34-0.99,0-1.41c-1.41-1.79-3.82-2.64-5.79-3.62c-2.37-1.18-4.74-2.37-7.12-3.55
				C46.16,117.94,45.14,119.66,46.3,120.24L46.3,120.24z"/>
		</g>
	</g>
	<g>
		<g>
			<path d="M47.57,118.89c3.13-10.6,11.46-20.16,23.08-20.96c1.28-0.09,1.29-2.09,0-2c-12.54,0.86-21.61,10.92-25.01,22.43
				C45.28,119.59,47.21,120.12,47.57,118.89L47.57,118.89z"/>
		</g>
	</g>
	<g>
		<g>
			<path d="M142.26,32.95c-0.21,4.79-0.26,9.58-0.15,14.38c0.03,1.28,2.03,1.29,2,0c-0.11-4.79-0.06-9.59,0.15-14.38
				C144.31,31.66,142.31,31.67,142.26,32.95L142.26,32.95z"/>
		</g>
	</g>
	<g>
		<g>
			<path d="M154.59,37.47c-0.29,4.59-0.57,9.18-0.86,13.77c-0.08,1.29,1.92,1.28,2,0c0.29-4.59,0.57-9.18,0.86-13.77
				C156.67,36.18,154.67,36.19,154.59,37.47L154.59,37.47z"/>
		</g>
	</g>
	<g>
		<g>
			<path d="M144.12,34.21c1.96,0.1,3.84,0.74,5.68,1.38c1.98,0.69,3.97,1.38,5.95,2.06c1.22,0.42,1.74-1.51,0.53-1.93
				c-2.05-0.71-4.11-1.43-6.16-2.14c-1.96-0.67-3.93-1.27-6.01-1.38C142.83,32.14,142.84,34.14,144.12,34.21L144.12,34.21z"/>
		</g>
	</g>
	<g>
		<g>
			<path d="M143.62,40.01c3.78,0.82,7.55,1.68,11.31,2.57c1.25,0.3,1.79-1.63,0.53-1.93c-3.76-0.9-7.53-1.75-11.31-2.57
				C142.89,37.81,142.36,39.74,143.62,40.01L143.62,40.01z"/>
		</g>
	</g>
	<g>
		<g>
			<path d="M24.5,39.52c0.01,4.32,0.16,8.63,0.46,12.94c0.09,1.28,2.09,1.29,2,0c-0.3-4.31-0.45-8.62-0.46-12.94
				C26.49,38.24,24.49,38.24,24.5,39.52L24.5,39.52z"/>
		</g>
	</g>
	<g>
		<g>
			<path d="M25.22,40.72c1.28,0.62,2.53,1.35,3.37,2.45c0.4,0.53,0.66,1.08,0.8,1.74c0.06,0.25,0.08,0.52,0.06,0.87
				c-0.01,0.22-0.08,0.61-0.17,0.81c-0.21,0.5-0.15,1.07,0.36,1.37c0.42,0.25,1.16,0.14,1.37-0.36c0.74-1.75,0.48-3.74-0.6-5.31
				c-1.03-1.5-2.57-2.52-4.18-3.3c-0.49-0.24-1.08-0.13-1.37,0.36C24.61,39.79,24.74,40.48,25.22,40.72L25.22,40.72z"/>
		</g>
	</g>
	<ellipse class="st4" cx="72.09" cy="68.08" rx="1.44" ry="3.81"/>
	<ellipse class="st4" cx="97.52" cy="68.08" rx="1.44" ry="3.81"/>
	<ellipse class="st5" cx="97.96" cy="66.43" rx="0.45" ry="1.33"/>
	<ellipse class="st5" cx="72.54" cy="66.43" rx="0.45" ry="1.33"/>
	<ellipse class="st4" cx="140.25" cy="48.82" rx="3.86" ry="3.25"/>
	<ellipse class="st4" cx="23.61" cy="53.83" rx="4.48" ry="3.53"/>
	<ellipse class="st4" cx="152.41" cy="52.92" rx="4.12" ry="3.26"/>
</g>
<g id="Ebene_7">
</g>
</svg>
