<?xml version="1.0" encoding="utf-8"?>
<!-- Generator: Adobe Adobe Illustrator 24.2.0, SVG Export Plug-In . SVG Version: 6.00 Build 0)  -->
<svg version="1.1" xmlns="http://www.w3.org/2000/svg" xmlns:xlink="http://www.w3.org/1999/xlink" x="0px" y="0px"
	 viewBox="0 0 170.08 170.08" style="enable-background:new 0 0 170.08 170.08;" xml:space="preserve">
<style type="text/css">
	.st0{fill:#CEAC99;}
	.st1{fill:#F6BE9B;}
	.st2{fill:#98605B;}
	.st3{fill:#FBBE3F;}
	.st4{fill:#DA176A;}
	.st5{fill:#8FC23E;}
	.st6{fill:#FFFFFF;}
	.st7{fill:#E3462B;}
	.st8{fill:#5D79BC;}
	.st9{fill:#DB517B;}
	.st10{opacity:0.502;fill:#DB517B;}
	.st11{stroke:#000000;stroke-miterlimit:10;}
	.st12{fill:#FFFFFF;stroke:#FFFFFF;stroke-width:0.3474;stroke-miterlimit:10;}
</style>
<g id="Ebene_23">
</g>
<g id="Ebene_32">
	<path class="st0" d="M12.5,118.78c48.53-1.39,97.09-1.44,145.62-0.17c-3.55,12.5-4.59,13.44-10.94,32.19
		c-104.34-2.75-103.15-0.4-106.25-3.5C23.52,129.9,19.16,126.27,12.5,118.78z"/>
</g>
<g id="Ebene_19">
</g>
<g id="Ebene_20">
	<path class="st1" d="M94.08,111.37c1.72-2.78,1.72-6.54,0-9.33s-5.09-4.46-8.35-4.16c-3.26,0.3-6.26,2.56-7.45,5.61
		c-0.42,1.09-0.61,2.37-0.03,3.38c0.58,1.01,2.17,1.43,2.94,0.55c-0.35,0.9-0.09,2,0.63,2.65c0.71,0.65,1.83,0.81,2.7,0.39
		C86.15,109.67,86.78,107.17,94.08,111.37z"/>
	<path class="st1" d="M96.36,106.34c2.06,0.81,4.06,1.79,5.97,2.91c0.32,0.19,0.67,0.41,0.79,0.77c0.15,0.45-0.11,0.93-0.38,1.32
		c-0.89,1.33-1.88,2.59-2.96,3.76c-0.8,0.86-1.68,1.71-2.8,2.06c-1.12,0.35-2.52,0.06-3.12-0.95c-0.72-1.21-0.02-2.75,0.8-3.89
		C95.48,111.18,96.48,109.97,96.36,106.34z"/>
	<path class="st1" d="M136.29,113.07c-0.1,2-1.47,3.76-3.15,4.86s-3.65,1.64-5.58,2.16c-3.95,1.08-7.91,2.15-11.86,3.23
		c-1.31,0.36-2.7,0.76-3.58,1.8c-0.88,1.03-0.89,2.91,0.31,3.53c-0.47,1.02-0.02,2.37,0.96,2.92s2.36,0.22,2.99-0.72
		c-0.94,0.3-0.81,1.84,0.03,2.36c0.84,0.52,1.92,0.33,2.88,0.11c6.15-1.41,12.16-3.41,17.94-5.95c2.79-1.23,5.59-2.63,7.73-4.8
		c2.15-2.17,3.58-5.25,3.08-8.26c-0.14-0.83-0.42-1.65-0.99-2.27c-0.93-1.02-2.46-1.29-3.82-1.04
		C141.89,111.24,140.66,111.94,136.29,113.07z"/>
	<path class="st1" d="M88.99,63.84c3.42,6.83,0.34,15.81,4.49,22.22c1.84,2.84,4.88,4.72,8.09,5.8c3.21,1.07,6.6,1.41,9.97,1.74
		c0.31,3.47,3.83,6.31,7.28,5.89c3.46-0.42,6.19-4.02,5.66-7.46c7.14-2.11,12.7-8.79,13.46-16.2c2.78,0.77,6-0.67,7.29-3.24
		s0.51-6.02-1.77-7.78c-2.28-1.76-5.81-1.66-7.98,0.23c-3.46-1.98-6.92-3.95-10.39-5.93c-1.66-0.95-3.35-1.92-4.66-3.31
		c-1.31-1.39-2.22-3.3-1.96-5.2C109.62,56.63,99.65,61.06,88.99,63.84z"/>
</g>
<g id="Ebene_21">
</g>
<g id="Ebene_22">
</g>
<g id="Ebene_13">
	<path class="st2" d="M138.51,77.08c-1.7,2.73-3.39,5.46-5.09,8.18c-0.2,0.31-0.4,0.66-0.34,1.03c0.07,0.45,0.5,0.74,0.89,0.98
		c2.5,1.51,5,3.03,7.5,4.54c2.48-1.75,4.53-4.11,5.93-6.81c-0.38,1.39,0.89,2.87,2.33,2.99c1.44,0.12,2.8-0.86,3.47-2.14
		c0.67-1.27,0.76-2.78,0.62-4.22c-0.45-4.64-3.03-8.84-6.24-12.21c-0.2,2.32-1.44,4.52-3.32,5.89S139.9,77.17,138.51,77.08z"/>
	<path class="st2" d="M126.95,47.27c0.41,4.63,1.96,9.16,4.46,13.07c0.86,1.34,1.92,2.68,3.42,3.22c1.4,0.5,2.94,0.22,4.39-0.14
		c1.44-0.36,2.91-0.8,4.38-0.6c1.47,0.2,2.95,1.26,3.08,2.74c1.74-6.38,0.04-13.46-3.89-18.78c-3.93-5.32-9.92-8.93-16.32-10.61
		c-8.57-2.25-18.1-1.06-25.56,3.72S88.34,53.14,88.1,62c-0.01,0.3,0,0.64,0.19,0.87c0.29,0.36,0.83,0.33,1.28,0.26
		c10.35-1.52,20.2-6.31,27.78-13.53c4.28,5.51,9.95,9.93,16.32,12.76"/>
</g>
<g id="Ebene_5">
</g>
<g id="Ebene_24">
	<path class="st3" d="M91.22,26.77c-0.52,1.43-2.11,2.26-3.63,2.34c-1.52,0.09-3.01-0.42-4.46-0.91c0.16,1.94,1.15,3.79,2.67,5
		c-0.71,1.17-1.43,2.33-2.14,3.5c1.36-0.56,2.87-0.84,4.31-0.56c1.44,0.27,2.81,1.14,3.48,2.45c0.04-1.32,0.12-2.74,0.95-3.77
		c1.04-1.28,2.88-1.51,4.52-1.64C94.43,31.79,92.32,29.74,91.22,26.77z"/>
</g>
<g id="Ebene_25">
	<path class="st4" d="M144.41,32.95c0.67-1.91-0.45-4.26-2.36-4.94c-1.91-0.68-4.27,0.43-4.95,2.34c-0.73,2.02,0.31,4.24,1.49,6.04
		s2.59,3.63,2.67,5.78c3.48-1.39,6.62-3.62,9.07-6.45c1.13-1.31,2.14-3.24,1.16-4.67c-0.65-0.94-1.96-1.22-3.08-0.97
		S146.34,31.03,144.41,32.95z"/>
</g>
<g id="Ebene_10">
	<path class="st5" d="M100.02,92.94c-1.51,1.88-3.02,3.77-4.53,5.65c-0.41,0.51-0.84,1.07-0.88,1.72c-0.07,1.08,0.9,1.88,1.67,2.64
		c0.77,0.76,1.42,2.01,0.74,2.84c3.45-0.04,6.76,2.48,7.65,5.81c0.5,1.88,0.44,4.18,2.01,5.33c0.95,0.69,2.2,0.71,3.38,0.71
		c6.66-0.02,13.32-0.04,19.98-0.06c1.33,0,2.88-0.12,3.62-1.22c0.61-0.9,0.43-2.16,1.03-3.07c0.65-0.97,1.94-1.2,3.09-1.35
		c2.03-0.27,4.06-0.54,6.1-0.81c0.81-0.11,1.68-0.25,2.22-0.86c0.62-0.7,0.57-1.75,0.47-2.68c-0.45-4.11-1.2-8.29-3.28-11.85
		s-5.72-6.46-9.85-6.66c-2.65-0.13-5.34,0.9-7.24,2.76c0.39,1.63-0.41,3.37-1.64,4.51c-1.24,1.14-2.85,1.76-4.45,2.25
		c-1.84,0.56-3.93,0.96-5.62,0.02c-0.84-0.47-1.48-1.21-2.2-1.84C109.28,94.18,105.02,93.74,100.02,92.94z"/>
</g>
<g id="Ebene_17">
</g>
<g id="Ebene_11">
	<path class="st6" d="M75.34,130.37c-1.61,4.63-3.22,9.26-4.82,13.89c6.52,0.13,13.05,0.26,19.57,0.38
		c0.67-4.87,1.34-9.74,2.01-14.61C87.05,130.14,82,130.26,75.34,130.37z"/>
</g>
<g id="Ebene_26">
</g>
<g id="Ebene_28">
	<path class="st7" d="M80.52,113.31c-0.5,1.07-1,2.15-1.18,3.31c-0.19,1.16-0.02,2.43,0.71,3.35c0.37,0.47,0.87,0.83,1.4,1.11
		c1.6,0.85,3.48,1.04,5.28,0.85c1.8-0.19,3.54-0.72,5.27-1.26c0.17-2.05,0.3-4.12-0.09-6.14c-0.39-2.02-1.35-3.99-2.99-5.22
		c-0.38-0.28-0.87-0.53-1.3-0.34c-0.38,0.16-0.55,0.58-0.75,0.94C86.13,111.22,84.61,112.02,80.52,113.31z"/>
</g>
<g id="Ebene_29">
	<path class="st8" d="M98.06,130.16c-0.18-0.79-0.36-1.58-0.53-2.36c-0.32,1.42-0.64,2.85-0.96,4.27c-0.08,0.38-0.17,0.78-0.04,1.14
		c0.16,0.47,0.63,0.76,1.08,0.98c2.15,1.05,4.69,1.29,7,0.66c0.71-0.19,1.44-0.5,1.84-1.11c0.47-0.71,0.38-1.64,0.28-2.49
		c-0.24-1.88-0.58-3.95-2.05-5.14c-0.9-0.73-2.12-1-3.28-0.87c-1.15,0.13-2.24,0.63-3.19,1.29
		C97.46,127.04,96.73,127.86,98.06,130.16z"/>
</g>
<g id="Ebene_30">
	<path class="st9" d="M107.29,140.13c0.43,0.92,1.03,1.97,2.05,2.08c0.5,0.06,0.98-0.14,1.44-0.35c1.11-0.52,2.29-1.46,2.14-2.67
		c-0.15-1.14-1.5-1.8-2.64-1.61C109.13,137.76,108.19,138.53,107.29,140.13z"/>
</g>
<g id="Ebene_31">
	<circle class="st10" cx="99.1" cy="84.11" r="3.16"/>
	<circle class="st10" cx="124.29" cy="81.26" r="3.16"/>
</g>
<g id="Ebene_12">
</g>
<g id="Ebene_14">
</g>
<g id="Ebene_27">
	<g>
		<g>
			<path d="M87.68,63.54c-0.12,10.45,1.51,24.59,12.2,29.73c9.61,4.62,21.48,3.89,30.02-2.67c4.33-3.33,7.58-7.86,9.24-13.07
				c0.59-1.84-2.31-2.63-2.89-0.8c-2.68,8.42-10.13,14.6-18.77,16.15c-4.82,0.87-9.9,0.28-14.46-1.49c-2.37-0.92-4.5-2.16-6.17-4.11
				c-1.54-1.8-2.74-3.95-3.62-6.14c-2.25-5.58-2.61-11.64-2.54-17.59C90.7,61.61,87.7,61.61,87.68,63.54L87.68,63.54z"/>
		</g>
	</g>
	<g>
		<g>
			<path d="M136.98,66.7c0.77-1.04,2.25-1.75,3.48-1.85c1.37-0.12,3.05,0.16,3.88,1.48c1.66,2.62,0.85,6.47-1.84,8.08
				c-1.54,0.92-3.27,1.08-4.94,0.47c-0.76-0.28-1.64,0.31-1.85,1.05c-0.23,0.83,0.28,1.57,1.05,1.85c4.59,1.67,9.72-1.18,11.05-5.79
				c0.66-2.27,0.42-4.85-0.74-6.92c-1.22-2.18-3.65-3.26-6.09-3.24c-2.64,0.02-5.04,1.26-6.61,3.36c-0.48,0.65-0.11,1.68,0.54,2.05
				C135.7,67.69,136.5,67.35,136.98,66.7L136.98,66.7z"/>
		</g>
	</g>
	<g>
		<g>
			<path d="M125.24,46.97c-0.11,4.2,0.33,8.65,2.57,12.31c1.99,3.26,5.21,5.61,9.04,6.03c0.81,0.09,1.5-0.75,1.5-1.5
				c0-0.88-0.69-1.41-1.5-1.5c-2.91-0.32-5.33-2.5-6.7-4.97c-1.75-3.13-2-6.85-1.91-10.37C128.29,45.04,125.29,45.04,125.24,46.97
				L125.24,46.97z"/>
		</g>
	</g>
	<g>
		<g>
			<path d="M88.5,64.7c6.05-0.86,11.98-2.45,17.64-4.78c5.46-2.25,10.33-5,13.51-10.14c1.02-1.65-1.58-3.16-2.59-1.51
				c-2.99,4.83-7.85,7.27-12.99,9.28c-5.27,2.06-10.76,3.47-16.36,4.27C85.8,62.08,86.61,64.97,88.5,64.7L88.5,64.7z"/>
		</g>
	</g>
	<g>
		<g>
			<path d="M116.99,49.21c0.05,1.54,0.84,2.86,1.68,4.11c0.8,1.2,1.69,2.34,2.67,3.39c0.91,0.98,1.9,1.89,2.96,2.72
				c1.36,1.06,2.84,1.81,4.61,1.47c0.8-0.15,1.25-1.11,1.05-1.85c-0.23-0.83-1.05-1.2-1.85-1.05c0.16-0.03-0.14,0-0.19,0
				c-0.11-0.01-0.11,0-0.02,0.01c-0.05-0.01-0.11-0.02-0.16-0.04c-0.3-0.08-0.33-0.08-0.6-0.23c-0.52-0.28-0.86-0.55-1.27-0.88
				c-0.9-0.74-1.75-1.55-2.53-2.41c-0.77-0.84-1.36-1.59-1.98-2.51c-0.33-0.48-0.64-0.97-0.92-1.48c-0.07-0.13-0.14-0.25-0.2-0.38
				c-0.08-0.16-0.05-0.1-0.09-0.2c-0.11-0.3-0.15-0.52-0.15-0.68c-0.03-0.81-0.67-1.5-1.5-1.5C117.7,47.71,116.96,48.4,116.99,49.21
				L116.99,49.21z"/>
		</g>
	</g>
	<g>
		<g>
			<path d="M89.04,62.71c-0.24-5.97,2.02-11.41,6.05-15.76c3.95-4.26,8.87-7.63,14.45-9.33c5.56-1.7,11.51-1.76,17.08-0.09
				c5.71,1.71,10.41,5.18,14.37,9.57c2.27,2.52,3.55,5.13,4.11,8.48c0.58,3.51,1.1,7.11,0.67,10.66c-0.23,1.91,2.77,1.9,3,0
				c0.43-3.54-0.12-7.09-0.64-10.59c-0.48-3.23-1.4-6.11-3.4-8.74c-3.88-5.09-9.11-9.22-15.09-11.53
				c-12.42-4.78-26.17-0.92-35.48,8.23c-5.2,5.11-8.41,11.7-8.11,19.09C86.11,64.63,89.11,64.64,89.04,62.71L89.04,62.71z"/>
		</g>
	</g>
	<g>
		<g>
			<path d="M146.23,68.11c2.23,3.87,4.43,7.87,5.21,12.32c0.27,1.56,0.78,4.57-0.59,5.78c-1.55,1.39-2.73-1.84-2.76-2.95
				c-0.05-1.93-3.05-1.93-3,0c0.07,2.56,1.6,5.74,4.37,6.24c3.29,0.6,5.02-2.77,5.18-5.52c0.37-6.25-2.8-12.14-5.82-17.38
				C147.86,64.92,145.26,66.43,146.23,68.11L146.23,68.11z"/>
		</g>
	</g>
	<g>
		<g>
			<path d="M144.97,83.25c0.07,0.78,0.12,1.56,0.1,2.34c-0.01,0.18-0.02,0.37-0.03,0.55c-0.01,0.09-0.02,0.18-0.03,0.27
				c0.03-0.31-0.01,0-0.02,0.07c-0.07,0.37-0.17,0.74-0.31,1.09c0.06-0.14,0.05-0.11-0.01,0c-0.04,0.08-0.08,0.16-0.13,0.23
				c-0.04,0.08-0.09,0.15-0.14,0.23c-0.06,0.09-0.1,0.15-0.01,0.03c-0.23,0.31-0.53,0.58-0.83,0.84c-0.16,0.14-0.32,0.27-0.48,0.4
				c0.13-0.1,0,0-0.06,0.04c-0.08,0.06-0.17,0.13-0.25,0.19c-0.38,0.28-0.77,0.55-1.16,0.82c-0.65,0.44-1,1.34-0.54,2.05
				c0.42,0.64,1.36,1.01,2.05,0.54c1.59-1.08,3.43-2.27,4.24-4.09c0.78-1.78,0.75-3.69,0.59-5.59c-0.07-0.78-0.64-1.54-1.5-1.5
				C145.71,81.79,144.9,82.42,144.97,83.25L144.97,83.25z"/>
		</g>
	</g>
	<g>
		<g>
			<path d="M132.44,89.25c3.72,1.37,7.58,3.39,9.78,6.82c1.26,1.97,1.86,4.24,2.49,6.46c0.73,2.56,1.46,5.11,2.19,7.67
				c0.35-0.62,0.7-1.23,1.05-1.85c-4.98,0.82-9.93,1.82-14.83,3c0.62,0.35,1.23,0.7,1.85,1.05c-0.56-3.18-1.19-6.34-1.9-9.49
				c-0.42-1.88-3.32-1.09-2.89,0.8c0.71,3.15,1.34,6.31,1.9,9.49c0.14,0.82,1.12,1.22,1.85,1.05c4.91-1.18,9.85-2.18,14.83-3
				c0.8-0.13,1.25-1.13,1.05-1.85c-0.8-2.79-1.59-5.58-2.39-8.37c-0.71-2.48-1.49-5-3.02-7.11c-2.73-3.76-6.86-6-11.14-7.57
				C131.42,85.69,130.64,88.59,132.44,89.25L132.44,89.25z"/>
		</g>
	</g>
	<g>
		<g>
			<path d="M110.01,95.65c0.99,4.22,5.71,5.92,9.58,4.97c4.01-0.99,8.73-4.42,7.94-9.05c-0.14-0.8-1.12-1.25-1.85-1.05
				c-0.85,0.23-1.18,1.04-1.05,1.85c0.23,1.34-0.87,2.55-1.82,3.32c-1.17,0.94-2.56,1.68-4.02,2.03c-2.33,0.57-5.28-0.28-5.89-2.87
				C112.46,92.98,109.57,93.77,110.01,95.65L110.01,95.65z"/>
		</g>
	</g>
	<g>
		<g>
			<path d="M98.04,92.11c-1.83,1.99-3.51,4.12-5.02,6.36c-0.44,0.65-0.15,1.69,0.54,2.05c0.76,0.4,1.58,0.16,2.05-0.54
				c0.36-0.53,0.72-1.04,1.09-1.56c0.19-0.26,0.38-0.51,0.57-0.76c0.05-0.06,0.09-0.12,0.14-0.18c0.13-0.17-0.16,0.2-0.03,0.04
				c0.1-0.13,0.21-0.26,0.31-0.4c0.79-0.99,1.61-1.96,2.47-2.89c0.53-0.58,0.61-1.56,0-2.12C99.58,91.58,98.6,91.5,98.04,92.11
				L98.04,92.11z"/>
		</g>
	</g>
	<g>
		<g>
			<path d="M102.11,101.43c0.56,5.22,1.23,10.43,1.99,15.63c0.12,0.8,1.13,1.24,1.85,1.05c0.86-0.24,1.17-1.04,1.05-1.85
				c-0.72-4.93-1.35-9.88-1.88-14.83c-0.09-0.81-0.63-1.5-1.5-1.5C102.87,99.93,102.03,100.62,102.11,101.43L102.11,101.43z"/>
		</g>
	</g>
	<g>
		<g>
			<path d="M96.57,107.14c2.11,1.18,4.21,2.37,6.32,3.55c0.68,0.38,1.67,0.19,2.05-0.54c0.37-0.71,0.19-1.64-0.54-2.05
				c-2.11-1.18-4.21-2.37-6.32-3.55c-0.68-0.38-1.67-0.19-2.05,0.54C95.65,105.79,95.84,106.73,96.57,107.14L96.57,107.14z"/>
		</g>
	</g>
	<g>
		<g>
			<path d="M95.85,113c3.72-5.17,1.76-12.65-3.85-15.53c-5.64-2.9-13.01-0.33-15.4,5.64c-1.36,3.4,0.15,7.66,4.14,8.03
				c0.81,0.08,1.5-0.74,1.5-1.5c0-0.87-0.69-1.42-1.5-1.5c-1.11-0.1-1.69-1.4-1.69-2.37c0-1.41,0.81-2.77,1.74-3.78
				c1.82-1.97,4.57-3.11,7.26-2.71c2.59,0.38,4.99,2.09,6.08,4.48c1.15,2.53,0.73,5.5-0.87,7.72c-0.47,0.66-0.11,1.67,0.54,2.05
				C94.55,113.98,95.38,113.66,95.85,113L95.85,113z"/>
		</g>
	</g>
	<g>
		<g>
			<path d="M82.17,103.14c-0.89,1.17-1.5,2.59-1.72,4.04c-0.21,1.34-0.19,2.88,0.65,4.03c0.48,0.66,1.11,1.17,1.92,1.34
				c0.92,0.2,1.84-0.02,2.64-0.48c1.32-0.77,2.34-2.1,3.23-3.31c0.99-1.35,1.76-2.82,2.38-4.37c0.3-0.73-0.32-1.68-1.05-1.85
				c-0.87-0.2-1.53,0.27-1.85,1.05c-0.11,0.26,0.06-0.12-0.06,0.14c-0.05,0.12-0.11,0.25-0.17,0.37c-0.13,0.29-0.27,0.57-0.42,0.85
				c-0.27,0.52-0.57,1.02-0.89,1.51c-0.15,0.23-0.3,0.45-0.46,0.67c-0.08,0.11-0.16,0.22-0.24,0.33c0.04-0.05,0.17-0.21-0.01,0.02
				c-0.06,0.07-0.11,0.14-0.17,0.21c-0.37,0.45-0.75,0.89-1.17,1.29c-0.1,0.09-0.19,0.18-0.29,0.27c-0.21,0.18,0.11-0.06-0.12,0.09
				c-0.11,0.07-0.22,0.14-0.33,0.2c-0.02,0.01-0.21,0.11-0.05,0.03c0.16-0.07-0.08,0.02-0.11,0.03c-0.05,0.01-0.31,0.06-0.1,0.03
				c0.19-0.02-0.01-0.01-0.04-0.01c-0.04,0-0.22-0.04-0.04,0c0.19,0.04-0.02-0.02-0.05-0.02c-0.17-0.07-0.01,0.01,0,0
				c0.03,0.01,0.06,0.02,0.09,0.04c-0.03-0.02-0.06-0.03-0.08-0.05c0.02-0.03-0.26-0.09,0,0.01c0.16,0.06,0.04,0.03-0.03-0.04
				c-0.22-0.25,0.08,0.19-0.03-0.04c-0.01-0.03-0.16-0.24-0.14-0.26c0.01-0.02,0.09,0.3,0.06,0.12c-0.01-0.05-0.03-0.1-0.05-0.15
				c-0.04-0.12-0.06-0.23-0.09-0.35c0-0.02-0.04-0.14-0.03-0.15c0.01-0.02,0.01,0.32,0.02,0.14c0.01-0.12-0.02-0.25-0.02-0.37
				c0-0.1,0-0.21,0.01-0.31c0-0.06,0.01-0.11,0.01-0.17c0-0.03,0.03-0.31,0.01-0.14c-0.02,0.18,0.01-0.05,0.01-0.07
				c0.02-0.09,0.03-0.18,0.05-0.27c0.04-0.18,0.08-0.35,0.12-0.52c0.08-0.3,0.18-0.6,0.3-0.89c-0.1,0.25,0.06-0.12,0.1-0.19
				c0.07-0.14,0.14-0.28,0.22-0.42c0.18-0.31,0.38-0.61,0.6-0.89c0.48-0.63,0.12-1.71-0.54-2.05
				C83.43,102.18,82.68,102.47,82.17,103.14L82.17,103.14z"/>
		</g>
	</g>
	<g>
		<g>
			<path d="M88.19,108.79c1.46,1.66,3.13,3.12,4.94,4.39c0.3,0.21,0.81,0.25,1.16,0.15c0.35-0.1,0.72-0.36,0.9-0.69
				c0.18-0.35,0.28-0.77,0.15-1.16c-0.13-0.39-0.35-0.66-0.69-0.9c-0.32-0.22-0.63-0.45-0.94-0.69c0.1,0.08,0.2,0.16,0.3,0.23
				c-1.34-1.04-2.58-2.2-3.7-3.47c-0.52-0.59-1.6-0.57-2.12,0C87.61,107.3,87.64,108.16,88.19,108.79L88.19,108.79z"/>
		</g>
	</g>
	<g>
		<g>
			<path d="M80.58,109.76c-1-0.03-1.83,0.68-2.08,1.62c-0.25,0.91,0.11,1.84,0.8,2.45c0.66,0.58,1.51,0.92,2.26,1.37
				c0.75,0.45,1.48,0.93,2.18,1.46c0.81,0.61,1.51,1.26,2.6,0.92c0.84-0.26,1.64-0.94,2.41-1.37c1.57-0.88,3.2-1.66,4.88-2.32
				c0.75-0.3,1.28-1,1.05-1.85c-0.2-0.72-1.09-1.35-1.85-1.05c-1.36,0.53-2.69,1.12-3.99,1.77c-0.61,0.31-1.21,0.63-1.81,0.97
				c-0.28,0.16-0.56,0.32-0.83,0.49c-0.25,0.15-0.58,0.44-0.85,0.51c0.27,0,0.53,0,0.8,0c-0.26-0.05-0.94-0.72-1.27-0.95
				c-0.48-0.35-0.98-0.68-1.49-0.99c-0.51-0.31-1.03-0.6-1.55-0.88c-0.07-0.04-0.47-0.27-0.48-0.26c0,0.12,0.02,0.23,0.06,0.34
				c-0.04,0.44-0.32,0.69-0.83,0.76C82.52,112.81,82.51,109.81,80.58,109.76L80.58,109.76z"/>
		</g>
	</g>
	<g>
		<g>
			<path d="M77.8,112.96c0.11,2.13,0.04,4.39-0.23,6.42c-0.12,0.89,0.21,1.49,1.05,1.85c2.27,0.96,4.53,1.91,6.8,2.87
				c0.87,0.37,1.97-0.56,1.9-1.45c-0.15-1.81-0.19-3.62-0.13-5.43c0.03-0.79-0.71-1.54-1.5-1.5c-0.83,0.04-1.47,0.66-1.5,1.5
				c-0.06,1.81-0.02,3.63,0.13,5.43c0.63-0.48,1.27-0.96,1.9-1.45c-2.27-0.96-4.53-1.91-6.8-2.87c0.35,0.62,0.7,1.23,1.05,1.85
				c0.32-2.4,0.46-4.8,0.34-7.22c-0.04-0.78-0.66-1.54-1.5-1.5C78.53,111.49,77.76,112.12,77.8,112.96L77.8,112.96z"/>
		</g>
	</g>
	<g>
		<g>
			<path d="M86.9,124.44c1.19-0.22,2.35-0.55,3.47-1.01c0.61-0.25,1.22-0.52,1.8-0.84c0.55-0.3,1.23-0.62,1.65-1.09
				c0.94-1.04,0.65-2.79,0.61-4.09c-0.04-1.29-0.06-2.4,0.27-3.54c0.22-0.75-0.27-1.67-1.05-1.85c-0.81-0.18-1.61,0.24-1.85,1.05
				c-0.34,1.15-0.42,2.36-0.4,3.55c0.01,0.55,0.03,1.11,0.05,1.66c0.01,0.29,0.01,0.58,0.01,0.87c0,0.14-0.01,0.29-0.01,0.43
				c0,0.06,0,0.12-0.01,0.17c-0.01,0.11-0.01,0.12,0.01,0.01c0.11-0.15,0.22-0.3,0.34-0.45c-0.04,0.03-0.08,0.05-0.12,0.08
				c-0.12,0.06-0.24,0.15-0.36,0.22c-0.24,0.14-0.49,0.28-0.73,0.41c-0.42,0.22-0.95,0.47-1.25,0.59c-1.05,0.41-2.13,0.72-3.23,0.92
				c-0.77,0.14-1.28,1.12-1.05,1.85C85.32,124.22,86.07,124.59,86.9,124.44L86.9,124.44z"/>
		</g>
	</g>
	<g>
		<g>
			<path d="M93.91,118.94c1.18,0.13,2.37,0.12,3.55-0.03c1.31-0.17,2.58-0.41,3.53-1.4c0.81-0.85,1.42-1.94,2.06-2.91
				c0.7-1.06,1.39-2.12,2.07-3.19c0.43-0.68,0.14-1.65-0.54-2.05c-0.72-0.42-1.62-0.15-2.05,0.54c-0.59,0.93-1.19,1.86-1.8,2.78
				c-0.3,0.46-0.61,0.92-0.91,1.38c-0.14,0.22-0.29,0.43-0.43,0.65c-0.06,0.09-0.13,0.19-0.19,0.28c-0.02,0.02-0.2,0.28-0.1,0.16
				c-0.13,0.16-0.28,0.34-0.45,0.46c0.12-0.09-0.07,0.03-0.1,0.04c0.13-0.05-0.08,0.03-0.1,0.04c-0.39,0.13-0.93,0.22-1.26,0.25
				c-1.09,0.12-2.18,0.11-3.27,0c-0.78-0.08-1.53,0.75-1.5,1.5C92.45,118.32,93.07,118.85,93.91,118.94L93.91,118.94z"/>
		</g>
	</g>
	<g>
		<g>
			<path d="M133.8,114.76c0.11,0.5,0.22,0.99,0.33,1.49c0.23-0.56,0.46-1.13,0.69-1.69c-3.06,1.41-6.12,2.82-9.19,4.23
				c-0.67,0.31-1.35,0.72-2.07,0.9c-0.74,0.19-1.51,0.01-2.26-0.02c-1.43-0.05-2.9,0.12-4.28,0.49c-2.53,0.68-5.28,2.1-6.83,4.28
				c-1.39,1.95-1.26,5.08,1.14,6.19c1.74,0.81,3.27-1.78,1.51-2.59c-2.09-0.97,1.44-3.42,2.29-3.89c2.1-1.18,4.43-1.6,6.81-1.44
				c2.59,0.18,4.65-1.08,6.95-2.14c2.48-1.14,4.96-2.28,7.44-3.43c0.62-0.28,0.82-1.09,0.69-1.69c-0.11-0.5-0.22-0.99-0.33-1.49
				C136.27,112.08,133.38,112.88,133.8,114.76L133.8,114.76z"/>
		</g>
	</g>
	<g>
		<g>
			<path d="M117.17,123.73c-0.97,0.67-1.93,1.34-2.9,2.02c-0.93,0.65-1.93,1.38-2.44,2.43c-0.55,1.13-0.71,2.56,0.07,3.63
				c0.42,0.58,0.98,1.01,1.67,1.22c0.71,0.22,1.39,0.09,2.05-0.21c0.71-0.33,0.95-1.42,0.54-2.05c-0.47-0.74-1.29-0.89-2.05-0.54
				c0.22-0.08,0.27-0.11,0.16-0.07c-0.12,0.03-0.05,0.03,0.2-0.02c-0.05-0.01-0.32-0.04-0.05,0.02c0.27,0.06,0.01-0.01-0.05-0.02
				c-0.11-0.04-0.11-0.04,0.02,0.01c0.13,0.06,0.13,0.06,0.03,0c-0.05-0.04-0.28-0.14-0.06-0.03c0.27,0.13-0.04-0.06-0.04-0.06
				c0.13,0.18,0.17,0.23,0.1,0.13c-0.02-0.04-0.05-0.07-0.07-0.11c-0.14-0.2,0.06,0.24,0.03,0.06c-0.04-0.26,0.01-0.04-0.01,0.06
				c0.02-0.07-0.01-0.23-0.01-0.3c0-0.28-0.06,0.23-0.01,0.05c0.02-0.08,0.05-0.16,0.06-0.24c0.07-0.31-0.15,0.26,0-0.02
				c0.04-0.07,0.08-0.15,0.12-0.22c0.03-0.05,0.08-0.18,0.14-0.21c-0.11,0.14-0.13,0.17-0.06,0.09c0.04-0.04,0.07-0.08,0.11-0.12
				c0.12-0.13,0.26-0.26,0.39-0.38c0.02-0.02,0.24-0.22,0.25-0.21c-0.05-0.02-0.24,0.18,0.01,0c0.33-0.24,0.68-0.48,1.02-0.71
				c0.76-0.53,1.52-1.06,2.29-1.59c0.64-0.45,1-1.33,0.54-2.05C118.81,123.63,117.86,123.25,117.17,123.73L117.17,123.73z"/>
		</g>
	</g>
	<g>
		<g>
			<path d="M118.53,127.14c-1.18,0.93-2.35,1.9-3.16,3.2c-0.94,1.5-0.93,3.65,0.76,4.63c0.77,0.45,1.77,0.47,2.63,0.37
				c0.88-0.11,1.68-0.35,2.49-0.71c1.44-0.64,2.65-1.68,3.85-2.69c0.6-0.51,0.56-1.61,0-2.12c-0.64-0.59-1.48-0.54-2.12,0
				c-0.25,0.21-0.5,0.42-0.75,0.62c-0.11,0.09-0.22,0.18-0.33,0.26c-0.25,0.2,0.14-0.1-0.14,0.11c-0.47,0.34-0.95,0.67-1.46,0.95
				c-0.14,0.08-0.29,0.15-0.44,0.22c-0.28,0.14,0.17-0.05-0.16,0.07c-0.26,0.09-0.53,0.18-0.8,0.25c-0.05,0.01-0.51,0.1-0.35,0.07
				c0.17-0.02-0.24,0.02-0.28,0.02c-0.16,0.01-0.32,0-0.49,0c-0.33,0,0.21,0.04-0.13-0.02c-0.31-0.05,0.13,0.12-0.13-0.05
				c0.07,0.05,0.31,0.37,0.18,0.14c-0.16-0.26,0.04,0.24-0.01-0.04c0.06,0.41,0.02,0.01,0.01-0.09c0.01-0.1,0-0.07-0.01,0.1
				c0.02-0.08,0.04-0.16,0.07-0.24c-0.07,0.24-0.01,0.01,0.06-0.1c0.12-0.23,0.27-0.44,0.43-0.65c-0.19,0.24,0.06-0.06,0.1-0.11
				c0.1-0.12,0.21-0.23,0.32-0.34c0.2-0.21,0.41-0.41,0.63-0.6c0.43-0.39,0.89-0.75,1.35-1.11c0.62-0.49,0.55-1.62,0-2.12
				C119.99,126.54,119.19,126.62,118.53,127.14L118.53,127.14z"/>
		</g>
	</g>
	<g>
		<g>
			<path d="M124.29,133.17c3.12,0.29,5.99-0.83,8.33-2.85c1.3-1.12,3.09-1.41,4.66-2.03c1.61-0.63,3.19-1.34,4.72-2.14
				c2.79-1.47,5.31-3.37,6.47-6.4c1.14-2.98,0.72-6.3,0.16-9.35c-0.35-1.9-3.24-1.09-2.89,0.8c0.47,2.55,0.86,5.44-0.22,7.9
				c-1.11,2.53-3.8,3.89-6.15,5.04c-1.32,0.65-2.68,1.22-4.06,1.71c-1.36,0.48-2.81,0.8-3.98,1.67c-1.06,0.79-1.94,1.68-3.2,2.18
				c-1.24,0.49-2.53,0.6-3.84,0.48C122.36,129.99,122.38,133,124.29,133.17L124.29,133.17z"/>
		</g>
	</g>
	<g>
		<g>
			<path d="M109.55,74.14c-1.09-0.25-2.16-0.11-3.17,0.38c-1.03,0.5-1.73,1.41-2.15,2.45c-0.38,0.95-0.43,2.1-0.12,3.08
				c0.36,1.16,1.15,2.05,2.3,2.49c1.12,0.43,2.42,0.18,3.5-0.23c0.37-0.14,0.69-0.33,0.9-0.69c0.19-0.32,0.27-0.8,0.15-1.16
				c-0.23-0.72-1.06-1.34-1.85-1.05c-0.42,0.16-0.85,0.29-1.3,0.35c0.13-0.02,0.27-0.04,0.4-0.05c-0.29,0.04-0.58,0.05-0.87,0.01
				c0.13,0.02,0.27,0.04,0.4,0.05c-0.13-0.02-0.25-0.04-0.38-0.08c-0.05-0.02-0.24-0.09-0.02,0c0.22,0.09,0.03,0.01-0.02-0.02
				c-0.04-0.02-0.14-0.06-0.17-0.1c0.01,0.02,0.28,0.24,0.13,0.09c-0.06-0.06-0.3-0.33-0.14-0.12c0.16,0.21-0.04-0.07-0.07-0.13
				c-0.01-0.02-0.08-0.17-0.09-0.17c0.02,0,0.13,0.36,0.06,0.15c-0.08-0.22-0.13-0.44-0.17-0.68c0.02,0.13,0.04,0.27,0.05,0.4
				c-0.03-0.29-0.03-0.58,0.01-0.88c-0.02,0.13-0.04,0.27-0.05,0.4c0.03-0.18,0.06-0.36,0.11-0.53c0.02-0.07,0.05-0.14,0.07-0.22
				c0.05-0.17-0.15,0.3-0.03,0.07c0.07-0.12,0.15-0.39,0.28-0.47c-0.07,0.04-0.22,0.26-0.06,0.08c0.05-0.06,0.11-0.11,0.16-0.17
				c0.04-0.04,0.11-0.08,0.15-0.13c-0.19,0.14-0.24,0.18-0.15,0.12c0.03-0.02,0.06-0.05,0.1-0.07c0.12-0.08,0.24-0.15,0.37-0.21
				c0.27-0.13-0.11,0.05-0.11,0.04c0-0.01,0.21-0.07,0.22-0.07c0.15-0.04,0.3-0.08,0.46-0.1c-0.13,0.02-0.27,0.04-0.4,0.05
				c0.26-0.03,0.52-0.03,0.78,0c-0.13-0.02-0.27-0.04-0.4-0.05c0.1,0.01,0.2,0.03,0.31,0.06c0.76,0.18,1.66-0.24,1.85-1.05
				C110.77,75.22,110.36,74.33,109.55,74.14L109.55,74.14z"/>
		</g>
	</g>
	<g>
		<g>
			<path d="M104.58,86.91c2.39,1.42,5.21,2.11,7.94,1.34c2.9-0.82,5.09-2.99,6.82-5.37c0.48-0.66,0.11-1.67-0.54-2.05
				c-0.76-0.44-1.58-0.12-2.05,0.54c-1.29,1.78-3.03,3.42-5.02,3.99c-0.83,0.23-1.79,0.3-2.56,0.16c-1.14-0.21-2.08-0.61-3.08-1.19
				C104.43,83.34,102.92,85.93,104.58,86.91L104.58,86.91z"/>
		</g>
	</g>
	<ellipse class="st11" cx="100.26" cy="73.3" rx="1.38" ry="2.97"/>
	<ellipse class="st11" cx="118.81" cy="73.01" rx="1.38" ry="2.97"/>
	<ellipse class="st12" cx="118.99" cy="72.02" rx="0.5" ry="0.99"/>
	<ellipse class="st12" cx="100.48" cy="72.02" rx="0.5" ry="0.99"/>
	<g>
		<g>
			<path d="M74.22,88.86c0.9,0.99,1.79,1.99,2.69,2.98c0.25,0.28,0.7,0.44,1.06,0.44c0.37,0,0.81-0.16,1.06-0.44
				c0.26-0.29,0.46-0.66,0.44-1.06c-0.02-0.41-0.16-0.75-0.44-1.06c-0.9-0.99-1.79-1.99-2.69-2.98c-0.25-0.28-0.7-0.44-1.06-0.44
				c-0.37,0-0.81,0.16-1.06,0.44c-0.26,0.29-0.46,0.66-0.44,1.06C73.8,88.21,73.94,88.56,74.22,88.86L74.22,88.86z"/>
		</g>
	</g>
	<g>
		<g>
			<path d="M80.14,84.11c0.12,1.23,0.24,2.47,0.36,3.7c0.04,0.41,0.14,0.76,0.44,1.06c0.26,0.26,0.69,0.46,1.06,0.44
				c0.39-0.02,0.79-0.14,1.06-0.44c0.25-0.28,0.48-0.67,0.44-1.06c-0.12-1.23-0.24-2.47-0.36-3.7C83.1,83.7,83,83.35,82.7,83.05
				c-0.26-0.26-0.69-0.46-1.06-0.44c-0.39,0.02-0.79,0.14-1.06,0.44C80.33,83.32,80.1,83.72,80.14,84.11L80.14,84.11z"/>
		</g>
	</g>
	<g>
		<g>
			<path d="M86.86,90.88c0.1-0.14,0.21-0.27,0.31-0.41c-0.08,0.1-0.16,0.2-0.23,0.3c0.7-0.9,1.44-1.77,2.22-2.61
				c0.27-0.29,0.44-0.66,0.44-1.06c0-0.37-0.16-0.81-0.44-1.06c-0.29-0.26-0.66-0.46-1.06-0.44c-0.39,0.02-0.79,0.15-1.06,0.44
				c-0.99,1.05-1.9,2.17-2.77,3.32c-0.22,0.29-0.24,0.82-0.15,1.16c0.1,0.35,0.36,0.72,0.69,0.9c0.35,0.18,0.77,0.28,1.16,0.15
				c0.12-0.05,0.24-0.1,0.36-0.15C86.55,91.29,86.73,91.11,86.86,90.88L86.86,90.88z"/>
		</g>
	</g>
	<g>
		<g>
			<path d="M100.26,118.77c9.59,0.46,19.19,0.56,28.79,0.28c1.93-0.06,1.93-3.06,0-3c-9.6,0.28-19.2,0.18-28.79-0.28
				C98.33,115.68,98.33,118.68,100.26,118.77L100.26,118.77z"/>
		</g>
	</g>
	<g>
		<g>
			<path d="M148.48,119.12c3.02-0.06,6.04,0.12,9.03,0.52c0.78,0.1,1.53-0.76,1.5-1.5c-0.04-0.9-0.66-1.39-1.5-1.5
				c-2.99-0.4-6.01-0.57-9.03-0.52c-0.78,0.01-1.54,0.68-1.5,1.5C147.02,118.42,147.64,119.13,148.48,119.12L148.48,119.12z"/>
		</g>
	</g>
	<g>
		<g>
			<path d="M145.07,31.42c0.06-1.9-0.98-3.8-2.67-4.7c-1.7-0.91-3.87-0.71-5.41,0.44c-1.5,1.12-2.21,3-2.11,4.84
				c0.11,2.01,1.04,3.79,2.22,5.38c0.62,0.83,1.27,1.62,1.92,2.43c0.69,0.85,1.33,1.88,2.12,2.63c0.91,0.87,1.98,0.4,2.96-0.07
				c0.83-0.4,1.64-0.86,2.41-1.36c1.65-1.07,3.2-2.34,4.53-3.79c1.33-1.45,2.52-3.26,2.38-5.31c-0.16-2.27-1.7-4.03-4.01-4.23
				c-2.39-0.21-4.3,1.38-5.91,2.93c-1.4,1.34,0.73,3.46,2.12,2.12c0.97-0.93,2.32-2.38,3.83-2.03c1.36,0.32,1.03,2.1,0.53,2.99
				c-0.83,1.47-2.24,2.7-3.56,3.72c-0.66,0.52-1.36,0.98-2.07,1.42c-0.36,0.22-0.73,0.42-1.1,0.62c-0.22,0.12-0.45,0.23-0.67,0.34
				c-0.16,0.08-0.71,0.17-0.27,0.17c0.25,0.07,0.5,0.14,0.76,0.2c0.26,0.16-0.26-0.38-0.27-0.4c-0.15-0.19-0.31-0.38-0.46-0.57
				c-0.31-0.38-0.61-0.77-0.92-1.15c-0.58-0.72-1.17-1.43-1.72-2.17c-0.95-1.26-1.86-2.68-1.82-4.31c0.03-1.19,0.71-2.28,1.98-2.4
				c1.33-0.13,2.27,1.01,2.22,2.27C142.01,33.35,145.01,33.35,145.07,31.42L145.07,31.42z"/>
		</g>
	</g>
	<g>
		<g>
			<path d="M89.1,29.71c1.25-1.21,2.5-2.42,3.74-3.63c-0.85-0.35-1.71-0.71-2.56-1.06c0.07,0.96,0.17,1.91,0.29,2.86
				c0.12,0.91,0.08,2.27,0.85,2.88c0.69,0.54,1.62,0.9,2.4,1.31c0.83,0.44,1.67,0.88,2.5,1.33c0-0.86,0-1.73,0-2.59
				c-0.86,0.41-1.73,0.83-2.59,1.24c-0.83,0.4-1.88,0.72-2.58,1.32c-0.87,0.74-0.79,1.74-0.78,2.79c0.01,1,0.01,1.99,0.02,2.99
				c0.75-0.43,1.5-0.86,2.26-1.3c-1.31-0.81-2.42-1.83-3.37-3.04c-0.41-0.52-1.28-0.53-1.82-0.23c-1.41,0.78-2.96,1.21-4.57,1.26
				c0.43,0.75,0.86,1.5,1.3,2.26c0.43-0.95,0.86-1.9,1.29-2.85c0.45-0.99,1-1.96,0.77-3.08c-0.19-0.95-0.8-1.86-1.23-2.72
				c-0.48-0.94-0.95-1.88-1.43-2.82c-0.43,0.75-0.86,1.5-1.3,2.26c1.64-0.02,3.18,0.39,4.6,1.22c1.67,0.98,3.18-1.61,1.51-2.59
				c-1.86-1.09-3.96-1.65-6.11-1.63c-1.19,0.01-1.8,1.25-1.3,2.26c0.37,0.73,0.73,1.45,1.1,2.18c0.37,0.72,0.92,1.52,1.16,2.29
				c0.13,0.41-0.39,1.15-0.61,1.63c-0.35,0.78-0.7,1.55-1.05,2.33c-0.44,0.98,0.06,2.29,1.3,2.26c2.15-0.07,4.2-0.63,6.08-1.66
				c-0.61-0.08-1.21-0.16-1.82-0.23c1.11,1.4,2.46,2.57,3.98,3.51c0.97,0.6,2.26-0.18,2.26-1.3c0-0.71-0.01-1.42-0.01-2.13
				c0-0.57-0.15-1.36,0.01-1.9c-0.13,0.22-0.26,0.44-0.39,0.66c0.18-0.23,0.66-0.37,0.95-0.51c0.43-0.21,0.86-0.41,1.29-0.62
				c0.86-0.41,1.73-0.83,2.59-1.24c1.01-0.48,0.95-2.09,0-2.59c-1.58-0.84-3.17-1.68-4.75-2.52c0.23,0.3,0.46,0.6,0.69,0.9
				c-0.24-1.38-0.4-2.77-0.5-4.17c-0.09-1.27-1.58-2.01-2.56-1.06c-1.25,1.21-2.5,2.42-3.74,3.63
				C85.59,28.93,87.72,31.05,89.1,29.71L89.1,29.71z"/>
		</g>
	</g>
	<path class="st3" d="M84.33,133.71c-0.42,0.98-1.68,1.54-2.89,1.6c-1.21,0.06-2.4-0.28-3.55-0.62c0.13,1.32,0.91,2.58,2.12,3.4
		c-0.57,0.79-1.14,1.59-1.7,2.38c1.08-0.38,2.28-0.57,3.43-0.38c1.15,0.18,2.24,0.78,2.77,1.67c0.03-0.9,0.1-1.87,0.76-2.57
		c0.83-0.87,2.29-1.03,3.6-1.11C86.89,137.13,85.21,135.74,84.33,133.71z"/>
	<g>
		<g>
			<path d="M82.59,135.77c0.99-0.82,1.99-1.65,2.98-2.47c-0.63-0.26-1.26-0.52-1.89-0.78c0.06,0.69,0.14,1.39,0.25,2.07
				c0.1,0.67,0.1,1.6,0.74,1.99c0.54,0.33,1.21,0.55,1.79,0.81c0.67,0.3,1.33,0.6,2,0.9c0.09-0.67,0.18-1.35,0.26-2.02
				c-0.69,0.28-1.37,0.56-2.06,0.84c-0.68,0.28-1.42,0.5-2.06,0.85c-0.71,0.39-0.84,1.05-0.84,1.79c0,0.79,0.01,1.58,0.01,2.37
				c0.55-0.32,1.11-0.64,1.66-0.95c-1.02-0.54-1.92-1.2-2.7-2.05c-0.35-0.38-0.9-0.38-1.34-0.17c-1.15,0.54-2.41,0.81-3.68,0.84
				c0.32,0.55,0.64,1.11,0.95,1.66c0.36-0.68,0.73-1.37,1.09-2.05c0.34-0.64,0.72-1.29,0.54-2.04c-0.15-0.65-0.6-1.24-0.94-1.81
				c-0.39-0.66-0.78-1.32-1.17-1.98c-0.32,0.55-0.64,1.11-0.95,1.66c1.29-0.01,2.55,0.24,3.71,0.82c1.27,0.63,2.39-1.27,1.11-1.91
				c-1.51-0.75-3.13-1.13-4.82-1.12c-0.83,0.01-1.38,0.93-0.95,1.66c0.31,0.53,0.62,1.05,0.94,1.58c0.27,0.45,0.51,1.08,0.86,1.46
				c0.03,0.04,0.05,0.09,0.07,0.13c0.02-0.21-0.01-0.21-0.09,0.01c-0.19,0.21-0.3,0.57-0.44,0.82c-0.29,0.55-0.58,1.1-0.87,1.64
				c-0.38,0.72,0.08,1.68,0.95,1.66c1.68-0.04,3.28-0.43,4.8-1.14c-0.45-0.06-0.89-0.12-1.34-0.17c0.9,0.97,1.98,1.78,3.15,2.4
				c0.73,0.38,1.67-0.09,1.66-0.95c0-0.49-0.01-0.98-0.01-1.47c0-0.35-0.1-0.93,0.01-1.26c-0.09,0.16-0.19,0.32-0.28,0.49
				c0.12-0.13,0.45-0.2,0.62-0.27c0.34-0.14,0.69-0.28,1.03-0.42c0.65-0.27,1.31-0.53,1.96-0.8c0.42-0.17,0.73-0.44,0.79-0.92
				c0.05-0.4-0.13-0.92-0.53-1.1c-1.26-0.57-2.52-1.14-3.78-1.71c0.17,0.22,0.34,0.44,0.51,0.66c-0.19-0.93-0.32-1.87-0.4-2.82
				c-0.08-0.99-1.13-1.41-1.89-0.78c-0.99,0.82-1.99,1.65-2.98,2.47c-0.46,0.38-0.39,1.17,0,1.56
				C81.48,136.23,82.13,136.15,82.59,135.77L82.59,135.77z"/>
		</g>
	</g>
	<g>
		<g>
			<path d="M73.68,129.88c-1.63,4.73-3.27,9.45-4.9,14.18c-0.33,0.95,0.53,1.88,1.45,1.9c6.36,0.12,12.74,0.2,19.1,0.11
				c1.43-0.02,2.56-0.45,2.8-2c0.24-1.5,0.22-3.07,0.33-4.58c0.22-3.27,0.44-6.54,0.66-9.81c0.05-0.8-0.73-1.52-1.5-1.5
				c-5.4,0.12-10.8,0.24-16.2,0.36c-1.93,0.04-1.93,3.04,0,3c5.4-0.12,10.8-0.24,16.2-0.36c-0.5-0.5-1-1-1.5-1.5
				c-0.19,2.84-0.38,5.69-0.57,8.53c-0.1,1.42-0.19,2.84-0.29,4.26c-0.02,0.29-0.17,0.82-0.07,1.07c-0.07,0.35,0.03,0.3,0.28-0.13
				c0.44-0.34,0.39-0.45-0.13-0.34c-0.56-0.18-1.53,0.01-2.12,0.01c-5.66,0.03-11.32-0.01-16.98-0.12c0.48,0.63,0.96,1.27,1.45,1.9
				c1.63-4.73,3.27-9.45,4.9-14.18C77.2,128.84,74.31,128.06,73.68,129.88L73.68,129.88z"/>
		</g>
	</g>
	<g>
		<g>
			<path d="M15.47,119.15c20.33,0.1,40.67,0.11,61,0.02c1.93-0.01,1.93-3.01,0-3c-20.33,0.09-40.67,0.08-61-0.02
				C13.54,116.14,13.54,119.14,15.47,119.15L15.47,119.15z"/>
		</g>
	</g>
	<g>
		<g>
			<path d="M105.4,140.66c0.41,0.63,0.81,1.26,1.22,1.88c0.49,0.75,0.93,1.72,1.83,2.02c0.82,0.27,1.83-0.08,2.59-0.41
				c0.67-0.28,1.29-0.63,1.92-1c0.71-0.42,1.73-0.81,2.06-1.61c0.41-0.97-0.3-1.96-0.72-2.82c-0.32-0.66-0.64-1.33-0.96-1.99
				c-0.25-0.51-0.6-0.95-1.17-1.13c-0.53-0.17-1.06,0-1.56,0.18c-1.57,0.55-3.09,1.25-4.52,2.11c-0.67,0.4-0.98,1.37-0.54,2.05
				c0.44,0.68,1.33,0.97,2.05,0.54c0.73-0.44,1.49-0.84,2.26-1.2c0.08-0.04,0.16-0.07,0.23-0.11c0.03-0.02,0.43-0.18,0.11-0.05
				c0.18-0.07,0.36-0.15,0.54-0.21c0.2-0.08,0.4-0.15,0.6-0.22c0.1-0.04,0.2-0.07,0.3-0.1c0.04-0.01,0.08-0.03,0.12-0.04
				c0.39-0.11,0.15-0.16-0.7-0.16c-0.18-0.18-0.36-0.36-0.54-0.54c0.19,0.26,0.31,0.6,0.45,0.89c0.15,0.31,0.3,0.62,0.45,0.93
				s0.3,0.62,0.45,0.93c0.08,0.17,0.16,0.33,0.24,0.5c0.04,0.08,0.08,0.17,0.12,0.25c0.09,0.19,0.08,0.17-0.04-0.08
				c0-0.27,0-0.53,0-0.8c0,0.03-0.01,0.05-0.01,0.08c0.13-0.22,0.26-0.44,0.39-0.66c0.07-0.08,0.29-0.18,0.07-0.06
				c-0.07,0.04-0.15,0.09-0.22,0.13c-0.17,0.1-0.33,0.2-0.5,0.29c-0.29,0.17-0.58,0.34-0.87,0.51c-0.3,0.18-0.6,0.35-0.92,0.5
				c-0.07,0.04-0.15,0.07-0.22,0.11c-0.16,0.08-0.06,0.06,0.02-0.01c-0.11,0.09-0.38,0.14-0.52,0.18c-0.16,0.04-0.31,0.08-0.47,0.11
				c-0.09,0.01-0.08,0.01,0.02,0c0.2-0.05,0.38,0.03,0.53,0.25c0.59,0.35,0.51,0.37,0.36,0.14c-0.21-0.32-0.42-0.65-0.63-0.97
				c-0.42-0.65-0.84-1.29-1.26-1.94c-0.43-0.66-1.35-0.99-2.05-0.54C105.28,139.03,104.94,139.96,105.4,140.66L105.4,140.66z"/>
		</g>
	</g>
	<g>
		<g>
			<path d="M99.83,130.45c-0.05,1.92,0.03,3.91,0.4,5.79c0.11,0.55,0.45,1.06,0.95,1.31c0.68,0.34,1.35,0.2,2.01-0.1
				c0.84-0.39,1.66-0.81,2.48-1.22c0.39-0.19,0.78-0.38,1.16-0.57c0.47-0.23,1.03-0.42,1.42-0.79c0.84-0.79,0.5-1.97,0.39-2.98
				c-0.1-0.92-0.2-1.83-0.3-2.75c-0.11-1.04,0.01-2.62-1.05-3.18c-1.17-0.61-2.51,0.49-3.51,1.04c-0.95,0.53-1.9,1.05-2.85,1.58
				c-0.69,0.38-0.97,1.38-0.54,2.05c0.45,0.7,1.32,0.95,2.05,0.54c0.8-0.44,1.59-0.88,2.39-1.32c0.77-0.43,1.54-0.94,2.35-1.29
				c-0.25,0.07-0.5,0.14-0.76,0.2c0.04,0,0.07-0.01,0.11-0.01c-0.25-0.07-0.5-0.14-0.76-0.2c0.03,0.02,0.06,0.03,0.09,0.05
				c-0.23-0.3-0.46-0.6-0.69-0.9c-0.06-0.22,0.01,0.04,0.03,0.14c0.01,0.11,0.03,0.23,0.04,0.34c0.03,0.26,0.06,0.51,0.08,0.77
				c0.06,0.54,0.12,1.09,0.18,1.63c0.06,0.51,0.11,1.03,0.17,1.54c0.03,0.26,0.06,0.51,0.08,0.77c0.01,0.11,0.03,0.23,0.04,0.34
				c0.01,0.07,0.02,0.15,0.02,0.22c0.01,0.12,0.01,0.07,0.02-0.16c0.13-0.22,0.26-0.44,0.39-0.66c0.13-0.13,0.11-0.08-0.04-0.02
				c-0.11,0.04-0.21,0.1-0.31,0.15c-0.21,0.1-0.41,0.2-0.62,0.3c-0.44,0.22-0.88,0.43-1.32,0.65c-0.41,0.2-0.83,0.41-1.24,0.61
				c-0.21,0.1-0.41,0.2-0.62,0.3c-0.1,0.05-0.21,0.1-0.31,0.15c-0.21,0.1,0.16-0.07,0.19-0.06c0.25,0.07,0.5,0.14,0.76,0.2
				c0.36,0.65,0.5,0.81,0.43,0.48c-0.02-0.12-0.04-0.23-0.05-0.35c-0.03-0.19-0.03-0.23-0.02-0.12c-0.01-0.12-0.03-0.23-0.04-0.35
				c-0.05-0.46-0.1-0.93-0.13-1.39c-0.06-0.93-0.08-1.86-0.05-2.79c0.02-0.79-0.7-1.54-1.5-1.5
				C100.5,128.99,99.85,129.61,99.83,130.45L99.83,130.45z"/>
		</g>
	</g>
	<g>
		<g>
			<path d="M101.91,128.79c-0.71-0.44-1.41-0.9-2.09-1.38c-0.33-0.23-0.66-0.47-0.98-0.72c-0.14-0.11-0.17-0.13-0.08-0.06
				c-0.09-0.07-0.17-0.13-0.25-0.2c-0.17-0.13-0.34-0.27-0.5-0.41c-0.59-0.49-1.55-0.66-2.12,0c-0.47,0.54-0.69,1.11-0.77,1.81
				c-0.05,0.45,0,0.91-0.01,1.37c0,0.27-0.02,0.55-0.05,0.82c-0.01,0.15-0.04,0.29-0.09,0.57c-0.11,0.54-0.33,1.06-0.43,1.6
				c-0.15,0.8-0.01,1.63,0.6,2.22c0.42,0.41,0.96,0.68,1.46,0.96c1.02,0.58,2.04,1.16,3.06,1.74c0.68,0.39,1.67,0.18,2.05-0.54
				c0.38-0.71,0.19-1.64-0.54-2.05c-0.82-0.47-1.64-0.94-2.46-1.4c-0.42-0.24-0.85-0.48-1.27-0.72c-0.02-0.01-0.23-0.13-0.23-0.14
				c0.01-0.02,0.15,0.16,0.16,0.18c0.01,0.02,0.14,0.48,0.08,0.48c0.01,0,0.1-0.33,0.1-0.35c0.3-0.93,0.48-1.89,0.55-2.87
				c0.03-0.41,0.02-0.82,0.01-1.23c0-0.11,0-0.21,0-0.32c0-0.04,0.03-0.31,0-0.11c-0.03,0.2,0.03-0.06,0.03-0.1
				c0.02-0.12-0.07,0.15-0.12,0.2c-0.71,0-1.41,0-2.12,0c1.43,1.17,2.94,2.26,4.52,3.23c0.67,0.41,1.68,0.17,2.05-0.54
				C102.84,130.11,102.63,129.22,101.91,128.79L101.91,128.79z"/>
		</g>
	</g>
	<g>
		<g>
			<path d="M98.4,127.75c0.08-0.06,0.15-0.12,0.23-0.18c-0.11,0.08-0.1,0.07,0.05-0.03c0.12-0.09,0.24-0.17,0.36-0.26
				c0.3-0.21,0.61-0.41,0.92-0.6c0.29-0.18,0.59-0.35,0.89-0.51c0.15-0.08,0.3-0.16,0.46-0.23c0.09-0.04,0.18-0.09,0.26-0.13
				c-0.17,0.05-0.18,0.07-0.04,0.04c-0.27,0-0.53,0-0.8,0c-0.15-0.04-0.15-0.08-0.01,0.03c0.1,0.07,0.21,0.14,0.31,0.2
				c0.17,0.11,0.34,0.21,0.51,0.31c0.39,0.22,0.78,0.44,1.18,0.63c0.85,0.42,1.73,0.78,2.63,1.08c0.74,0.25,1.67-0.29,1.85-1.05
				c0.19-0.83-0.25-1.58-1.05-1.85c-0.4-0.13-0.8-0.28-1.19-0.44c-0.1-0.04-0.09-0.04,0.02,0.01c-0.05-0.02-0.09-0.04-0.14-0.06
				c-0.09-0.04-0.18-0.08-0.27-0.12c-0.2-0.09-0.4-0.19-0.6-0.29c-0.38-0.19-0.75-0.4-1.11-0.61c-0.42-0.25-0.85-0.61-1.33-0.72
				c-0.99-0.22-2.08,0.53-2.91,1.02c-0.83,0.49-1.6,1.06-2.35,1.66c-0.61,0.5-0.55,1.61,0,2.12
				C96.93,128.35,97.74,128.28,98.4,127.75L98.4,127.75z"/>
		</g>
	</g>
</g>
<g id="Ebene_15">
</g>
<g id="Ebene_16">
</g>
<g id="Ebene_7">
</g>
</svg>
