<?xml version="1.0" encoding="utf-8"?>
<!-- Generator: Adobe Adobe Illustrator 24.2.0, SVG Export Plug-In . SVG Version: 6.00 Build 0)  -->
<svg version="1.1" xmlns="http://www.w3.org/2000/svg" xmlns:xlink="http://www.w3.org/1999/xlink" x="0px" y="0px"
	 viewBox="0 0 170.08 170.08" style="enable-background:new 0 0 170.08 170.08;" xml:space="preserve">
<style type="text/css">
	.st0{fill:#F7BF9C;}
	.st1{fill:#301910;}
	.st2{fill:#D81C4A;}
	.st3{fill:#EA7422;}
	.st4{fill:#FFFFFF;}
	.st5{fill:#FBBE3F;}
	.st6{opacity:0.4902;fill:#DA527A;}
	.st7{opacity:0.502;fill:#DA527A;}
	.st8{fill:none;stroke:#000000;stroke-width:2.0887;stroke-miterlimit:10;}
	.st9{stroke:#000000;stroke-miterlimit:10;}
	.st10{fill:#FFFFFF;stroke:#000000;stroke-width:0.41;stroke-miterlimit:10;}
</style>
<g id="Ebene_6">
	<path class="st0" d="M111.65,54.59c0.13-3.78,0.08-8.06-2.64-10.69c-1.4-1.36-3.3-2.05-4.9-3.16c-2.53-1.76-4.25-4.64-4.6-7.7
		c-2.42,2.9-5.43,5.48-9.07,6.49c-3.64,1-7.98,0.08-10.24-2.95c-1.54,1.26-3.11,2.54-4.95,3.33s-4,1.02-5.8,0.18
		c-1.8-0.85-3.07-2.97-2.53-4.88c-1.83,1.97-4.64,2.99-7.31,2.65c-1.69,5.25-3.38,10.49-5.07,15.74c-1.49-2.02-4.7-2.23-6.74-0.77
		S44.9,57,45.17,59.49c0.26,2.41,1.54,4.72,3.53,6.1c1.27,0.88,2.77,1.36,4.06,2.21c2.56,1.7,3.94,4.63,5.68,7.16
		c2.19,3.18,5.09,5.86,8.42,7.8c1.4,0.81,2.92,1.54,3.88,2.83c1.09,1.48,1.26,3.43,2.05,5.09c1.53,3.21,5.19,4.87,8.69,5.46
		c3.24,0.55,6.77,0.36,9.51-1.46c2.73-1.82,4.31-5.6,2.87-8.55c7.04-1.76,13.27-6.51,16.83-12.84c0.97-1.73,1.76-3.57,2.97-5.14
		c1.3-1.68,3.04-2.96,4.4-4.6c1.34-1.63,2.3-3.66,2.25-5.77c-0.04-2.11-1.23-4.25-3.18-5.07C115.19,51.91,112.6,52.78,111.65,54.59z
		"/>
</g>
<g id="Ebene_9">
	<path class="st1" d="M110.79,43.58c0.43,3.12,0.87,6.24,1.3,9.36c1.58-0.18,3.16-0.37,4.73-0.55c1.19-3.82,2.08-7.79,1.97-11.79
		c-0.12-4-1.32-8.07-3.93-11.1c-2.61-3.03-6.74-4.88-10.69-4.2c-0.59-2.88-2.5-5.37-4.87-7.12s-5.16-2.83-7.99-3.64
		c-7.43-2.14-15.73-2.51-22.63,0.97c-3.81,1.92-6.98,4.9-10.65,7.08s-8.26,3.55-12.18,1.87c-0.02,2.97,2.2,5.81,5.09,6.51
		c-4.54,5.91-5.48,14.39-2.35,21.15c2.09-0.37,4.29-0.05,6.19,0.89c2.42-4.85,3.99-10.13,4.62-15.52c3.65,1.18,8.04-0.82,9.54-4.35
		c-2,1.38-1.69,4.77,0.23,6.27s4.73,1.35,6.91,0.28c2.18-1.07,3.87-2.91,5.51-4.71c-1.09,1.3-0.32,3.47,1.14,4.33
		s3.3,0.75,4.97,0.42c4.72-0.94,9.1-3.49,12.27-7.12c0.43,3.17,1.75,6.21,3.78,8.69C105.52,43.48,108.51,45.28,110.79,43.58z"/>
</g>
<g id="Ebene_10">
	<path class="st2" d="M140.64,53.31c0.44-2.25,0.22-4.76-1.24-6.52c-1.46-1.76-4.41-2.34-6.08-0.78c-1.11,1.03-1.42,2.7-1.16,4.19
		c0.25,1.49,0.98,2.85,1.71,4.17c1.16,2.13,2.32,4.26,3.49,6.38c0.22,0.41,0.5,0.86,0.95,0.96c0.4,0.09,0.79-0.11,1.15-0.31
		c2.05-1.16,4.06-2.39,6.03-3.68c1.62-1.07,3.27-2.25,4.18-3.96s0.81-4.12-0.72-5.31c-1.4-1.09-3.5-0.8-4.96,0.2
		C142.51,49.65,141.54,51.2,140.64,53.31z"/>
	<path class="st2" d="M40.36,97.99c-0.21,5.43-0.43,10.86-0.64,16.28c1.37,0.8,3.03,0.86,4.61,0.95c1.58,0.09,3.26,0.27,4.5,1.26
		s1.74,3.05,0.6,4.15c1.4,0.71,2.14,2.51,1.63,4c-0.5,1.49-2.18,2.47-3.72,2.19c2.28,0.91,2.24,4.47,0.48,6.18
		c-1.76,1.71-4.4,2.05-6.84,2.31c0.1,2.15,0.2,4.29,0.3,6.44c11.95,3.46,23.9,6.91,35.86,10.37c2.61,0.75,5.28,1.52,7.99,1.39
		c3.12-0.15,6.06-1.46,8.95-2.64c10.79-4.4,22.16-7.17,33.49-9.94c-0.03-2.45-0.06-4.9-0.09-7.35c-2.56-0.09-5.3-0.23-7.37-1.75
		c-2.06-1.52-2.88-4.97-0.92-6.62c-1.2-0.07-2.19-1.34-1.97-2.53c0.22-1.19,1.6-2.01,2.75-1.64c-1.47-1.01-1.71-3.26-0.79-4.79
		c0.92-1.53,2.7-2.37,4.48-2.59c1.77-0.22,3.56,0.1,5.32,0.42c-0.11-5.47-0.23-10.94-0.34-16.41c-11.98,2.13-23.73,5.52-35.01,10.08
		c-1.18,0.48-2.38,0.99-3.28,1.88c-0.9,0.9-1.43,2.28-0.98,3.46c-2.41,0.2-4.83,0.4-7.24,0.6c-0.51-0.86-1.02-1.72-1.53-2.58
		C67.67,105.61,54.38,101,40.36,97.99z"/>
</g>
<g id="Ebene_12">
	<path class="st3" d="M71,86.16c0.58,5.49,5.58,10.18,11.1,10.4s10.87-4.05,11.89-9.49c3.51-2.46,8.4-1.67,12.26,0.2
		c3.86,1.87,7.24,4.67,11.23,6.24c-6.22,1.63-12.49,3.28-18.22,6.19c-5.73,2.91-10.96,7.22-13.81,12.98
		c-3.71-5.4-9.12-9.46-14.95-12.47c-5.82-3.01-12.09-5.04-18.33-7.06c2.75-2.89,6.08-5.23,9.73-6.84c1.43-0.63,2.94-1.15,4.5-1.21
		C67.96,85.05,69.59,85.52,71,86.16z"/>
</g>
<g id="Ebene_14">
	<path class="st0" d="M131.67,115.67c-2.73-1.45-5.91-2.03-8.97-1.62c-1.18,0.15-2.45,0.52-3.15,1.48
		c-0.84,1.14-0.56,2.86,0.38,3.91s2.42,1.52,3.84,1.54c1.42,0.03,2.81-0.33,4.18-0.69c-1.74,0.52-3.59-0.04-5.4-0.06
		c-1.81-0.02-3.97,0.89-4.13,2.69c-0.12,1.39,1.09,2.61,2.43,2.99s2.77,0.13,4.14-0.12c-1.59-0.26-3.26-0.51-4.77,0.06
		c-1.51,0.56-2.72,2.25-2.18,3.77c0.52,1.45,2.25,2,3.76,2.34c1.66,0.38,3.33,0.75,5,1.12c1.55,0.34,3.19,0.66,4.67,0.11
		c1.5-0.56,2.56-1.96,3.11-3.47s0.64-3.13,0.74-4.73c0.12-2.04,0.23-4.13-0.36-6.08C134.35,116.95,132.89,115.13,131.67,115.67z"/>
	<path class="st0" d="M49.49,118.03c-3.24-1.89-6.8-3.23-10.48-3.94c-1-0.19-2.1-0.32-2.97,0.21c-1.08,0.66-1.37,2.08-1.53,3.33
		c-0.33,2.53-0.58,5.08-0.74,7.63c-0.15,2.37-0.17,4.92,1.12,6.91c1.1,1.69,3.04,2.72,5.03,2.97s4.03-0.24,5.85-1.09
		c1.04-0.49,2.04-1.12,2.71-2.06c0.66-0.93,0.93-2.22,0.43-3.25c-0.5-1.03-1.88-1.63-2.88-1.07c1.28-0.04,2.59-0.47,3.51-1.36
		s1.38-2.3,0.98-3.52c-0.4-1.22-1.75-2.11-3-1.82c0.85,0.01,1.68-0.54,1.98-1.34S49.57,117.86,49.49,118.03z"/>
</g>
<g id="Ebene_15">
	<path class="st4" d="M85.77,112.19c8.86-11.66,23.56-18.63,38.2-18.12c0.64,1.37-0.04,3.07-1.17,4.07c-1.13,1-2.62,1.48-4.07,1.94
		C107.85,103.55,97.16,107.64,85.77,112.19z"/>
	<path class="st4" d="M84.22,112.75c-3.27-5.71-8.58-10.06-14.43-13.08c-5.85-3.01-12.26-4.79-18.67-6.25
		c-1.29-0.3-2.64-0.58-3.93-0.28s-2.51,1.36-2.53,2.69c-0.02,1.07,0.74,2.04,1.66,2.58c0.93,0.54,2,0.75,3.05,0.98
		C61.29,101.92,72.35,107.34,84.22,112.75z"/>
</g>
<g id="Ebene_16">
	<path class="st5" d="M25.8,56.17c-0.78,1.94-1.18,4.03-1.17,6.12c-2.24,0.68-4.48,1.35-6.72,2.03c1.74,1.83,3.98,3.19,6.4,3.89
		c-0.22,2.1-0.45,4.19-0.67,6.29c0.65-1.61,1.91-3.03,3.56-3.58c2.71-0.91,5.58,0.63,8.02,2.12c-2.56-3.82-1.96-9.45,1.35-12.64
		c-2.68-0.05-5.37-0.1-8.05-0.14C27.83,58.44,26.84,56.75,25.8,56.17z"/>
</g>
<g id="Ebene_13">
	<circle class="st6" cx="65.6" cy="71.89" r="3.65"/>
	<circle class="st7" cx="100.83" cy="71.89" r="3.65"/>
</g>
<g id="Ebene_5">
	<g>
		<g>
			<path d="M56.08,53.26c1.52-4.48,2.87-9.02,4.03-13.61c0.32-1.25-1.61-1.78-1.93-0.53c-1.16,4.59-2.51,9.13-4.03,13.61
				C53.74,53.95,55.67,54.47,56.08,53.26L56.08,53.26z"/>
		</g>
	</g>
	<g>
		<g>
			<path d="M56.89,38.47c4.09,2.73,9.91-1.56,12.71-4.42c-0.52-0.4-1.05-0.81-1.57-1.21c-1.25,2.09-2.38,4.7-1.05,7.04
				c1.22,2.16,3.79,2.34,5.96,1.76c5.15-1.38,10.01-5.06,13.59-8.9c0.88-0.94-0.53-2.36-1.41-1.41c-2.87,3.07-6.26,5.57-10.06,7.35
				c-1.52,0.71-3.96,1.92-5.61,0.95c-2.16-1.27-0.6-4.26,0.32-5.79c0.58-0.97-0.77-2.03-1.57-1.21c-1.42,1.45-3.02,2.66-4.83,3.57
				c-1.64,0.83-3.76,1.67-5.45,0.54C56.83,36.03,55.82,37.76,56.89,38.47L56.89,38.47z"/>
		</g>
	</g>
	<g>
		<g>
			<path d="M80.3,37.48c1.2,4.16,7.15,3.91,10.46,3.1c4.18-1.02,7.85-3.7,10.09-7.36c-0.62-0.17-1.24-0.34-1.86-0.5
				c0.24,3.41,1.7,6.67,4.27,8.96c1.41,1.25,3.06,2.14,4.74,2.97c2.06,1.03,4.13,2.04,6.2,3.06c1.15,0.57,2.17-1.16,1.01-1.73
				c-3.26-1.61-6.93-2.98-9.85-5.16c-2.57-1.92-4.15-4.92-4.37-8.1c-0.07-0.97-1.33-1.39-1.86-0.5c-1.78,2.91-4.58,5.11-7.84,6.15
				c-1.54,0.49-3.14,0.73-4.76,0.68c-1.53-0.05-3.79-0.36-4.29-2.08C81.88,35.72,79.95,36.24,80.3,37.48L80.3,37.48z"/>
		</g>
	</g>
	<g>
		<g>
			<path d="M118.28,51.76c1.75-6.2,2.28-12.92-0.4-18.94c-2.15-4.82-7.32-10.2-13.12-8.55c0.41,0.23,0.82,0.47,1.23,0.7
				c-0.74-4.15-4.83-6.91-8.26-8.82c-3.81-2.13-8.03-3.46-12.36-3.95c-9.02-1.01-17.68,2.09-24.61,7.77
				c-2.14,1.76-4.27,3.21-7.05,3.68c-2.62,0.44-5.33,0.09-7.9-0.45c-0.63-0.13-1.26,0.28-1.27,0.96c-0.03,4.79,4.12,8.93,8.92,8.86
				c1.29-0.02,1.29-2.02,0-2c-3.72,0.05-6.94-3.13-6.92-6.86c-0.42,0.32-0.84,0.64-1.27,0.96c3.95,0.83,8.21,1.19,12.01-0.45
				c2.03-0.88,3.7-2.32,5.4-3.71c1.7-1.39,3.53-2.6,5.48-3.61c7.85-4.04,17.19-4.4,25.35-1.04c2.21,0.91,4.31,2.1,6.25,3.5
				c1.97,1.43,3.85,3.19,4.3,5.69c0.09,0.53,0.75,0.83,1.23,0.7c5.2-1.47,9.61,4.23,11.2,8.47c2.01,5.35,1.38,11.17-0.14,16.56
				C116,52.47,117.93,53,118.28,51.76L118.28,51.76z"/>
		</g>
	</g>
	<g>
		<g>
			<path d="M49.05,31.12c-4.71,6.24-5.08,15.23-0.99,21.87c0.67,1.09,2.4,0.09,1.73-1.01c-3.75-6.1-3.32-14.15,0.99-19.85
				C51.55,31.1,49.81,30.1,49.05,31.12L49.05,31.12z"/>
		</g>
	</g>
	<g>
		<g>
			<path d="M60.56,57.11c-0.83-1.51-2.53-2.66-3.97-3.52c-1.85-1.1-4.08-2.04-6.27-1.94c-2.39,0.1-4.15,1.56-4.98,3.76
				c-1.13,2.95-0.67,6.41,1.07,9.02c1.72,2.57,4.61,4.54,7.78,4.58c1.29,0.02,1.29-1.98,0-2c-2.24-0.03-4.33-1.37-5.69-3.08
				c-1.6-2.02-2.16-4.67-1.5-7.15c0.24-0.9,0.62-1.8,1.35-2.41c0.54-0.45,1.28-0.68,1.97-0.71c1.7-0.07,3.42,0.62,4.92,1.47
				c0.84,0.47,1.64,1.01,2.33,1.6c0.3,0.26,0.59,0.53,0.86,0.83c0.04,0.04,0.08,0.09,0.11,0.13c0.14,0.16,0.06,0.07,0.07,0.08
				c0.09,0.12,0.17,0.24,0.24,0.37C59.45,59.25,61.18,58.24,60.56,57.11L60.56,57.11z"/>
		</g>
	</g>
	<g>
		<g>
			<path d="M106.85,58.32c2.09-1.62,4.39-3.23,6.93-4.06c0.78-0.25,1.55-0.43,2.36-0.43c0.38,0,0.53,0.01,0.83,0.08
				c0.13,0.03,0.26,0.06,0.39,0.11c0.26,0.08,0.21,0.07,0.35,0.14c0.98,0.52,1.51,1.38,1.78,2.55c0.43,1.89-0.33,3.96-1.29,5.57
				c-1.29,2.19-3.31,4.02-5.77,4.76c-1.23,0.37-0.71,2.3,0.53,1.93c2.67-0.8,4.89-2.63,6.47-4.9c1.37-1.98,2.37-4.52,2.13-6.97
				c-0.17-1.69-0.92-3.34-2.32-4.34c-1.46-1.05-3.35-1.07-5.05-0.69c-3.26,0.74-6.17,2.82-8.76,4.83c-0.43,0.33-0.34,1.06,0,1.41
				C105.85,58.75,106.43,58.65,106.85,58.32L106.85,58.32z"/>
		</g>
	</g>
	<g>
		<g>
			<path d="M52.13,61.06c0.78,7.56,3.7,14.8,9.55,19.85c4.68,4.04,10.62,6.4,16.69,7.37c6.76,1.07,14,0.72,20.33-2.04
				c5.42-2.36,9.72-6.65,12.32-11.94c2.23-4.54,3.31-9.56,3.62-14.59c0.08-1.29-1.92-1.28-2,0c-0.57,9.22-4.14,18.77-12.51,23.58
				c-5.73,3.29-12.68,3.98-19.16,3.33c-5.61-0.56-11.21-2.32-15.86-5.56c-6.66-4.63-10.17-12.07-10.99-20
				C54,59.79,52,59.78,52.13,61.06L52.13,61.06z"/>
		</g>
	</g>
	<g>
		<g>
			<path d="M84.8,64.97c-1.02-0.17-2.08-0.13-2.99,0.42c-0.75,0.45-1.29,1.18-1.53,2.01c-0.46,1.57,0.19,3.46,1.67,4.24
				c1.04,0.55,2.25,0.52,3.35,0.18c0.5-0.16,0.87-0.7,0.7-1.23c-0.16-0.5-0.7-0.87-1.23-0.7c-0.21,0.07-0.41,0.12-0.63,0.16
				c-0.05,0.01-0.1,0.01-0.15,0.02c0.32-0.06,0.15-0.02,0.07-0.01c-0.11,0.01-0.21,0.02-0.32,0.02c-0.09,0-0.18,0-0.26-0.01
				c-0.04,0-0.08-0.01-0.13-0.01c0.3,0,0.2,0.03,0.1,0.01c-0.17-0.04-0.33-0.08-0.49-0.14c-0.16-0.05,0.25,0.12,0.1,0.04
				c-0.03-0.02-0.07-0.03-0.1-0.05c-0.06-0.03-0.13-0.07-0.19-0.11c-0.09-0.06-0.25-0.23,0,0.01c-0.06-0.06-0.12-0.1-0.18-0.16
				c-0.05-0.05-0.1-0.1-0.14-0.15c-0.18-0.21,0.13,0.19,0.01,0.01c-0.08-0.12-0.15-0.25-0.22-0.38c-0.1-0.19,0.1,0.27,0.01,0.02
				c-0.02-0.06-0.04-0.13-0.06-0.19c-0.02-0.07-0.03-0.13-0.05-0.2c-0.01-0.03-0.01-0.07-0.02-0.1c-0.04-0.22,0.02,0.25,0.01,0.1
				c-0.01-0.13-0.02-0.25-0.02-0.38c0-0.07,0.01-0.14,0.01-0.2c0.01-0.09,0.05-0.22-0.02,0.13c0.01-0.04,0.01-0.09,0.02-0.13
				c0.03-0.13,0.06-0.27,0.11-0.39c0.01-0.03,0.02-0.06,0.04-0.1c0.05-0.15-0.12,0.25-0.05,0.11c0.04-0.07,0.07-0.14,0.11-0.21
				c0.03-0.06,0.07-0.12,0.11-0.17c0.12-0.18-0.19,0.22-0.01,0.01c0.05-0.05,0.09-0.1,0.14-0.15c0.08-0.08,0.32-0.22,0.01-0.03
				c0.15-0.09,0.29-0.18,0.44-0.26c0.15-0.08-0.26,0.09-0.1,0.04c0.05-0.02,0.1-0.04,0.15-0.05c0.09-0.03,0.18-0.05,0.28-0.07
				c0.04-0.01,0.08-0.02,0.12-0.02c0.24-0.05-0.22,0.01-0.05,0.01c0.11-0.01,0.21-0.02,0.32-0.02c0.11,0,0.23,0,0.34,0.01
				c0.05,0,0.1,0.01,0.15,0.01c0.18,0.02-0.28-0.04,0,0c0.51,0.08,1.1-0.13,1.23-0.7C85.6,65.71,85.35,65.06,84.8,64.97L84.8,64.97z
				"/>
		</g>
	</g>
	<g>
		<g>
			<path d="M76.51,75.64c1.13,4.4,7.5,6.06,11.04,3.58c1.15-0.8,1.93-1.94,2.33-3.28c0.36-1.24-1.57-1.77-1.93-0.53
				c-0.65,2.22-2.72,3.1-4.93,2.93c-0.97-0.08-2.05-0.43-2.94-1.02c-0.79-0.52-1.41-1.3-1.64-2.21
				C78.12,73.86,76.19,74.39,76.51,75.64L76.51,75.64z"/>
		</g>
	</g>
	<g>
		<g>
			<path d="M80.64,60.22c0.06-0.1,0.12-0.21,0.18-0.31c0,0,0.15-0.21,0.08-0.12c-0.06,0.08,0.05-0.06,0.06-0.07
				c0.16-0.19,0.35-0.37,0.54-0.53c-0.08,0.06-0.06,0.04,0.01,0c0.05-0.03,0.1-0.07,0.15-0.1c0.11-0.07,0.23-0.14,0.35-0.2
				c0.05-0.03,0.11-0.05,0.16-0.08c0.13-0.06-0.14,0.04,0.01,0c0.13-0.03,0.25-0.09,0.38-0.12c0.12-0.03,0.24-0.06,0.36-0.07
				c-0.17,0.03,0.15-0.01,0.21-0.01c0.14,0,0.29,0,0.43,0.01c0.02,0,0.21,0.03,0.11,0.01c-0.1-0.02,0.09,0.02,0.11,0.02
				c0.14,0.03,0.28,0.06,0.42,0.11c0.06,0.02,0.12,0.04,0.18,0.06c0.06,0.02,0.13,0.05,0.03,0.01c0.13,0.06,0.26,0.13,0.39,0.2
				c0.06,0.03,0.11,0.07,0.16,0.1c0.02,0.02,0.2,0.14,0.07,0.04c0.41,0.32,1.02,0.43,1.41,0c0.33-0.36,0.44-1.07,0-1.41
				c-1.24-0.96-2.79-1.38-4.34-1.02c-1.35,0.31-2.55,1.25-3.21,2.46c-0.25,0.46-0.13,1.11,0.36,1.37
				C79.74,60.83,80.37,60.71,80.64,60.22L80.64,60.22z"/>
		</g>
	</g>
	<g>
		<g>
			<path d="M23.63,60.45c-2.39,0.92-4.71,2.01-6.97,3.24c-0.65,0.35-0.65,1.38,0,1.73c1.08,0.58,2.17,1.15,3.24,1.75
				c0.52,0.29,1.04,0.58,1.55,0.88c0.19,0.11,0.93,0.72,1.1,0.69c0.12-0.02-0.05-0.32-0.08-0.18c0.03-0.11,0.02,0.33,0.02,0.41
				c0.03,0.54,0.03,1.08,0.02,1.62c-0.02,1.44-0.1,2.9-0.36,4.32c-0.17,0.93,0.93,1.74,1.67,0.97c1.64-1.7,3.28-3.41,4.93-5.11
				c-0.4,0.05-0.81,0.1-1.21,0.16c2.69,1.3,5.46,2.41,8.3,3.31c0.88,0.28,1.5-0.73,1.13-1.47c-0.6-1.19-1.13-2.41-1.64-3.64
				c-0.42-1.01-0.7-2.2-1.21-3.15c-0.29-0.54,0.11,0.25-0.08,0.13c-0.06,0.11-0.05,0.1,0.01-0.03c0.04-0.09,0.09-0.18,0.14-0.26
				c0.29-0.53,0.6-1.05,0.91-1.56c0.79-1.3,1.61-2.58,2.42-3.86c0.39-0.61-0.11-1.56-0.86-1.5c-1.26,0.1-2.52,0.2-3.78,0.29
				c-0.67,0.05-1.34,0.09-2.01,0.13c-0.35,0.02-0.9-0.07-1.23,0.04c-0.35,0.11,0.34,0.33,0.33,0.14c-0.01-0.09-0.3-0.35-0.36-0.42
				c-0.36-0.45-0.68-0.93-0.99-1.41c-0.84-1.27-1.63-2.6-2.16-4.04c-0.34-0.93-1.6-0.97-1.93,0c-0.86,2.53-1.39,5.14-1.61,7.8
				c-0.11,1.28,1.89,1.28,2,0c0.21-2.49,0.74-4.91,1.54-7.27c-0.64,0-1.29,0-1.93,0c0.59,1.6,1.43,3.09,2.36,4.51
				c0.52,0.79,1.21,2.18,2.14,2.57c0.85,0.36,2.17,0.06,3.05,0c1.53-0.1,3.06-0.22,4.58-0.34c-0.29-0.5-0.58-1-0.86-1.5
				c-0.9,1.43-1.82,2.86-2.69,4.31c-0.46,0.77-1.19,1.68-0.97,2.63c0.25,1.1,0.79,2.18,1.22,3.22c0.59,1.43,1.19,2.86,1.89,4.25
				c0.38-0.49,0.75-0.98,1.13-1.47c-2.68-0.85-5.29-1.89-7.83-3.11c-0.4-0.19-0.89-0.18-1.21,0.16c-1.64,1.7-3.28,3.41-4.93,5.11
				c0.56,0.32,1.11,0.65,1.67,0.97c0.29-1.6,0.4-3.23,0.43-4.86c0.01-0.88,0.22-2.3-0.35-3.06c-0.59-0.79-1.83-1.3-2.66-1.77
				c-1.26-0.71-2.54-1.39-3.82-2.07c0,0.58,0,1.15,0,1.73c2.1-1.14,4.26-2.18,6.49-3.03C25.35,61.92,24.84,59.99,23.63,60.45
				L23.63,60.45z"/>
		</g>
	</g>
	<g>
		<g>
			<path d="M141.59,51.36c-0.27-2.33-0.98-4.83-2.98-6.26c-1.56-1.12-3.57-1.11-5.23-0.23c-1.89,1-3.22,2.95-3.14,5.13
				c0.09,2.45,1.47,4.71,2.77,6.7c0.72,1.11,1.49,2.18,2.22,3.28c0.32,0.48,0.64,0.97,0.94,1.47c0.3,0.49,0.53,1.17,0.97,1.55
				c1,0.87,2.29-0.16,3.22-0.67c1.12-0.62,2.22-1.26,3.3-1.95c2.11-1.34,4.25-2.84,5.9-4.73c1.27-1.46,2.37-3.36,1.7-5.34
				c-0.82-2.43-2.81-4.09-5.45-3.56c-2.53,0.51-4.61,2.62-5.93,4.73c-0.68,1.09,1.05,2.1,1.73,1.01c1.36-2.17,5.52-6.01,7.44-2.31
				c0.73,1.4,0.3,2.56-0.64,3.74c-1.23,1.56-2.88,2.79-4.51,3.9c-1.68,1.15-3.44,2.18-5.22,3.14c-0.19,0.1-0.49,0.2-0.64,0.34
				c-0.13,0.12-0.47,0.1,0.14,0.13c0.56,0.03,0.25,0.1,0.22-0.15c-0.06-0.38-0.52-0.91-0.72-1.23c-0.55-0.89-1.15-1.74-1.74-2.61
				c-1.14-1.67-2.37-3.37-3.14-5.25c-0.62-1.53-0.9-3.26,0.3-4.58c0.94-1.04,2.42-1.78,3.81-1.21c1.86,0.76,2.5,3.17,2.7,4.95
				C139.73,52.62,141.73,52.64,141.59,51.36L141.59,51.36z"/>
		</g>
	</g>
	<g>
		<g>
			<path d="M69.81,86.19c0.58,3.14,1.37,6.29,4.02,8.33c2.47,1.9,5.74,2.56,8.8,2.71c3.16,0.15,6.5-0.45,9.04-2.43
				c2.3-1.8,3.82-4.59,3.57-7.55c-0.11-1.27-2.11-1.28-2,0c0.22,2.54-1.13,4.88-3.21,6.29c-2.27,1.54-5.12,1.86-7.8,1.68
				c-2.44-0.16-5.12-0.7-7.11-2.2c-2.33-1.75-2.89-4.65-3.39-7.35C71.5,84.39,69.58,84.93,69.81,86.19L69.81,86.19z"/>
		</g>
	</g>
	<g>
		<g>
			<path d="M86.72,113.02c1.16-5.17,5.58-8.68,10.02-11.11c5.47-2.98,11.6-4.74,17.69-5.9c3.23-0.61,6.5-1.03,9.78-1.22
				c-0.33-0.33-0.67-0.67-1-1c0.15,1.58-0.2,3.16-0.05,4.74c0.12,1.27,2.12,1.28,2,0c-0.15-1.58,0.2-3.16,0.05-4.74
				c-0.05-0.51-0.42-1.03-1-1c-6.35,0.37-12.7,1.5-18.77,3.38c-5.81,1.81-11.82,4.36-16.22,8.7c-2.13,2.1-3.78,4.67-4.43,7.61
				C84.51,113.75,86.44,114.28,86.72,113.02L86.72,113.02z"/>
		</g>
	</g>
	<g>
		<g>
			<path d="M85.39,112.64c-2.96-5.84-8.53-10.01-14.18-13.04c-6.29-3.37-13.22-5.65-20.25-6.88c-1.72-0.3-3.74-0.81-5.49-0.67
				c-0.84,0.07-1.51,0.57-1.79,1.37c-0.4,1.14,0.3,2.1,0.12,3.21c-0.2,1.26,1.73,1.8,1.93,0.53c0.14-0.85-0.05-1.53-0.17-2.37
				c-0.08-0.55,0.01-0.68,0.59-0.73c0.4-0.03,0.87,0.09,1.27,0.14c1.51,0.18,3.01,0.43,4.51,0.73c3.13,0.62,6.23,1.46,9.25,2.5
				c5.92,2.04,11.81,4.86,16.58,8.96c2.39,2.05,4.47,4.43,5.9,7.25C84.25,114.8,85.98,113.79,85.39,112.64L85.39,112.64z"/>
		</g>
	</g>
	<g>
		<g>
			<path d="M53.7,93.26c3.92-3.74,8.6-6.86,14.07-7.63c0.54-0.08,0.82-0.76,0.7-1.23c-0.15-0.58-0.7-0.77-1.23-0.7
				c-5.78,0.82-10.81,4.19-14.95,8.15C51.35,92.74,52.77,94.15,53.7,93.26L53.7,93.26z"/>
		</g>
	</g>
	<g>
		<g>
			<path d="M39.61,98.68c10.15,2.03,20.04,5.46,29.67,9.19c3.17,1.23,6.32,2.49,9.43,3.88c0.24,0.11,1.33,0.82,1.58,0.75
				c-0.56,0.15-0.47-1.15-0.42-0.41c0.01,0.16,0.06,0.3,0.11,0.45c0.11,0.31,0.28,0.59,0.5,0.83c0.46,0.52,1.1,0.86,1.75,1.08
				c2.7,0.9,8.15,0.19,8.28-3.48c-0.24,0.32-0.49,0.64-0.73,0.96c2.67-0.93,5.21-2.24,7.81-3.33c5.15-2.17,10.47-3.92,15.83-5.48
				c5.23-1.52,10.52-2.87,15.82-4.12c-0.42-0.32-0.84-0.64-1.27-0.96c0.28,5.09,0.26,10.18-0.08,15.27c-0.09,1.28,1.92,1.28,2,0
				c0.34-5.09,0.36-10.18,0.08-15.27c-0.04-0.66-0.61-1.12-1.27-0.96c-12.2,2.89-24.25,6.24-35.71,11.38
				c-1.33,0.6-2.39,1.09-3.75,1.56c-0.43,0.15-0.72,0.5-0.73,0.96c-0.07,2.09-5.45,2.44-6.52,1.11c-0.27-0.34-0.15-0.8-0.47-1.13
				c-0.15-0.16-0.34-0.23-0.52-0.33c-0.69-0.37-1.44-0.66-2.15-0.97c-7.32-3.19-14.83-6.01-22.43-8.49
				c-5.35-1.74-10.77-3.3-16.29-4.4C38.89,96.5,38.35,98.43,39.61,98.68L39.61,98.68z"/>
		</g>
	</g>
	<g>
		<g>
			<path d="M126.63,133.82c-0.02,1.38,0.05,2.76,0.09,4.14c0.02,0.71,0.05,1.42,0.06,2.12c0,0.12,0.08,0.8,0,0.88
				c0.2-0.2-0.57-0.05-0.59-0.05c-1.79,0.38-3.56,0.81-5.33,1.26c-4.64,1.18-9.25,2.47-13.84,3.83c-4.06,1.2-8.12,2.43-12.1,3.87
				c-1.16,0.42-2.35,0.84-3.45,1.4c-0.3,0.16-0.65,0.33-0.89,0.58c-0.18,0.19-0.23,0.33-0.35,0.56c-0.34,0.63,0.07,0.07-0.02,0.11
				c0.02-0.14,0.09-0.24,0.19-0.31c-0.07,0.04-0.13,0.08-0.2,0.12c-0.6,0.07-1.26,0.42-1.87,0.55c-1.06,0.23-2.14,0.36-3.23,0.42
				c-0.92,0.05-1.89,0.07-2.79-0.12c-0.72-0.15-0.9-0.43-1.44-0.8c-0.42-0.29-1.04-0.42-1.53-0.57c-1.09-0.33-2.2-0.63-3.3-0.93
				c-7.36-1.99-14.76-3.84-22.1-5.92c-3.48-0.99-7-1.95-10.37-3.27c-0.46-0.18-0.81-0.32-1.26-0.55c-0.17-0.09-0.35-0.18-0.51-0.28
				c-0.14-0.09-0.2-0.08-0.17-0.13c0.07-0.15,0.07,0.73,0.14,0.12c0.05-0.51-0.03-1.08-0.03-1.59c0-1.14-0.03-2.31,0.12-3.45
				c0.16-1.27-1.84-1.26-2,0c-0.13,1.04-0.12,2.12-0.12,3.17c0,0.77-0.13,1.75,0.1,2.51c0.22,0.72,0.92,1.11,1.56,1.43
				c2.56,1.27,5.41,2.03,8.14,2.85c7.83,2.34,15.76,4.33,23.66,6.43c2.21,0.59,4.4,1.21,6.59,1.86c0.06,0.02,0.05-0.03,0.04,0.02
				c0,0.01-0.13-0.08-0.18-0.16c-0.03-0.06,0.21,0.26,0.3,0.35c0.58,0.54,1.39,0.77,2.15,0.89c2.11,0.36,4.35,0.13,6.43-0.28
				c1.37-0.27,2.97-0.55,3.63-1.89c0.27-0.54-0.21,0.15-0.19,0.31c-0.02-0.13,0.15,0.04-0.05,0.03c0.09,0,0.38-0.23,0.47-0.28
				c0.43-0.23,0.88-0.41,1.33-0.59c3.77-1.51,7.69-2.68,11.57-3.85c4.79-1.45,9.6-2.82,14.44-4.08c1.98-0.52,3.96-1.02,5.96-1.46
				c0.85-0.19,2.17-0.22,2.75-0.94c0.72-0.89,0.34-2.75,0.31-3.8c-0.05-1.5-0.12-3.01-0.11-4.51
				C128.65,132.53,126.65,132.53,126.63,133.82L126.63,133.82z"/>
		</g>
	</g>
	<g>
		<g>
			<path d="M38.55,97.71c0.12,5.36-0.28,10.71-0.16,16.07c0.03,1.29,2.03,1.29,2,0c-0.12-5.36,0.28-10.71,0.16-16.07
				C40.53,96.43,38.53,96.43,38.55,97.71L38.55,97.71z"/>
		</g>
	</g>
	<g>
		<g>
			<path d="M39.37,119.65c-0.18-0.01-0.39,0.04-0.54,0.14c-0.56,0.35-0.65,1.09-0.2,1.57c0.37,0.39,1.12,0.42,1.61,0.5
				c1.06,0.17,2.13,0.28,3.2,0.32c2.16,0.07,5.01-0.03,6.57-1.77c0.66-0.74,1.22-2.12,0.69-3.06c-0.63-1.11-2.41-1.63-3.5-2.03
				c-2.63-0.96-5.54-1.73-8.34-1.93c-3.18-0.23-5,2.92-5.67,5.59c-0.39,1.55-0.55,3.17-0.61,4.76c-0.07,2.06-0.19,4.41,0.37,6.41
				c1.01,3.64,4.88,6.42,8.66,6.06c2.1-0.2,4.09-1.17,5.73-2.48c1.27-1.01,2.77-2.58,2.71-4.34c-0.14-4.02-7.4-2.61-9.78-2.51
				c0,0.67,0,1.33,0,2c2.25-0.29,4.54-0.53,6.74-1.1c1.48-0.39,3.17-0.99,4.04-2.34c0.76-1.17,0.83-3.05-0.24-4.06
				c-1.26-1.2-3.43-1.23-5.05-1.08c-1.27,0.12-1.28,2.13,0,2c0.95-0.09,2.85-0.29,3.61,0.46c0.6,0.59,0.11,1.63-0.44,2.07
				c-0.93,0.74-2.24,1-3.37,1.24c-1.75,0.37-3.52,0.59-5.29,0.82c-1.23,0.16-1.32,2.06,0,2c1.64-0.07,3.28-0.24,4.93-0.22
				c0.65,0,2.57-0.12,2.84,0.7c0.31,0.93-1.32,2.3-1.89,2.78c-1.2,0.99-2.69,1.76-4.23,2.03c-3.13,0.54-6.53-1.84-7.13-4.96
				c-0.34-1.74-0.26-3.7-0.2-5.47c0.05-1.29,0.16-2.58,0.45-3.84c0.32-1.43,0.84-2.92,1.91-3.87c0.46-0.41,1.15-0.64,1.61-0.64
				c0.11,0,0.22,0.01,0.33,0.01c0.2,0.01-0.3-0.04-0.03,0c1.21,0.18,2.41,0.37,3.6,0.64c1.69,0.38,3.4,0.85,5,1.52
				c0.48,0.2,0.93,0.53,1.41,0.72c0.35,0.14-0.02,0.18,0.07-0.04c0,0.01-0.09,0.33-0.13,0.44c-0.63,1.58-3.44,1.54-4.81,1.53
				c-0.97-0.01-1.94-0.08-2.89-0.21c-0.33-0.05-0.65-0.1-0.98-0.16c-0.09-0.02-0.22-0.07-0.31-0.07c-0.25,0.01-0.3-0.37,0.25,0.2
				c-0.07,0.52-0.13,1.05-0.2,1.57c-0.5,0.09-0.66,0.13-0.47,0.13C40.66,121.69,40.66,119.69,39.37,119.65L39.37,119.65z"/>
		</g>
	</g>
	<g>
		<g>
			<path d="M130.86,113.32c-2.61-0.15-5.21,0-7.78,0.45c-1.82,0.32-4.09,0.8-5.05,2.59c-1.03,1.89,0.3,3.98,2.08,4.76
				c2.27,0.99,5.22,0.82,7.63,0.66c1.28-0.08,1.29-2.07,0-2c-2.24,0.12-4.51,0.14-6.74,0.4c-1.68,0.19-3.5,0.93-3.77,2.81
				c-0.27,1.84,1.07,3.19,2.8,3.5c2.35,0.42,4.74,0.67,7.11,1c0-0.64,0-1.29,0-1.93c-2.03,0.34-4.05-0.5-6.09-0.3
				c-1.64,0.16-3.2,0.91-3.94,2.46c-0.68,1.43-0.32,3.02,0.93,4c1.37,1.08,3.35,1.42,4.99,1.9c1.9,0.56,3.94,1.29,5.95,1.22
				c1.59-0.06,3.05-0.69,4.27-1.7c2.76-2.29,3.58-5.98,3.33-9.42c-0.26-3.66-1.03-9.07-5.25-10.16c-1.25-0.32-1.78,1.61-0.53,1.93
				c2.88,0.74,3.35,4.64,3.67,7.1c0.36,2.75,0.24,5.78-1.55,8.04c-0.71,0.9-1.66,1.66-2.77,2.01c-1.47,0.46-2.99,0.04-4.42-0.34
				c-1.5-0.4-2.99-0.85-4.48-1.3c-0.92-0.28-2.69-0.72-2.46-2.01c0.3-1.7,2.44-1.83,3.79-1.72c1.74,0.14,3.36,0.52,5.1,0.23
				c0.94-0.16,0.97-1.79,0-1.93c-1.72-0.24-3.45-0.48-5.17-0.72c-0.92-0.13-3.58-0.05-3.28-1.58c0.25-1.26,2.41-1.14,3.36-1.19
				c1.73-0.1,3.45-0.19,5.18-0.29c0-0.67,0-1.33,0-2c-1.93,0.13-4.02,0.2-5.93-0.21c-1.34-0.29-3.12-1.7-1.42-2.88
				c1.25-0.86,3.13-1.02,4.59-1.2c1.95-0.24,3.92-0.28,5.88-0.17C132.15,115.4,132.14,113.39,130.86,113.32L130.86,113.32z"/>
		</g>
	</g>
	<g>
		<g>
			<path d="M88.69,111.66c-0.56,13.41,0.46,26.81,1.5,40.17c0.1,1.27,2.1,1.29,2,0c-1.04-13.36-2.05-26.76-1.5-40.17
				C90.74,110.37,88.74,110.37,88.69,111.66L88.69,111.66z"/>
		</g>
	</g>
	<g>
		<g>
			<path d="M79.83,112.76c-1.13,13.48-1.17,27.02-0.13,40.5c0.1,1.28,2.1,1.29,2,0c-1.04-13.48-0.99-27.03,0.13-40.5
				C81.94,111.48,79.93,111.48,79.83,112.76L79.83,112.76z"/>
		</g>
	</g>
	<g>
		<g>
			<path d="M109.58,45.57c0.35,2.88,0.87,5.75,1.48,8.58c0.11,0.53,0.73,0.84,1.23,0.7c0.55-0.15,0.81-0.7,0.7-1.23
				c-0.29-1.35-0.55-2.72-0.79-4.08c-0.13-0.72-0.25-1.44-0.36-2.17c-0.05-0.34-0.1-0.67-0.15-1.01c-0.05-0.33-0.06-0.43-0.1-0.8
				c-0.06-0.54-0.41-1-1-1C110.09,44.57,109.52,45.04,109.58,45.57L109.58,45.57z"/>
		</g>
	</g>
	<ellipse class="st8" cx="70.11" cy="59.62" rx="9.67" ry="9.75"/>
	<ellipse class="st8" cx="96.15" cy="59.71" rx="9.67" ry="9.75"/>
</g>
<g id="Ebene_8">
	<ellipse class="st9" cx="70.11" cy="63.15" rx="1.64" ry="2.72"/>
	<ellipse class="st10" cx="70.86" cy="62.15" rx="0.75" ry="1"/>
	<ellipse class="st9" cx="96.15" cy="63.15" rx="1.64" ry="2.72"/>
	<ellipse class="st10" cx="96.9" cy="62.15" rx="0.75" ry="1"/>
</g>
<g id="Ebene_7">
</g>
</svg>
