<?xml version="1.0" encoding="utf-8"?>
<!-- Generator: Adobe Adobe Illustrator 24.2.0, SVG Export Plug-In . SVG Version: 6.00 Build 0)  -->
<svg version="1.1" xmlns="http://www.w3.org/2000/svg" xmlns:xlink="http://www.w3.org/1999/xlink" x="0px" y="0px"
	 viewBox="0 0 170.08 170.08" style="enable-background:new 0 0 170.08 170.08;" xml:space="preserve">
<style type="text/css">
	.st0{fill:#30AFAA;}
	.st1{fill:#F7BF9C;}
	.st2{fill:#86CFEC;}
	.st3{fill:#FBBE3F;}
	.st4{fill:#586470;}
	.st5{fill:#CDAC99;}
	.st6{fill:#FFFFFF;}
	.st7{fill:#D91C4B;}
	.st8{fill:#5D78B9;}
	.st9{fill:#CFE1EC;}
	.st10{fill:#8EC13E;}
	.st11{stroke:#000000;stroke-miterlimit:10;}
	.st12{fill:#FFFFFF;stroke:#FFFFFF;stroke-width:0.3489;stroke-miterlimit:10;}
</style>
<g id="Ebene_23">
	<path class="st0" d="M93.48,73.64c-0.23,11.86-0.46,23.71-0.7,35.57c-0.02,0.92-0.03,1.88,0.38,2.7c0.75,1.51,2.61,2.03,4.26,2.39
		c14.84,3.25,29.75,6.16,44.72,8.75c0.52-13.73,0.98-27.9-3.94-40.73c-1.38-3.61-3.35-7.25-6.7-9.18c-2.79-1.61-6.14-1.82-9.36-1.99
		C112.54,70.64,102.52,70.21,93.48,73.64z"/>
</g>
<g id="Ebene_19">
	<path class="st1" d="M84.52,44.32c0.26,5.62,0.54,11.33,2.4,16.63s5.55,10.25,10.81,12.25c1.56,0.59,3.3,0.97,4.44,2.18
		c0.91,0.96,1.29,2.3,2.07,3.36c1.89,2.57,5.54,2.93,8.73,2.93c1.97,0,4.02-0.08,5.74-1.04c1.72-0.96,2.94-3.1,2.22-4.93
		c5.19-2.1,9.48-6.3,11.7-11.44c0.6-1.39,1.16-2.96,2.5-3.66c1.11-0.58,2.46-0.37,3.68-0.68c2.4-0.59,3.89-3.06,4.37-5.48
		c0.38-1.95,0.25-4.06-0.68-5.82c-0.93-1.76-2.76-3.1-4.75-3.16c-1.99-0.06-4.01,1.36-4.36,3.32c-5.63-3.17-9.71-8.95-10.82-15.31
		c-1.94,4.21-6.16,7.29-10.77,7.83c-2.74,0.32-5.54-0.19-8.24,0.34c-2.83,0.56-5.48,2.26-8.35,2.05c-1.76-0.13-3.4-0.96-5.15-1.24
		C88.3,42.19,86.16,42.76,84.52,44.32z"/>
	<path class="st1" d="M119.59,94.84c0.05-0.39,0.1-0.78,0.14-1.17c-0.08,0.64-0.79,1.04-1.43,1.01s-1.22-0.38-1.77-0.72
		c-6.02-3.73-12.04-7.55-17.22-12.38c-2.66-2.49-5.14-5.29-8.37-7s-7.51-2.08-10.31,0.25c-1.43,1.19-2.28,3.48-1.06,4.88
		c-1.07,0.67-1.72,1.96-1.61,3.22c0.11,1.26,0.98,2.42,2.15,2.88c-1.16,0-1.83,1.55-1.35,2.61c0.48,1.06,1.67,1.62,2.81,1.85
		c1.14,0.23,2.33,0.23,3.44,0.58c2.57,0.83,4.18,3.41,6.59,4.62c1.42,0.71,3.03,0.91,4.52,1.43c2.37,0.83,4.38,2.44,6.39,3.96
		c3.1,2.33,6.36,4.49,9.95,5.94s7.56,2.16,11.38,1.51c1.27-0.21,2.55-0.59,3.57-1.38c1.02-0.79,1.74-2.05,1.62-3.33
		c-0.09-0.98-0.65-1.85-1.24-2.65C125.61,97.97,122.89,95.39,119.59,94.84z"/>
	<path class="st1" d="M60.53,73.93c0.66-1.24-0.32-2.85-1.63-3.36c-1.31-0.52-2.78-0.27-4.16-0.01c-0.88,0.16-1.79,0.34-2.57,0.78
		c-0.78,0.44-1.44,1.21-1.5,2.11s0.64,1.85,1.54,1.85c-1.08,0.83-1.52,2.38-1.06,3.65s1.82,2.16,3.17,2.09
		c-0.87,0.35-1.26,1.48-0.96,2.37c0.3,0.89,1.14,1.52,2.03,1.79c0.9,0.27,1.86,0.24,2.79,0.16c1.07-0.09,2.15-0.25,3.1-0.74
		c0.95-0.49,1.76-1.36,1.93-2.42c0.17-1.06-0.47-2.25-1.51-2.5c1.15-0.53,1.84-1.91,1.56-3.15C62.99,75.32,61.77,74.36,60.53,73.93z
		"/>
</g>
<g id="Ebene_13">
	<path class="st2" d="M33.93,20.21c-4.26-0.69-8.94,1.09-11.32,4.69s-2.01,8.91,1.13,11.88c3.11,2.94,7.84,3.14,12.12,3.16
		c5.59,0.03,11.17,0.06,16.76,0.09c3.16,0.02,6.41,0.02,9.35-1.13c2.94-1.15,5.55-3.74,5.75-6.9c0.16-2.58-1.33-5.07-3.43-6.58
		c-2.09-1.51-4.7-2.15-7.28-2.35C57.97,16.8,53,10.24,46.7,9.46C40.4,8.69,33.99,13.85,33.93,20.21z"/>
</g>
<g id="Ebene_5">
	<path class="st3" d="M123.5,32c-0.29,4.2,0.91,8.49,3.34,11.93c1.2,1.7,2.85,3.27,4.91,3.57c1.46,0.21,2.93-0.25,4.38-0.51
		c1.45-0.26,3.1-0.27,4.24,0.67c0.73,0.6,1.24,1.58,2.17,1.75c1.29,0.23,2.19-1.23,2.58-2.48c1.42-4.54,1.35-9.59-0.53-13.95
		s-5.63-7.96-10.19-9.32c-1.09-0.33-2.24-0.54-3.22-1.12c-0.69-0.41-1.25-0.99-1.84-1.54c-5.08-4.77-12.09-7.32-19.06-7.38
		s-13.88,2.27-19.66,6.17c-4.56,3.08-8.56,7.29-10.29,12.51c-1.73,5.22-0.78,11.52,3.23,15.28c0.03-1.13,0.06-2.27,0.08-3.4
		c2.14-0.35,4.11-1.67,5.24-3.51c-0.03,0.92,0.59,1.78,1.39,2.25c0.8,0.47,1.75,0.61,2.67,0.65c3.96,0.17,7.96-1.37,10.78-4.15
		c-0.38,0.71,0.04,1.64,0.72,2.08c0.68,0.43,1.53,0.49,2.33,0.48C113.51,41.88,120.08,38.12,123.5,32z"/>
</g>
<g id="Ebene_25">
	<path class="st4" d="M57.17,69.18c-0.36-2.97-0.41-5.98-0.17-8.97c0.08-1,0.24-2.1,0.98-2.78c0.89-0.83,2.26-0.76,3.46-0.65
		c8.61,0.83,17.22,1.66,25.84,2.49c1.71,0.16,3.67,0.49,4.53,1.97c0.49,0.85,0.49,1.88,0.47,2.86c-0.06,3.68-0.12,7.37-0.18,11.05
		c-2.67-0.73-5.44-1.1-8.22-1.1c-1.31,0-2.7,0.11-3.73,0.91c-1.03,0.8-1.43,2.52-0.48,3.41c-1.34,0.56-2.36,1.85-2.57,3.29
		c-0.22,1.44,0.37,2.97,1.5,3.9c-1.16,0.67-1.23,2.45-0.44,3.53c0.79,1.08,2.16,1.57,3.47,1.82c1.32,0.24,2.68,0.3,3.93,0.77
		c3.31,1.24,5.46,5.16,8.98,5.29c0.08,0.98,0.15,1.96,0.23,2.94c-9.2-0.32-18.38-1.36-27.43-3.1c-1.45-0.28-2.97-0.61-4.06-1.6
		c-1.26-1.14-1.7-2.93-1.88-4.62s-0.2-3.44-0.86-5.01c1.34-0.23,2.52-1.25,2.93-2.55c0.41-1.3,0.03-2.81-0.94-3.77
		c1.09-0.1,1.49-1.58,1.09-2.59s-1.28-1.76-1.82-2.71c-0.61-1.08-0.75-2.39-1.4-3.45C59.76,69.46,58.2,68.74,57.17,69.18z"/>
</g>
<g id="Ebene_10">
	<path class="st5" d="M47.06,104.88c-11.09,7.3-22.18,14.6-33.23,22.12c0.28,6.52,0.56,13.03,0.8,19.22
		c42.7,9.28,45.43,9.1,74.12,16.39c-0.04,0-0.07,0-0.1,0.04c17.03-0.67,21.77-1.49,36.93-0.95c18.82-23.47,19.99-22.58,28.84-34.78
		c-12.67-2.92-25.36-5.73-38.08-8.42c-9.51-2.01-19.04-3.96-28.57-5.91C74.12,109.8,60.45,107.01,47.06,104.88z"/>
</g>
<g id="Ebene_11">
	<path class="st6" d="M56.81,113.32c-11.51,9.1-23.01,18.2-34.52,27.3c16.77,4.85,33.53,9.71,50.3,14.56
		c1.5,0.43,3.13,0.86,4.57,0.27c1.08-0.45,1.86-1.41,2.59-2.33c7.86-9.92,15.72-19.83,23.59-29.75
		C87.72,119.87,72.11,116.39,56.81,113.32z"/>
</g>
<g id="Ebene_12">
	<path class="st7" d="M55.46,128.52c0.96,3.05,1.93,6.11,2.89,9.16c0.19,0.59,0.4,1.22,0.88,1.62c0.87,0.72,2.17,0.36,3.23-0.04
		c4.23-1.58,8.46-3.15,12.69-4.73C68.47,133.21,61.91,131.21,55.46,128.52z"/>
</g>
<g id="Ebene_14">
	<path class="st8" d="M56.48,128.17c1.15-1.63,2.29-3.27,3.44-4.9c0.33-0.47,0.69-0.97,1.23-1.17c0.57-0.22,1.21-0.06,1.8,0.09
		c5.6,1.49,11.2,2.98,16.79,4.47c-2,2.37-3.99,4.75-5.99,7.12C68.01,132.11,62.27,130.44,56.48,128.17z"/>
</g>
<g id="Ebene_15">
	<path class="st9" d="M71.16,128.03c-0.47,0.57-1.12,1.63-1.45,2.29c1.02,0.37,1.69,0.51,2.59,0.84c0.48-0.74,0.97-1.47,1.45-2.21
		C72.92,128.59,72.38,128.37,71.16,128.03z"/>
</g>
<g id="Ebene_16">
	<path class="st9" d="M64.64,122.64c-0.82,1.34-1.1,1.95-2.62,4.44c1.41,0.48,2.21,0.74,3.44,1.26c1.07-2.11,1.6-3.06,2.52-4.89
		c-1.07-0.22-2.12-0.66-3.21-0.78C64.68,122.65,64.78,122.84,64.64,122.64z"/>
</g>
<g id="Ebene_17">
	<g>
		<g>
			<path class="st10" d="M58.9,121.14c7.49,2.26,14.95,4.6,22.44,6.87c1.23,0.37,1.76-1.56,0.53-1.93
				c-7.49-2.26-14.95-4.6-22.44-6.87C58.2,118.84,57.67,120.77,58.9,121.14L58.9,121.14z"/>
		</g>
	</g>
</g>
<g id="Ebene_18">
	<g>
		<g>
			<path class="st3" d="M47.07,134.15c-0.64-0.92-1.71-1.36-2.81-1.13c-0.97,0.2-1.77,1.09-1.95,2.05c-0.11,0.6-0.03,1.15,0.23,1.7
				c0.21,0.44,0.58,0.8,0.98,1.07c0.86,0.57,2.07,0.53,2.91-0.06c0.51-0.36,0.9-0.84,1.09-1.45c0.18-0.6,0.13-1.36-0.26-1.87
				c-0.17-0.22-0.32-0.38-0.6-0.46c-0.24-0.07-0.56-0.04-0.77,0.1c-0.21,0.14-0.4,0.34-0.46,0.6c-0.06,0.24-0.06,0.56,0.1,0.77
				c0.06,0.08,0.11,0.16,0.14,0.25c-0.03-0.08-0.07-0.16-0.1-0.24c0.03,0.09,0.06,0.18,0.07,0.28c-0.01-0.09-0.02-0.18-0.04-0.27
				c0.01,0.11,0.01,0.22,0,0.34c0.01-0.09,0.02-0.18,0.04-0.27c-0.02,0.13-0.05,0.25-0.1,0.37c0.03-0.08,0.07-0.16,0.1-0.24
				c-0.06,0.13-0.13,0.25-0.21,0.36c0.05-0.07,0.1-0.13,0.16-0.2c-0.1,0.12-0.21,0.23-0.33,0.33c0.07-0.05,0.13-0.1,0.2-0.16
				c-0.13,0.09-0.26,0.17-0.4,0.23c0.08-0.03,0.16-0.07,0.24-0.1c-0.15,0.06-0.29,0.1-0.45,0.12c0.09-0.01,0.18-0.02,0.27-0.04
				c-0.14,0.02-0.28,0.02-0.42,0c0.09,0.01,0.18,0.02,0.27,0.04c-0.14-0.02-0.27-0.06-0.39-0.11c0.08,0.03,0.16,0.07,0.24,0.1
				c-0.14-0.06-0.27-0.14-0.39-0.23c0.07,0.05,0.13,0.1,0.2,0.16c-0.12-0.1-0.23-0.2-0.32-0.32c0.05,0.07,0.1,0.13,0.16,0.2
				c-0.09-0.12-0.17-0.25-0.23-0.39c0.03,0.08,0.07,0.16,0.1,0.24c-0.05-0.13-0.08-0.26-0.1-0.4c0.01,0.09,0.02,0.18,0.04,0.27
				c-0.01-0.14-0.01-0.27,0.01-0.41c-0.01,0.09-0.02,0.18-0.04,0.27c0.02-0.15,0.07-0.3,0.12-0.44c-0.03,0.08-0.07,0.16-0.1,0.24
				c0.06-0.14,0.14-0.27,0.23-0.39c-0.05,0.07-0.1,0.13-0.16,0.2c0.09-0.11,0.18-0.2,0.29-0.29c-0.07,0.05-0.13,0.1-0.2,0.16
				c0.11-0.08,0.23-0.15,0.35-0.2c-0.08,0.03-0.16,0.07-0.24,0.1c0.11-0.04,0.23-0.07,0.34-0.09c-0.09,0.01-0.18,0.02-0.27,0.04
				c0.15-0.02,0.3-0.02,0.44,0c-0.09-0.01-0.18-0.02-0.27-0.04c0.16,0.02,0.32,0.07,0.47,0.13c-0.08-0.03-0.16-0.07-0.24-0.1
				c0.12,0.06,0.24,0.12,0.34,0.2c-0.07-0.05-0.13-0.1-0.2-0.16c0.11,0.08,0.2,0.18,0.28,0.28c-0.05-0.07-0.1-0.13-0.16-0.2
				c0.02,0.02,0.04,0.05,0.05,0.07c0.15,0.22,0.34,0.39,0.6,0.46c0.24,0.07,0.56,0.04,0.77-0.1
				C47.13,135.25,47.38,134.61,47.07,134.15L47.07,134.15z"/>
		</g>
	</g>
	<g>
		<g>
			<path class="st3" d="M48.5,134.51c0.83-0.46,1.6-1.01,2.32-1.63c0.19-0.16,0.29-0.47,0.29-0.71c0-0.25-0.11-0.54-0.29-0.71
				c-0.19-0.17-0.44-0.3-0.71-0.29c-0.28,0.01-0.5,0.11-0.71,0.29c-0.17,0.14-0.33,0.28-0.51,0.41c0.07-0.05,0.13-0.1,0.2-0.16
				c-0.51,0.39-1.05,0.75-1.61,1.06c-0.22,0.12-0.39,0.36-0.46,0.6c-0.07,0.24-0.04,0.56,0.1,0.77
				C47.43,134.62,48.01,134.79,48.5,134.51L48.5,134.51z"/>
		</g>
	</g>
	<g>
		<g>
			<path class="st3" d="M46.21,131.6c0.22-0.89,0.35-1.81,0.4-2.73c0.03-0.52-0.48-1.02-1-1c-0.56,0.03-0.97,0.44-1,1
				c-0.02,0.37-0.05,0.73-0.1,1.1c0.01-0.09,0.02-0.18,0.04-0.27c-0.06,0.46-0.15,0.91-0.26,1.36c-0.06,0.26-0.03,0.54,0.1,0.77
				c0.12,0.21,0.36,0.41,0.6,0.46c0.26,0.06,0.54,0.05,0.77-0.1C45.97,132.06,46.15,131.85,46.21,131.6L46.21,131.6z"/>
		</g>
	</g>
	<g>
		<g>
			<path class="st3" d="M41.87,131.76c-0.17-0.18-0.33-0.36-0.48-0.56c0.05,0.07,0.1,0.13,0.16,0.2c-0.18-0.23-0.34-0.47-0.48-0.73
				c-0.12-0.22-0.36-0.39-0.6-0.46c-0.13-0.04-0.27-0.05-0.4-0.02c-0.13,0.01-0.26,0.05-0.37,0.12c-0.21,0.14-0.4,0.34-0.46,0.6
				c-0.06,0.26-0.04,0.53,0.1,0.77c0.14,0.24,0.29,0.46,0.45,0.68c0.21,0.28,0.43,0.55,0.67,0.8c0.18,0.18,0.45,0.29,0.71,0.29
				c0.14,0.01,0.27-0.02,0.39-0.09c0.12-0.04,0.23-0.11,0.32-0.21c0.17-0.19,0.3-0.44,0.29-0.71
				C42.15,132.2,42.05,131.96,41.87,131.76L41.87,131.76z"/>
		</g>
	</g>
	<g>
		<g>
			<path class="st3" d="M39.99,134.73c-0.97,0.28-1.91,0.64-2.83,1.03c-0.21,0.09-0.4,0.39-0.46,0.6c-0.07,0.24-0.04,0.56,0.1,0.77
				c0.14,0.21,0.34,0.4,0.6,0.46c0.09,0.01,0.18,0.02,0.27,0.04c0.18,0,0.35-0.05,0.5-0.14c0.03-0.01,0.06-0.03,0.09-0.04
				c-0.08,0.03-0.16,0.07-0.24,0.1c0.82-0.34,1.65-0.64,2.5-0.89c0.24-0.07,0.47-0.24,0.6-0.46c0.13-0.21,0.18-0.53,0.1-0.77
				C41.06,134.92,40.53,134.58,39.99,134.73L39.99,134.73z"/>
		</g>
	</g>
	<g>
		<g>
			<path class="st3" d="M41.44,138.42c-0.71,0.5-1.37,1.06-1.97,1.69c-0.18,0.19-0.29,0.44-0.29,0.71c0,0.25,0.11,0.54,0.29,0.71
				c0.19,0.17,0.44,0.3,0.71,0.29c0.26-0.01,0.52-0.1,0.71-0.29c0.43-0.45,0.89-0.87,1.38-1.25c-0.07,0.05-0.13,0.1-0.2,0.16
				c0.13-0.1,0.26-0.19,0.39-0.29c0.12-0.06,0.21-0.15,0.28-0.26c0.09-0.1,0.15-0.21,0.18-0.34c0.07-0.24,0.04-0.56-0.1-0.77
				c-0.14-0.21-0.34-0.4-0.6-0.46C41.96,138.27,41.66,138.27,41.44,138.42L41.44,138.42z"/>
		</g>
	</g>
	<g>
		<g>
			<path class="st3" d="M44.81,139.96c0.27,0.71,0.54,1.42,0.8,2.13c0.09,0.25,0.22,0.46,0.46,0.6c0.21,0.13,0.53,0.18,0.77,0.1
				c0.24-0.08,0.48-0.23,0.6-0.46c0.12-0.23,0.19-0.52,0.1-0.77c-0.27-0.71-0.54-1.42-0.8-2.13c-0.09-0.25-0.22-0.46-0.46-0.6
				c-0.21-0.13-0.53-0.18-0.77-0.1c-0.24,0.08-0.48,0.23-0.6,0.46C44.79,139.41,44.71,139.71,44.81,139.96L44.81,139.96z"/>
		</g>
	</g>
	<g>
		<g>
			<path class="st3" d="M48.69,138.61c0.07,0.01,0.14,0.02,0.21,0.03c-0.09-0.01-0.18-0.02-0.27-0.04c0.77,0.11,1.52,0.31,2.24,0.62
				c-0.08-0.03-0.16-0.07-0.24-0.1c0.15,0.06,0.29,0.13,0.43,0.2c0.24,0.12,0.5,0.18,0.77,0.1c0.23-0.06,0.48-0.24,0.6-0.46
				c0.24-0.45,0.14-1.12-0.36-1.37c-0.53-0.26-1.08-0.48-1.64-0.65c-0.57-0.17-1.15-0.26-1.74-0.33c-0.24-0.03-0.55,0.13-0.71,0.29
				c-0.17,0.17-0.3,0.46-0.29,0.71c0.01,0.26,0.1,0.53,0.29,0.71C48.2,138.5,48.42,138.57,48.69,138.61L48.69,138.61z"/>
		</g>
	</g>
	<g>
		<g>
			<path class="st3" d="M45.41,134.81c0,0-0.01-0.01-0.01-0.01c0,0,0,0-0.01,0c-0.04-0.02-0.2-0.08-0.24-0.1
				c-0.01,0-0.02-0.01-0.03-0.01c0,0,0,0-0.01,0c-0.05-0.01-0.22-0.03-0.27-0.04c0,0-0.01,0-0.01,0c-0.01,0-0.02,0-0.03,0
				c-0.05,0-0.12,0.02-0.14,0.02c-0.02,0-0.09,0.01-0.14,0.02c0,0-0.01,0-0.01,0c-0.01,0-0.02,0.01-0.03,0.01
				c-0.08,0.03-0.17,0.07-0.25,0.1c0,0-0.01,0-0.01,0.01c-0.01,0-0.02,0.01-0.03,0.02c-0.01,0-0.01,0.01-0.01,0.01
				c-0.07,0.05-0.15,0.11-0.21,0.16c-0.01,0.01-0.02,0.01-0.02,0.02c-0.01,0.01-0.02,0.02-0.02,0.02c-0.05,0.06-0.11,0.14-0.16,0.21
				c0,0-0.01,0.01-0.01,0.01c-0.01,0.01-0.01,0.02-0.01,0.03c0,0,0,0,0,0.01c-0.03,0.07-0.07,0.17-0.1,0.24c0,0.01,0,0.01-0.01,0.02
				c0,0.01-0.01,0.02-0.01,0.03c-0.01,0.05-0.01,0.11-0.02,0.14c-0.01,0.04-0.02,0.1-0.02,0.15c0,0.01,0,0.02,0,0.03
				c0,0.05,0.03,0.22,0.04,0.27c0,0,0,0,0,0.01c0,0.01,0,0.01,0,0.02c0,0.01,0,0.01,0.01,0.02c0,0,0,0,0,0.01
				c0.02,0.05,0.08,0.2,0.1,0.24c0,0.01,0.01,0.02,0.01,0.03c0.03,0.04,0.06,0.08,0.09,0.11c0.02,0.03,0.06,0.08,0.09,0.11
				c0.01,0.01,0.01,0.01,0.02,0.02c0,0,0,0,0,0c0.03,0.02,0.17,0.14,0.2,0.16c0,0,0.01,0.01,0.01,0.01
				c0.01,0.01,0.02,0.01,0.02,0.01c0,0,0,0,0.01,0c0.04,0.02,0.2,0.08,0.24,0.1c0,0,0.01,0,0.01,0c0.01,0,0.02,0.01,0.03,0.01
				c0,0,0.01,0,0.01,0c0,0,0,0,0.01,0c0.06,0.01,0.21,0.03,0.27,0.04c0.01,0,0.02,0,0.03,0c0.01,0,0.02,0,0.03,0c0,0,0.01,0,0.01,0
				c0.09-0.01,0.19-0.02,0.28-0.04c0.02,0,0.04-0.01,0.06-0.01c0.09-0.03,0.18-0.07,0.27-0.11c0.01,0,0.02-0.01,0.03-0.02
				c0,0,0.01-0.01,0.01-0.01c0.04-0.03,0.08-0.06,0.11-0.08c0.02-0.02,0.07-0.05,0.11-0.08c0.01-0.01,0.01-0.01,0.02-0.02
				c0,0,0.01-0.01,0.01-0.01c0.03-0.03,0.13-0.17,0.16-0.2c0,0,0-0.01,0.01-0.01c0.01-0.01,0.01-0.02,0.01-0.03c0,0,0,0,0-0.01
				c0.02-0.05,0.09-0.2,0.1-0.24c0-0.01,0-0.01,0.01-0.02c0,0,0-0.01,0-0.02c0.02-0.09,0.03-0.19,0.04-0.28
				c0.01-0.14-0.02-0.27-0.09-0.39c-0.04-0.12-0.11-0.23-0.21-0.32c-0.09-0.1-0.2-0.17-0.32-0.21c-0.12-0.06-0.25-0.09-0.39-0.09
				c-0.09,0.01-0.18,0.02-0.27,0.04c-0.17,0.05-0.32,0.13-0.44,0.26c-0.05,0.07-0.1,0.13-0.16,0.2c-0.09,0.16-0.14,0.32-0.14,0.5
				c0,0,0,0,0,0c0.01-0.09,0.02-0.18,0.04-0.27c0,0.01-0.01,0.03-0.01,0.04c0.03-0.08,0.07-0.16,0.1-0.24
				c-0.01,0.02-0.02,0.03-0.03,0.04c0.05-0.07,0.1-0.13,0.16-0.2c-0.01,0.01-0.02,0.03-0.04,0.04c0.07-0.05,0.13-0.1,0.2-0.16
				c-0.02,0.01-0.04,0.03-0.06,0.03c0.08-0.03,0.16-0.07,0.24-0.1c-0.02,0.01-0.05,0.02-0.07,0.02c0.09-0.01,0.18-0.02,0.27-0.04
				c-0.03,0-0.05,0-0.08,0c0.09,0.01,0.18,0.02,0.27,0.04c-0.02,0-0.04-0.01-0.06-0.02c0.08,0.03,0.16,0.07,0.24,0.1
				c-0.02-0.01-0.03-0.02-0.04-0.03c0.07,0.05,0.13,0.1,0.2,0.16c-0.01-0.01-0.02-0.02-0.03-0.03c0.05,0.07,0.1,0.13,0.16,0.2
				c-0.01-0.01-0.02-0.03-0.02-0.04c0.03,0.08,0.07,0.16,0.1,0.24c-0.01-0.02-0.01-0.03-0.01-0.05c0.01,0.09,0.02,0.18,0.04,0.27
				c0-0.02,0-0.03,0-0.05c-0.01,0.09-0.02,0.18-0.04,0.27c0-0.02,0.01-0.04,0.02-0.06c-0.03,0.08-0.07,0.16-0.1,0.24
				c0.01-0.02,0.02-0.04,0.03-0.06c-0.05,0.07-0.1,0.13-0.16,0.2c0.02-0.02,0.03-0.04,0.05-0.05c-0.07,0.05-0.13,0.1-0.2,0.16
				c0.02-0.01,0.04-0.03,0.06-0.04c-0.08,0.03-0.16,0.07-0.24,0.1c0.02-0.01,0.04-0.01,0.06-0.02c-0.09,0.01-0.18,0.02-0.27,0.04
				c0.02,0,0.04,0,0.05,0c-0.09-0.01-0.18-0.02-0.27-0.04c0.01,0,0.03,0.01,0.04,0.01c-0.08-0.03-0.16-0.07-0.24-0.1
				c0.01,0,0.02,0.01,0.02,0.01c0.11,0.07,0.24,0.11,0.37,0.12c0.13,0.03,0.27,0.02,0.4-0.02c0.13-0.03,0.24-0.09,0.34-0.18
				c0.11-0.07,0.19-0.16,0.26-0.28c0.03-0.08,0.07-0.16,0.1-0.24c0.05-0.18,0.05-0.35,0-0.53c-0.03-0.08-0.07-0.16-0.1-0.24
				C45.68,135.02,45.56,134.9,45.41,134.81L45.41,134.81z"/>
		</g>
	</g>
</g>
<g id="Ebene_26">
	<g>
		<g>
			<path d="M42.48,25.24c-0.56,6.72,0.02,13.44,0.03,20.17c0,1.29,2,1.29,2,0c-0.01-6.73-0.59-13.45-0.03-20.17
				C44.59,23.96,42.59,23.96,42.48,25.24L42.48,25.24z"/>
		</g>
	</g>
	<g>
		<g>
			<path d="M37.76,31.28c1.24-1.06,2.47-2.13,3.65-3.27c0.86-0.84,1.68-1.71,2.5-2.58c0.36-0.38,0.41-1.04,0-1.41
				c-0.39-0.36-1.03-0.41-1.41,0c-0.82,0.87-1.64,1.75-2.5,2.58c-1.17,1.14-2.4,2.21-3.65,3.27c-0.4,0.34-0.38,1.07,0,1.41
				C36.77,31.67,37.34,31.64,37.76,31.28L37.76,31.28z"/>
		</g>
	</g>
	<g>
		<g>
			<path d="M42.8,25.43c0.73,0.67,1.49,1.31,2.25,1.95c1.26,1.07,2.49,2.18,3.71,3.29c0.39,0.35,1.04,0.41,1.41,0
				c0.35-0.38,0.41-1.04,0-1.41c-1.22-1.12-2.45-2.22-3.71-3.29c-0.76-0.64-1.52-1.28-2.25-1.95c-0.39-0.35-1.04-0.41-1.41,0
				C42.45,24.4,42.39,25.06,42.8,25.43L42.8,25.43z"/>
		</g>
	</g>
	<g>
		<g>
			<path d="M50.32,41.28c4.25-0.28,8.56,0.18,12.62-1.47c2.24-0.92,4.14-2.48,4.93-4.83c0.88-2.61,0.39-5.99-1.04-8.33
				c-1.96-3.18-5.63-4.24-9.19-4.14c-1.28,0.04-1.29,2.04,0,2c2.66-0.08,5.57,0.48,7.22,2.77c1.37,1.9,1.82,4.77,1.14,7.01
				c-1.23,4-6.52,4.65-10.05,4.86c-1.87,0.11-3.75,0-5.62,0.13C49.04,39.36,49.03,41.36,50.32,41.28L50.32,41.28z"/>
		</g>
	</g>
	<g>
		<g>
			<path d="M58.56,23.33c0.12-4.82-2.08-10.05-6.04-12.89c-5.01-3.59-12.79-2.42-16.93,1.98c-2.02,2.15-3.27,5.06-3.1,8.04
				c0.07,1.28,2.07,1.29,2,0c-0.3-5.12,3.99-9.04,8.76-9.9c5.28-0.96,9.78,1.57,11.97,6.38c0.9,1.98,1.4,4.21,1.35,6.39
				C56.53,24.62,58.53,24.62,58.56,23.33L58.56,23.33z"/>
		</g>
	</g>
	<g>
		<g>
			<path d="M33.75,19.5c-3.32-0.52-6.72-0.14-9.44,1.98c-2,1.56-3.38,3.82-4.05,6.25c-1.15,4.18,0.13,9.14,4.01,11.42
				c3.5,2.06,7.75,1.73,11.65,1.73c1.29,0,1.29-2,0-2c-5.03,0.01-12.18,0.46-13.76-5.69c-0.83-3.24,0.06-6.76,2.41-9.25
				c2.26-2.39,5.49-3,8.65-2.5C34.48,21.63,35.02,19.7,33.75,19.5L33.75,19.5z"/>
		</g>
	</g>
	<g>
		<g>
			<path d="M82.95,44.76c1.37,8.63,1.12,18.7,7.27,25.64c3.59,4.05,8.85,6.09,14.05,7.09c3.54,0.68,7.45,1.24,11.05,0.84
				c3.29-0.36,6.43-1.62,9.22-3.39c3-1.9,5.65-4.36,7.78-7.19c1.47-1.96,2.98-4.38,3.05-6.92c0.04-1.29-1.96-1.29-2,0
				c-0.05,1.97-1.34,3.91-2.44,5.45c-1.71,2.38-3.89,4.5-6.28,6.18c-2.57,1.81-5.47,3.22-8.59,3.75c-3.41,0.58-7.19,0.05-10.57-0.54
				c-4.94-0.86-9.96-2.57-13.48-6.29c-2.78-2.94-4.19-6.78-5.03-10.67c-1.03-4.77-1.34-9.67-2.1-14.49
				C84.68,42.96,82.75,43.5,82.95,44.76L82.95,44.76z"/>
		</g>
	</g>
	<g>
		<g>
			<path d="M134.51,48.74c1.04-1.56,3.22-1.84,4.79-0.97c1.86,1.03,2.75,3.1,2.77,5.16c0.02,1.95-0.62,4.13-2.17,5.42
				c-0.79,0.67-1.8,0.95-2.81,1.04c-1.17,0.11-2.45,0.2-3.57-0.23c-1.2-0.46-1.72,1.47-0.53,1.93c1.11,0.43,2.33,0.41,3.5,0.34
				c1.18-0.06,2.35-0.23,3.43-0.74c1.88-0.88,3.11-2.75,3.71-4.68c1.26-4.07-0.28-9.51-4.88-10.59c-2.27-0.54-4.67,0.36-5.97,2.3
				C132.07,48.81,133.8,49.81,134.51,48.74L134.51,48.74z"/>
		</g>
	</g>
	<g>
		<g>
			<path d="M85.08,44.97c3.87-1.55,7.13-4.39,9.11-8.06c0.61-1.13-1.12-2.14-1.73-1.01c-1.72,3.19-4.54,5.79-7.92,7.14
				c-0.5,0.2-0.85,0.67-0.7,1.23C83.98,44.75,84.58,45.18,85.08,44.97L85.08,44.97z"/>
		</g>
	</g>
	<g>
		<g>
			<path d="M88.73,43.26c3.99,1.73,8.49,1.79,12.48-0.02c3.52-1.6,6.21-4.59,7.67-8.14c0.49-1.19-1.44-1.71-1.93-0.53
				c-2.73,6.64-10.62,9.82-17.21,6.96C88.58,41.03,87.56,42.75,88.73,43.26L88.73,43.26z"/>
		</g>
	</g>
	<g>
		<g>
			<path d="M104.41,42.65c8.15,0.84,17.19-2.44,20.03-10.76c0.42-1.22-1.51-1.74-1.93-0.53c-2.56,7.48-10.92,10.03-18.1,9.29
				C103.14,40.52,103.14,42.52,104.41,42.65L104.41,42.65z"/>
		</g>
	</g>
	<g>
		<g>
			<path d="M122.21,32.68c0.41,3.65,0.85,7.43,2.76,10.65c0.81,1.36,1.86,2.57,3.14,3.51c1.39,1.02,3.18,1.34,4.51,2.43
				c0.99,0.81,2.41-0.6,1.41-1.41c-1.24-1.01-2.74-1.42-4.11-2.21c-1.29-0.74-2.32-1.86-3.1-3.12c-1.82-2.94-2.23-6.47-2.62-9.84
				C124.07,31.41,122.07,31.4,122.21,32.68L122.21,32.68z"/>
		</g>
	</g>
	<g>
		<g>
			<path d="M131.24,21.61c-7.65-10.77-22.88-11.53-34.28-6.96c-8.81,3.54-15.97,11.03-18.13,20.41c-1.22,5.32,0.03,11.01,4.63,14.4
				c1.04,0.76,2.04-0.97,1.01-1.73c-7.21-5.3-3.67-15.51,0.52-21.43c6.06-8.56,16.97-12.78,27.26-12.27
				c6.7,0.33,13.27,2.98,17.25,8.58C130.25,23.66,131.99,22.66,131.24,21.61L131.24,21.61z"/>
		</g>
	</g>
	<g>
		<g>
			<path d="M130.87,23.4c1.8-0.22,3.67,0.95,5.1,1.9c2.29,1.53,4.31,3.55,5.88,5.8c1.72,2.47,2.99,5.35,3.2,8.38
				c0.23,3.27-0.58,7.53-3.09,9.82c-0.96,0.87,0.46,2.28,1.41,1.41c2.28-2.07,3.21-5.33,3.59-8.29c0.35-2.75-0.08-5.55-1.11-8.12
				c-1.85-4.59-5.37-8.64-9.6-11.2c-1.53-0.93-3.51-1.93-5.37-1.7C129.61,21.55,129.6,23.55,130.87,23.4L130.87,23.4z"/>
		</g>
	</g>
	<g>
		<g>
			<path d="M104.76,59.09c-0.55-0.41-1.37-0.46-2-0.21c-0.7,0.27-1.28,0.76-1.58,1.46c-0.62,1.46,0.09,3.23,1.55,3.84
				c0.85,0.36,1.8,0.32,2.62-0.12c0.46-0.24,0.64-0.93,0.36-1.37c-0.3-0.47-0.87-0.62-1.37-0.36c-0.06,0.03-0.12,0.06-0.17,0.08
				c0.08-0.03,0.16-0.07,0.24-0.1c-0.15,0.06-0.3,0.1-0.47,0.13c0.09-0.01,0.18-0.02,0.27-0.04c-0.19,0.02-0.39,0.02-0.58,0
				c0.09,0.01,0.18,0.02,0.27,0.04c-0.18-0.03-0.35-0.07-0.51-0.14c0.08,0.03,0.16,0.07,0.24,0.1c-0.15-0.07-0.29-0.15-0.42-0.24
				c0.07,0.05,0.13,0.1,0.2,0.16c-0.12-0.1-0.23-0.21-0.33-0.33c0.05,0.07,0.1,0.13,0.16,0.2c-0.1-0.14-0.19-0.28-0.26-0.44
				c0.03,0.08,0.07,0.16,0.1,0.24c-0.07-0.17-0.12-0.35-0.15-0.54c0.01,0.09,0.02,0.18,0.04,0.27c-0.02-0.17-0.02-0.34,0-0.51
				c-0.01,0.09-0.02,0.18-0.04,0.27c0.02-0.17,0.06-0.33,0.13-0.48c-0.03,0.08-0.07,0.16-0.1,0.24c0.05-0.11,0.11-0.22,0.19-0.32
				c-0.05,0.07-0.1,0.13-0.16,0.2c0.09-0.12,0.2-0.23,0.32-0.32c-0.07,0.05-0.13,0.1-0.2,0.16c0.12-0.09,0.25-0.17,0.39-0.23
				c-0.08,0.03-0.16,0.07-0.24,0.1c0.14-0.06,0.27-0.1,0.42-0.12c-0.09,0.01-0.18,0.02-0.27,0.04c0.1-0.01,0.21-0.01,0.31,0
				c-0.09-0.01-0.18-0.02-0.27-0.04c0.1,0.01,0.2,0.04,0.3,0.08c-0.08-0.03-0.16-0.07-0.24-0.1c0.09,0.04,0.16,0.08,0.24,0.14
				c0.2,0.14,0.55,0.16,0.77,0.1c0.23-0.06,0.48-0.24,0.6-0.46c0.12-0.23,0.18-0.51,0.1-0.77
				C105.13,59.42,104.98,59.25,104.76,59.09L104.76,59.09z"/>
		</g>
	</g>
	<g>
		<g>
			<path d="M99.57,68.37c1.89,1.53,4.27,2.41,6.73,2.27c2.44-0.14,4.75-1.2,6.47-2.94c0.9-0.92-0.51-2.33-1.41-1.41
				c-2.76,2.8-7.27,3.16-10.36,0.67c-0.42-0.34-1-0.41-1.41,0C99.22,67.3,99.15,68.03,99.57,68.37L99.57,68.37z"/>
		</g>
	</g>
	<g>
		<g>
			<path d="M102.02,77.33c0.36,1.95,1.57,3.69,3.27,4.71c2,1.21,4.79,1.28,7.07,1.34c4.2,0.12,9.12-1.71,9.59-6.48
				c0.13-1.28-1.87-1.27-2,0c-0.37,3.75-4.92,4.6-7.92,4.47c-1.75-0.08-3.93-0.07-5.51-0.93c-1.4-0.76-2.29-2.1-2.57-3.64
				C103.72,75.53,101.79,76.07,102.02,77.33L102.02,77.33z"/>
		</g>
	</g>
	<g>
		<g>
			<path d="M52.59,74.43c-0.27-0.22-0.53-0.44-0.77-0.69c-0.11-0.11-0.21-0.22-0.31-0.34c-0.02-0.03-0.11-0.16-0.01-0.01
				c-0.04-0.06-0.08-0.11-0.12-0.17c-0.06-0.1-0.11-0.2-0.16-0.3c0.1,0.19,0.02,0.02-0.01-0.08c-0.09-0.26,0.05,0.12-0.01-0.03
				c0-0.01-0.01-0.09,0-0.11c0.05-0.18-0.02,0.24-0.01,0.05c0-0.14,0.09-0.19-0.02-0.01c0.04-0.07,0.09-0.14,0.12-0.21
				c-0.02,0.04-0.13,0.13,0.02-0.02c0.07-0.07,0.15-0.14,0.22-0.21c0.09-0.09-0.16,0.11-0.05,0.04c0.04-0.02,0.07-0.05,0.11-0.07
				c0.09-0.05,0.17-0.11,0.26-0.16c0.08-0.05,0.17-0.09,0.26-0.13c0.04-0.02,0.09-0.04,0.13-0.06c0.23-0.11-0.2,0.08,0.04-0.02
				c0.9-0.34,1.84-0.55,2.78-0.71c0.21-0.03,0.41-0.06,0.62-0.09c0.19-0.03-0.01,0-0.04,0.01c0.05-0.01,0.1-0.01,0.14-0.02
				c0.11-0.01,0.23-0.03,0.34-0.04c0.41-0.05,0.82-0.1,1.23-0.12c0.82-0.04,1.7,0.08,2.22,0.78c0.46,0.62,0.56,1.45,0.56,2.19
				c-0.01,1.29,1.99,1.29,2,0c0.02-2.09-0.92-4.25-3.1-4.82c-1.3-0.34-2.72-0.08-4.04,0.11c-1.08,0.16-2.16,0.36-3.18,0.75
				c-1.03,0.39-2.17,0.99-2.53,2.12c-0.49,1.53,0.79,2.89,1.87,3.78c0.42,0.34,1,0.41,1.41,0C52.95,75.49,53.01,74.77,52.59,74.43
				L52.59,74.43z"/>
		</g>
	</g>
	<g>
		<g>
			<path d="M52.35,76.44c2.4-0.46,4.84-0.88,7.28-1.04c0.67-0.04,1.14-0.02,1.65,0.29c0.26,0.15,0.47,0.36,0.65,0.63
				c0.13,0.2,0.25,0.42,0.33,0.64c0.03,0.09,0.06,0.18,0.08,0.28c0.01,0.07,0.02,0.07,0.01-0.01c0.01,0.06,0.01,0.13,0.01,0.19
				c-0.01,0.07,0,0.09-0.03,0.13c-0.03,0.04-0.04,0.06-0.09,0.11c-0.15,0.17-0.04,0.08-0.24,0.2c-0.13,0.08-0.36,0.2-0.45,0.24
				c-0.62,0.26-1.47,0.42-2.2,0.54c-0.78,0.12-1.6,0.21-2.47,0.35c-1.17,0.19-2.47,0.58-3.67,0.43c-0.2-0.03-0.34-0.1-0.5-0.17
				c-0.04-0.02-0.18-0.15,0.09,0.07c-0.05-0.04-0.1-0.09-0.15-0.13c-0.28-0.29-0.38-0.39-0.58-0.72c-0.18-0.3-0.32-0.65-0.32-0.96
				c0-0.42,0.28-0.8,0.66-1.09c0.43-0.32,0.65-0.87,0.36-1.37c-0.25-0.43-0.93-0.68-1.37-0.36c-1.17,0.87-1.89,2.06-1.56,3.56
				c0.19,0.9,0.78,1.78,1.45,2.4c0.89,0.81,2.11,0.85,3.26,0.72c0.82-0.09,1.63-0.24,2.45-0.38c0.75-0.13,1.06-0.17,1.7-0.25
				c1.76-0.23,4.32-0.43,5.34-2.13c0.62-1.05,0.26-2.32-0.37-3.28c-0.61-0.93-1.52-1.6-2.62-1.82c-1-0.19-2-0.03-3,0.08
				c-2.08,0.23-4.16,0.55-6.22,0.94C50.55,74.76,51.09,76.68,52.35,76.44L52.35,76.44z"/>
		</g>
	</g>
	<g>
		<g>
			<path d="M53.52,79.71c-1.34,1.24-1.96,3.05-1.08,4.74c0.75,1.44,2.33,1.96,3.86,2.07c1.17,0.08,2.35-0.1,3.51-0.2
				c1.32-0.11,2.72-0.46,3.63-1.5c1.44-1.65,1.27-4.21-0.26-5.73c-0.91-0.91-2.33,0.5-1.41,1.41c0.43,0.42,0.68,0.97,0.69,1.58
				c0,0.28-0.05,0.54-0.14,0.8C62.27,83,62.27,83,62.2,83.12c-0.04,0.06-0.07,0.13-0.11,0.19c-0.01,0.02-0.14,0.19-0.06,0.09
				c-0.3,0.36-0.63,0.54-0.96,0.65c-0.21,0.07-0.43,0.13-0.65,0.18c-0.11,0.02-0.22,0.04-0.32,0.06c-0.12,0.02,0.02,0,0.04,0
				c-0.07,0.01-0.15,0.02-0.22,0.02c-0.89,0.08-1.78,0.2-2.67,0.23c-0.58,0.02-1.13,0-1.67-0.13c-0.27-0.07-0.53-0.15-0.74-0.27
				c-0.06-0.04-0.32-0.21-0.14-0.07c-0.09-0.07-0.17-0.15-0.24-0.23c-0.24-0.24-0.42-0.67-0.42-1.07c0-0.58,0.42-1.17,0.93-1.64
				C55.88,80.25,54.46,78.84,53.52,79.71L53.52,79.71z"/>
		</g>
	</g>
	<g>
		<g>
			<path d="M103.1,84.48c-3.5-4.7-7.99-8.86-13.77-10.42c-2.66-0.72-5.86-1-8.51-0.05c-2.26,0.81-3.88,3.47-2.01,5.53
				c0.87,0.95,2.28-0.47,1.41-1.41c-0.86-0.94,0.5-1.96,1.3-2.24c1.04-0.37,2.2-0.44,3.3-0.44c2.3,0.01,4.6,0.57,6.68,1.52
				c4.02,1.83,7.25,5.03,9.86,8.53C102.14,86.51,103.87,85.51,103.1,84.48L103.1,84.48z"/>
		</g>
	</g>
	<g>
		<g>
			<path d="M90.38,80.92c-2.04-0.71-4.11-1.33-6.22-1.83c-1.86-0.45-4.16-1-5.91,0.08c-1.66,1.02-1.88,3.16-1,4.78
				c0.93,1.7,2.87,2.44,4.6,3.03c2.31,0.79,4.68,1.41,7.08,1.87c1.26,0.24,1.8-1.69,0.53-1.93c-2.29-0.44-4.55-1.02-6.76-1.76
				c-1.49-0.5-3.84-1.18-3.98-3.08c-0.16-2.16,3.17-1.45,4.35-1.18c2.29,0.52,4.55,1.19,6.77,1.96
				C91.06,83.27,91.59,81.34,90.38,80.92L90.38,80.92z"/>
		</g>
	</g>
	<g>
		<g>
			<path d="M80.65,84.66c-1.73-0.47-3.24,0.83-3.57,2.51c-0.37,1.88,1.05,3.42,2.66,4.14c2.14,0.95,4.71,0.49,6.71,1.79
				c0.93,0.61,1.68,1.47,2.53,2.17c0.88,0.72,1.82,1.26,2.87,1.69c2.25,0.92,4.51,1.46,6.52,2.9c2.03,1.45,3.82,3.17,5.94,4.49
				c4.21,2.61,9.2,4.48,13.99,5.7c2.52,0.64,5.12,0.71,7.45-0.59c2.19-1.22,3.77-3.26,5.27-5.21c0.78-1.02-0.95-2.02-1.73-1.01
				c-1.14,1.48-2.34,3.04-3.91,4.1c-1.86,1.26-3.95,1.38-6.1,0.89c-3.97-0.9-8.05-2.46-11.66-4.31c-1.87-0.96-3.62-2.09-5.25-3.41
				c-1.47-1.19-2.91-2.47-4.57-3.38c-1.68-0.92-3.55-1.32-5.3-2.05c-1.85-0.77-3.05-2.23-4.62-3.4c-1.77-1.32-3.75-1.33-5.82-1.74
				c-0.91-0.18-1.91-0.46-2.56-1.16c-0.38-0.4-0.58-0.86-0.41-1.4c0.15-0.47,0.5-0.93,1.03-0.79C81.37,86.93,81.9,85,80.65,84.66
				L80.65,84.66z"/>
		</g>
	</g>
	<g>
		<g>
			<path d="M102.45,85.62c4.91,4.23,9.89,8.25,16.08,10.42c1.22,0.43,1.74-1.51,0.53-1.93c-5.85-2.04-10.57-5.91-15.2-9.9
				C102.9,83.37,101.48,84.78,102.45,85.62L102.45,85.62z"/>
		</g>
	</g>
	<g>
		<g>
			<path d="M119.82,94.4c0.23-0.15,0.46-0.29,0.7-0.44c-0.46-0.46-0.91-0.91-1.37-1.37c-0.25,0.43-0.5,0.86-0.75,1.3
				c-0.13,0.23-0.17,0.52-0.1,0.77c0.03,0.13,0.09,0.24,0.18,0.34c0.07,0.11,0.16,0.19,0.28,0.26c0.23,0.12,0.51,0.18,0.77,0.1
				c0.25-0.08,0.46-0.23,0.6-0.46c0.25-0.43,0.5-0.86,0.75-1.3c0.03-0.08,0.07-0.16,0.1-0.24c0.04-0.13,0.05-0.27,0.02-0.4
				c0-0.09-0.02-0.17-0.07-0.25c-0.04-0.12-0.11-0.23-0.21-0.32c-0.13-0.12-0.28-0.2-0.44-0.26c-0.13-0.04-0.27-0.05-0.4-0.02
				c-0.13,0.01-0.26,0.05-0.37,0.12c-0.23,0.15-0.46,0.29-0.7,0.44c-0.22,0.14-0.39,0.35-0.46,0.6c-0.04,0.13-0.05,0.27-0.02,0.4
				c0.01,0.13,0.05,0.26,0.12,0.37c0.14,0.21,0.34,0.4,0.6,0.46C119.3,94.56,119.59,94.55,119.82,94.4L119.82,94.4z"/>
		</g>
	</g>
	<g>
		<g>
			<path d="M58.01,69.38c-0.55-2.62-0.55-5.42-0.55-8.08c0-0.72-0.24-2.2,0.14-2.85c0.67-1.13,4.29-0.42,5.47-0.34
				c3.96,0.28,7.91,0.61,11.85,1.05c2.02,0.22,4.03,0.47,6.04,0.73c2.28,0.3,4.85,0.36,7.03,1.11c2.54,0.88,2.58,3.52,2.71,5.8
				c0.15,2.78,0.3,5.56,0.45,8.34c0.07,1.28,2.07,1.29,2,0c-0.15-2.86-0.31-5.72-0.46-8.58c-0.11-2.02-0.21-4.24-1.59-5.85
				c-1.62-1.89-4.26-2.01-6.55-2.33c-2.42-0.34-4.85-0.66-7.27-0.94c-4.65-0.55-9.31-0.97-13.98-1.3c-2.05-0.14-4.63-0.71-6.48,0.48
				c-1.11,0.71-1.23,1.59-1.3,2.8c-0.19,3.43-0.12,7.15,0.58,10.52C56.35,71.18,58.28,70.64,58.01,69.38L58.01,69.38z"/>
		</g>
	</g>
	<g>
		<g>
			<path d="M60.04,86.4c1.29,0,1.29-2,0-2C58.75,84.4,58.75,86.4,60.04,86.4L60.04,86.4z"/>
		</g>
	</g>
	<g>
		<g>
			<path d="M59.21,86.35c0.49,2.24,0.97,4.48,1.48,6.71c0.36,1.56,0.96,2.89,2.51,3.55c1.86,0.79,4.11,0.89,6.09,1.23
				c2.25,0.38,4.49,0.76,6.74,1.11c4.5,0.72,9.01,1.38,13.53,1.99c1.06,0.14,2.11,0.31,3.17,0.42c0.77,0.08,1.69,0.17,2.36-0.33
				c0.89-0.67,1.07-2.19,0.69-3.18c-0.46-1.19-2.39-0.67-1.93,0.53c0.08,0.2,0.14,0.42,0.1,0.65c-0.01,0.09-0.02,0.18-0.04,0.26
				c0,0.24-0.1,0.28-0.31,0.14c-0.59,0.19-1.72-0.18-2.32-0.26c-1.85-0.25-3.69-0.5-5.54-0.77c-3.63-0.52-7.25-1.07-10.86-1.66
				c-3.4-0.55-6.95-0.93-10.29-1.79c-1.81-0.47-1.89-2.05-2.24-3.64c-0.41-1.84-0.81-3.68-1.22-5.51
				C60.86,84.56,58.93,85.09,59.21,86.35L59.21,86.35z"/>
		</g>
	</g>
	<g>
		<g>
			<path d="M73.34,63.39c-0.04-0.23-0.18-0.45-0.34-0.61c-0.17-0.18-0.38-0.29-0.6-0.37c-0.35-0.12-0.74-0.09-1.07,0.05
				c-0.44,0.19-0.74,0.56-0.88,1.01c-0.11,0.35-0.09,0.75-0.01,1.1c0.06,0.28,0.19,0.56,0.36,0.79c0.22,0.29,0.46,0.56,0.8,0.72
				c0.16,0.07,0.31,0.14,0.48,0.17c0.28,0.04,0.51,0.06,0.79-0.01c0.3-0.07,0.61-0.27,0.8-0.5c0.18-0.22,0.27-0.37,0.37-0.63
				c0.06-0.16,0.09-0.34,0.09-0.51c0.01-0.39-0.16-0.85-0.47-1.1c-0.09-0.1-0.2-0.17-0.32-0.21c-0.12-0.06-0.25-0.09-0.39-0.09
				c-0.25,0-0.54,0.11-0.71,0.29c-0.17,0.19-0.3,0.44-0.29,0.71c0.01,0.25,0.09,0.55,0.29,0.71c0.03,0.02,0.06,0.05,0.08,0.08
				c-0.05-0.07-0.1-0.13-0.16-0.2c0.02,0.03,0.04,0.06,0.06,0.1c-0.03-0.08-0.07-0.16-0.1-0.24c0.02,0.04,0.03,0.08,0.03,0.12
				c-0.01-0.09-0.02-0.18-0.04-0.27c0.01,0.06,0.01,0.11,0,0.17c0.01-0.09,0.02-0.18,0.04-0.27c-0.01,0.06-0.03,0.12-0.05,0.17
				c0.03-0.08,0.07-0.16,0.1-0.24c-0.03,0.07-0.07,0.13-0.11,0.19c0.05-0.07,0.1-0.13,0.16-0.2c-0.04,0.05-0.08,0.09-0.13,0.13
				c0.07-0.05,0.13-0.1,0.2-0.16c-0.05,0.04-0.1,0.07-0.16,0.09c0.08-0.03,0.16-0.07,0.24-0.1c-0.04,0.02-0.09,0.03-0.14,0.04
				c0.09-0.01,0.18-0.02,0.27-0.04c-0.07,0.01-0.13,0.01-0.2,0c0.09,0.01,0.18,0.02,0.27,0.04c-0.08-0.01-0.15-0.03-0.22-0.06
				c0.08,0.03,0.16,0.07,0.24,0.1c-0.09-0.04-0.17-0.09-0.24-0.14c0.07,0.05,0.13,0.1,0.2,0.16c-0.08-0.07-0.16-0.14-0.22-0.22
				c0.05,0.07,0.1,0.13,0.16,0.2c-0.08-0.1-0.14-0.21-0.19-0.32c0.03,0.08,0.07,0.16,0.1,0.24c-0.05-0.11-0.08-0.23-0.1-0.35
				c0.01,0.09,0.02,0.18,0.04,0.27c-0.01-0.1-0.01-0.19,0-0.29c-0.01,0.09-0.02,0.18-0.04,0.27c0.01-0.08,0.03-0.15,0.06-0.22
				c-0.03,0.08-0.07,0.16-0.1,0.24c0.02-0.05,0.05-0.09,0.08-0.13c-0.05,0.07-0.1,0.13-0.16,0.2c0.03-0.04,0.06-0.07,0.1-0.1
				c-0.07,0.05-0.13,0.1-0.2,0.16c0.03-0.02,0.07-0.04,0.1-0.06c-0.08,0.03-0.16,0.07-0.24,0.1c0.04-0.02,0.09-0.03,0.14-0.04
				c-0.09,0.01-0.18,0.02-0.27,0.04c0.05-0.01,0.11-0.01,0.16,0c-0.09-0.01-0.18-0.02-0.27-0.04c0.05,0.01,0.09,0.02,0.13,0.04
				c-0.08-0.03-0.16-0.07-0.24-0.1c0.04,0.02,0.07,0.03,0.1,0.06c-0.07-0.05-0.13-0.1-0.2-0.16c0.02,0.02,0.05,0.04,0.07,0.07
				c-0.05-0.07-0.1-0.13-0.16-0.2c0.02,0.03,0.03,0.05,0.05,0.08c-0.03-0.08-0.07-0.16-0.1-0.24c0.01,0.02,0.02,0.05,0.02,0.08
				c0.04,0.23,0.26,0.48,0.46,0.6c0.21,0.13,0.53,0.18,0.77,0.1c0.24-0.08,0.48-0.23,0.6-0.46c0.03-0.08,0.07-0.16,0.1-0.24
				C73.39,63.75,73.39,63.57,73.34,63.39L73.34,63.39z"/>
		</g>
	</g>
	<g>
		<g>
			<path d="M123.82,84.57c-1.04,1.03-2.09,2.07-3.13,3.1c-0.87,0.86-1.82,1.7-2.3,2.85c-0.4,0.95-0.37,2.01,0.31,2.83
				c0.69,0.84,1.83,1.21,2.73,1.77c3.87,2.4,6.58,6.36,7.57,10.79c0.18,0.8,1.13,0.88,1.67,0.44c2.55-2.08,4.97-4.31,7.24-6.69
				c0.89-0.93-0.52-2.35-1.41-1.41c-2.27,2.39-4.68,4.62-7.24,6.69c0.56,0.15,1.11,0.29,1.67,0.44c-0.87-3.92-3.02-7.55-6.06-10.18
				c-0.72-0.63-1.49-1.21-2.3-1.72c-0.66-0.41-2.44-0.96-2.45-1.84c-0.01-1.01,1.65-2.2,2.28-2.83c0.95-0.94,1.9-1.88,2.85-2.82
				C126.15,85.08,124.74,83.67,123.82,84.57L123.82,84.57z"/>
		</g>
	</g>
	<g>
		<g>
			<path d="M92.22,101.4c0,3.73-0.51,7.41-0.69,11.13c-0.06,1.29,1.94,1.28,2,0c0.18-3.72,0.69-7.4,0.69-11.13
				C94.22,100.11,92.22,100.11,92.22,101.4L92.22,101.4z"/>
		</g>
	</g>
	<g>
		<g>
			<path d="M127.64,72.77c5.42,2.91,9.38,7.25,11.21,13.17c2.09,6.77,2.01,14.12,2.11,21.14c0.07,5.33,0.12,10.66,0.31,15.98
				c0.05,1.28,2.05,1.29,2,0c-0.32-9.06-0.01-18.17-0.71-27.22c-0.49-6.27-1.62-12.8-5.53-17.92c-2.23-2.92-5.16-5.15-8.37-6.88
				C127.52,70.44,126.51,72.16,127.64,72.77L127.64,72.77z"/>
		</g>
	</g>
	<g>
		<g>
			<path d="M47.01,105.26c8.4,0.8,16.74,2.71,24.99,4.44c6.68,1.4,13.34,3.07,20.07,4.26c4.74,0.84,9.43,1.97,14.13,3.02
				c8.35,1.87,16.7,3.77,25.06,5.63c7.53,1.67,15.07,3.45,22.69,4.72c1.26,0.21,1.8-1.72,0.53-1.93c-6.61-1.1-13.17-2.62-19.72-4.07
				c-8.51-1.87-17-3.8-25.5-5.71c-11.31-2.54-22.65-4.87-33.99-7.27c-9.32-1.98-18.75-4.18-28.26-5.09
				C45.73,103.13,45.74,105.13,47.01,105.26L47.01,105.26z"/>
		</g>
	</g>
	<g>
		<path class="st5" d="M46.08,104.62c-15.51,11.03-18.66,12.52-31.27,21.49"/>
		<g>
			<path d="M45.57,103.75c-10.31,7.33-20.96,14.16-31.27,21.49c-1.04,0.74-0.04,2.47,1.01,1.73c10.31-7.33,20.96-14.16,31.27-21.49
				C47.62,104.74,46.62,103.01,45.57,103.75L45.57,103.75z"/>
		</g>
	</g>
	<g>
		<path class="st5" d="M56.66,112.99c-15.79,13.65-22.4,18.1-33.81,26.91"/>
		<g>
			<path d="M55.96,112.28c-6.02,5.2-12.14,10.29-18.43,15.18c-5.03,3.9-10.14,7.69-15.18,11.58c-1,0.78-0.01,2.51,1.01,1.73
				c5.09-3.93,10.26-7.76,15.35-11.71c6.37-4.94,12.57-10.1,18.67-15.36C58.35,112.85,56.93,111.44,55.96,112.28L55.96,112.28z"/>
		</g>
	</g>
	<g>
		<g>
			<path d="M21.71,141.24c16.89,5.15,33.8,10.34,50.86,14.9c1.19,0.32,2.44,0.77,3.67,0.87c1.28,0.11,1.28-1.89,0-2
				c0.25,0.02,0.16,0.03-0.07-0.02c-0.2-0.05-0.39-0.09-0.59-0.14c-0.66-0.16-1.31-0.33-1.96-0.5c-2.31-0.61-4.62-1.26-6.93-1.9
				c-8.29-2.33-16.55-4.76-24.8-7.21c-6.55-1.95-13.1-3.92-19.64-5.92C21,138.93,20.48,140.86,21.71,141.24L21.71,141.24z"/>
		</g>
	</g>
	<g>
		<g>
			<path d="M78.5,156.51c8.37-11.06,17.89-21.15,26.26-32.21c0.78-1.03-0.96-2.02-1.73-1.01c-8.37,11.05-17.89,21.15-26.26,32.21
				C75.99,156.53,77.73,157.52,78.5,156.51L78.5,156.51z"/>
		</g>
	</g>
	<g>
		<g>
			<path d="M56.4,113.95c15.42,3.44,30.89,6.63,46.31,10.07c1.25,0.28,1.79-1.65,0.53-1.93c-15.42-3.44-30.89-6.63-46.31-10.07
				C55.67,111.74,55.14,113.67,56.4,113.95L56.4,113.95z"/>
		</g>
	</g>
	<g>
		<g>
			<path d="M60,121.62c-0.14,0.18-0.28,0.37-0.42,0.55c-0.15,0.19,0.07-0.09-0.06,0.08c-0.07,0.09-0.13,0.17-0.2,0.26
				c-0.18,0.24-0.37,0.47-0.56,0.7c-0.29,0.36-0.59,0.72-0.89,1.07c-0.83,0.96-1.67,1.91-2.49,2.88c-0.34,0.4-0.42,1.03,0,1.41
				c0.37,0.34,1.05,0.43,1.41,0c0.83-0.98,1.68-1.94,2.52-2.91c0.84-0.97,1.62-1.99,2.4-3.02c0.32-0.42,0.08-1.14-0.36-1.37
				C60.84,120.99,60.34,121.18,60,121.62L60,121.62z"/>
		</g>
	</g>
	<g>
		<g>
			<path d="M78.5,126.62c-0.52,0.74-1.05,1.48-1.6,2.2c-0.06,0.08-0.12,0.16-0.18,0.23c-0.03,0.04-0.06,0.08-0.09,0.11
				c0.05-0.07,0.06-0.07,0.01-0.02c-0.1,0.13-0.2,0.26-0.31,0.39c-0.21,0.26-0.42,0.52-0.64,0.78c-0.81,0.97-1.68,1.9-2.55,2.83
				c-0.37,0.4-0.39,1.02,0,1.41c0.37,0.37,1.04,0.4,1.41,0c0.88-0.95,1.77-1.89,2.6-2.89c1.08-1.3,2.08-2.67,3.06-4.05
				c0.31-0.44,0.08-1.11-0.36-1.37C79.37,125.97,78.81,126.18,78.5,126.62L78.5,126.62z"/>
		</g>
	</g>
	<g>
		<g>
			<path d="M54.44,129c7.18,2.18,14.27,4.62,21.53,6.52c0-0.64,0-1.29,0-1.93c-5.72,1.83-11.48,3.53-17.19,5.36
				c0.41,0.23,0.82,0.47,1.23,0.7c-1.48-3.88-2.84-7.8-4.32-11.67c-0.45-1.19-2.39-0.67-1.93,0.53c1.48,3.88,2.84,7.8,4.32,11.67
				c0.19,0.49,0.68,0.88,1.23,0.7c5.72-1.83,11.48-3.53,17.19-5.36c0.91-0.29,0.99-1.67,0-1.93c-7.26-1.9-14.35-4.34-21.53-6.52
				C53.74,126.69,53.21,128.62,54.44,129L54.44,129z"/>
		</g>
	</g>
	<ellipse class="st11" cx="96.19" cy="55.87" rx="1.38" ry="2.5"/>
	<ellipse class="st11" cx="113.95" cy="56.12" rx="1.38" ry="2.5"/>
	<ellipse class="st12" cx="114.39" cy="55.17" rx="0.44" ry="0.96"/>
	<ellipse class="st12" cx="96.63" cy="55.17" rx="0.44" ry="0.96"/>
</g>
<g id="Ebene_9">
	<g>
		<path class="st4" d="M83.18,61.19c0.86-0.01,2.87,0.1,3.72,0.23c0.64,0.1,1.2,0.11,1.71,0.52c0.9,0.73,1.05,2.03,1.14,3.18
			c0.14,1.94,0.08,4.92,0.21,6.86c-0.48-1.39-1.16-3.65-1.97-4.87c-1.15-1.73-2.17-3.55-3.08-5.42"/>
		<g>
			<path class="st4" d="M83.18,62.19c1.08-0.01,2.17,0.06,3.25,0.17c0.06,0.01,0.12,0.01,0.17,0.02c-0.07-0.01-0.08-0.01-0.01,0
				c0.18,0.03,0.37,0.05,0.55,0.08c0.28,0.04,0.59,0.07,0.82,0.24c0.43,0.31,0.57,0.91,0.67,1.4c0.23,1.22,0.19,2.51,0.21,3.75
				c0.02,1.38,0.02,2.76,0.12,4.13c0.65-0.09,1.31-0.18,1.96-0.27c-0.56-1.64-1.04-3.38-1.93-4.88c-1.11-1.87-2.27-3.68-3.22-5.64
				c-0.24-0.49-0.93-0.62-1.37-0.36c-0.5,0.29-0.6,0.88-0.36,1.37c0.93,1.92,2.03,3.72,3.15,5.53c0.85,1.38,1.27,3,1.8,4.52
				c0.16,0.47,0.59,0.79,1.1,0.72c0.46-0.07,0.9-0.48,0.87-0.98c-0.11-1.55-0.1-3.1-0.13-4.65c-0.03-1.43,0.02-3.01-0.43-4.38
				c-0.25-0.77-0.68-1.46-1.36-1.93c-0.62-0.43-1.35-0.49-2.07-0.59c-1.25-0.17-2.54-0.25-3.8-0.24
				C81.89,60.21,81.89,62.21,83.18,62.19L83.18,62.19z"/>
		</g>
	</g>
</g>
<g id="Ebene_7">
</g>
</svg>
