<?xml version="1.0" encoding="utf-8"?>
<!-- Generator: Adobe Adobe Illustrator 24.2.0, SVG Export Plug-In . SVG Version: 6.00 Build 0)  -->
<svg version="1.1" xmlns="http://www.w3.org/2000/svg" xmlns:xlink="http://www.w3.org/1999/xlink" x="0px" y="0px"
	 viewBox="0 0 170.08 170.08" style="enable-background:new 0 0 170.08 170.08;" xml:space="preserve">
<style type="text/css">
	.st0{fill:#F8BF9D;}
	.st1{fill:#301911;}
	.st2{fill:#30AFAB;}
	.st3{fill:#86D0EB;}
	.st4{fill:#8FC23F;}
	.st5{fill:#B557A0;}
	.st6{fill:#FBBE3F;}
	.st7{fill:#E97422;}
	.st8{stroke:#000000;stroke-miterlimit:10;}
	.st9{fill:#FFFFFF;stroke:#FFFFFF;stroke-width:0.3499;stroke-miterlimit:10;}
</style>
<g id="Ebene_23">
	<path class="st0" d="M55.49,54.26c-2.78,2.91-7.04,4.33-11.02,3.68c-0.14,3.52-1.05,7.01-2.67,10.14
		c-2.49-3.57-8.03-4.31-11.63-1.87c-3.61,2.44-5.06,7.44-3.76,11.6c1.3,4.16,5.01,7.33,9.22,8.48c1.7,5.04-2.46,10.83-0.36,15.72
		c1.22,2.84,4.23,4.46,7.15,5.45c4.08,1.38,8.43,1.97,12.73,1.71c0.41-2.28,0.81-4.57,1.22-6.85c6.27,3.24,14.28,2.81,20.17-1.1
		c5.88-3.91,9.39-11.13,8.83-18.16c2.37,0.64,5.08-1.2,5.37-3.64c0.29-2.44-1.93-4.85-4.38-4.78c1.58-4.77,1.32-9.99,0.11-14.87
		s-3.31-9.48-5.4-14.05C75.71,54,64.64,58.1,55.49,54.26z"/>
</g>
<g id="Ebene_19">
	<path class="st1" d="M56.19,53.71c1.62,2.65,5.53,2.39,8.49,1.47c6.36-1.98,12.21-5.55,16.89-10.29c1.92,4.64,3.84,9.28,5.75,13.93
		c4.4-4.24,6.02-11.13,3.97-16.89s-7.65-10.07-13.74-10.58c-5.67-7.18-14.96-11.13-24.11-11.05c-9.15,0.08-18.07,3.97-24.96,10
		c-4.6,4.03-8.39,9.06-10.5,14.79c-2.52,6.85-2.56,14.42-1.26,21.6c0.97,5.38,2.7,10.71,5.8,15.21c3.1,4.5,7.69,8.13,13.02,9.35
		c-0.11-1.86-0.21-3.73-0.32-5.59c-4.07-1.4-7.63-4.64-8.8-8.78s0.4-9.09,4.09-11.31c3.69-2.22,9.21-0.99,11.16,2.85
		c2.2-3.23,3.17-7.27,2.7-11.14C48.54,57.51,52.79,56.11,56.19,53.71z"/>
</g>
<g id="Ebene_13">
	<path class="st2" d="M13.63,146.21c1.13-17.14,8.37-33.8,20.11-46.33c3.47,6.5,11.06,10.55,18.39,9.8
		c1.12-0.11,2.33-0.31,3.29,0.27c0.64,0.39,1.04,1.05,1.41,1.7c6,10.49,9.12,22.6,9.62,34.72c-2.15,2.98-6.36,3.38-10.04,3.45
		c-8.88,0.16-17.76-0.06-26.63-0.64C24.52,148.83,19.07,148.29,13.63,146.21z"/>
</g>
<g id="Ebene_5">
	<path class="st3" d="M100.49,67.71c0.88,13.5,1.01,27.06,0.37,40.58c-0.1,2.03-0.1,4.35,1.38,5.75c0.83,0.79,1.98,1.12,3.09,1.42
		c15.77,4.29,31.71,7.91,47.78,10.87c2.18,0.4,4.83,0.64,6.24-1.08c0.85-1.03,0.96-2.47,1.03-3.81c1.12-22.92,0.79-45.91-0.98-68.78
		c-0.14-1.77-0.39-3.75-1.78-4.85c-1.32-1.05-3.19-0.94-4.87-0.76c-13.8,1.4-27.61,2.81-41.41,4.21c-2.91,0.3-6.01,0.67-8.27,2.52
		c-2.17,1.78-3.18,4.68-3.29,7.49C99.66,64.05,100.43,66.81,100.49,67.71z"/>
</g>
<g id="Ebene_25">
	<path class="st4" d="M100.9,99.03c2-2.69,4.64-5.68,7.98-5.33c2.18,0.23,3.93,1.86,5.45,3.45c7.41,7.72,13.86,16.35,19.16,25.64
		c-9.82-1.73-19.51-4.27-29.09-7.79c-1.17,0.33-2.42-0.46-3.02-1.51c-0.6-1.05-0.71-2.31-0.81-3.52
		C100.28,106.28,98.74,101.95,100.9,99.03z"/>
</g>
<g id="Ebene_10">
	<path class="st5" d="M136.07,87.06c1.02-4.84,2.84-9.62,6.08-13.36c1-1.16,2.23-2.25,3.74-2.5c2.1-0.34,4.21,1.17,4.98,3.15
		c0.78,1.98,0.42,4.26-0.48,6.18c-0.9,1.92-2.31,3.56-3.69,5.17c1.55,0.58,3.11,1.19,4.39,2.23s2.26,2.58,2.22,4.23
		c-0.07,2.73-2.94,4.71-5.67,4.82c-2.73,0.11-5.31-1.15-7.75-2.37c-1.4,1.96-1.69,4.48-2.61,6.7s-3.08,4.37-5.42,3.82
		c-1.69-0.4-2.79-2.08-3.27-3.75c-0.3-1.03-0.42-2.14-0.13-3.18c0.29-1.03,1.04-1.98,2.07-2.28c-3.74,0.7-7.82-0.86-10.14-3.88
		c-1.6-2.09-2.23-5.38-0.31-7.19c1.82-1.72,4.74-1.14,7.16-0.45C130.14,85.23,133.06,86.07,136.07,87.06z"/>
</g>
<g id="Ebene_17">
	<path class="st6" d="M116.37,60.97c-1.2,3.02-3.8,5.44-6.9,6.42c2.04,0.2,3.98,1.26,5.23,2.88c1.25,1.62,1.8,3.76,1.48,5.78
		c0.2-2.03,0.73-4.1,1.97-5.73c1.24-1.63,3.3-2.73,5.32-2.4c-1.79,0.46-3.8-0.04-5.18-1.27C116.91,65.43,116.2,63.49,116.37,60.97z"
		/>
</g>
<g id="Ebene_11">
	<ellipse class="st7" cx="144.91" cy="77.92" rx="3" ry="3.12"/>
	<ellipse class="st7" cx="125.41" cy="89.75" rx="3" ry="3.12"/>
	<ellipse class="st7" cx="147.91" cy="91.64" rx="3" ry="3.12"/>
	<ellipse class="st7" cx="133.09" cy="100.14" rx="3" ry="3.12"/>
</g>
<g id="Ebene_12">
</g>
<g id="Ebene_14">
</g>
<g id="Ebene_15">
</g>
<g id="Ebene_16">
</g>
<g id="Ebene_18">
	<g>
		<g>
			<path d="M84.05,75.48c1.25-0.29,2.5,0.21,3.52,0.92c0.46,0.32,0.93,0.72,1.25,1.19c0.39,0.57,0.49,1.22,0.51,1.9
				c0.02,0.6,0.06,1.3-0.25,1.84c-0.25,0.44-0.66,0.75-1.13,0.94c-1.25,0.53-2.71,0.16-3.99-0.13c-0.53-0.12-1.08,0.16-1.23,0.7
				c-0.14,0.5,0.17,1.11,0.7,1.23c1.48,0.33,3.03,0.65,4.54,0.29c1.27-0.31,2.46-1.12,2.98-2.34c0.3-0.7,0.38-1.46,0.38-2.21
				c-0.01-0.75-0.05-1.54-0.31-2.25c-0.5-1.38-1.64-2.43-2.88-3.17c-1.4-0.83-3.02-1.21-4.62-0.84
				C82.26,73.84,82.79,75.77,84.05,75.48L84.05,75.48z"/>
		</g>
	</g>
	<g>
		<g>
			<path d="M80.48,45.88c4.21,8.3,6.79,17.78,5.01,27.08c-0.24,1.26,1.69,1.8,1.93,0.53c1.89-9.87-0.74-19.81-5.21-28.62
				C81.62,43.72,79.89,44.73,80.48,45.88L80.48,45.88z"/>
		</g>
	</g>
	<g>
		<g>
			<path d="M84.58,83.77c-0.35,3.85-1.32,7.74-3.04,11.22c-0.89,1.79-2.04,3.31-3.72,4.42c-1.49,0.99-3.14,1.77-4.76,2.52
				c-1.87,0.88-3.77,1.49-5.85,1.51c-1.9,0.03-3.83-0.22-5.7-0.55c-3.57-0.63-7.13-1.75-10.03-4.01c-1-0.78-2.43,0.62-1.41,1.41
				c3.25,2.53,7.09,3.88,11.12,4.56c2.13,0.36,4.33,0.67,6.49,0.57c2.11-0.09,4.07-0.71,5.98-1.58c3.82-1.73,7.41-3.63,9.42-7.47
				c2.03-3.88,3.11-8.27,3.51-12.61C86.7,82.49,84.7,82.5,84.58,83.77L84.58,83.77z"/>
		</g>
	</g>
	<g>
		<g>
			<path d="M72.07,89.18c2.6,3.41,6.76,5.44,11.06,5.21c1.28-0.07,1.29-2.07,0-2c-3.55,0.19-7.16-1.38-9.33-4.22
				c-0.33-0.43-0.86-0.66-1.37-0.36C72,88.06,71.74,88.75,72.07,89.18L72.07,89.18z"/>
		</g>
	</g>
	<g>
		<g>
			<path d="M70.66,63.12c0.19-0.2,0.38-0.38,0.59-0.56c0.01-0.01,0.16-0.12,0.09-0.07c-0.07,0.05,0.08-0.05,0.09-0.06
				c0.12-0.08,0.24-0.16,0.36-0.24c0.23-0.14,0.47-0.27,0.72-0.39c0.02-0.01,0.19-0.08,0.1-0.05c-0.09,0.04,0.09-0.03,0.1-0.04
				c0.13-0.05,0.27-0.1,0.41-0.14c0.24-0.08,0.49-0.14,0.74-0.19c0.08-0.02,0.16-0.03,0.24-0.04c0.16-0.03-0.14,0.02,0.02,0
				c0.13-0.02,0.25-0.03,0.38-0.04c0.27-0.02,0.54-0.02,0.81,0c0.06,0,0.13,0.01,0.19,0.01c0.02,0,0.27,0.03,0.15,0.01
				c-0.1-0.01,0.09,0.01,0.1,0.02c0.08,0.01,0.16,0.03,0.24,0.05c0.51,0.1,1.1-0.15,1.23-0.7c0.11-0.5-0.15-1.12-0.7-1.23
				c-2.62-0.53-5.43,0.29-7.28,2.25c-0.36,0.38-0.41,1.04,0,1.41C69.64,63.48,70.28,63.52,70.66,63.12L70.66,63.12z"/>
		</g>
	</g>
	<g>
		<g>
			<path d="M79.03,32.83c2.78-0.42,5.23,1.84,7.08,3.61c2.09,2,3.95,4.29,4.83,7.08c1.71,5.42-0.2,11.16-4.6,14.67
				c-1.01,0.8,0.42,2.21,1.41,1.41c5.15-4.11,7.21-11.24,4.83-17.43c-1.2-3.12-3.39-5.66-5.84-7.88c-2.31-2.09-4.99-3.89-8.24-3.4
				C77.23,31.09,77.77,33.02,79.03,32.83L79.03,32.83z"/>
		</g>
	</g>
	<g>
		<g>
			<path d="M43.23,68.62c-1.54-2.84-5.1-4.09-8.17-4.2c-3.24-0.12-6.37,1.25-8.11,4.05c-3.45,5.54-1.14,13.78,4.56,16.85
				c3.18,1.71,7.07,1.82,10.29,0.15c1.14-0.6,0.13-2.32-1.01-1.73c-4.87,2.54-10.72-0.28-12.65-5.19
				c-1.89-4.81-0.28-11.55,5.66-12.1c2.71-0.25,6.31,0.62,7.7,3.18C42.11,70.76,43.84,69.75,43.23,68.62L43.23,68.62z"/>
		</g>
	</g>
	<g>
		<g>
			<path d="M33.82,75.38c0.19-0.07,0.38-0.12,0.57-0.16c0.05-0.01,0.11-0.01,0.15-0.03c-0.04,0.01-0.22,0.02-0.08,0.01
				c0.09-0.01,0.19-0.01,0.28-0.02c0.1,0,0.21,0,0.31,0.01c0.04,0,0.08,0.01,0.12,0.01c0.17,0.01,0.03,0.02-0.05-0.01
				c0.17,0.07,0.4,0.07,0.58,0.13c0.09,0.03,0.18,0.06,0.27,0.09c0.04,0.01,0.08,0.03,0.12,0.05c-0.25-0.08-0.1-0.04-0.04-0.01
				c0.18,0.09,0.35,0.18,0.52,0.29c0.03,0.02,0.07,0.05,0.1,0.07c0.17,0.12-0.12-0.11-0.03-0.02c0.07,0.06,0.14,0.12,0.21,0.19
				c0.08,0.07,0.15,0.15,0.22,0.23c0.03,0.03,0.05,0.06,0.08,0.1c0.14,0.17-0.13-0.18,0,0c0.3,0.42,0.89,0.67,1.37,0.36
				c0.42-0.27,0.68-0.91,0.36-1.37c-0.64-0.9-1.52-1.54-2.58-1.87c-0.96-0.3-2.07-0.31-3.02,0.04c-0.49,0.18-0.87,0.69-0.7,1.23
				C32.75,75.16,33.3,75.57,33.82,75.38L33.82,75.38z"/>
		</g>
	</g>
	<g>
		<g>
			<path d="M42.88,67.44c1.51-2.73,2.24-5.87,2.04-8.99c-0.03-0.54-0.43-1-1-1c-0.51,0-1.03,0.46-1,1c0.18,2.78-0.42,5.54-1.77,7.98
				C40.52,67.56,42.25,68.57,42.88,67.44L42.88,67.44z"/>
		</g>
	</g>
	<g>
		<g>
			<path d="M44.5,58.83c8.68,0.18,15.18-6.56,18.61-13.92c0.54-1.16-1.18-2.18-1.73-1.01c-3.13,6.72-8.89,13.09-16.89,12.93
				C43.21,56.8,43.21,58.8,44.5,58.83L44.5,58.83z"/>
		</g>
	</g>
	<g>
		<g>
			<path d="M55.22,55.26c4.32,2.53,9.64,2.3,14.17,0.43c4.86-2,8.79-5.62,12.58-9.16c0.94-0.88-0.47-2.29-1.41-1.41
				c-6.2,5.78-15.42,13.63-24.33,8.41C55.12,52.88,54.11,54.61,55.22,55.26L55.22,55.26z"/>
		</g>
	</g>
	<g>
		<g>
			<path d="M34.1,86.29c0.59,4.42,0.27,8.88-0.98,13.17c-0.36,1.24,1.57,1.77,1.93,0.53c1.29-4.44,1.66-9.12,1.05-13.7
				c-0.07-0.54-0.41-0.99-1-1C34.62,85.29,34.03,85.76,34.1,86.29L34.1,86.29z"/>
		</g>
	</g>
	<g>
		<g>
			<path d="M55.46,103.35c-0.29,1.76-0.59,3.51-0.88,5.27c-0.09,0.51,0.14,1.1,0.7,1.23c0.48,0.11,1.14-0.15,1.23-0.7
				c0.29-1.76,0.59-3.51,0.88-5.27c0.09-0.51-0.14-1.1-0.7-1.23C56.2,102.54,55.55,102.79,55.46,103.35L55.46,103.35z"/>
		</g>
	</g>
	<g>
		<g>
			<path d="M33.2,100.77c4.37,7.85,13.52,11.78,22.24,9.61c1.25-0.31,0.72-2.24-0.53-1.93c-7.87,1.95-16.05-1.63-19.98-8.7
				C34.31,98.64,32.58,99.64,33.2,100.77L33.2,100.77z"/>
		</g>
	</g>
	<g>
		<g>
			<path d="M78.49,30.97c-11.51-14.14-32.81-14.16-47.14-4.46c-7.06,4.77-12.43,11.68-15.22,19.74c-3.04,8.79-2.44,18.01,0.34,26.79
				c2.82,8.91,8.79,17.78,18.79,18.97c1.28,0.15,1.26-1.85,0-2c-8.35-1-13.7-8.51-16.32-15.87c-2.87-8.1-3.92-16.77-1.58-25.13
				c4.4-15.77,19.34-27.19,35.72-27.38c9.17-0.11,18.15,3.59,23.99,10.76C77.89,33.38,79.29,31.96,78.49,30.97L78.49,30.97z"/>
		</g>
	</g>
	<g>
		<g>
			<path d="M32.32,99.66c-13.12,12.02-17.77,29.84-19.78,46.91c-0.15,1.28,1.85,1.26,2,0c1.95-16.54,6.48-33.85,19.19-45.49
				C34.69,100.2,33.27,98.79,32.32,99.66L32.32,99.66z"/>
		</g>
	</g>
	<g>
		<g>
			<path d="M24.31,131.92c-0.46,5.08-0.67,10.17-0.61,15.27c0.02,1.29,2.02,1.29,2,0c-0.06-5.1,0.14-10.19,0.61-15.27
				C26.43,130.64,24.43,130.65,24.31,131.92L24.31,131.92z"/>
		</g>
	</g>
	<g>
		<g>
			<path d="M54.94,110.35c6.34,10.88,9.94,23.21,10.43,35.8c0.05,1.28,2.05,1.29,2,0c-0.5-12.94-4.18-25.62-10.7-36.81
				C56.02,108.23,54.29,109.23,54.94,110.35L54.94,110.35z"/>
		</g>
	</g>
	<g>
		<g>
			<path d="M42.48,122c3.88,8,6.08,16.72,6.47,25.6c0.06,1.28,2.06,1.29,2,0c-0.4-9.25-2.7-18.29-6.74-26.61
				C43.65,119.83,41.92,120.85,42.48,122L42.48,122z"/>
		</g>
	</g>
	<ellipse class="st8" cx="74.18" cy="72.43" rx="1.25" ry="3.12"/>
	<ellipse class="st9" cx="74.65" cy="71.42" rx="0.47" ry="1.01"/>
	<g>
		<g>
			<path d="M99.24,59.3c0.1,15.51-0.15,31.04,0.19,46.55c0.04,1.83,0.08,3.65,0.22,5.48c0.07,0.93,0.08,1.98,0.43,2.86
				c0.32,0.81,1.02,1.09,1.78,1.4c1.15,0.47,2.34,0.86,3.53,1.24c9.33,2.96,18.91,5.26,28.48,7.28c4.94,1.04,9.92,1.99,14.93,2.63
				c3.04,0.39,6.62,1,9.64,0.17c1.99-0.55,2.29-2.16,2.56-3.99c0.48-3.3,0.62-6.66,0.74-9.99c0.39-10.25,0.3-20.53,0.08-30.79
				c-0.2-9.26-0.43-18.57-1.35-27.79c-0.14-1.38-0.29-2.77-0.52-4.14c-0.13-0.78-0.25-1.67-0.64-2.37c-0.92-1.68-4.19-1.3-5.75-1.31
				c-9.9-0.03-19.88,1.13-29.7,2.27c-4.82,0.56-9.63,1.17-14.42,1.95c-1.62,0.27-3.24,0.54-4.83,0.91
				c-0.84,0.19-1.85,0.37-2.59,0.85c-2.32,1.5-2.9,4.27-2.72,6.79c0.09,1.28,2.09,1.29,2,0c-0.09-1.32-0.16-2.43,0.57-3.6
				c0.27-0.43,0.59-0.82,0.93-1.2c0.7-0.76,0.22-0.26,0.23-0.27c0.17-0.13,0.27-0.14,0.17-0.1c0.97-0.4,2.06-0.59,3.08-0.79
				c3.9-0.79,7.86-1.33,11.8-1.84c10.06-1.3,20.2-2.37,30.33-2.84c1.84-0.09,3.68-0.15,5.52-0.13c1.1,0.01,2.44,0.02,3.27,0.21
				c0.15,0.04,0.31,0.1,0.47,0.12c-0.14-0.02,0.11,0.08-0.09-0.06c-0.28-0.2,0.01-0.12,0,0.04c0-0.03-0.02-0.1,0.06,0.18
				c0.24,0.86,0.39,1.73,0.51,2.61c1.1,7.76,1.24,15.99,1.49,23.91c0.32,10.3,0.45,20.61,0.27,30.91
				c-0.07,4.02-0.18,8.04-0.47,12.05c-0.09,1.26-0.22,2.78-0.38,3.88c-0.07,0.47-0.14,0.95-0.25,1.41
				c-0.04,0.17-0.09,0.35-0.13,0.52c-0.03,0.13-0.16,0.54-0.07,0.24c-0.06,0.19-0.26,0.27-0.01,0.09c-0.25,0.19,0.11-0.03-0.18,0.14
				c-0.24,0.14-0.01,0.04-0.31,0.13c-0.23,0.07-0.47,0.12-0.7,0.17c-1.09,0.2-2.66,0.16-3.94,0.09c-4.29-0.23-8.56-0.97-12.77-1.75
				c-9.92-1.84-19.76-4.21-29.46-6.95c-2.93-0.83-5.95-1.61-8.77-2.78c-0.18-0.07,0.15,0.07-0.08-0.03
				c-0.07-0.03-0.14-0.06-0.21-0.1c-0.11-0.05-0.24-0.16-0.36-0.19c-0.1-0.02,0.13,0.16,0.15,0.17c-0.05-0.01,0.03,0.15-0.04-0.14
				c-0.22-0.94-0.26-1.82-0.33-2.96c-0.27-4.63-0.24-9.28-0.26-13.91c-0.03-7.72-0.02-15.43-0.03-23.15
				c-0.01-4.69-0.03-9.39-0.06-14.08C101.23,58.01,99.23,58.01,99.24,59.3L99.24,59.3z"/>
		</g>
	</g>
	<g>
		<g>
			<path d="M101.62,99.42c1.59-1.46,3.23-2.9,5.09-4c0.91-0.53,2.04-1.18,3.09-0.71c1.71,0.77,3.12,2.52,4.34,3.88
				c4.34,4.85,8.06,10.28,11.82,15.59c2.19,3.1,4.37,6.22,6.6,9.3c0.75,1.03,2.48,0.04,1.73-1.01c-4.36-6.02-8.51-12.18-12.97-18.13
				c-1.94-2.59-3.92-5.17-6.11-7.56c-1.36-1.48-2.94-3.27-4.87-4.01c-1.42-0.54-2.87-0.02-4.15,0.65c-2.21,1.16-4.14,2.9-5.97,4.57
				C99.25,98.87,100.67,100.29,101.62,99.42L101.62,99.42z"/>
		</g>
	</g>
	<g>
		<g>
			<path d="M133.63,75.63c-1.52,4.65-0.28,9.08,1.59,13.39c1.33,3.07,2.77,5.96,4.48,8.84c0.66,1.11,2.39,0.1,1.73-1.01
				c-1.55-2.6-2.91-5.21-4.11-7.98c-1.78-4.13-3.23-8.22-1.76-12.71C135.96,74.93,134.03,74.41,133.63,75.63L133.63,75.63z"/>
		</g>
	</g>
	<g>
		<g>
			<path d="M126.51,80.93c1.17,0.17,2.32,0.4,3.42,0.84c0.02,0.01,0.28,0.12,0.09,0.03c0.08,0.04,0.16,0.07,0.24,0.11
				c0.19,0.09,0.38,0.19,0.57,0.29c0.16,0.09,0.33,0.19,0.48,0.29c0.09,0.06,0.19,0.12,0.28,0.19c0.03,0.02,0.28,0.21,0.15,0.1
				c0.74,0.57,1.26,1.17,1.71,1.92c0.66,1.1,2.39,0.1,1.73-1.01c-1.04-1.74-2.62-2.98-4.47-3.75c-1.18-0.49-2.4-0.75-3.66-0.94
				c-0.53-0.08-1.07,0.13-1.23,0.7C125.69,80.17,125.98,80.85,126.51,80.93L126.51,80.93z"/>
		</g>
	</g>
	<g>
		<g>
			<path d="M136.86,88.33c0.54-3.55,1.32-7.18,2.99-10.39c0.92-1.78,2.15-3.51,3.9-4.56c1.1-0.66,2.19-0.94,3.4-0.83
				c0.09,0.01,0.16,0.01,0.43,0.08c0.21,0.06,0.54,0.17,0.41,0.13c0.37,0.14,0.15,0.03,0.35,0.23c0.53,0.51,0.91,1.08,1.12,1.79
				c1.14,3.83-1.78,8.28-4.28,10.9c-0.65,0.68-0.01,2.03,0.97,1.67c2.34-0.85,5.17,1.24,6.07,3.35c0.82,1.91-0.38,4.68-2.29,5.47
				c-3.18,1.31-6.65-0.96-9.62-1.85c-1.24-0.37-1.76,1.56-0.53,1.93c3.2,0.96,6.17,2.73,9.65,2.13c2.03-0.35,3.58-1.72,4.39-3.59
				c1.03-2.39,0.78-4.65-0.9-6.67c-1.67-2.01-4.67-3.65-7.3-2.69c0.32,0.56,0.65,1.11,0.97,1.67c2.76-2.88,5.28-7,5.06-11.15
				c-0.11-2.14-1.2-4.56-3.41-5.2c-3.66-1.06-7.13,1.58-9.09,4.42c-2.53,3.68-3.58,8.29-4.24,12.63
				C134.74,89.06,136.67,89.6,136.86,88.33L136.86,88.33z"/>
		</g>
	</g>
	<g>
		<g>
			<path d="M135.41,86.19c-3.39-1.86-7.27-3.5-11.21-3.42c-2.23,0.04-4.8,0.78-5.87,2.93c-1.09,2.21-0.61,5.28,0.84,7.21
				c1.39,1.86,3.58,2.93,5.78,3.51c1.76,0.46,3.78,0.79,5.61,0.57c-0.17-0.62-0.34-1.24-0.5-1.86c-1.76,1.32-2.88,3.26-2.71,5.52
				c0.15,2.03,1.2,3.95,2.88,5.12c1.51,1.05,3.52,1.38,5.16,0.46c1.59-0.89,2.53-2.62,3.21-4.25c0.74-1.78,1.18-3.66,1.63-5.53
				c0.3-1.25-1.63-1.78-1.93-0.53c-0.39,1.62-0.77,3.25-1.35,4.82c-0.52,1.4-1.32,3.27-2.81,3.88c-1.73,0.71-3.58-0.83-4.31-2.28
				c-0.96-1.92-0.5-4.18,1.23-5.48c0.68-0.51,0.6-2-0.5-1.86c-2.84,0.35-6.53-0.41-8.77-2.21c-1.62-1.3-2.28-3.32-1.93-5.36
				c0.31-1.81,2.13-2.5,3.78-2.62c3.76-0.28,7.54,1.36,10.76,3.13C135.53,88.53,136.54,86.81,135.41,86.19L135.41,86.19z"/>
		</g>
	</g>
	<g>
		<g>
			<path d="M114.97,60.31c0.4,3.81-3.94,5.22-6.83,6.05c-0.89,0.25-1.02,1.75,0,1.93c4.06,0.7,7,4.1,6.97,8.25c0.67,0,1.33,0,2,0
				c-0.37-4.28,2.87-7.95,7.21-7.95c0-0.67,0-1.33,0-2c-1.88,0-4.13,0.05-5.57-1.38c-1.31-1.31-1.48-3.35-1.34-5.1
				c0.1-1.28-1.9-1.28-2,0c-0.18,2.28,0.25,4.83,1.93,6.51c1.83,1.83,4.54,1.97,6.98,1.96c1.29,0,1.29-2,0-2
				c-5.35,0-9.68,4.58-9.21,9.95c0.11,1.26,1.99,1.31,2,0c0.03-4.97-3.52-9.33-8.44-10.17c0,0.64,0,1.29,0,1.93
				c2.1-0.6,4.23-1.26,5.93-2.68c1.53-1.28,2.59-3.27,2.37-5.3C116.84,59.04,114.84,59.03,114.97,60.31L114.97,60.31z"/>
		</g>
	</g>
</g>
<g id="Ebene_7">
</g>
</svg>
