<?xml version="1.0" encoding="utf-8"?>
<!-- Generator: Adobe Adobe Illustrator 24.2.0, SVG Export Plug-In . SVG Version: 6.00 Build 0)  -->
<svg version="1.1" xmlns="http://www.w3.org/2000/svg" xmlns:xlink="http://www.w3.org/1999/xlink" x="0px" y="0px"
	 viewBox="0 0 170.08 170.08" style="enable-background:new 0 0 170.08 170.08;" xml:space="preserve">
<style type="text/css">
	.st0{fill:#EA7422;}
	.st1{fill:#FFFFFF;}
	.st2{fill:#FBBE3F;}
	.st3{fill:#602D82;}
	.st4{fill:#F3F6E6;}
	.st5{fill:#D81B49;}
	.st6{fill:#CCAB98;}
	.st7{fill:#F7BF9C;}
	.st8{stroke:#000000;stroke-miterlimit:10;}
	.st9{opacity:0.502;fill:#DA5179;}
	.st10{opacity:0.5098;fill:#DA5179;}
</style>
<g id="Ebene_6">
	<path class="st0" d="M50.88,76.66c23.41-0.48,46.82-0.97,70.24-1.45c-2.85-5.65-2.76-12.31-2.01-18.59s2.11-12.57,1.59-18.87
		s-3.34-12.86-8.89-15.89c-7.98-4.35-16.51-7.96-25.52-9.12s-18.6,0.34-26.09,5.48s-12.5,14.25-11.45,23.28
		C50.08,53,51.41,64.49,50.88,76.66z"/>
</g>
<g id="Ebene_21">
	<path class="st1" d="M50.91,136.76c-2.69,5.99-5.38,11.97-8.06,17.96c27.19-0.78,54.41-0.84,81.61-0.18
		c-5.27-8.72-7.7-18.82-10.05-28.74c-20.04-0.26-40.1,0.58-60.05,2.54C53.07,131.31,51.98,134.36,50.91,136.76z"/>
</g>
<g id="Ebene_22">
	<path class="st2" d="M19.32,58.04c1.09,2.82,2.18,5.64,3.27,8.46c0.18,0.47,0.39,0.97,0.81,1.26c0.53,0.37,1.25,0.27,1.88,0.16
		c2.34-0.4,4.68-0.8,7.02-1.2c0.57-0.1,1.17-0.21,1.58-0.61c0.46-0.44,0.57-1.13,0.66-1.76c0.4-2.82,0.79-5.64,1.19-8.47
		c-1.47,1.32-2.94,2.64-4.41,3.96c-1.47-2.55-2.76-5.21-3.86-7.94c-0.85,3.01-1.71,6.02-2.56,9.03
		C23.1,59.88,21.29,58.82,19.32,58.04z"/>
</g>
<g id="Ebene_17">
	<path class="st3" d="M66.39,84.19c-3.68,1.45-7.42,2.93-10.56,5.34c-3.13,2.42-5.64,5.94-5.9,9.89c-0.22,3.36,1.16,6.59,2.51,9.67
		c1.58,3.59,3.15,7.17,4.73,10.76c0.76,1.73,1.57,3.53,3.01,4.75c2.01,1.7,4.83,1.97,7.46,2.13c14.22,0.82,28.5,0.42,42.65-1.2
		c0.93-3.42,0.81-7.12-0.36-10.47c4.72-3.99,10.37-6.86,16.37-8.33c-1.33-7.62-6.6-14.2-13.21-18.22
		c-6.61-4.02-14.43-5.68-22.16-5.96S74.88,80.85,66.39,84.19z"/>
</g>
<g id="Ebene_12">
	<path class="st2" d="M35.97,96.61c5.98,14,12.24,27.88,18.77,41.63c1.64-2.04,4.19-3.31,6.8-3.42c1.82-2.03,4.47-3.29,7.2-3.43
		c-6.75-13.7-13.51-27.42-19.22-41.59C45.79,91.75,42.08,93.69,35.97,96.61z"/>
	<path class="st2" d="M65.13,144.69c1.04,1.28,2.21,2.45,3.47,3.51c-0.09-1.88-0.18-3.77-0.27-5.65
		C67.12,142.92,65.97,143.48,65.13,144.69z"/>
</g>
<g id="Ebene_18">
	<path class="st4" d="M56,138.54c2.32,2.15,4.88,4.03,7.62,5.62c1.82-0.43,3.88-1.06,4.63-2.77c0.25-0.56,0.31-1.18,0.38-1.79
		c0.28-2.6,0.56-5.2,0.84-7.79c-1.25-0.58-2.76-0.55-3.98,0.06s-2.15,1.82-2.42,3.17C60.47,134.71,57.75,135.96,56,138.54z"/>
</g>
<g id="Ebene_19">
	<path class="st5" d="M33.55,90.78c-1.56-2.41-2.9-4.97-3.97-7.63c-0.25-0.62-0.49-1.3-0.35-1.95c0.22-1,1.24-1.59,2.15-2.05
		c2.04-1.03,4.09-2.07,6.13-3.1c1.09-0.55,2.38-1.11,3.48-0.59c0.66,0.31,1.09,0.94,1.48,1.56c1.56,2.5,2.82,5.18,3.75,7.98
		C41.93,86.45,37.81,88.43,33.55,90.78z"/>
</g>
<g id="Ebene_20">
	<path class="st6" d="M33.69,92c0.65,0.4,0.8,1.25,0.96,1.99c0.16,0.74,0.49,1.59,1.23,1.76c0.59,0.14,1.16-0.22,1.66-0.56
		c3.51-2.34,7.33-4.24,11.32-5.63c-0.56-0.54-0.72-1.35-0.98-2.08c-0.26-0.73-0.77-1.5-1.54-1.56c-0.37-0.03-0.74,0.12-1.08,0.27
		C41.6,87.75,37.98,89.39,33.69,92z"/>
</g>
<g id="Ebene_9">
	<path class="st7" d="M55.29,52.11c-1.52-2.23-5.11-2.26-7.16-0.5c-2.05,1.75-2.74,4.7-2.49,7.39c0.21,2.23,1.03,4.48,2.68,6
		c1.65,1.51,4.23,2.12,6.22,1.08c1.24,9.13,8.67,17.09,17.69,18.96c0.75,5.76,6.19,10.53,12,10.52c5.81-0.02,11.23-4.82,11.94-10.59
		c7.66-1.03,14.35-7.2,16.01-14.74c0.32-1.44,0.56-3.08,1.76-3.94c1.13-0.81,2.65-0.61,4.03-0.76c4.23-0.48,7.38-5.32,6.1-9.39
		s-6.62-6.24-10.37-4.21c-8.75-3.82-16.7-9.47-23.19-16.48C80.67,44.19,67.39,47.75,55.29,52.11z"/>
	<path class="st7" d="M113.56,114.15c0.58,1.22,1.16,2.44,1.73,3.67c-7.38,3.61-15.03,6.65-22.88,9.08
		c-2.45,0.76-5.07,1.56-6.68,3.55s-1.46,5.58,0.91,6.55c-0.15,1.33,0.54,2.73,1.69,3.42c1.15,0.69,2.7,0.64,3.81-0.12
		c-0.48,1.4,0.53,2.99,1.91,3.52c1.38,0.53,2.96,0.18,4.27-0.5c1.31-0.68,2.43-1.67,3.62-2.54c4.85-3.53,10.88-4.96,16.28-7.56
		c5.41-2.6,10.64-7.17,10.99-13.16c0.19-3.33-1.17-6.53-2.5-9.59c-0.52-1.19-1.17-2.5-2.41-2.88c-1-0.3-2.06,0.11-3,0.54
		C118.23,109.53,115.29,111.23,113.56,114.15z"/>
	<path class="st7" d="M61.7,115.36c0.83,2.19,1.74,4.34,2.74,6.46c0.27,0.57,0.6,1.19,1.2,1.39c0.64,0.21,1.36-0.17,1.72-0.73
		c0.37-0.56,0.45-1.26,0.47-1.94c0.04-1.58-0.27-3.25-1.33-4.43C65.44,114.93,63.51,114.46,61.7,115.36z"/>
	<path class="st7" d="M40.44,107.1c-2.59,2.62-5.25,5.33-6.64,8.74c-1.39,3.41-1.2,7.74,1.44,10.32c-1.3,4.33,0.87,9.43,4.89,11.51
		s9.43,0.88,12.21-2.68c3.23,0.21,5.98-3.58,4.79-6.59c0.66,1.13,2.42,1.25,3.43,0.41c1.01-0.83,1.3-2.31,1.03-3.59
		s-1.03-2.4-1.84-3.43c-1.87-2.38-4.15-4.52-6.93-5.73s-6.09-1.39-8.79-0.02C42.85,113.35,41.68,110.64,40.44,107.1z"/>
</g>
<g id="Ebene_10">
</g>
<g id="Ebene_14">
</g>
<g id="Ebene_15">
</g>
<g id="Ebene_16">
</g>
<g id="Ebene_13">
	<g>
		<g>
			<path d="M99.24,133.79c-2.54,1.53-5.33,2.85-7.24,5.2c-0.96,1.19-1.57,2.97-0.72,4.39c1.18,1.96,4.04,1.9,5.94,1.28
				c2.25-0.73,4.22-2.14,6.06-3.58c0.31-0.24,0.62-0.48,0.92-0.73c0.08-0.07,0.55-0.34,0.19-0.19c0.65-0.28,1.53-0.33,2.22-0.51
				c0.88-0.23,1.75-0.49,2.62-0.78c2.96-0.99,5.83-2.27,8.57-3.76c2.6-1.42,5.1-3.04,7.38-4.92c1.59-1.31,3.2-2.82,4.21-4.64
				c0.68-1.23,1.25-2.74,1.16-4.16c-0.07-1.06-0.42-2.14-0.7-3.16c-0.99-3.58-2.22-7.1-3.58-10.55c-0.47-1.18-2.4-0.67-1.93,0.53
				c1.11,2.82,2.11,5.68,3,8.58c0.46,1.51,1.23,3.31,1.22,4.92c-0.01,2.12-1.58,4.05-3,5.46c-1.7,1.68-3.65,3.11-5.66,4.39
				c-4.67,2.98-9.87,5.35-15.3,6.54c-1.41,0.31-2.28,1.27-3.43,2.11c-1.64,1.21-3.53,2.52-5.59,2.82c-0.84,0.13-2.46,0.1-2.7-0.96
				c-0.11-0.49,0.16-1.11,0.43-1.51c1.54-2.35,4.61-3.62,6.93-5.02C101.35,134.86,100.35,133.13,99.24,133.79L99.24,133.79z"/>
		</g>
	</g>
	<g>
		<g>
			<path d="M55.88,51.72c-1.18-1.59-3.05-2.46-5.04-2.31c-2.07,0.15-3.83,1.35-4.99,3.04c-2.58,3.79-1.35,9.34,1.43,12.69
				c1.61,1.94,4.19,3.05,6.68,2.35c1.24-0.35,0.71-2.28-0.53-1.93c-4.69,1.32-7.29-5.44-6.95-9.03c0.18-1.91,1.21-3.82,2.96-4.71
				c1.51-0.77,3.66-0.5,4.71,0.92C54.91,53.75,56.64,52.75,55.88,51.72L55.88,51.72z"/>
		</g>
	</g>
	<g>
		<g>
			<path d="M113.65,53.71c0.56-2.19,3.56-2.21,5.27-1.61c2.27,0.8,3.76,2.85,4.22,5.16c0.44,2.22-0.12,4.86-2.06,6.22
				c-1.76,1.23-4.05,1.41-6.13,1.32c-1.29-0.06-1.28,1.94,0,2c2.18,0.1,4.46-0.14,6.42-1.16c2.11-1.09,3.43-3.13,3.78-5.46
				c0.74-4.91-2.43-9.91-7.56-10.41c-2.39-0.23-5.22,0.87-5.86,3.4C111.4,54.42,113.33,54.96,113.65,53.71L113.65,53.71z"/>
		</g>
	</g>
	<g>
		<g>
			<path d="M52.62,62.84c1.11,5.39,2.7,10.9,6.07,15.34c3.54,4.67,8.78,7.13,14.32,8.62c3.16,0.85,6.44,1.63,9.72,1.8
				c3.3,0.17,6.52-0.59,9.68-1.43c5.39-1.43,11.03-2.99,15.33-6.73c4.98-4.34,6.66-10.98,8.09-17.15c0.29-1.25-1.64-1.79-1.93-0.53
				c-1.17,5.07-2.4,10.54-5.9,14.58c-3.55,4.11-8.86,5.9-13.93,7.3c-2.92,0.81-5.9,1.71-8.94,1.93c-3.17,0.23-6.29-0.43-9.36-1.15
				c-5.34-1.25-10.77-3.07-14.53-7.28c-3.9-4.36-5.53-10.25-6.69-15.85C54.29,61.05,52.36,61.58,52.62,62.84L52.62,62.84z"/>
		</g>
	</g>
	<g>
		<g>
			<path d="M55.87,51.64c6.86-2.16,13.74-4.32,20.49-6.81c5.38-1.99,10.65-4.52,14.22-9.18c0.78-1.02-0.95-2.02-1.73-1.01
				c-3.46,4.51-8.93,6.8-14.12,8.66c-6.41,2.29-12.9,4.36-19.39,6.41C54.12,50.1,54.64,52.03,55.87,51.64L55.87,51.64z"/>
		</g>
	</g>
	<g>
		<g>
			<path d="M89.56,35.49c1.35,1.95,3.12,3.46,4.92,4.98c1.82,1.55,3.66,3.08,5.55,4.54c3.8,2.93,7.86,5.5,12.4,7.12
				c1.21,0.43,1.74-1.5,0.53-1.93c-4.24-1.52-8.06-3.96-11.61-6.69c-1.76-1.35-3.46-2.78-5.15-4.21c-1.74-1.48-3.59-2.92-4.9-4.82
				C90.56,33.42,88.83,34.42,89.56,35.49L89.56,35.49z"/>
		</g>
	</g>
	<g>
		<g>
			<path d="M49.9,49.19c-2.91-9.69,0.46-20.14,7.64-27.06c7.42-7.14,17.82-10.07,27.96-9.33c5.07,0.37,11.49,1.33,14.78,5.67
				c0.77,1.01,2.51,0.02,1.73-1.01c-3.11-4.11-8.18-5.58-13.07-6.29c-5.73-0.83-11.61-0.63-17.22,0.86
				C61.66,14.7,52.74,21.71,48.85,31.5c-2.29,5.77-2.67,12.27-0.88,18.23C48.34,50.96,50.27,50.43,49.9,49.19L49.9,49.19z"/>
		</g>
	</g>
	<g>
		<g>
			<path d="M101.93,18.72c3.49-0.13,6.69,1.6,9.64,3.27c3.01,1.7,5.14,3.77,6.36,7.05c1.22,3.25,2.43,6.76,2.63,10.25
				c0.21,3.74-0.83,7.4-1.83,10.96c-0.35,1.24,1.58,1.77,1.93,0.53c1.09-3.88,2.2-7.89,1.87-11.97c-0.31-3.87-1.6-7.87-3.12-11.43
				c-1.42-3.32-3.91-5.49-7.01-7.22c-3.21-1.8-6.69-3.58-10.47-3.44C100.65,16.77,100.65,18.77,101.93,18.72L101.93,18.72z"/>
		</g>
	</g>
	<g>
		<g>
			<path d="M50.21,67.59c0.4,3.3,0.04,6.6-1.08,9.72c-0.23,0.64,0.36,1.24,0.96,1.27c2.55,0.12,5.1-0.12,7.58-0.69
				c1.25-0.29,0.72-2.22-0.53-1.93c-2.32,0.53-4.67,0.73-7.05,0.62c0.32,0.42,0.64,0.84,0.96,1.27c1.17-3.27,1.57-6.81,1.15-10.26
				c-0.06-0.54-0.41-1-1-1C50.72,66.59,50.14,67.05,50.21,67.59L50.21,67.59z"/>
		</g>
	</g>
	<g>
		<g>
			<path d="M118.35,66.87c0.32,2.96,1.2,5.79,2.65,8.39c0.29-0.5,0.58-1,0.86-1.5c-3.42,0.06-6.83,0.13-10.25,0.19
				c-1.29,0.02-1.29,2.02,0,2c3.42-0.06,6.83-0.13,10.25-0.19c0.76-0.01,1.24-0.84,0.86-1.5c-1.27-2.27-2.1-4.79-2.38-7.38
				c-0.06-0.54-0.42-1-1-1C118.86,65.87,118.29,66.33,118.35,66.87L118.35,66.87z"/>
		</g>
	</g>
	<g>
		<g>
			<path d="M71.17,86.13c-0.18,6.99,7.01,10.44,13.09,10.25c3.19-0.1,6.51-0.86,9.04-2.9c2.3-1.85,3.78-4.8,3.4-7.78
				c-0.16-1.26-2.17-1.27-2,0c1.47,11.29-21.83,11.99-21.54,0.44C73.21,84.84,71.21,84.84,71.17,86.13L71.17,86.13z"/>
		</g>
	</g>
	<g>
		<g>
			<path d="M67.6,53.34c0.19-0.21,0.4-0.4,0.62-0.59c0.05-0.04,0.11-0.08,0.02-0.02c0.05-0.04,0.1-0.07,0.15-0.11
				c0.12-0.08,0.24-0.16,0.36-0.23c0.12-0.07,0.25-0.14,0.37-0.2c0.06-0.03,0.11-0.05,0.17-0.08c0.27-0.13-0.09,0.03,0.07-0.03
				c0.27-0.1,0.54-0.19,0.81-0.26c0.12-0.03,0.25-0.06,0.37-0.08c0.08-0.01,0.16-0.03,0.23-0.04c-0.11,0.01-0.07,0.01,0.02,0
				c0.28-0.02,0.57-0.04,0.85-0.02c0.14,0.01,0.28,0.02,0.42,0.03c0.16,0.02-0.15-0.03,0.01,0c0.06,0.01,0.12,0.02,0.19,0.03
				c0.29,0.06,0.58,0.14,0.86,0.24c0.49,0.18,1.12-0.2,1.23-0.7c0.13-0.56-0.17-1.04-0.7-1.23c-2.57-0.92-5.64-0.15-7.48,1.86
				c-0.37,0.4-0.39,1.02,0,1.41C66.56,53.71,67.24,53.74,67.6,53.34L67.6,53.34z"/>
		</g>
	</g>
	<g>
		<g>
			<path d="M94.08,52.8c0.02-0.01,0.12-0.07,0.14-0.06c-0.02-0.01-0.18,0.07-0.03,0.02c0.11-0.04,0.21-0.07,0.32-0.1
				c0.1-0.03,0.19-0.05,0.29-0.07c0.06-0.01,0.12-0.02,0.18-0.04c0.14-0.03,0,0.02-0.04,0c0.07,0.02,0.22-0.02,0.3-0.03
				c0.11-0.01,0.22-0.01,0.34-0.01c0.1,0,0.2,0.01,0.3,0.01c0.05,0,0.1,0.01,0.15,0.01c0.14,0.01-0.25-0.04-0.01,0
				c0.2,0.03,0.39,0.08,0.58,0.13c0.11,0.03,0.21,0.07,0.32,0.11c0.02,0.01,0.18,0.07,0.05,0.02c-0.13-0.05,0.03,0.01,0.05,0.02
				c0.19,0.09,0.38,0.19,0.55,0.31c0.04,0.03,0.08,0.05,0.12,0.08c0.02,0.02,0.19,0.15,0.08,0.05c-0.1-0.08,0.03,0.02,0.04,0.04
				c0.05,0.04,0.09,0.08,0.14,0.12c0.39,0.35,1.04,0.41,1.41,0c0.35-0.38,0.41-1.04,0-1.41c-1.71-1.56-4.21-1.91-6.3-0.94
				c-0.48,0.22-0.63,0.94-0.36,1.37C93.03,52.93,93.57,53.03,94.08,52.8L94.08,52.8z"/>
		</g>
	</g>
	<g>
		<g>
			<path d="M84.72,63.26c-1.81-0.35-3.61,0.6-4.26,2.34c-0.61,1.64,0.14,3.64,1.7,4.44c0.87,0.45,1.9,0.58,2.85,0.29
				c0.5-0.16,0.87-0.7,0.7-1.23c-0.16-0.5-0.7-0.87-1.23-0.7c-0.09,0.03-0.19,0.05-0.29,0.08c-0.11,0.02-0.1,0.02,0.05,0
				c-0.05,0.01-0.1,0.01-0.15,0.01c-0.07,0-0.15,0.01-0.22,0c-0.05,0-0.1,0-0.15-0.01c-0.11-0.01-0.1-0.01,0.05,0.01
				c-0.14,0.03-0.37-0.09-0.5-0.13c-0.1-0.04-0.09-0.03,0.03,0.02c-0.04-0.02-0.09-0.04-0.13-0.06c-0.07-0.03-0.13-0.07-0.19-0.11
				c-0.04-0.03-0.08-0.05-0.12-0.08c-0.09-0.06-0.08-0.06,0.03,0.02c-0.07-0.02-0.16-0.15-0.22-0.2c-0.03-0.03-0.21-0.2-0.03-0.03
				c-0.07-0.07-0.12-0.17-0.16-0.25c-0.02-0.04-0.05-0.09-0.07-0.13c-0.05-0.1-0.04-0.09,0.01,0.03c-0.04-0.05-0.06-0.15-0.07-0.21
				c-0.03-0.1-0.05-0.2-0.07-0.29c-0.04-0.2,0.01,0.2,0-0.07c0-0.09-0.01-0.18,0-0.26c0-0.05,0.01-0.1,0.01-0.15
				c0.01-0.11,0.01-0.1-0.01,0.04c0.02,0,0.11-0.46,0.14-0.51c-0.15,0.22,0.03-0.05,0.06-0.1c0.03-0.05,0.07-0.16,0.12-0.19
				c-0.08,0.1-0.09,0.11-0.02,0.03c0.03-0.04,0.06-0.07,0.1-0.11c0.06-0.06,0.13-0.12,0.19-0.18c0.06-0.05,0.04-0.03-0.06,0.04
				c0.04-0.03,0.08-0.06,0.12-0.09c0.08-0.05,0.17-0.1,0.25-0.15c0.04-0.02,0.09-0.04,0.13-0.07c-0.03,0.01-0.07,0.03-0.1,0.04
				c0.07-0.05,0.2-0.07,0.28-0.09c0.07-0.02,0.22-0.08,0.29-0.06c-0.04,0.01-0.08,0.01-0.12,0.02c0.05-0.01,0.1-0.01,0.15-0.01
				c0.1-0.01,0.2-0.01,0.29,0c0.05,0,0.1,0.01,0.15,0.01c-0.14-0.02-0.16-0.02-0.05,0c0.51,0.1,1.1-0.14,1.23-0.7
				C85.53,63.99,85.27,63.36,84.72,63.26L84.72,63.26z"/>
		</g>
	</g>
	<g>
		<g>
			<path d="M76.33,74.9c0.2,1.23,1.25,2.08,2.31,2.58c1.38,0.65,2.87,1.1,4.38,1.27c2.57,0.29,5.43-0.68,6.7-3.07
				c0.6-1.14-1.12-2.15-1.73-1.01c-0.92,1.73-2.92,2.27-4.76,2.1c-1.15-0.1-2.32-0.48-3.38-0.93c-0.69-0.29-1.47-0.67-1.6-1.47
				c-0.09-0.53-0.75-0.83-1.23-0.7C76.46,73.82,76.24,74.36,76.33,74.9L76.33,74.9z"/>
		</g>
	</g>
	<g>
		<g>
			<path d="M44.03,130.35c2.3,1.67,4.7,3.4,6.7,5.42c0.09,0.09,0.33,0.35,0.33,0.36c-0.15-0.36,0.01-0.05-0.13,0.37
				c-0.07,0.24-0.27,0.5-0.43,0.68c-0.54,0.64-1.35,0.96-2.16,1.11c-1.48,0.26-3.13,0.03-4.59-0.24c-2.48-0.46-5.13-1.44-6.58-3.64
				c-1.14-1.72-1.37-3.81-1.15-5.83c0.38-3.47,2.07-7.67,4.78-10c2.48-2.13,6.25-2.85,9.41-2.32c3.23,0.54,5.58,2.16,7.51,4.67
				c0.96,1.25,1.87,2.63,2.43,4.11c0.37,0.97,0.92,2.78-0.31,3.41c-1.5,0.78-3.82-0.92-5.03-1.66c-2.04-1.25-3.98-2.67-5.85-4.15
				c-1-0.79-2.42,0.61-1.41,1.41c1.92,1.52,3.9,2.99,5.98,4.3c1.54,0.96,3.38,2.18,5.26,2.27c1.8,0.09,3.38-1.01,3.72-2.8
				c0.3-1.59-0.31-3.22-1-4.62c-1.36-2.77-3.44-5.57-6.13-7.15c-3.83-2.26-8.62-2.53-12.72-0.84c-4.76,1.96-7.51,7.07-8.42,11.95
				c-0.47,2.55-0.4,5.24,0.82,7.58c1.44,2.76,4.3,4.33,7.23,5.04c2.01,0.48,4.28,0.81,6.33,0.48c2.09-0.33,4.69-2.02,4.35-4.46
				c-0.19-1.41-1.97-2.49-2.97-3.32c-1.61-1.33-3.27-2.62-4.96-3.85C43.99,127.87,42.99,129.6,44.03,130.35L44.03,130.35z"/>
		</g>
	</g>
	<g>
		<g>
			<path d="M49.32,133.69c1.29,0,1.29-2,0-2C48.04,131.69,48.03,133.69,49.32,133.69L49.32,133.69z"/>
		</g>
	</g>
	<g>
		<g>
			<path d="M48.87,133.59c1.06,0.79,2.14,1.57,3.41,1.97c1.26,0.39,2.61,0.34,3.79-0.27c1.15-0.59,2.06-1.74,2.22-3.04
				c0.16-1.3-0.46-2.54-1.22-3.56c-0.32-0.43-0.86-0.65-1.37-0.36c-0.43,0.25-0.68,0.93-0.36,1.37c0.5,0.67,1.12,1.55,0.96,2.42
				c-0.12,0.67-0.8,1.28-1.41,1.52c-1.81,0.71-3.65-0.75-5.02-1.78c-0.43-0.32-1.12-0.07-1.37,0.36
				C48.21,132.74,48.44,133.27,48.87,133.59L48.87,133.59z"/>
		</g>
	</g>
	<g>
		<g>
			<path d="M52.75,135.99c0.42,1.03,0.85,2.07,1.27,3.1c0.26,0.64,1.11,1.06,1.67,0.44c1.58-1.74,3.69-4.05,6.29-3.06
				c0.38,0.14,0.96-0.09,1.13-0.46c1.07-2.35,3.73-3.68,6.24-2.99c-0.24-0.32-0.49-0.64-0.73-0.96c-0.68,5.6-0.71,11.25-0.09,16.86
				c0.42-0.32,0.84-0.64,1.27-0.96c-1.29-0.54-2.34-1.52-3.39-2.41c-1.1-0.94-2.24-1.84-3.41-2.7c-2.4-1.77-4.93-3.36-7.57-4.75
				c-1.14-0.6-2.15,1.12-1.01,1.73c2.73,1.44,5.34,3.09,7.82,4.93c2.3,1.72,4.35,4.02,7.03,5.13c0.57,0.24,1.33-0.37,1.27-0.96
				c-0.62-5.61-0.59-11.26,0.09-16.86c0.05-0.43-0.35-0.86-0.73-0.96c-3.31-0.91-7.07,0.76-8.5,3.91c0.38-0.15,0.75-0.31,1.13-0.46
				c-3.32-1.25-6.17,1.3-8.24,3.58c0.56,0.15,1.11,0.29,1.67,0.44c-0.42-1.03-0.85-2.07-1.27-3.1
				C54.2,134.29,52.26,134.8,52.75,135.99L52.75,135.99z"/>
		</g>
	</g>
	<g>
		<g>
			<path d="M65.45,144.96c0.93-0.53,1.87-1.04,2.82-1.52c0.47-0.24,0.64-0.93,0.36-1.37c-0.31-0.48-0.87-0.61-1.37-0.36
				c-0.96,0.48-1.9,0.99-2.82,1.52c-0.45,0.26-0.65,0.92-0.36,1.37C64.38,145.05,64.97,145.23,65.45,144.96L65.45,144.96z"/>
		</g>
	</g>
	<g>
		<g>
			<path d="M44.67,114.99c-2.2-5.2-4.53-10.35-6.89-15.48c-1.73-3.76-3.21-7.66-5.15-11.31c-0.94-1.77-1.88-3.54-2.68-5.38
				c-0.13-0.3-0.22-0.63-0.36-0.91c-0.26-0.5,0.11-0.2-0.17,0.01c-0.14,0.11,0.29-0.27,0.37-0.34c0.24-0.2,0.52-0.38,0.78-0.55
				c1.75-1.16,3.64-2.13,5.53-3.04c0.89-0.43,1.78-0.84,2.69-1.21c0.63-0.26,1.45-0.37,2.04-0.69c-0.03,0.02-0.29-0.14-0.23-0.06
				c0.1,0.14,0.51,0.57,0.45,0.49c0.6,0.78,1.1,1.65,1.6,2.5c1.59,2.74,3.02,5.57,4.43,8.41c3.92,7.88,7.61,15.87,11.29,23.85
				c3.11,6.72,6.03,13.58,9.46,20.15c0.6,1.14,2.32,0.13,1.73-1.01c-3.12-5.98-5.79-12.21-8.62-18.33
				c-3.87-8.38-7.73-16.77-11.82-25.04c-1.5-3.03-3.01-6.06-4.71-8.98c-0.68-1.17-1.72-3.56-3.2-3.94
				c-1.24-0.32-2.95,0.69-4.04,1.16c-2.08,0.9-4.12,1.93-6.09,3.06c-1.08,0.62-3.14,1.53-3.54,2.85c-0.39,1.26,0.89,3.14,1.41,4.21
				c0.82,1.68,1.71,3.31,2.57,4.97c1.07,2.08,1.88,4.32,2.84,6.45c2.09,4.65,4.28,9.25,6.32,13.92c0.76,1.74,1.51,3.48,2.25,5.23
				C43.44,117.18,45.16,116.17,44.67,114.99L44.67,114.99z"/>
		</g>
	</g>
	<g>
		<g>
			<path d="M58.8,130.07c0.08,0.14,0.15,0.28,0.22,0.43c0.02,0.04,0.04,0.08,0.06,0.12c0.05,0.12-0.02-0.05-0.04-0.08
				c0.03,0.09,0.07,0.18,0.11,0.27c0.14,0.36,0.27,0.73,0.39,1.1c0.26,0.74,0.51,1.51,0.9,2.19c0.26,0.45,0.92,0.65,1.37,0.36
				c0.46-0.3,0.64-0.88,0.36-1.37c-0.08-0.14-0.15-0.28-0.22-0.43c-0.02-0.04-0.04-0.08-0.06-0.12c-0.05-0.12,0.02,0.05,0.04,0.08
				c-0.03-0.09-0.07-0.18-0.11-0.27c-0.14-0.36-0.27-0.73-0.39-1.1c-0.26-0.74-0.51-1.51-0.9-2.19c-0.26-0.45-0.92-0.65-1.37-0.36
				C58.7,128.99,58.52,129.58,58.8,130.07L58.8,130.07z"/>
		</g>
	</g>
	<g>
		<g>
			<path d="M54.21,114.6c-3.52-7.53-7.54-14.82-11.06-22.35c-0.54-1.16-2.27-0.15-1.73,1.01c3.52,7.53,7.54,14.82,11.06,22.35
				C53.03,116.77,54.75,115.76,54.21,114.6L54.21,114.6z"/>
		</g>
	</g>
	<g>
		<g>
			<path d="M36.84,96.67c3.87-2.11,7.84-4.03,11.9-5.75c0.5-0.21,0.61-0.94,0.36-1.37c-0.3-0.51-0.87-0.57-1.37-0.36
				c-4.06,1.72-8.03,3.64-11.9,5.75C34.7,95.56,35.7,97.29,36.84,96.67L36.84,96.67z"/>
		</g>
	</g>
	<g>
		<g>
			<path d="M34.79,91.79c3.95-2.13,8.15-3.76,12.1-5.88c1.13-0.61,0.13-2.34-1.01-1.73c-3.95,2.12-8.15,3.76-12.1,5.88
				C32.65,90.67,33.66,92.4,34.79,91.79L34.79,91.79z"/>
		</g>
	</g>
	<g>
		<g>
			<path d="M111.99,114.84c0.15,0.32,0.29,0.64,0.43,0.96c0.05,0.12-0.02-0.04-0.03-0.07c0.02,0.05,0.04,0.09,0.06,0.14
				c0.04,0.1,0.08,0.19,0.12,0.29c0.08,0.2,0.16,0.39,0.24,0.59c0.31,0.76,0.62,1.52,0.97,2.26c0.23,0.47,0.94,0.64,1.37,0.36
				c0.48-0.31,0.6-0.86,0.36-1.37c-0.15-0.32-0.29-0.64-0.43-0.96c-0.05-0.12,0.02,0.04,0.03,0.07c-0.02-0.05-0.04-0.09-0.06-0.14
				c-0.04-0.1-0.08-0.19-0.12-0.29c-0.08-0.2-0.16-0.39-0.24-0.59c-0.31-0.76-0.62-1.52-0.97-2.26c-0.23-0.47-0.94-0.64-1.37-0.36
				C111.87,113.78,111.75,114.33,111.99,114.84L111.99,114.84z"/>
		</g>
	</g>
	<g>
		<g>
			<path d="M119.05,114.95c-5.48,2.94-11.04,5.73-16.58,8.57c-0.21,0.11-0.41,0.22-0.62,0.32c0.18-0.08,0.4-0.03,0.08-0.07
				c-0.27-0.03-0.58,0.03-0.84,0.04c-1.88,0.08-3.76,0.24-5.61,0.61c-3.69,0.75-6.89,2.82-9.52,5.47c-1.18,1.19-2.49,2.7-2.67,4.44
				c-0.19,1.82,1.09,2.92,2.65,3.56c1.19,0.49,1.71-1.45,0.53-1.93c-3.21-1.31,1.17-5,2.5-6.1c1.16-0.95,2.43-1.87,3.8-2.51
				c1.84-0.86,3.94-1.2,5.95-1.38c1.15-0.11,2.36-0.04,3.5-0.22c0.59-0.09,1.09-0.41,1.61-0.68c2.46-1.26,4.92-2.52,7.38-3.79
				c2.95-1.52,5.91-3.03,8.84-4.6C121.19,116.06,120.18,114.34,119.05,114.95L119.05,114.95z"/>
		</g>
	</g>
	<g>
		<g>
			<path d="M94.64,130.07c-1.39,0.89-2.75,1.83-4.08,2.83c-1.09,0.82-2.24,1.64-3.21,2.62c-0.95,0.96-1.61,2.19-1.36,3.57
				c0.19,1.07,1.05,1.74,1.92,2.28c0.95,0.6,2.26,1.25,3.41,0.95c1.25-0.32,0.72-2.25-0.53-1.93c-0.11,0.02-0.09,0.03,0.04,0
				c-0.06,0-0.11,0-0.17,0c-0.21-0.05,0.14,0.04-0.12-0.02c-0.2-0.05-0.48-0.14-0.63-0.2c-0.49-0.2-0.97-0.49-1.4-0.8
				c-0.12-0.09-0.28-0.23-0.44-0.39c-0.06-0.06-0.14-0.23-0.05-0.05c-0.08-0.15-0.03-0.04-0.06-0.16c-0.13-0.51,0.08-0.97,0.39-1.38
				c0.77-1.03,1.98-1.83,2.98-2.6c1.39-1.06,2.83-2.06,4.31-3C96.73,131.1,95.73,129.37,94.64,130.07L94.64,130.07z"/>
		</g>
	</g>
	<g>
		<g>
			<path d="M111.75,115.17c4.16-3.8,9.53-6.48,15.14-7.17c0.54-0.07,0.99-0.41,1-1c0.01-0.49-0.46-1.07-1-1
				c-6.18,0.76-11.97,3.57-16.56,7.76C109.38,114.63,110.8,116.04,111.75,115.17L111.75,115.17z"/>
		</g>
	</g>
	<g>
		<g>
			<path d="M102.7,84.11c11.51,2.88,18.23,13.52,23.32,23.4c0.59,1.14,2.32,0.13,1.73-1.01c-5.34-10.35-12.49-21.31-24.52-24.32
				C101.98,81.87,101.45,83.8,102.7,84.11L102.7,84.11z"/>
		</g>
	</g>
	<g>
		<g>
			<path d="M107.43,102.93c0.63,5.83,1.66,11.6,2.3,17.42c0.14,1.27,2.14,1.28,2,0c-0.63-5.82-1.66-11.6-2.3-17.42
				C109.29,101.66,107.29,101.65,107.43,102.93L107.43,102.93z"/>
		</g>
	</g>
	<g>
		<g>
			<path d="M64.53,83.14c-5.04,2.48-9.7,5.49-14.02,9.09c-0.99,0.82,0.43,2.23,1.41,1.41c4.19-3.49,8.73-6.37,13.62-8.78
				C66.7,84.29,65.69,82.57,64.53,83.14L64.53,83.14z"/>
		</g>
	</g>
	<g>
		<g>
			<path d="M38.95,106.46c-3.15,2.63-4.93,6.46-6.5,10.16c-0.79,1.87-1.22,3.73-0.89,5.76c0.3,1.85,1.23,3.55,2.56,4.87
				c0.92,0.91,2.33-0.51,1.41-1.41c-1.13-1.12-1.88-2.56-2.07-4.15c-0.22-1.88,0.49-3.58,1.24-5.27c1.4-3.15,2.97-6.29,5.66-8.55
				C41.35,107.05,39.93,105.64,38.95,106.46L38.95,106.46z"/>
		</g>
	</g>
	<g>
		<g>
			<path d="M66.89,128.5c7.96-0.46,15.94-0.56,23.91-0.56c1.29,0,1.29-2,0-2c-7.97,0-15.95,0.1-23.91,0.56
				C65.62,126.57,65.61,128.57,66.89,128.5L66.89,128.5z"/>
		</g>
	</g>
	<g>
		<g>
			<path d="M62.19,115.87c1.16-0.63,2.36-0.25,3.33,0.55c0.62,0.52,0.93,0.92,1.3,1.59c0.08,0.14-0.08-0.23,0.01,0.04
				c0.03,0.08,0.06,0.17,0.09,0.25c0.05,0.17,0.09,0.34,0.13,0.51c0.01,0.05,0.05,0.4,0.03,0.14c0.01,0.12,0.02,0.24,0.03,0.36
				c0.01,0.23,0.01,0.46-0.01,0.69c-0.03,0.4-0.19,1.05-0.38,1.58c-0.28,0.75-0.71,1.45-1.16,2.11c-0.31,0.44-0.08,1.11,0.36,1.37
				c0.5,0.29,1.06,0.09,1.37-0.36c1.33-1.93,2.24-4.32,1.65-6.68c-0.41-1.63-1.64-2.98-3.08-3.8c-1.48-0.84-3.15-0.9-4.65-0.08
				C60.06,114.76,61.06,116.49,62.19,115.87L62.19,115.87z"/>
		</g>
	</g>
	<g>
		<g>
			<path d="M60.18,101.56c-0.52,4.27-0.6,8.59-0.25,12.88c0.11,1.27,2.11,1.28,2,0c-0.36-4.29-0.27-8.6,0.25-12.88
				c0.07-0.54-0.51-1-1-1C60.59,100.56,60.25,101.02,60.18,101.56L60.18,101.56z"/>
		</g>
	</g>
	<g>
		<g>
			<path d="M48.36,138.98c-2.41,5.28-4.82,10.56-7.23,15.85c-0.29,0.63,0.04,1.56,0.86,1.5c9.64-0.62,19.33-0.75,28.98-0.95
				c13.1-0.27,26.21-0.47,39.31-0.24c4.82,0.08,9.69,0.12,14.48,0.7c0.6,0.07,1.19-0.7,0.96-1.27c-2.76-6.83-5.26-13.77-7.5-20.79
				c-0.39-1.22-2.32-0.7-1.93,0.53c2.23,7.02,4.73,13.96,7.5,20.79c0.32-0.42,0.64-0.84,0.96-1.27c-4.15-0.5-8.36-0.57-12.53-0.67
				c-6.13-0.14-12.27-0.14-18.41-0.11c-12.92,0.07-25.84,0.32-38.76,0.72c-4.36,0.14-8.72,0.26-13.07,0.54c0.29,0.5,0.58,1,0.86,1.5
				c2.41-5.28,4.82-10.56,7.23-15.85C50.62,138.83,48.9,137.81,48.36,138.98L48.36,138.98z"/>
		</g>
	</g>
	<ellipse class="st8" cx="71.12" cy="63.39" rx="1.26" ry="2.44"/>
	<ellipse class="st8" cx="96.12" cy="62.57" rx="1.26" ry="2.44"/>
	<g>
		<g>
			<path d="M23.51,69.31c3.63-1.03,7.34-1.69,11.1-1.96c0.55-0.04,0.98-0.43,1-1c0.11-3.77,0.61-7.49,1.49-11.16
				c0.23-0.97-0.94-1.67-1.67-0.97c-1.72,1.64-3.35,3.36-4.89,5.16c0.52,0.07,1.05,0.13,1.57,0.2c-1.57-2.68-2.86-5.49-3.86-8.44
				c-0.21-0.61-0.88-0.93-1.47-0.6c-1.4,0.79-1.42,2.92-1.7,4.32c-0.4,1.97-0.79,3.94-1.19,5.91c0.56-0.15,1.11-0.29,1.67-0.44
				c-2.16-1.76-4.49-3.27-7.01-4.49c-0.95-0.46-1.76,0.45-1.37,1.37c1.58,3.72,3.16,7.44,4.73,11.15c0.5,1.18,2.22,0.16,1.73-1.01
				c-1.58-3.72-3.16-7.44-4.73-11.15c-0.46,0.46-0.91,0.91-1.37,1.37c2.35,1.14,4.58,2.52,6.6,4.17c0.53,0.43,1.51,0.37,1.67-0.44
				c0.33-1.62,0.65-3.24,0.98-4.86c0.16-0.81,0.33-1.62,0.49-2.43c0.08-0.41,0.1-1.51,0.5-1.74c-0.49-0.2-0.98-0.4-1.47-0.6
				c1.05,3.1,2.4,6.09,4.06,8.92c0.31,0.52,1.15,0.7,1.57,0.2c1.54-1.81,3.17-3.53,4.89-5.16c-0.56-0.32-1.11-0.65-1.67-0.97
				c-0.92,3.83-1.44,7.75-1.56,11.69c0.33-0.33,0.67-0.67,1-1c-3.94,0.28-7.83,0.95-11.63,2.03C21.74,67.74,22.26,69.67,23.51,69.31
				L23.51,69.31z"/>
		</g>
	</g>
</g>
<g id="Ebene_5">
</g>
<g id="Ebene_23">
	<ellipse class="st1" cx="71.77" cy="62.46" rx="0.4" ry="0.8"/>
	<ellipse class="st1" cx="96.51" cy="61.75" rx="0.4" ry="0.8"/>
</g>
<g id="Ebene_24">
	<circle class="st9" cx="67.31" cy="71.51" r="2.55"/>
	<circle class="st10" cx="101.93" cy="71.51" r="2.55"/>
</g>
<g id="Ebene_7">
</g>
</svg>
